<svg width="360" height="640" viewBox="0 0 360 640" fill="none" xmlns="http://www.w3.org/2000/svg">
<g clip-path="url(#clip0)">
<rect width="360" height="640" fill="white"/>
<g filter="url(#filter0_dd)">
<rect width="360" height="56" fill="#00BCD4"/>
<path d="M88.7109 29.7168V35H86.2402V20.7812H91.6797C93.2682 20.7812 94.528 21.1947 95.459 22.0215C96.3965 22.8483 96.8652 23.9421 96.8652 25.3027C96.8652 26.696 96.4062 27.7799 95.4883 28.5547C94.5768 29.3294 93.2975 29.7168 91.6504 29.7168H88.7109ZM88.7109 27.7344H91.6797C92.5586 27.7344 93.2292 27.5293 93.6914 27.1191C94.1536 26.7025 94.3848 26.1035 94.3848 25.3223C94.3848 24.554 94.1504 23.9421 93.6816 23.4863C93.2129 23.0241 92.5684 22.7865 91.748 22.7734H88.7109V27.7344ZM101.328 35H98.9551V24.4336H101.328V35ZM98.8086 21.6895C98.8086 21.3249 98.9225 21.0221 99.1504 20.7812C99.3848 20.5404 99.7168 20.4199 100.146 20.4199C100.576 20.4199 100.908 20.5404 101.143 20.7812C101.377 21.0221 101.494 21.3249 101.494 21.6895C101.494 22.0475 101.377 22.347 101.143 22.5879C100.908 22.8223 100.576 22.9395 100.146 22.9395C99.7168 22.9395 99.3848 22.8223 99.1504 22.5879C98.9225 22.347 98.8086 22.0475 98.8086 21.6895ZM108.262 33.3008C108.854 33.3008 109.346 33.1283 109.736 32.7832C110.127 32.4382 110.335 32.0117 110.361 31.5039H112.598C112.572 32.1615 112.367 32.7767 111.982 33.3496C111.598 33.916 111.077 34.3652 110.42 34.6973C109.762 35.0293 109.053 35.1953 108.291 35.1953C106.813 35.1953 105.641 34.7168 104.775 33.7598C103.91 32.8027 103.477 31.4811 103.477 29.7949V29.5508C103.477 27.9427 103.906 26.6569 104.766 25.6934C105.625 24.7233 106.797 24.2383 108.281 24.2383C109.538 24.2383 110.56 24.6061 111.348 25.3418C112.142 26.071 112.559 27.0312 112.598 28.2227H110.361C110.335 27.6172 110.127 27.1191 109.736 26.7285C109.352 26.3379 108.861 26.1426 108.262 26.1426C107.493 26.1426 106.901 26.4225 106.484 26.9824C106.068 27.5358 105.856 28.3789 105.85 29.5117V29.8926C105.85 31.0384 106.055 31.8945 106.465 32.4609C106.882 33.0208 107.48 33.3008 108.262 33.3008ZM117.363 21.8652V24.4336H119.229V26.1914H117.363V32.0898C117.363 32.4935 117.441 32.7865 117.598 32.9688C117.76 33.1445 118.047 33.2324 118.457 33.2324C118.73 33.2324 119.007 33.1999 119.287 33.1348V34.9707C118.747 35.1204 118.226 35.1953 117.725 35.1953C115.902 35.1953 114.99 34.1895 114.99 32.1777V26.1914H113.252V24.4336H114.99V21.8652H117.363ZM127.451 33.9648C126.755 34.7852 125.765 35.1953 124.482 35.1953C123.337 35.1953 122.467 34.86 121.875 34.1895C121.289 33.5189 120.996 32.5488 120.996 31.2793V24.4336H123.369V31.25C123.369 32.5911 123.926 33.2617 125.039 33.2617C126.191 33.2617 126.969 32.8483 127.373 32.0215V24.4336H129.746V35H127.51L127.451 33.9648ZM137.695 26.6016C137.383 26.5495 137.061 26.5234 136.729 26.5234C135.641 26.5234 134.909 26.9401 134.531 27.7734V35H132.158V24.4336H134.424L134.482 25.6152C135.055 24.6973 135.85 24.2383 136.865 24.2383C137.204 24.2383 137.484 24.2839 137.705 24.375L137.695 26.6016ZM143.652 35.1953C142.148 35.1953 140.928 34.7233 139.99 33.7793C139.059 32.8288 138.594 31.5658 138.594 29.9902V29.6973C138.594 28.6426 138.796 27.7018 139.199 26.875C139.609 26.0417 140.182 25.3939 140.918 24.9316C141.654 24.4694 142.474 24.2383 143.379 24.2383C144.818 24.2383 145.928 24.6973 146.709 25.6152C147.497 26.5332 147.891 27.832 147.891 29.5117V30.4688H140.986C141.058 31.3411 141.348 32.0312 141.855 32.5391C142.37 33.0469 143.014 33.3008 143.789 33.3008C144.876 33.3008 145.762 32.8613 146.445 31.9824L147.725 33.2031C147.301 33.8346 146.735 34.3262 146.025 34.6777C145.322 35.0228 144.531 35.1953 143.652 35.1953ZM143.369 26.1426C142.718 26.1426 142.191 26.3704 141.787 26.8262C141.39 27.2819 141.136 27.9167 141.025 28.7305H145.547V28.5547C145.495 27.7604 145.283 27.1615 144.912 26.7578C144.541 26.3477 144.027 26.1426 143.369 26.1426ZM154.277 29.6191C154.277 28.584 154.482 27.653 154.893 26.8262C155.303 25.9928 155.879 25.3548 156.621 24.9121C157.363 24.4629 158.216 24.2383 159.18 24.2383C160.605 24.2383 161.761 24.6973 162.646 25.6152C163.538 26.5332 164.02 27.7507 164.092 29.2676L164.102 29.8242C164.102 30.8659 163.9 31.7969 163.496 32.6172C163.099 33.4375 162.526 34.0723 161.777 34.5215C161.035 34.9707 160.176 35.1953 159.199 35.1953C157.708 35.1953 156.514 34.7005 155.615 33.7109C154.723 32.7148 154.277 31.39 154.277 29.7363V29.6191ZM156.65 29.8242C156.65 30.9115 156.875 31.7643 157.324 32.3828C157.773 32.9948 158.398 33.3008 159.199 33.3008C160 33.3008 160.622 32.9883 161.064 32.3633C161.514 31.7383 161.738 30.8236 161.738 29.6191C161.738 28.5514 161.507 27.7051 161.045 27.0801C160.589 26.4551 159.967 26.1426 159.18 26.1426C158.405 26.1426 157.79 26.4518 157.334 27.0703C156.878 27.6823 156.65 28.6003 156.65 29.8242ZM166.943 35V26.1914H165.332V24.4336H166.943V23.4668C166.943 22.2949 167.269 21.39 167.92 20.752C168.571 20.1139 169.482 19.7949 170.654 19.7949C171.071 19.7949 171.514 19.8535 171.982 19.9707L171.924 21.8262C171.663 21.7741 171.361 21.748 171.016 21.748C169.883 21.748 169.316 22.3307 169.316 23.4961V24.4336H171.465V26.1914H169.316V35H166.943ZM181.152 21.8652V24.4336H183.018V26.1914H181.152V32.0898C181.152 32.4935 181.23 32.7865 181.387 32.9688C181.549 33.1445 181.836 33.2324 182.246 33.2324C182.52 33.2324 182.796 33.1999 183.076 33.1348V34.9707C182.536 35.1204 182.015 35.1953 181.514 35.1953C179.691 35.1953 178.779 34.1895 178.779 32.1777V26.1914H177.041V24.4336H178.779V21.8652H181.152ZM187.178 25.5859C187.952 24.6875 188.932 24.2383 190.117 24.2383C192.37 24.2383 193.512 25.5241 193.545 28.0957V35H191.172V28.1836C191.172 27.4544 191.012 26.9401 190.693 26.6406C190.381 26.3346 189.919 26.1816 189.307 26.1816C188.356 26.1816 187.646 26.6048 187.178 27.4512V35H184.805V20H187.178V25.5859ZM200.605 35.1953C199.102 35.1953 197.881 34.7233 196.943 33.7793C196.012 32.8288 195.547 31.5658 195.547 29.9902V29.6973C195.547 28.6426 195.749 27.7018 196.152 26.875C196.562 26.0417 197.135 25.3939 197.871 24.9316C198.607 24.4694 199.427 24.2383 200.332 24.2383C201.771 24.2383 202.881 24.6973 203.662 25.6152C204.45 26.5332 204.844 27.832 204.844 29.5117V30.4688H197.939C198.011 31.3411 198.301 32.0312 198.809 32.5391C199.323 33.0469 199.967 33.3008 200.742 33.3008C201.829 33.3008 202.715 32.8613 203.398 31.9824L204.678 33.2031C204.255 33.8346 203.688 34.3262 202.979 34.6777C202.275 35.0228 201.484 35.1953 200.605 35.1953ZM200.322 26.1426C199.671 26.1426 199.144 26.3704 198.74 26.8262C198.343 27.2819 198.089 27.9167 197.979 28.7305H202.5V28.5547C202.448 27.7604 202.236 27.1615 201.865 26.7578C201.494 26.3477 200.98 26.1426 200.322 26.1426ZM216.914 31.9043L220.527 20.7812H223.242L218.125 35H215.732L210.635 20.7812H213.34L216.914 31.9043ZM227.148 35H224.775V24.4336H227.148V35ZM224.629 21.6895C224.629 21.3249 224.743 21.0221 224.971 20.7812C225.205 20.5404 225.537 20.4199 225.967 20.4199C226.396 20.4199 226.729 20.5404 226.963 20.7812C227.197 21.0221 227.314 21.3249 227.314 21.6895C227.314 22.0475 227.197 22.347 226.963 22.5879C226.729 22.8223 226.396 22.9395 225.967 22.9395C225.537 22.9395 225.205 22.8223 224.971 22.5879C224.743 22.347 224.629 22.0475 224.629 21.6895ZM229.297 29.6191C229.297 28.584 229.502 27.653 229.912 26.8262C230.322 25.9928 230.898 25.3548 231.641 24.9121C232.383 24.4629 233.236 24.2383 234.199 24.2383C235.625 24.2383 236.781 24.6973 237.666 25.6152C238.558 26.5332 239.04 27.7507 239.111 29.2676L239.121 29.8242C239.121 30.8659 238.919 31.7969 238.516 32.6172C238.118 33.4375 237.546 34.0723 236.797 34.5215C236.055 34.9707 235.195 35.1953 234.219 35.1953C232.728 35.1953 231.533 34.7005 230.635 33.7109C229.743 32.7148 229.297 31.39 229.297 29.7363V29.6191ZM231.67 29.8242C231.67 30.9115 231.895 31.7643 232.344 32.3828C232.793 32.9948 233.418 33.3008 234.219 33.3008C235.02 33.3008 235.641 32.9883 236.084 32.3633C236.533 31.7383 236.758 30.8236 236.758 29.6191C236.758 28.5514 236.527 27.7051 236.064 27.0801C235.609 26.4551 234.987 26.1426 234.199 26.1426C233.424 26.1426 232.809 26.4518 232.354 27.0703C231.898 27.6823 231.67 28.6003 231.67 29.8242ZM243.652 35H241.279V20H243.652V35ZM252.559 35C252.454 34.7982 252.363 34.4694 252.285 34.0137C251.53 34.8014 250.605 35.1953 249.512 35.1953C248.451 35.1953 247.585 34.8926 246.914 34.2871C246.243 33.6816 245.908 32.9329 245.908 32.041C245.908 30.9147 246.325 30.0521 247.158 29.4531C247.998 28.8477 249.196 28.5449 250.752 28.5449H252.207V27.8516C252.207 27.3047 252.054 26.8685 251.748 26.543C251.442 26.2109 250.977 26.0449 250.352 26.0449C249.811 26.0449 249.368 26.1816 249.023 26.4551C248.678 26.722 248.506 27.0638 248.506 27.4805H246.133C246.133 26.901 246.325 26.3607 246.709 25.8594C247.093 25.3516 247.614 24.9544 248.271 24.668C248.936 24.3815 249.674 24.2383 250.488 24.2383C251.725 24.2383 252.712 24.5508 253.447 25.1758C254.183 25.7943 254.561 26.6667 254.58 27.793V32.5586C254.58 33.5091 254.714 34.2676 254.98 34.834V35H252.559ZM249.951 33.291C250.42 33.291 250.859 33.1771 251.27 32.9492C251.686 32.7214 251.999 32.4154 252.207 32.0312V30.0391H250.928C250.049 30.0391 249.388 30.1921 248.945 30.498C248.503 30.804 248.281 31.237 248.281 31.7969C248.281 32.2526 248.431 32.6172 248.73 32.8906C249.036 33.1576 249.443 33.291 249.951 33.291ZM260.039 21.8652V24.4336H261.904V26.1914H260.039V32.0898C260.039 32.4935 260.117 32.7865 260.273 32.9688C260.436 33.1445 260.723 33.2324 261.133 33.2324C261.406 33.2324 261.683 33.1999 261.963 33.1348V34.9707C261.423 35.1204 260.902 35.1953 260.4 35.1953C258.577 35.1953 257.666 34.1895 257.666 32.1777V26.1914H255.928V24.4336H257.666V21.8652H260.039ZM266.25 35H263.877V24.4336H266.25V35ZM263.73 21.6895C263.73 21.3249 263.844 21.0221 264.072 20.7812C264.307 20.5404 264.639 20.4199 265.068 20.4199C265.498 20.4199 265.83 20.5404 266.064 20.7812C266.299 21.0221 266.416 21.3249 266.416 21.6895C266.416 22.0475 266.299 22.347 266.064 22.5879C265.83 22.8223 265.498 22.9395 265.068 22.9395C264.639 22.9395 264.307 22.8223 264.072 22.5879C263.844 22.347 263.73 22.0475 263.73 21.6895ZM268.398 29.6191C268.398 28.584 268.604 27.653 269.014 26.8262C269.424 25.9928 270 25.3548 270.742 24.9121C271.484 24.4629 272.337 24.2383 273.301 24.2383C274.727 24.2383 275.882 24.6973 276.768 25.6152C277.66 26.5332 278.141 27.7507 278.213 29.2676L278.223 29.8242C278.223 30.8659 278.021 31.7969 277.617 32.6172C277.22 33.4375 276.647 34.0723 275.898 34.5215C275.156 34.9707 274.297 35.1953 273.32 35.1953C271.829 35.1953 270.635 34.7005 269.736 33.7109C268.844 32.7148 268.398 31.39 268.398 29.7363V29.6191ZM270.771 29.8242C270.771 30.9115 270.996 31.7643 271.445 32.3828C271.895 32.9948 272.52 33.3008 273.32 33.3008C274.121 33.3008 274.743 32.9883 275.186 32.3633C275.635 31.7383 275.859 30.8236 275.859 29.6191C275.859 28.5514 275.628 27.7051 275.166 27.0801C274.71 26.4551 274.089 26.1426 273.301 26.1426C272.526 26.1426 271.911 26.4518 271.455 27.0703C270.999 27.6823 270.771 28.6003 270.771 29.8242ZM282.432 24.4336L282.5 25.6543C283.281 24.7103 284.307 24.2383 285.576 24.2383C287.777 24.2383 288.896 25.498 288.936 28.0176V35H286.562V28.1543C286.562 27.4837 286.416 26.9889 286.123 26.6699C285.837 26.3444 285.365 26.1816 284.707 26.1816C283.75 26.1816 283.037 26.6146 282.568 27.4805V35H280.195V24.4336H282.432Z" fill="white"/>
<path fill-rule="evenodd" clip-rule="evenodd" d="M35.4 23.4L34 22L28 28L34 34L35.4 32.6L30.8 28L35.4 23.4Z" fill="white"/>
</g>
<rect x="105" y="172" width="150" height="36" rx="2" fill="#00BCD4"/>
<path d="M122.789 186.441H119.686V195H117.97V186.441H114.894V185.047H122.789V186.441ZM129.353 192.683H125.497L124.69 195H122.893L126.652 185.047H128.204L131.971 195H130.166L129.353 192.683ZM125.982 191.288H128.867L127.425 187.159L125.982 191.288ZM136.463 190.7L135.335 191.896V195H133.605V185.047H135.335V189.716L136.292 188.533L139.204 185.047H141.296L137.598 189.456L141.508 195H139.457L136.463 190.7ZM148.755 190.557H144.667V193.619H149.445V195H142.938V185.047H149.397V186.441H144.667V189.189H148.755V190.557ZM162.121 186.441H159.018V195H157.302V186.441H154.226V185.047H162.121V186.441ZM171.836 195H170.113V190.577H165.663V195H163.934V185.047H165.663V189.189H170.113V185.047H171.836V195ZM180.204 190.557H176.116V193.619H180.895V195H174.387V185.047H180.847V186.441H176.116V189.189H180.204V190.557ZM188.519 191.302V195H186.789V185.047H190.597C191.709 185.047 192.59 185.336 193.242 185.915C193.898 186.494 194.227 187.259 194.227 188.212C194.227 189.187 193.905 189.946 193.263 190.488C192.625 191.031 191.729 191.302 190.576 191.302H188.519ZM188.519 189.914H190.597C191.212 189.914 191.681 189.771 192.005 189.483C192.328 189.192 192.49 188.772 192.49 188.226C192.49 187.688 192.326 187.259 191.998 186.94C191.67 186.617 191.219 186.451 190.645 186.441H188.519V189.914ZM198.069 195H196.347V185.047H198.069V195ZM208.29 191.76C208.19 192.822 207.798 193.651 207.114 194.248C206.431 194.84 205.521 195.137 204.387 195.137C203.594 195.137 202.894 194.95 202.288 194.576C201.687 194.198 201.222 193.662 200.894 192.97C200.565 192.277 200.395 191.473 200.381 190.557V189.627C200.381 188.688 200.547 187.861 200.88 187.146C201.213 186.43 201.689 185.879 202.309 185.491C202.933 185.104 203.653 184.91 204.469 184.91C205.567 184.91 206.451 185.209 207.121 185.806C207.791 186.403 208.181 187.246 208.29 188.335H206.567C206.485 187.619 206.276 187.104 205.938 186.79C205.606 186.471 205.116 186.312 204.469 186.312C203.717 186.312 203.138 186.587 202.732 187.139C202.331 187.686 202.126 188.49 202.117 189.552V190.434C202.117 191.509 202.309 192.329 202.691 192.895C203.079 193.46 203.644 193.742 204.387 193.742C205.066 193.742 205.576 193.59 205.918 193.284C206.26 192.979 206.476 192.471 206.567 191.76H208.29ZM217.328 186.441H214.225V195H212.509V186.441H209.433V185.047H217.328V186.441ZM226.421 185.047V191.698C226.421 192.756 226.081 193.594 225.402 194.214C224.728 194.829 223.828 195.137 222.702 195.137C221.563 195.137 220.658 194.834 219.988 194.228C219.318 193.617 218.983 192.771 218.983 191.691V185.047H220.706V191.705C220.706 192.37 220.875 192.879 221.212 193.229C221.549 193.58 222.046 193.756 222.702 193.756C224.033 193.756 224.698 193.054 224.698 191.65V185.047H226.421ZM232.431 191.165H230.503V195H228.773V185.047H232.273C233.422 185.047 234.308 185.304 234.933 185.819C235.557 186.334 235.869 187.079 235.869 188.055C235.869 188.72 235.707 189.278 235.384 189.729C235.065 190.176 234.618 190.52 234.044 190.762L236.279 194.911V195H234.427L232.431 191.165ZM230.503 189.777H232.28C232.864 189.777 233.319 189.632 233.647 189.34C233.976 189.044 234.14 188.64 234.14 188.13C234.14 187.597 233.987 187.184 233.682 186.893C233.381 186.601 232.93 186.451 232.328 186.441H230.503V189.777ZM243.827 190.557H239.739V193.619H244.518V195H238.01V185.047H244.47V186.441H239.739V189.189H243.827V190.557Z" fill="white"/>
<rect x="132" y="522" width="96" height="36" rx="2" fill="black" fill-opacity="0.12"/>
<path d="M156.156 541.76C156.056 542.822 155.664 543.651 154.98 544.248C154.297 544.84 153.388 545.137 152.253 545.137C151.46 545.137 150.76 544.95 150.154 544.576C149.553 544.198 149.088 543.662 148.76 542.97C148.432 542.277 148.261 541.473 148.247 540.557V539.627C148.247 538.688 148.413 537.861 148.746 537.146C149.079 536.43 149.555 535.879 150.175 535.491C150.799 535.104 151.519 534.91 152.335 534.91C153.433 534.91 154.317 535.209 154.987 535.806C155.657 536.403 156.047 537.246 156.156 538.335H154.434C154.352 537.619 154.142 537.104 153.805 536.79C153.472 536.471 152.982 536.312 152.335 536.312C151.583 536.312 151.004 536.587 150.599 537.139C150.198 537.686 149.993 538.49 149.983 539.552V540.434C149.983 541.509 150.175 542.329 150.558 542.895C150.945 543.46 151.51 543.742 152.253 543.742C152.932 543.742 153.442 543.59 153.784 543.284C154.126 542.979 154.342 542.471 154.434 541.76H156.156ZM166.151 540.283C166.151 541.258 165.983 542.115 165.646 542.854C165.308 543.587 164.825 544.152 164.196 544.549C163.572 544.941 162.852 545.137 162.036 545.137C161.229 545.137 160.509 544.941 159.876 544.549C159.247 544.152 158.759 543.59 158.413 542.86C158.071 542.131 157.898 541.29 157.894 540.338V539.777C157.894 538.807 158.064 537.95 158.406 537.207C158.753 536.464 159.238 535.897 159.862 535.505C160.491 535.108 161.211 534.91 162.022 534.91C162.834 534.91 163.551 535.106 164.176 535.498C164.805 535.885 165.29 536.446 165.632 537.18C165.974 537.909 166.147 538.759 166.151 539.729V540.283ZM164.422 539.764C164.422 538.661 164.212 537.815 163.793 537.228C163.378 536.64 162.788 536.346 162.022 536.346C161.275 536.346 160.689 536.64 160.266 537.228C159.846 537.811 159.632 538.638 159.623 539.709V540.283C159.623 541.377 159.835 542.222 160.259 542.819C160.687 543.416 161.28 543.715 162.036 543.715C162.802 543.715 163.39 543.423 163.8 542.84C164.215 542.257 164.422 541.404 164.422 540.283V539.764ZM176.27 545H174.54L170.104 537.938V545H168.374V535.047H170.104L174.554 542.136V535.047H176.27V545ZM184.549 540.782H180.543V545H178.813V535.047H185.137V536.441H180.543V539.401H184.549V540.782ZM188.836 545H187.113V535.047H188.836V545ZM195.119 541.165H193.191V545H191.462V535.047H194.962C196.11 535.047 196.997 535.304 197.621 535.819C198.245 536.334 198.558 537.079 198.558 538.055C198.558 538.72 198.396 539.278 198.072 539.729C197.753 540.176 197.307 540.52 196.732 540.762L198.968 544.911V545H197.115L195.119 541.165ZM193.191 539.777H194.969C195.552 539.777 196.008 539.632 196.336 539.34C196.664 539.044 196.828 538.64 196.828 538.13C196.828 537.597 196.675 537.184 196.37 536.893C196.069 536.601 195.618 536.451 195.017 536.441H193.191V539.777ZM202.94 535.047L205.812 542.676L208.676 535.047H210.911V545H209.188V541.719L209.359 537.33L206.42 545H205.183L202.25 537.337L202.421 541.719V545H200.698V535.047H202.94Z" fill="black" fill-opacity="0.38"/>
<path d="M20 384C20 381.791 21.7909 380 24 380H345C347.209 380 349 381.791 349 384V436H20V384Z" fill="#333333" fill-opacity="0.06"/>
<path d="M20 434.911H349V435.911H20V434.911Z" fill="black" fill-opacity="0.38"/>
<path d="M33.3203 413V401.625H36.5312C37.5208 401.625 38.3958 401.844 39.1562 402.281C39.9167 402.719 40.5026 403.341 40.9141 404.148C41.3307 404.956 41.5417 405.883 41.5469 406.93V407.656C41.5469 408.729 41.3385 409.669 40.9219 410.477C40.5104 411.284 39.9193 411.904 39.1484 412.336C38.3828 412.768 37.4896 412.99 36.4688 413H33.3203ZM34.8203 402.859V411.773H36.3984C37.5547 411.773 38.4531 411.414 39.0938 410.695C39.7396 409.977 40.0625 408.953 40.0625 407.625V406.961C40.0625 405.669 39.7578 404.667 39.1484 403.953C38.5443 403.234 37.6849 402.87 36.5703 402.859H34.8203ZM45.1641 413H43.7188V404.547H45.1641V413ZM43.6016 402.305C43.6016 402.07 43.6719 401.872 43.8125 401.711C43.9583 401.549 44.1719 401.469 44.4531 401.469C44.7344 401.469 44.9479 401.549 45.0938 401.711C45.2396 401.872 45.3125 402.07 45.3125 402.305C45.3125 402.539 45.2396 402.734 45.0938 402.891C44.9479 403.047 44.7344 403.125 44.4531 403.125C44.1719 403.125 43.9583 403.047 43.8125 402.891C43.6719 402.734 43.6016 402.539 43.6016 402.305ZM52.4062 410.758C52.4062 410.367 52.2578 410.065 51.9609 409.852C51.6693 409.633 51.1562 409.445 50.4219 409.289C49.6927 409.133 49.112 408.945 48.6797 408.727C48.2526 408.508 47.9349 408.247 47.7266 407.945C47.5234 407.643 47.4219 407.284 47.4219 406.867C47.4219 406.174 47.7135 405.589 48.2969 405.109C48.8854 404.63 49.6354 404.391 50.5469 404.391C51.5052 404.391 52.2812 404.638 52.875 405.133C53.474 405.628 53.7734 406.26 53.7734 407.031H52.3203C52.3203 406.635 52.151 406.294 51.8125 406.008C51.4792 405.721 51.0573 405.578 50.5469 405.578C50.0208 405.578 49.6094 405.693 49.3125 405.922C49.0156 406.151 48.8672 406.451 48.8672 406.82C48.8672 407.169 49.0052 407.432 49.2812 407.609C49.5573 407.786 50.0547 407.956 50.7734 408.117C51.4974 408.279 52.0833 408.471 52.5312 408.695C52.9792 408.919 53.3099 409.19 53.5234 409.508C53.7422 409.82 53.8516 410.203 53.8516 410.656C53.8516 411.411 53.5495 412.018 52.9453 412.477C52.3411 412.93 51.5573 413.156 50.5938 413.156C49.9167 413.156 49.3177 413.036 48.7969 412.797C48.276 412.557 47.8672 412.224 47.5703 411.797C47.2786 411.365 47.1328 410.898 47.1328 410.398H48.5781C48.6042 410.883 48.7969 411.268 49.1562 411.555C49.5208 411.836 50 411.977 50.5938 411.977C51.1406 411.977 51.5781 411.867 51.9062 411.648C52.2396 411.424 52.4062 411.128 52.4062 410.758ZM60.9531 413C60.8698 412.833 60.8021 412.536 60.75 412.109C60.0781 412.807 59.276 413.156 58.3438 413.156C57.5104 413.156 56.8255 412.922 56.2891 412.453C55.7578 411.979 55.4922 411.38 55.4922 410.656C55.4922 409.776 55.8255 409.094 56.4922 408.609C57.1641 408.12 58.1068 407.875 59.3203 407.875H60.7266V407.211C60.7266 406.706 60.5755 406.305 60.2734 406.008C59.9714 405.706 59.526 405.555 58.9375 405.555C58.4219 405.555 57.9896 405.685 57.6406 405.945C57.2917 406.206 57.1172 406.521 57.1172 406.891H55.6641C55.6641 406.469 55.8125 406.062 56.1094 405.672C56.4115 405.276 56.8177 404.964 57.3281 404.734C57.8438 404.505 58.4089 404.391 59.0234 404.391C59.9974 404.391 60.7604 404.635 61.3125 405.125C61.8646 405.609 62.151 406.279 62.1719 407.133V411.023C62.1719 411.799 62.2708 412.417 62.4688 412.875V413H60.9531ZM58.5547 411.898C59.0078 411.898 59.4375 411.781 59.8438 411.547C60.25 411.312 60.5443 411.008 60.7266 410.633V408.898H59.5938C57.8229 408.898 56.9375 409.417 56.9375 410.453C56.9375 410.906 57.0885 411.26 57.3906 411.516C57.6927 411.771 58.0807 411.898 58.5547 411.898ZM71.5938 408.867C71.5938 410.159 71.2969 411.198 70.7031 411.984C70.1094 412.766 69.3125 413.156 68.3125 413.156C67.2448 413.156 66.4193 412.779 65.8359 412.023L65.7656 413H64.4375V401H65.8828V405.477C66.4661 404.753 67.2708 404.391 68.2969 404.391C69.3229 404.391 70.1276 404.779 70.7109 405.555C71.2995 406.331 71.5938 407.393 71.5938 408.742V408.867ZM70.1484 408.703C70.1484 407.719 69.9583 406.958 69.5781 406.422C69.1979 405.885 68.651 405.617 67.9375 405.617C66.9844 405.617 66.2995 406.06 65.8828 406.945V410.602C66.3255 411.487 67.0156 411.93 67.9531 411.93C68.6458 411.93 69.1849 411.661 69.5703 411.125C69.9557 410.589 70.1484 409.781 70.1484 408.703ZM74.9922 413H73.5469V401H74.9922V413ZM80.8203 413.156C79.6745 413.156 78.7422 412.781 78.0234 412.031C77.3047 411.276 76.9453 410.268 76.9453 409.008V408.742C76.9453 407.904 77.1042 407.156 77.4219 406.5C77.7448 405.839 78.1927 405.323 78.7656 404.953C79.3438 404.578 79.9688 404.391 80.6406 404.391C81.7396 404.391 82.5938 404.753 83.2031 405.477C83.8125 406.201 84.1172 407.237 84.1172 408.586V409.188H78.3906C78.4115 410.021 78.6536 410.695 79.1172 411.211C79.5859 411.721 80.1797 411.977 80.8984 411.977C81.4089 411.977 81.8411 411.872 82.1953 411.664C82.5495 411.456 82.8594 411.18 83.125 410.836L84.0078 411.523C83.2995 412.612 82.237 413.156 80.8203 413.156ZM80.6406 405.578C80.0573 405.578 79.5677 405.792 79.1719 406.219C78.776 406.641 78.5312 407.234 78.4375 408H82.6719V407.891C82.6302 407.156 82.4323 406.589 82.0781 406.188C81.724 405.781 81.2448 405.578 80.6406 405.578ZM85.4453 408.703C85.4453 407.406 85.7526 406.365 86.3672 405.578C86.9818 404.786 87.7865 404.391 88.7812 404.391C89.7708 404.391 90.5547 404.729 91.1328 405.406V401H92.5781V413H91.25L91.1797 412.094C90.6016 412.802 89.7969 413.156 88.7656 413.156C87.7865 413.156 86.987 412.755 86.3672 411.953C85.7526 411.151 85.4453 410.104 85.4453 408.812V408.703ZM86.8906 408.867C86.8906 409.826 87.0885 410.576 87.4844 411.117C87.8802 411.659 88.4271 411.93 89.125 411.93C90.0417 411.93 90.7109 411.518 91.1328 410.695V406.812C90.7005 406.016 90.0365 405.617 89.1406 405.617C88.4323 405.617 87.8802 405.891 87.4844 406.438C87.0885 406.984 86.8906 407.794 86.8906 408.867ZM100.758 402.5V404.547H102.336V405.664H100.758V410.906C100.758 411.245 100.828 411.5 100.969 411.672C101.109 411.839 101.349 411.922 101.688 411.922C101.854 411.922 102.083 411.891 102.375 411.828V413C101.995 413.104 101.625 413.156 101.266 413.156C100.62 413.156 100.133 412.961 99.8047 412.57C99.4766 412.18 99.3125 411.625 99.3125 410.906V405.664H97.7734V404.547H99.3125V402.5H100.758ZM107.539 413.156C106.393 413.156 105.461 412.781 104.742 412.031C104.023 411.276 103.664 410.268 103.664 409.008V408.742C103.664 407.904 103.823 407.156 104.141 406.5C104.464 405.839 104.911 405.323 105.484 404.953C106.062 404.578 106.688 404.391 107.359 404.391C108.458 404.391 109.312 404.753 109.922 405.477C110.531 406.201 110.836 407.237 110.836 408.586V409.188H105.109C105.13 410.021 105.372 410.695 105.836 411.211C106.305 411.721 106.898 411.977 107.617 411.977C108.128 411.977 108.56 411.872 108.914 411.664C109.268 411.456 109.578 411.18 109.844 410.836L110.727 411.523C110.018 412.612 108.956 413.156 107.539 413.156ZM107.359 405.578C106.776 405.578 106.286 405.792 105.891 406.219C105.495 406.641 105.25 407.234 105.156 408H109.391V407.891C109.349 407.156 109.151 406.589 108.797 406.188C108.443 405.781 107.964 405.578 107.359 405.578ZM115.352 407.633L117.227 404.547H118.914L116.148 408.727L119 413H117.328L115.375 409.836L113.422 413H111.742L114.594 408.727L111.828 404.547H113.5L115.352 407.633ZM122.414 402.5V404.547H123.992V405.664H122.414V410.906C122.414 411.245 122.484 411.5 122.625 411.672C122.766 411.839 123.005 411.922 123.344 411.922C123.51 411.922 123.74 411.891 124.031 411.828V413C123.651 413.104 123.281 413.156 122.922 413.156C122.276 413.156 121.789 412.961 121.461 412.57C121.133 412.18 120.969 411.625 120.969 410.906V405.664H119.43V404.547H120.969V402.5H122.414ZM130.141 413V405.664H128.805V404.547H130.141V403.828C130.141 402.885 130.409 402.151 130.945 401.625C131.487 401.099 132.25 400.836 133.234 400.836C133.818 400.836 134.555 400.995 135.445 401.312L135.203 402.531C134.552 402.271 133.932 402.141 133.344 402.141C132.724 402.141 132.276 402.281 132 402.562C131.729 402.839 131.594 403.255 131.594 403.812V404.547H133.32V405.664H131.594V413H130.141ZM136.164 413H134.711V404.547H136.164V413ZM142.023 413.156C140.878 413.156 139.945 412.781 139.227 412.031C138.508 411.276 138.148 410.268 138.148 409.008V408.742C138.148 407.904 138.307 407.156 138.625 406.5C138.948 405.839 139.396 405.323 139.969 404.953C140.547 404.578 141.172 404.391 141.844 404.391C142.943 404.391 143.797 404.753 144.406 405.477C145.016 406.201 145.32 407.237 145.32 408.586V409.188H139.594C139.615 410.021 139.857 410.695 140.32 411.211C140.789 411.721 141.383 411.977 142.102 411.977C142.612 411.977 143.044 411.872 143.398 411.664C143.753 411.456 144.062 411.18 144.328 410.836L145.211 411.523C144.503 412.612 143.44 413.156 142.023 413.156ZM141.844 405.578C141.26 405.578 140.771 405.792 140.375 406.219C139.979 406.641 139.734 407.234 139.641 408H143.875V407.891C143.833 407.156 143.635 406.589 143.281 406.188C142.927 405.781 142.448 405.578 141.844 405.578ZM148.57 413H147.125V401H148.57V413ZM150.539 408.703C150.539 407.406 150.846 406.365 151.461 405.578C152.076 404.786 152.88 404.391 153.875 404.391C154.865 404.391 155.648 404.729 156.227 405.406V401H157.672V413H156.344L156.273 412.094C155.695 412.802 154.891 413.156 153.859 413.156C152.88 413.156 152.081 412.755 151.461 411.953C150.846 411.151 150.539 410.104 150.539 408.812V408.703ZM151.984 408.867C151.984 409.826 152.182 410.576 152.578 411.117C152.974 411.659 153.521 411.93 154.219 411.93C155.135 411.93 155.805 411.518 156.227 410.695V406.812C155.794 406.016 155.13 405.617 154.234 405.617C153.526 405.617 152.974 405.891 152.578 406.438C152.182 406.984 151.984 407.794 151.984 408.867Z" fill="black" fill-opacity="0.54"/>
</g>
<defs>
<filter id="filter0_dd" x="-4" y="-4" width="368" height="68" filterUnits="userSpaceOnUse" color-interpolation-filters="sRGB">
<feFlood flood-opacity="0" result="BackgroundImageFix"/>
<feColorMatrix in="SourceAlpha" type="matrix" values="0 0 0 0 0 0 0 0 0 0 0 0 0 0 0 0 0 0 127 0"/>
<feOffset dy="4"/>
<feGaussianBlur stdDeviation="2"/>
<feColorMatrix type="matrix" values="0 0 0 0 0 0 0 0 0 0 0 0 0 0 0 0 0 0 0.24 0"/>
<feBlend mode="normal" in2="BackgroundImageFix" result="effect1_dropShadow"/>
<feColorMatrix in="SourceAlpha" type="matrix" values="0 0 0 0 0 0 0 0 0 0 0 0 0 0 0 0 0 0 127 0"/>
<feOffset/>
<feGaussianBlur stdDeviation="2"/>
<feColorMatrix type="matrix" values="0 0 0 0 0 0 0 0 0 0 0 0 0 0 0 0 0 0 0.12 0"/>
<feBlend mode="normal" in2="effect1_dropShadow" result="effect2_dropShadow"/>
<feBlend mode="normal" in="SourceGraphic" in2="effect2_dropShadow" result="shape"/>
</filter>
<clipPath id="clip0">
<rect width="360" height="640" fill="white"/>
</clipPath>
</defs>
</svg>
