<svg width="360" height="640" viewBox="0 0 360 640" fill="none" xmlns="http://www.w3.org/2000/svg">
<g clip-path="url(#clip0)">
<rect width="360" height="640" fill="white"/>
<g filter="url(#filter0_dd)">
<rect width="360" height="56" fill="#00BCD4"/>
<path d="M81.2402 29.7168V35H78.7695V20.7812H84.209C85.7975 20.7812 87.0573 21.1947 87.9883 22.0215C88.9258 22.8483 89.3945 23.9421 89.3945 25.3027C89.3945 26.696 88.9355 27.7799 88.0176 28.5547C87.1061 29.3294 85.8268 29.7168 84.1797 29.7168H81.2402ZM81.2402 27.7344H84.209C85.0879 27.7344 85.7585 27.5293 86.2207 27.1191C86.6829 26.7025 86.9141 26.1035 86.9141 25.3223C86.9141 24.554 86.6797 23.9421 86.2109 23.4863C85.7422 23.0241 85.0977 22.7865 84.2773 22.7734H81.2402V27.7344ZM93.8574 35H91.4844V24.4336H93.8574V35ZM91.3379 21.6895C91.3379 21.3249 91.4518 21.0221 91.6797 20.7812C91.9141 20.5404 92.2461 20.4199 92.6758 20.4199C93.1055 20.4199 93.4375 20.5404 93.6719 20.7812C93.9062 21.0221 94.0234 21.3249 94.0234 21.6895C94.0234 22.0475 93.9062 22.347 93.6719 22.5879C93.4375 22.8223 93.1055 22.9395 92.6758 22.9395C92.2461 22.9395 91.9141 22.8223 91.6797 22.5879C91.4518 22.347 91.3379 22.0475 91.3379 21.6895ZM100.791 33.3008C101.383 33.3008 101.875 33.1283 102.266 32.7832C102.656 32.4382 102.865 32.0117 102.891 31.5039H105.127C105.101 32.1615 104.896 32.7767 104.512 33.3496C104.128 33.916 103.607 34.3652 102.949 34.6973C102.292 35.0293 101.582 35.1953 100.82 35.1953C99.3424 35.1953 98.1706 34.7168 97.3047 33.7598C96.4388 32.8027 96.0059 31.4811 96.0059 29.7949V29.5508C96.0059 27.9427 96.4355 26.6569 97.2949 25.6934C98.1543 24.7233 99.3262 24.2383 100.811 24.2383C102.067 24.2383 103.089 24.6061 103.877 25.3418C104.671 26.071 105.088 27.0312 105.127 28.2227H102.891C102.865 27.6172 102.656 27.1191 102.266 26.7285C101.882 26.3379 101.39 26.1426 100.791 26.1426C100.023 26.1426 99.4303 26.4225 99.0137 26.9824C98.597 27.5358 98.3854 28.3789 98.3789 29.5117V29.8926C98.3789 31.0384 98.584 31.8945 98.9941 32.4609C99.4108 33.0208 100.01 33.3008 100.791 33.3008ZM109.893 21.8652V24.4336H111.758V26.1914H109.893V32.0898C109.893 32.4935 109.971 32.7865 110.127 32.9688C110.29 33.1445 110.576 33.2324 110.986 33.2324C111.26 33.2324 111.536 33.1999 111.816 33.1348V34.9707C111.276 35.1204 110.755 35.1953 110.254 35.1953C108.431 35.1953 107.52 34.1895 107.52 32.1777V26.1914H105.781V24.4336H107.52V21.8652H109.893ZM119.98 33.9648C119.284 34.7852 118.294 35.1953 117.012 35.1953C115.866 35.1953 114.997 34.86 114.404 34.1895C113.818 33.5189 113.525 32.5488 113.525 31.2793V24.4336H115.898V31.25C115.898 32.5911 116.455 33.2617 117.568 33.2617C118.721 33.2617 119.499 32.8483 119.902 32.0215V24.4336H122.275V35H120.039L119.98 33.9648ZM130.225 26.6016C129.912 26.5495 129.59 26.5234 129.258 26.5234C128.171 26.5234 127.438 26.9401 127.061 27.7734V35H124.688V24.4336H126.953L127.012 25.6152C127.585 24.6973 128.379 24.2383 129.395 24.2383C129.733 24.2383 130.013 24.2839 130.234 24.375L130.225 26.6016ZM136.182 35.1953C134.678 35.1953 133.457 34.7233 132.52 33.7793C131.589 32.8288 131.123 31.5658 131.123 29.9902V29.6973C131.123 28.6426 131.325 27.7018 131.729 26.875C132.139 26.0417 132.712 25.3939 133.447 24.9316C134.183 24.4694 135.003 24.2383 135.908 24.2383C137.347 24.2383 138.457 24.6973 139.238 25.6152C140.026 26.5332 140.42 27.832 140.42 29.5117V30.4688H133.516C133.587 31.3411 133.877 32.0312 134.385 32.5391C134.899 33.0469 135.544 33.3008 136.318 33.3008C137.406 33.3008 138.291 32.8613 138.975 31.9824L140.254 33.2031C139.831 33.8346 139.264 34.3262 138.555 34.6777C137.852 35.0228 137.061 35.1953 136.182 35.1953ZM135.898 26.1426C135.247 26.1426 134.72 26.3704 134.316 26.8262C133.919 27.2819 133.665 27.9167 133.555 28.7305H138.076V28.5547C138.024 27.7604 137.812 27.1615 137.441 26.7578C137.07 26.3477 136.556 26.1426 135.898 26.1426ZM146.807 29.6191C146.807 28.584 147.012 27.653 147.422 26.8262C147.832 25.9928 148.408 25.3548 149.15 24.9121C149.893 24.4629 150.745 24.2383 151.709 24.2383C153.135 24.2383 154.29 24.6973 155.176 25.6152C156.068 26.5332 156.549 27.7507 156.621 29.2676L156.631 29.8242C156.631 30.8659 156.429 31.7969 156.025 32.6172C155.628 33.4375 155.055 34.0723 154.307 34.5215C153.564 34.9707 152.705 35.1953 151.729 35.1953C150.238 35.1953 149.043 34.7005 148.145 33.7109C147.253 32.7148 146.807 31.39 146.807 29.7363V29.6191ZM149.18 29.8242C149.18 30.9115 149.404 31.7643 149.854 32.3828C150.303 32.9948 150.928 33.3008 151.729 33.3008C152.529 33.3008 153.151 32.9883 153.594 32.3633C154.043 31.7383 154.268 30.8236 154.268 29.6191C154.268 28.5514 154.036 27.7051 153.574 27.0801C153.118 26.4551 152.497 26.1426 151.709 26.1426C150.934 26.1426 150.319 26.4518 149.863 27.0703C149.408 27.6823 149.18 28.6003 149.18 29.8242ZM159.473 35V26.1914H157.861V24.4336H159.473V23.4668C159.473 22.2949 159.798 21.39 160.449 20.752C161.1 20.1139 162.012 19.7949 163.184 19.7949C163.6 19.7949 164.043 19.8535 164.512 19.9707L164.453 21.8262C164.193 21.7741 163.89 21.748 163.545 21.748C162.412 21.748 161.846 22.3307 161.846 23.4961V24.4336H163.994V26.1914H161.846V35H159.473ZM173.682 21.8652V24.4336H175.547V26.1914H173.682V32.0898C173.682 32.4935 173.76 32.7865 173.916 32.9688C174.079 33.1445 174.365 33.2324 174.775 33.2324C175.049 33.2324 175.326 33.1999 175.605 33.1348V34.9707C175.065 35.1204 174.544 35.1953 174.043 35.1953C172.22 35.1953 171.309 34.1895 171.309 32.1777V26.1914H169.57V24.4336H171.309V21.8652H173.682ZM179.707 25.5859C180.482 24.6875 181.462 24.2383 182.646 24.2383C184.899 24.2383 186.042 25.5241 186.074 28.0957V35H183.701V28.1836C183.701 27.4544 183.542 26.9401 183.223 26.6406C182.91 26.3346 182.448 26.1816 181.836 26.1816C180.885 26.1816 180.176 26.6048 179.707 27.4512V35H177.334V20H179.707V25.5859ZM193.135 35.1953C191.631 35.1953 190.41 34.7233 189.473 33.7793C188.542 32.8288 188.076 31.5658 188.076 29.9902V29.6973C188.076 28.6426 188.278 27.7018 188.682 26.875C189.092 26.0417 189.665 25.3939 190.4 24.9316C191.136 24.4694 191.956 24.2383 192.861 24.2383C194.3 24.2383 195.41 24.6973 196.191 25.6152C196.979 26.5332 197.373 27.832 197.373 29.5117V30.4688H190.469C190.54 31.3411 190.83 32.0312 191.338 32.5391C191.852 33.0469 192.497 33.3008 193.271 33.3008C194.359 33.3008 195.244 32.8613 195.928 31.9824L197.207 33.2031C196.784 33.8346 196.217 34.3262 195.508 34.6777C194.805 35.0228 194.014 35.1953 193.135 35.1953ZM192.852 26.1426C192.201 26.1426 191.673 26.3704 191.27 26.8262C190.872 27.2819 190.618 27.9167 190.508 28.7305H195.029V28.5547C194.977 27.7604 194.766 27.1615 194.395 26.7578C194.023 26.3477 193.509 26.1426 192.852 26.1426ZM209.443 31.9043L213.057 20.7812H215.771L210.654 35H208.262L203.164 20.7812H205.869L209.443 31.9043ZM219.678 35H217.305V24.4336H219.678V35ZM217.158 21.6895C217.158 21.3249 217.272 21.0221 217.5 20.7812C217.734 20.5404 218.066 20.4199 218.496 20.4199C218.926 20.4199 219.258 20.5404 219.492 20.7812C219.727 21.0221 219.844 21.3249 219.844 21.6895C219.844 22.0475 219.727 22.347 219.492 22.5879C219.258 22.8223 218.926 22.9395 218.496 22.9395C218.066 22.9395 217.734 22.8223 217.5 22.5879C217.272 22.347 217.158 22.0475 217.158 21.6895ZM221.826 29.6191C221.826 28.584 222.031 27.653 222.441 26.8262C222.852 25.9928 223.428 25.3548 224.17 24.9121C224.912 24.4629 225.765 24.2383 226.729 24.2383C228.154 24.2383 229.31 24.6973 230.195 25.6152C231.087 26.5332 231.569 27.7507 231.641 29.2676L231.65 29.8242C231.65 30.8659 231.449 31.7969 231.045 32.6172C230.648 33.4375 230.075 34.0723 229.326 34.5215C228.584 34.9707 227.725 35.1953 226.748 35.1953C225.257 35.1953 224.062 34.7005 223.164 33.7109C222.272 32.7148 221.826 31.39 221.826 29.7363V29.6191ZM224.199 29.8242C224.199 30.9115 224.424 31.7643 224.873 32.3828C225.322 32.9948 225.947 33.3008 226.748 33.3008C227.549 33.3008 228.171 32.9883 228.613 32.3633C229.062 31.7383 229.287 30.8236 229.287 29.6191C229.287 28.5514 229.056 27.7051 228.594 27.0801C228.138 26.4551 227.516 26.1426 226.729 26.1426C225.954 26.1426 225.339 26.4518 224.883 27.0703C224.427 27.6823 224.199 28.6003 224.199 29.8242ZM236.182 35H233.809V20H236.182V35ZM245.088 35C244.984 34.7982 244.893 34.4694 244.814 34.0137C244.059 34.8014 243.135 35.1953 242.041 35.1953C240.98 35.1953 240.114 34.8926 239.443 34.2871C238.773 33.6816 238.438 32.9329 238.438 32.041C238.438 30.9147 238.854 30.0521 239.688 29.4531C240.527 28.8477 241.725 28.5449 243.281 28.5449H244.736V27.8516C244.736 27.3047 244.583 26.8685 244.277 26.543C243.971 26.2109 243.506 26.0449 242.881 26.0449C242.34 26.0449 241.898 26.1816 241.553 26.4551C241.208 26.722 241.035 27.0638 241.035 27.4805H238.662C238.662 26.901 238.854 26.3607 239.238 25.8594C239.622 25.3516 240.143 24.9544 240.801 24.668C241.465 24.3815 242.204 24.2383 243.018 24.2383C244.255 24.2383 245.241 24.5508 245.977 25.1758C246.712 25.7943 247.09 26.6667 247.109 27.793V32.5586C247.109 33.5091 247.243 34.2676 247.51 34.834V35H245.088ZM242.48 33.291C242.949 33.291 243.389 33.1771 243.799 32.9492C244.215 32.7214 244.528 32.4154 244.736 32.0312V30.0391H243.457C242.578 30.0391 241.917 30.1921 241.475 30.498C241.032 30.804 240.811 31.237 240.811 31.7969C240.811 32.2526 240.96 32.6172 241.26 32.8906C241.566 33.1576 241.973 33.291 242.48 33.291ZM252.568 21.8652V24.4336H254.434V26.1914H252.568V32.0898C252.568 32.4935 252.646 32.7865 252.803 32.9688C252.965 33.1445 253.252 33.2324 253.662 33.2324C253.936 33.2324 254.212 33.1999 254.492 33.1348V34.9707C253.952 35.1204 253.431 35.1953 252.93 35.1953C251.107 35.1953 250.195 34.1895 250.195 32.1777V26.1914H248.457V24.4336H250.195V21.8652H252.568ZM258.779 35H256.406V24.4336H258.779V35ZM256.26 21.6895C256.26 21.3249 256.374 21.0221 256.602 20.7812C256.836 20.5404 257.168 20.4199 257.598 20.4199C258.027 20.4199 258.359 20.5404 258.594 20.7812C258.828 21.0221 258.945 21.3249 258.945 21.6895C258.945 22.0475 258.828 22.347 258.594 22.5879C258.359 22.8223 258.027 22.9395 257.598 22.9395C257.168 22.9395 256.836 22.8223 256.602 22.5879C256.374 22.347 256.26 22.0475 256.26 21.6895ZM260.928 29.6191C260.928 28.584 261.133 27.653 261.543 26.8262C261.953 25.9928 262.529 25.3548 263.271 24.9121C264.014 24.4629 264.867 24.2383 265.83 24.2383C267.256 24.2383 268.411 24.6973 269.297 25.6152C270.189 26.5332 270.671 27.7507 270.742 29.2676L270.752 29.8242C270.752 30.8659 270.55 31.7969 270.146 32.6172C269.749 33.4375 269.176 34.0723 268.428 34.5215C267.686 34.9707 266.826 35.1953 265.85 35.1953C264.359 35.1953 263.164 34.7005 262.266 33.7109C261.374 32.7148 260.928 31.39 260.928 29.7363V29.6191ZM263.301 29.8242C263.301 30.9115 263.525 31.7643 263.975 32.3828C264.424 32.9948 265.049 33.3008 265.85 33.3008C266.65 33.3008 267.272 32.9883 267.715 32.3633C268.164 31.7383 268.389 30.8236 268.389 29.6191C268.389 28.5514 268.158 27.7051 267.695 27.0801C267.24 26.4551 266.618 26.1426 265.83 26.1426C265.055 26.1426 264.44 26.4518 263.984 27.0703C263.529 27.6823 263.301 28.6003 263.301 29.8242ZM274.961 24.4336L275.029 25.6543C275.811 24.7103 276.836 24.2383 278.105 24.2383C280.306 24.2383 281.426 25.498 281.465 28.0176V35H279.092V28.1543C279.092 27.4837 278.945 26.9889 278.652 26.6699C278.366 26.3444 277.894 26.1816 277.236 26.1816C276.279 26.1816 275.566 26.6146 275.098 27.4805V35H272.725V24.4336H274.961Z" fill="white"/>
<path fill-rule="evenodd" clip-rule="evenodd" d="M35.4 23.4L34 22L28 28L34 34L35.4 32.6L30.8 28L35.4 23.4Z" fill="white"/>
</g>
<rect x="70" y="292" width="220" height="36" rx="2" fill="#00BCD4"/>
<path d="M103.045 306.441H99.9414V315H98.2256V306.441H95.1494V305.047H103.045V306.441ZM109.608 312.683H105.753L104.946 315H103.148L106.908 305.047H108.46L112.227 315H110.422L109.608 312.683ZM106.238 311.288H109.123L107.681 307.159L106.238 311.288ZM116.719 310.7L115.591 311.896V315H113.861V305.047H115.591V309.716L116.548 308.533L119.46 305.047H121.552L117.854 309.456L121.764 315H119.713L116.719 310.7ZM129.011 310.557H124.923V313.619H129.701V315H123.193V305.047H129.653V306.441H124.923V309.189H129.011V310.557ZM141.167 312.683H137.312L136.505 315H134.707L138.467 305.047H140.019L143.785 315H141.98L141.167 312.683ZM137.797 311.288H140.682L139.239 307.159L137.797 311.288ZM153.315 315H151.586L147.149 307.938V315H145.42V305.047H147.149L151.6 312.136V305.047H153.315V315ZM163.803 310.283C163.803 311.258 163.634 312.115 163.297 312.854C162.96 313.587 162.477 314.152 161.848 314.549C161.223 314.941 160.503 315.137 159.688 315.137C158.881 315.137 158.161 314.941 157.527 314.549C156.898 314.152 156.411 313.59 156.064 312.86C155.723 312.131 155.549 311.29 155.545 310.338V309.777C155.545 308.807 155.716 307.95 156.058 307.207C156.404 306.464 156.889 305.897 157.514 305.505C158.143 305.108 158.863 304.91 159.674 304.91C160.485 304.91 161.203 305.106 161.827 305.498C162.456 305.885 162.941 306.446 163.283 307.18C163.625 307.909 163.798 308.759 163.803 309.729V310.283ZM162.073 309.764C162.073 308.661 161.864 307.815 161.444 307.228C161.03 306.64 160.439 306.346 159.674 306.346C158.926 306.346 158.341 306.64 157.917 307.228C157.498 307.811 157.284 308.638 157.274 309.709V310.283C157.274 311.377 157.486 312.222 157.91 312.819C158.339 313.416 158.931 313.715 159.688 313.715C160.453 313.715 161.041 313.423 161.451 312.84C161.866 312.257 162.073 311.404 162.073 310.283V309.764ZM172.629 306.441H169.525V315H167.81V306.441H164.733V305.047H172.629V306.441ZM182.344 315H180.621V310.577H176.171V315H174.441V305.047H176.171V309.189H180.621V305.047H182.344V315ZM190.712 310.557H186.624V313.619H191.402V315H184.895V305.047H191.354V306.441H186.624V309.189H190.712V310.557ZM196.968 311.165H195.04V315H193.311V305.047H196.811C197.959 305.047 198.845 305.304 199.47 305.819C200.094 306.334 200.406 307.079 200.406 308.055C200.406 308.72 200.244 309.278 199.921 309.729C199.602 310.176 199.155 310.52 198.581 310.762L200.816 314.911V315H198.964L196.968 311.165ZM195.04 309.777H196.817C197.401 309.777 197.856 309.632 198.185 309.34C198.513 309.044 198.677 308.64 198.677 308.13C198.677 307.597 198.524 307.184 198.219 306.893C197.918 306.601 197.467 306.451 196.865 306.441H195.04V309.777ZM208.263 311.302V315H206.533V305.047H210.341C211.453 305.047 212.335 305.336 212.986 305.915C213.643 306.494 213.971 307.259 213.971 308.212C213.971 309.187 213.649 309.946 213.007 310.488C212.369 311.031 211.473 311.302 210.32 311.302H208.263ZM208.263 309.914H210.341C210.956 309.914 211.425 309.771 211.749 309.483C212.073 309.192 212.234 308.772 212.234 308.226C212.234 307.688 212.07 307.259 211.742 306.94C211.414 306.617 210.963 306.451 210.389 306.441H208.263V309.914ZM217.813 315H216.091V305.047H217.813V315ZM228.034 311.76C227.934 312.822 227.542 313.651 226.858 314.248C226.175 314.84 225.266 315.137 224.131 315.137C223.338 315.137 222.638 314.95 222.032 314.576C221.431 314.198 220.966 313.662 220.638 312.97C220.31 312.277 220.139 311.473 220.125 310.557V309.627C220.125 308.688 220.291 307.861 220.624 307.146C220.957 306.43 221.433 305.879 222.053 305.491C222.677 305.104 223.397 304.91 224.213 304.91C225.311 304.91 226.195 305.209 226.865 305.806C227.535 306.403 227.925 307.246 228.034 308.335H226.312C226.229 307.619 226.02 307.104 225.683 306.79C225.35 306.471 224.86 306.312 224.213 306.312C223.461 306.312 222.882 306.587 222.477 307.139C222.076 307.686 221.87 308.49 221.861 309.552V310.434C221.861 311.509 222.053 312.329 222.436 312.895C222.823 313.46 223.388 313.742 224.131 313.742C224.81 313.742 225.32 313.59 225.662 313.284C226.004 312.979 226.22 312.471 226.312 311.76H228.034ZM237.072 306.441H233.969V315H232.253V306.441H229.177V305.047H237.072V306.441ZM246.165 305.047V311.698C246.165 312.756 245.826 313.594 245.146 314.214C244.472 314.829 243.572 315.137 242.446 315.137C241.307 315.137 240.402 314.834 239.732 314.228C239.062 313.617 238.728 312.771 238.728 311.691V305.047H240.45V311.705C240.45 312.37 240.619 312.879 240.956 313.229C241.293 313.58 241.79 313.756 242.446 313.756C243.777 313.756 244.442 313.054 244.442 311.65V305.047H246.165ZM252.175 311.165H250.247V315H248.518V305.047H252.018C253.166 305.047 254.052 305.304 254.677 305.819C255.301 306.334 255.613 307.079 255.613 308.055C255.613 308.72 255.451 309.278 255.128 309.729C254.809 310.176 254.362 310.52 253.788 310.762L256.023 314.911V315H254.171L252.175 311.165ZM250.247 309.777H252.024C252.608 309.777 253.063 309.632 253.392 309.34C253.72 309.044 253.884 308.64 253.884 308.13C253.884 307.597 253.731 307.184 253.426 306.893C253.125 306.601 252.674 306.451 252.072 306.441H250.247V309.777ZM263.571 310.557H259.483V313.619H264.262V315H257.754V305.047H264.214V306.441H259.483V309.189H263.571V310.557Z" fill="white"/>
<path d="M15 384C15 381.791 16.7909 380 19 380H340C342.209 380 344 381.791 344 384V436H15V384Z" fill="#333333" fill-opacity="0.06"/>
<path d="M15 434.911H344V435.911H15V434.911Z" fill="black" fill-opacity="0.38"/>
<rect x="15" y="433.911" width="329" height="2" fill="#00BCD4"/>
<path d="M34.5938 414.977H29.8203V420H28.3203V408.625H35.3672V409.859H29.8203V413.75H34.5938V414.977ZM45.5312 416.391C45.3906 417.594 44.9453 418.523 44.1953 419.18C43.4505 419.831 42.4583 420.156 41.2188 420.156C39.875 420.156 38.7969 419.674 37.9844 418.711C37.1771 417.747 36.7734 416.458 36.7734 414.844V413.75C36.7734 412.693 36.9609 411.763 37.3359 410.961C37.7161 410.159 38.2526 409.544 38.9453 409.117C39.638 408.685 40.4401 408.469 41.3516 408.469C42.5599 408.469 43.5286 408.807 44.2578 409.484C44.987 410.156 45.4115 411.089 45.5312 412.281H44.0234C43.8932 411.375 43.6094 410.719 43.1719 410.312C42.7396 409.906 42.1328 409.703 41.3516 409.703C40.3932 409.703 39.6406 410.057 39.0938 410.766C38.5521 411.474 38.2812 412.482 38.2812 413.789V414.891C38.2812 416.125 38.5391 417.107 39.0547 417.836C39.5703 418.565 40.2917 418.93 41.2188 418.93C42.0521 418.93 42.6901 418.742 43.1328 418.367C43.5807 417.987 43.8776 417.328 44.0234 416.391H45.5312ZM57.2812 416.18H58.8594V417.359H57.2812V420H55.8281V417.359H50.6484V416.508L55.7422 408.625H57.2812V416.18ZM52.2891 416.18H55.8281V410.602L55.6562 410.914L52.2891 416.18ZM67.2969 415.148C67.2969 416.841 67.0078 418.099 66.4297 418.922C65.8516 419.745 64.9479 420.156 63.7188 420.156C62.5052 420.156 61.6068 419.755 61.0234 418.953C60.4401 418.146 60.138 416.943 60.1172 415.344V413.414C60.1172 411.742 60.4062 410.5 60.9844 409.688C61.5625 408.875 62.4688 408.469 63.7031 408.469C64.9271 408.469 65.8281 408.862 66.4062 409.648C66.9844 410.43 67.2812 411.638 67.2969 413.273V415.148ZM65.8516 413.172C65.8516 411.948 65.6797 411.057 65.3359 410.5C64.9922 409.938 64.4479 409.656 63.7031 409.656C62.9635 409.656 62.4245 409.935 62.0859 410.492C61.7474 411.049 61.5729 411.906 61.5625 413.062V415.375C61.5625 416.604 61.7396 417.513 62.0938 418.102C62.4531 418.685 62.9948 418.977 63.7188 418.977C64.4323 418.977 64.9609 418.701 65.3047 418.148C65.6536 417.596 65.8359 416.727 65.8516 415.539V413.172ZM76.6016 420H69.1484V418.961L73.0859 414.586C73.6693 413.924 74.0703 413.388 74.2891 412.977C74.513 412.56 74.625 412.13 74.625 411.688C74.625 411.094 74.4453 410.607 74.0859 410.227C73.7266 409.846 73.2474 409.656 72.6484 409.656C71.9297 409.656 71.3698 409.862 70.9688 410.273C70.5729 410.68 70.375 411.247 70.375 411.977H68.9297C68.9297 410.93 69.2656 410.083 69.9375 409.438C70.6146 408.792 71.5182 408.469 72.6484 408.469C73.7057 408.469 74.5417 408.747 75.1562 409.305C75.7708 409.857 76.0781 410.594 76.0781 411.516C76.0781 412.635 75.3646 413.969 73.9375 415.516L70.8906 418.82H76.6016V420ZM84.4141 408.625L88.1328 417.906L91.8516 408.625H93.7969V420H92.2969V415.57L92.4375 410.789L88.7031 420H87.5547L83.8281 410.812L83.9766 415.57V420H82.4766V408.625H84.4141ZM101.211 408.625H102.719V416.68C102.719 417.768 102.391 418.62 101.734 419.234C101.083 419.849 100.214 420.156 99.125 420.156C97.9948 420.156 97.1146 419.867 96.4844 419.289C95.8542 418.711 95.5391 417.901 95.5391 416.859H97.0391C97.0391 417.51 97.2161 418.018 97.5703 418.383C97.9297 418.747 98.4479 418.93 99.125 418.93C99.7448 418.93 100.245 418.734 100.625 418.344C101.01 417.953 101.206 417.406 101.211 416.703V408.625Z" fill="black" fill-opacity="0.87"/>
<path d="M29.1211 399.08H33.1641V400H27.9902V391.469H29.1211V399.08ZM35.4551 400H34.3711V393.66H35.4551V400ZM34.2832 391.979C34.2832 391.803 34.3359 391.654 34.4414 391.533C34.5508 391.412 34.7109 391.352 34.9219 391.352C35.1328 391.352 35.293 391.412 35.4023 391.533C35.5117 391.654 35.5664 391.803 35.5664 391.979C35.5664 392.154 35.5117 392.301 35.4023 392.418C35.293 392.535 35.1328 392.594 34.9219 392.594C34.7109 392.594 34.5508 392.535 34.4414 392.418C34.3359 392.301 34.2832 392.154 34.2832 391.979ZM39.7383 399.232C40.125 399.232 40.4629 399.115 40.752 398.881C41.041 398.646 41.2012 398.354 41.2324 398.002H42.2578C42.2383 398.365 42.1133 398.711 41.8828 399.039C41.6523 399.367 41.3438 399.629 40.957 399.824C40.5742 400.02 40.168 400.117 39.7383 400.117C38.875 400.117 38.1875 399.83 37.6758 399.256C37.168 398.678 36.9141 397.889 36.9141 396.889V396.707C36.9141 396.09 37.0273 395.541 37.2539 395.061C37.4805 394.58 37.8047 394.207 38.2266 393.941C38.6523 393.676 39.1543 393.543 39.7324 393.543C40.4434 393.543 41.0332 393.756 41.502 394.182C41.9746 394.607 42.2266 395.16 42.2578 395.84H41.2324C41.2012 395.43 41.0449 395.094 40.7637 394.832C40.4863 394.566 40.1426 394.434 39.7324 394.434C39.1816 394.434 38.7539 394.633 38.4492 395.031C38.1484 395.426 37.998 395.998 37.998 396.748V396.953C37.998 397.684 38.1484 398.246 38.4492 398.641C38.75 399.035 39.1797 399.232 39.7383 399.232ZM46.1074 400.117C45.248 400.117 44.5488 399.836 44.0098 399.273C43.4707 398.707 43.2012 397.951 43.2012 397.006V396.807C43.2012 396.178 43.3203 395.617 43.5586 395.125C43.8008 394.629 44.1367 394.242 44.5664 393.965C45 393.684 45.4688 393.543 45.9727 393.543C46.7969 393.543 47.4375 393.814 47.8945 394.357C48.3516 394.9 48.5801 395.678 48.5801 396.689V397.141H44.2852C44.3008 397.766 44.4824 398.271 44.8301 398.658C45.1816 399.041 45.627 399.232 46.166 399.232C46.5488 399.232 46.873 399.154 47.1387 398.998C47.4043 398.842 47.6367 398.635 47.8359 398.377L48.498 398.893C47.9668 399.709 47.1699 400.117 46.1074 400.117ZM45.9727 394.434C45.5352 394.434 45.168 394.594 44.8711 394.914C44.5742 395.23 44.3906 395.676 44.3203 396.25H47.4961V396.168C47.4648 395.617 47.3164 395.191 47.0508 394.891C46.7852 394.586 46.4258 394.434 45.9727 394.434ZM50.8652 393.66L50.9004 394.457C51.3848 393.848 52.0176 393.543 52.7988 393.543C54.1387 393.543 54.8145 394.299 54.8262 395.811V400H53.7422V395.805C53.7383 395.348 53.6328 395.01 53.4258 394.791C53.2227 394.572 52.9043 394.463 52.4707 394.463C52.1191 394.463 51.8105 394.557 51.5449 394.744C51.2793 394.932 51.0723 395.178 50.9238 395.482V400H49.8398V393.66H50.8652ZM60.1523 398.318C60.1523 398.025 60.041 397.799 59.8184 397.639C59.5996 397.475 59.2148 397.334 58.6641 397.217C58.1172 397.1 57.6816 396.959 57.3574 396.795C57.0371 396.631 56.7988 396.436 56.6426 396.209C56.4902 395.982 56.4141 395.713 56.4141 395.4C56.4141 394.881 56.6328 394.441 57.0703 394.082C57.5117 393.723 58.0742 393.543 58.7578 393.543C59.4766 393.543 60.0586 393.729 60.5039 394.1C60.9531 394.471 61.1777 394.945 61.1777 395.523H60.0879C60.0879 395.227 59.9609 394.971 59.707 394.756C59.457 394.541 59.1406 394.434 58.7578 394.434C58.3633 394.434 58.0547 394.52 57.832 394.691C57.6094 394.863 57.498 395.088 57.498 395.365C57.498 395.627 57.6016 395.824 57.8086 395.957C58.0156 396.09 58.3887 396.217 58.9277 396.338C59.4707 396.459 59.9102 396.604 60.2461 396.771C60.582 396.939 60.8301 397.143 60.9902 397.381C61.1543 397.615 61.2363 397.902 61.2363 398.242C61.2363 398.809 61.0098 399.264 60.5566 399.607C60.1035 399.947 59.5156 400.117 58.793 400.117C58.2852 400.117 57.8359 400.027 57.4453 399.848C57.0547 399.668 56.748 399.418 56.5254 399.098C56.3066 398.773 56.1973 398.424 56.1973 398.049H57.2812C57.3008 398.412 57.4453 398.701 57.7148 398.916C57.9883 399.127 58.3477 399.232 58.793 399.232C59.2031 399.232 59.5312 399.15 59.7773 398.986C60.0273 398.818 60.1523 398.596 60.1523 398.318ZM65.2793 400.117C64.4199 400.117 63.7207 399.836 63.1816 399.273C62.6426 398.707 62.373 397.951 62.373 397.006V396.807C62.373 396.178 62.4922 395.617 62.7305 395.125C62.9727 394.629 63.3086 394.242 63.7383 393.965C64.1719 393.684 64.6406 393.543 65.1445 393.543C65.9688 393.543 66.6094 393.814 67.0664 394.357C67.5234 394.9 67.752 395.678 67.752 396.689V397.141H63.457C63.4727 397.766 63.6543 398.271 64.002 398.658C64.3535 399.041 64.7988 399.232 65.3379 399.232C65.7207 399.232 66.0449 399.154 66.3105 398.998C66.5762 398.842 66.8086 398.635 67.0078 398.377L67.6699 398.893C67.1387 399.709 66.3418 400.117 65.2793 400.117ZM65.1445 394.434C64.707 394.434 64.3398 394.594 64.043 394.914C63.7461 395.23 63.5625 395.676 63.4922 396.25H66.668V396.168C66.6367 395.617 66.4883 395.191 66.2227 394.891C65.957 394.586 65.5977 394.434 65.1445 394.434ZM73.2832 396.66V400H72.1582V391.469H75.3047C76.2383 391.469 76.9688 391.707 77.4961 392.184C78.0273 392.66 78.293 393.291 78.293 394.076C78.293 394.904 78.0332 395.543 77.5137 395.992C76.998 396.438 76.2578 396.66 75.293 396.66H73.2832ZM73.2832 395.74H75.3047C75.9062 395.74 76.3672 395.6 76.6875 395.318C77.0078 395.033 77.168 394.623 77.168 394.088C77.168 393.58 77.0078 393.174 76.6875 392.869C76.3672 392.564 75.9277 392.406 75.3691 392.395H73.2832V395.74ZM80.7363 400H79.6523V391H80.7363V400ZM86.3906 400C86.3281 399.875 86.2773 399.652 86.2383 399.332C85.7344 399.855 85.1328 400.117 84.4336 400.117C83.8086 400.117 83.2949 399.941 82.8926 399.59C82.4941 399.234 82.2949 398.785 82.2949 398.242C82.2949 397.582 82.5449 397.07 83.0449 396.707C83.5488 396.34 84.2559 396.156 85.166 396.156H86.2207V395.658C86.2207 395.279 86.1074 394.979 85.8809 394.756C85.6543 394.529 85.3203 394.416 84.8789 394.416C84.4922 394.416 84.168 394.514 83.9062 394.709C83.6445 394.904 83.5137 395.141 83.5137 395.418H82.4238C82.4238 395.102 82.5352 394.797 82.7578 394.504C82.9844 394.207 83.2891 393.973 83.6719 393.801C84.0586 393.629 84.4824 393.543 84.9434 393.543C85.6738 393.543 86.2461 393.727 86.6602 394.094C87.0742 394.457 87.2891 394.959 87.3047 395.6V398.518C87.3047 399.1 87.3789 399.562 87.5273 399.906V400H86.3906ZM84.5918 399.174C84.9316 399.174 85.2539 399.086 85.5586 398.91C85.8633 398.734 86.084 398.506 86.2207 398.225V396.924H85.3711C84.043 396.924 83.3789 397.312 83.3789 398.09C83.3789 398.43 83.4922 398.695 83.7188 398.887C83.9453 399.078 84.2363 399.174 84.5918 399.174ZM90.4746 392.125V393.66H91.6582V394.498H90.4746V398.43C90.4746 398.684 90.5273 398.875 90.6328 399.004C90.7383 399.129 90.918 399.191 91.1719 399.191C91.2969 399.191 91.4688 399.168 91.6875 399.121V400C91.4023 400.078 91.125 400.117 90.8555 400.117C90.3711 400.117 90.0059 399.971 89.7598 399.678C89.5137 399.385 89.3906 398.969 89.3906 398.43V394.498H88.2363V393.66H89.3906V392.125H90.4746ZM95.5605 400.117C94.7012 400.117 94.002 399.836 93.4629 399.273C92.9238 398.707 92.6543 397.951 92.6543 397.006V396.807C92.6543 396.178 92.7734 395.617 93.0117 395.125C93.2539 394.629 93.5898 394.242 94.0195 393.965C94.4531 393.684 94.9219 393.543 95.4258 393.543C96.25 393.543 96.8906 393.814 97.3477 394.357C97.8047 394.9 98.0332 395.678 98.0332 396.689V397.141H93.7383C93.7539 397.766 93.9355 398.271 94.2832 398.658C94.6348 399.041 95.0801 399.232 95.6191 399.232C96.002 399.232 96.3262 399.154 96.5918 398.998C96.8574 398.842 97.0898 398.635 97.2891 398.377L97.9512 398.893C97.4199 399.709 96.623 400.117 95.5605 400.117ZM95.4258 394.434C94.9883 394.434 94.6211 394.594 94.3242 394.914C94.0273 395.23 93.8438 395.676 93.7734 396.25H96.9492V396.168C96.918 395.617 96.7695 395.191 96.5039 394.891C96.2383 394.586 95.8789 394.434 95.4258 394.434Z" fill="#00BCD4"/>
<g filter="url(#filter1_d)">
<rect x="132" y="522" width="96" height="36" rx="2" fill="#00BCD4"/>
</g>
<path fill-rule="evenodd" clip-rule="evenodd" d="M134 522C132.895 522 132 522.895 132 524V555C132 556.105 132.895 557 134 557H226C227.105 557 228 556.105 228 555V524C228 522.895 227.105 522 226 522H134Z" fill="white" fill-opacity="0.18"/>
<path d="M156.156 541.76C156.056 542.822 155.664 543.651 154.98 544.248C154.297 544.84 153.388 545.137 152.253 545.137C151.46 545.137 150.76 544.95 150.154 544.576C149.553 544.198 149.088 543.662 148.76 542.97C148.432 542.277 148.261 541.473 148.247 540.557V539.627C148.247 538.688 148.413 537.861 148.746 537.146C149.079 536.43 149.555 535.879 150.175 535.491C150.799 535.104 151.519 534.91 152.335 534.91C153.433 534.91 154.317 535.209 154.987 535.806C155.657 536.403 156.047 537.246 156.156 538.335H154.434C154.352 537.619 154.142 537.104 153.805 536.79C153.472 536.471 152.982 536.312 152.335 536.312C151.583 536.312 151.004 536.587 150.599 537.139C150.198 537.686 149.993 538.49 149.983 539.552V540.434C149.983 541.509 150.175 542.329 150.558 542.895C150.945 543.46 151.51 543.742 152.253 543.742C152.932 543.742 153.442 543.59 153.784 543.284C154.126 542.979 154.342 542.471 154.434 541.76H156.156ZM166.151 540.283C166.151 541.258 165.983 542.115 165.646 542.854C165.308 543.587 164.825 544.152 164.196 544.549C163.572 544.941 162.852 545.137 162.036 545.137C161.229 545.137 160.509 544.941 159.876 544.549C159.247 544.152 158.759 543.59 158.413 542.86C158.071 542.131 157.898 541.29 157.894 540.338V539.777C157.894 538.807 158.064 537.95 158.406 537.207C158.753 536.464 159.238 535.897 159.862 535.505C160.491 535.108 161.211 534.91 162.022 534.91C162.834 534.91 163.551 535.106 164.176 535.498C164.805 535.885 165.29 536.446 165.632 537.18C165.974 537.909 166.147 538.759 166.151 539.729V540.283ZM164.422 539.764C164.422 538.661 164.212 537.815 163.793 537.228C163.378 536.64 162.788 536.346 162.022 536.346C161.275 536.346 160.689 536.64 160.266 537.228C159.846 537.811 159.632 538.638 159.623 539.709V540.283C159.623 541.377 159.835 542.222 160.259 542.819C160.687 543.416 161.28 543.715 162.036 543.715C162.802 543.715 163.39 543.423 163.8 542.84C164.215 542.257 164.422 541.404 164.422 540.283V539.764ZM176.27 545H174.54L170.104 537.938V545H168.374V535.047H170.104L174.554 542.136V535.047H176.27V545ZM184.549 540.782H180.543V545H178.813V535.047H185.137V536.441H180.543V539.401H184.549V540.782ZM188.836 545H187.113V535.047H188.836V545ZM195.119 541.165H193.191V545H191.462V535.047H194.962C196.11 535.047 196.997 535.304 197.621 535.819C198.245 536.334 198.558 537.079 198.558 538.055C198.558 538.72 198.396 539.278 198.072 539.729C197.753 540.176 197.307 540.52 196.732 540.762L198.968 544.911V545H197.115L195.119 541.165ZM193.191 539.777H194.969C195.552 539.777 196.008 539.632 196.336 539.34C196.664 539.044 196.828 538.64 196.828 538.13C196.828 537.597 196.675 537.184 196.37 536.893C196.069 536.601 195.618 536.451 195.017 536.441H193.191V539.777ZM202.94 535.047L205.812 542.676L208.676 535.047H210.911V545H209.188V541.719L209.359 537.33L206.42 545H205.183L202.25 537.337L202.421 541.719V545H200.698V535.047H202.94Z" fill="white"/>
<rect x="19" y="90" width="321" height="169" fill="#C4C4C4"/>
<path d="M153.173 175.302V179H151.443V169.047H155.251C156.363 169.047 157.245 169.336 157.896 169.915C158.553 170.494 158.881 171.259 158.881 172.212C158.881 173.187 158.56 173.946 157.917 174.488C157.279 175.031 156.383 175.302 155.23 175.302H153.173ZM153.173 173.914H155.251C155.866 173.914 156.336 173.771 156.659 173.483C156.983 173.192 157.145 172.772 157.145 172.226C157.145 171.688 156.98 171.259 156.652 170.94C156.324 170.617 155.873 170.451 155.299 170.441H153.173V173.914ZM162.724 179H161.001V169.047H162.724V179ZM172.944 175.76C172.844 176.822 172.452 177.651 171.769 178.248C171.085 178.84 170.176 179.137 169.041 179.137C168.248 179.137 167.549 178.95 166.942 178.576C166.341 178.198 165.876 177.662 165.548 176.97C165.22 176.277 165.049 175.473 165.035 174.557V173.627C165.035 172.688 165.201 171.861 165.534 171.146C165.867 170.43 166.343 169.879 166.963 169.491C167.587 169.104 168.307 168.91 169.123 168.91C170.221 168.91 171.105 169.209 171.775 169.806C172.445 170.403 172.835 171.246 172.944 172.335H171.222C171.14 171.619 170.93 171.104 170.593 170.79C170.26 170.471 169.77 170.312 169.123 170.312C168.371 170.312 167.792 170.587 167.387 171.139C166.986 171.686 166.781 172.49 166.771 173.552V174.434C166.771 175.509 166.963 176.329 167.346 176.895C167.733 177.46 168.298 177.742 169.041 177.742C169.72 177.742 170.23 177.59 170.572 177.284C170.914 176.979 171.131 176.471 171.222 175.76H172.944ZM181.982 170.441H178.879V179H177.163V170.441H174.087V169.047H181.982V170.441ZM191.075 169.047V175.698C191.075 176.756 190.736 177.594 190.057 178.214C189.382 178.829 188.482 179.137 187.356 179.137C186.217 179.137 185.312 178.834 184.643 178.228C183.973 177.617 183.638 176.771 183.638 175.691V169.047H185.36V175.705C185.36 176.37 185.529 176.879 185.866 177.229C186.203 177.58 186.7 177.756 187.356 177.756C188.687 177.756 189.353 177.054 189.353 175.65V169.047H191.075ZM197.085 175.165H195.157V179H193.428V169.047H196.928C198.076 169.047 198.963 169.304 199.587 169.819C200.211 170.334 200.523 171.079 200.523 172.055C200.523 172.72 200.362 173.278 200.038 173.729C199.719 174.176 199.272 174.52 198.698 174.762L200.934 178.911V179H199.081L197.085 175.165ZM195.157 173.777H196.935C197.518 173.777 197.974 173.632 198.302 173.34C198.63 173.044 198.794 172.64 198.794 172.13C198.794 171.597 198.641 171.184 198.336 170.893C198.035 170.601 197.584 170.451 196.982 170.441H195.157V173.777ZM208.481 174.557H204.394V177.619H209.172V179H202.664V169.047H209.124V170.441H204.394V173.189H208.481V174.557Z" fill="black" fill-opacity="0.58"/>
</g>
<defs>
<filter id="filter0_dd" x="-4" y="-4" width="368" height="68" filterUnits="userSpaceOnUse" color-interpolation-filters="sRGB">
<feFlood flood-opacity="0" result="BackgroundImageFix"/>
<feColorMatrix in="SourceAlpha" type="matrix" values="0 0 0 0 0 0 0 0 0 0 0 0 0 0 0 0 0 0 127 0"/>
<feOffset dy="4"/>
<feGaussianBlur stdDeviation="2"/>
<feColorMatrix type="matrix" values="0 0 0 0 0 0 0 0 0 0 0 0 0 0 0 0 0 0 0.24 0"/>
<feBlend mode="normal" in2="BackgroundImageFix" result="effect1_dropShadow"/>
<feColorMatrix in="SourceAlpha" type="matrix" values="0 0 0 0 0 0 0 0 0 0 0 0 0 0 0 0 0 0 127 0"/>
<feOffset/>
<feGaussianBlur stdDeviation="2"/>
<feColorMatrix type="matrix" values="0 0 0 0 0 0 0 0 0 0 0 0 0 0 0 0 0 0 0.12 0"/>
<feBlend mode="normal" in2="effect1_dropShadow" result="effect2_dropShadow"/>
<feBlend mode="normal" in="SourceGraphic" in2="effect2_dropShadow" result="shape"/>
</filter>
<filter id="filter1_d" x="130" y="522" width="100" height="40" filterUnits="userSpaceOnUse" color-interpolation-filters="sRGB">
<feFlood flood-opacity="0" result="BackgroundImageFix"/>
<feColorMatrix in="SourceAlpha" type="matrix" values="0 0 0 0 0 0 0 0 0 0 0 0 0 0 0 0 0 0 127 0"/>
<feOffset dy="2"/>
<feGaussianBlur stdDeviation="1"/>
<feColorMatrix type="matrix" values="0 0 0 0 0 0 0 0 0 0 0 0 0 0 0 0 0 0 0.24 0"/>
<feBlend mode="normal" in2="BackgroundImageFix" result="effect1_dropShadow"/>
<feBlend mode="normal" in="SourceGraphic" in2="effect1_dropShadow" result="shape"/>
</filter>
<clipPath id="clip0">
<rect width="360" height="640" fill="white"/>
</clipPath>
</defs>
</svg>
