<svg width="360" height="640" viewBox="0 0 360 640" fill="none" xmlns="http://www.w3.org/2000/svg">
<g clip-path="url(#clip0)">
<rect width="360" height="640" fill="white"/>
<g filter="url(#filter0_dd)">
<rect width="360" height="56" fill="#00BCD4"/>
<path d="M128.877 31.3379C128.877 30.7129 128.656 30.2311 128.213 29.8926C127.777 29.554 126.986 29.2122 125.84 28.8672C124.694 28.5221 123.783 28.138 123.105 27.7148C121.81 26.901 121.162 25.8398 121.162 24.5312C121.162 23.3854 121.628 22.4414 122.559 21.6992C123.496 20.957 124.71 20.5859 126.201 20.5859C127.191 20.5859 128.073 20.7682 128.848 21.1328C129.622 21.4974 130.231 22.0182 130.674 22.6953C131.117 23.3659 131.338 24.1113 131.338 24.9316H128.877C128.877 24.1895 128.643 23.61 128.174 23.1934C127.712 22.7702 127.048 22.5586 126.182 22.5586C125.374 22.5586 124.746 22.7311 124.297 23.0762C123.854 23.4212 123.633 23.903 123.633 24.5215C123.633 25.0423 123.874 25.4785 124.355 25.8301C124.837 26.1751 125.632 26.5137 126.738 26.8457C127.845 27.1712 128.734 27.5456 129.404 27.9688C130.075 28.3854 130.566 28.8672 130.879 29.4141C131.191 29.9544 131.348 30.5892 131.348 31.3184C131.348 32.5033 130.892 33.4473 129.98 34.1504C129.076 34.847 127.845 35.1953 126.289 35.1953C125.26 35.1953 124.313 35.0065 123.447 34.6289C122.588 34.2448 121.917 33.7174 121.436 33.0469C120.96 32.3763 120.723 31.5951 120.723 30.7031H123.193C123.193 31.5104 123.46 32.1354 123.994 32.5781C124.528 33.0208 125.293 33.2422 126.289 33.2422C127.148 33.2422 127.793 33.0697 128.223 32.7246C128.659 32.373 128.877 31.9108 128.877 31.3379ZM139.6 35C139.495 34.7982 139.404 34.4694 139.326 34.0137C138.571 34.8014 137.646 35.1953 136.553 35.1953C135.492 35.1953 134.626 34.8926 133.955 34.2871C133.285 33.6816 132.949 32.9329 132.949 32.041C132.949 30.9147 133.366 30.0521 134.199 29.4531C135.039 28.8477 136.237 28.5449 137.793 28.5449H139.248V27.8516C139.248 27.3047 139.095 26.8685 138.789 26.543C138.483 26.2109 138.018 26.0449 137.393 26.0449C136.852 26.0449 136.41 26.1816 136.064 26.4551C135.719 26.722 135.547 27.0638 135.547 27.4805H133.174C133.174 26.901 133.366 26.3607 133.75 25.8594C134.134 25.3516 134.655 24.9544 135.312 24.668C135.977 24.3815 136.715 24.2383 137.529 24.2383C138.766 24.2383 139.753 24.5508 140.488 25.1758C141.224 25.7943 141.602 26.6667 141.621 27.793V32.5586C141.621 33.5091 141.755 34.2676 142.021 34.834V35H139.6ZM136.992 33.291C137.461 33.291 137.9 33.1771 138.311 32.9492C138.727 32.7214 139.04 32.4154 139.248 32.0312V30.0391H137.969C137.09 30.0391 136.429 30.1921 135.986 30.498C135.544 30.804 135.322 31.237 135.322 31.7969C135.322 32.2526 135.472 32.6172 135.771 32.8906C136.077 33.1576 136.484 33.291 136.992 33.291ZM144.941 35V26.1914H143.33V24.4336H144.941V23.4668C144.941 22.2949 145.267 21.39 145.918 20.752C146.569 20.1139 147.48 19.7949 148.652 19.7949C149.069 19.7949 149.512 19.8535 149.98 19.9707L149.922 21.8262C149.661 21.7741 149.359 21.748 149.014 21.748C147.881 21.748 147.314 22.3307 147.314 23.4961V24.4336H149.463V26.1914H147.314V35H144.941ZM155.615 35.1953C154.111 35.1953 152.891 34.7233 151.953 33.7793C151.022 32.8288 150.557 31.5658 150.557 29.9902V29.6973C150.557 28.6426 150.758 27.7018 151.162 26.875C151.572 26.0417 152.145 25.3939 152.881 24.9316C153.617 24.4694 154.437 24.2383 155.342 24.2383C156.781 24.2383 157.891 24.6973 158.672 25.6152C159.46 26.5332 159.854 27.832 159.854 29.5117V30.4688H152.949C153.021 31.3411 153.311 32.0312 153.818 32.5391C154.333 33.0469 154.977 33.3008 155.752 33.3008C156.839 33.3008 157.725 32.8613 158.408 31.9824L159.688 33.2031C159.264 33.8346 158.698 34.3262 157.988 34.6777C157.285 35.0228 156.494 35.1953 155.615 35.1953ZM155.332 26.1426C154.681 26.1426 154.154 26.3704 153.75 26.8262C153.353 27.2819 153.099 27.9167 152.988 28.7305H157.51V28.5547C157.458 27.7604 157.246 27.1615 156.875 26.7578C156.504 26.3477 155.99 26.1426 155.332 26.1426ZM174.346 31.3379C174.346 30.7129 174.124 30.2311 173.682 29.8926C173.245 29.554 172.454 29.2122 171.309 28.8672C170.163 28.5221 169.251 28.138 168.574 27.7148C167.279 26.901 166.631 25.8398 166.631 24.5312C166.631 23.3854 167.096 22.4414 168.027 21.6992C168.965 20.957 170.179 20.5859 171.67 20.5859C172.66 20.5859 173.542 20.7682 174.316 21.1328C175.091 21.4974 175.7 22.0182 176.143 22.6953C176.585 23.3659 176.807 24.1113 176.807 24.9316H174.346C174.346 24.1895 174.111 23.61 173.643 23.1934C173.18 22.7702 172.516 22.5586 171.65 22.5586C170.843 22.5586 170.215 22.7311 169.766 23.0762C169.323 23.4212 169.102 23.903 169.102 24.5215C169.102 25.0423 169.342 25.4785 169.824 25.8301C170.306 26.1751 171.1 26.5137 172.207 26.8457C173.314 27.1712 174.202 27.5456 174.873 27.9688C175.544 28.3854 176.035 28.8672 176.348 29.4141C176.66 29.9544 176.816 30.5892 176.816 31.3184C176.816 32.5033 176.361 33.4473 175.449 34.1504C174.544 34.847 173.314 35.1953 171.758 35.1953C170.729 35.1953 169.782 35.0065 168.916 34.6289C168.057 34.2448 167.386 33.7174 166.904 33.0469C166.429 32.3763 166.191 31.5951 166.191 30.7031H168.662C168.662 31.5104 168.929 32.1354 169.463 32.5781C169.997 33.0208 170.762 33.2422 171.758 33.2422C172.617 33.2422 173.262 33.0697 173.691 32.7246C174.128 32.373 174.346 31.9108 174.346 31.3379ZM181.729 21.8652V24.4336H183.594V26.1914H181.729V32.0898C181.729 32.4935 181.807 32.7865 181.963 32.9688C182.126 33.1445 182.412 33.2324 182.822 33.2324C183.096 33.2324 183.372 33.1999 183.652 33.1348V34.9707C183.112 35.1204 182.591 35.1953 182.09 35.1953C180.267 35.1953 179.355 34.1895 179.355 32.1777V26.1914H177.617V24.4336H179.355V21.8652H181.729ZM190.947 26.6016C190.635 26.5495 190.312 26.5234 189.98 26.5234C188.893 26.5234 188.161 26.9401 187.783 27.7734V35H185.41V24.4336H187.676L187.734 25.6152C188.307 24.6973 189.102 24.2383 190.117 24.2383C190.456 24.2383 190.736 24.2839 190.957 24.375L190.947 26.6016ZM196.904 35.1953C195.4 35.1953 194.18 34.7233 193.242 33.7793C192.311 32.8288 191.846 31.5658 191.846 29.9902V29.6973C191.846 28.6426 192.048 27.7018 192.451 26.875C192.861 26.0417 193.434 25.3939 194.17 24.9316C194.906 24.4694 195.726 24.2383 196.631 24.2383C198.07 24.2383 199.18 24.6973 199.961 25.6152C200.749 26.5332 201.143 27.832 201.143 29.5117V30.4688H194.238C194.31 31.3411 194.6 32.0312 195.107 32.5391C195.622 33.0469 196.266 33.3008 197.041 33.3008C198.128 33.3008 199.014 32.8613 199.697 31.9824L200.977 33.2031C200.553 33.8346 199.987 34.3262 199.277 34.6777C198.574 35.0228 197.783 35.1953 196.904 35.1953ZM196.621 26.1426C195.97 26.1426 195.443 26.3704 195.039 26.8262C194.642 27.2819 194.388 27.9167 194.277 28.7305H198.799V28.5547C198.747 27.7604 198.535 27.1615 198.164 26.7578C197.793 26.3477 197.279 26.1426 196.621 26.1426ZM207.646 35.1953C206.143 35.1953 204.922 34.7233 203.984 33.7793C203.053 32.8288 202.588 31.5658 202.588 29.9902V29.6973C202.588 28.6426 202.79 27.7018 203.193 26.875C203.604 26.0417 204.176 25.3939 204.912 24.9316C205.648 24.4694 206.468 24.2383 207.373 24.2383C208.812 24.2383 209.922 24.6973 210.703 25.6152C211.491 26.5332 211.885 27.832 211.885 29.5117V30.4688H204.98C205.052 31.3411 205.342 32.0312 205.85 32.5391C206.364 33.0469 207.008 33.3008 207.783 33.3008C208.87 33.3008 209.756 32.8613 210.439 31.9824L211.719 33.2031C211.296 33.8346 210.729 34.3262 210.02 34.6777C209.316 35.0228 208.525 35.1953 207.646 35.1953ZM207.363 26.1426C206.712 26.1426 206.185 26.3704 205.781 26.8262C205.384 27.2819 205.13 27.9167 205.02 28.7305H209.541V28.5547C209.489 27.7604 209.277 27.1615 208.906 26.7578C208.535 26.3477 208.021 26.1426 207.363 26.1426ZM216.709 21.8652V24.4336H218.574V26.1914H216.709V32.0898C216.709 32.4935 216.787 32.7865 216.943 32.9688C217.106 33.1445 217.393 33.2324 217.803 33.2324C218.076 33.2324 218.353 33.1999 218.633 33.1348V34.9707C218.092 35.1204 217.572 35.1953 217.07 35.1953C215.247 35.1953 214.336 34.1895 214.336 32.1777V26.1914H212.598V24.4336H214.336V21.8652H216.709Z" fill="white"/>
</g>
<g filter="url(#filter1_d)">
<path fill-rule="evenodd" clip-rule="evenodd" d="M187 80C185.343 80 184 81.3431 184 83V293C184 294.657 185.343 296 187 296H349C350.657 296 352 294.657 352 293V83C352 81.3431 350.657 80 349 80H187Z" fill="white"/>
</g>
<mask id="mask0" mask-type="alpha" maskUnits="userSpaceOnUse" x="184" y="80" width="168" height="216">
<path fill-rule="evenodd" clip-rule="evenodd" d="M187 80C185.343 80 184 81.3431 184 83V293C184 294.657 185.343 296 187 296H349C350.657 296 352 294.657 352 293V83C352 81.3431 350.657 80 349 80H187Z" fill="white"/>
</mask>
<g mask="url(#mask0)">
<rect x="184" y="80" width="168" height="216" fill="#009688"/>
<path d="M209.008 197.395C207.078 196.84 205.672 196.16 204.789 195.355C203.914 194.543 203.477 193.543 203.477 192.355C203.477 191.012 204.012 189.902 205.082 189.027C206.16 188.145 207.559 187.703 209.277 187.703C210.449 187.703 211.492 187.93 212.406 188.383C213.328 188.836 214.039 189.461 214.539 190.258C215.047 191.055 215.301 191.926 215.301 192.871H213.039C213.039 191.84 212.711 191.031 212.055 190.445C211.398 189.852 210.473 189.555 209.277 189.555C208.168 189.555 207.301 189.801 206.676 190.293C206.059 190.777 205.75 191.453 205.75 192.32C205.75 193.016 206.043 193.605 206.629 194.09C207.223 194.566 208.227 195.004 209.641 195.402C211.062 195.801 212.172 196.242 212.969 196.727C213.773 197.203 214.367 197.762 214.75 198.402C215.141 199.043 215.336 199.797 215.336 200.664C215.336 202.047 214.797 203.156 213.719 203.992C212.641 204.82 211.199 205.234 209.395 205.234C208.223 205.234 207.129 205.012 206.113 204.566C205.098 204.113 204.312 203.496 203.758 202.715C203.211 201.934 202.938 201.047 202.938 200.055H205.199C205.199 201.086 205.578 201.902 206.336 202.504C207.102 203.098 208.121 203.395 209.395 203.395C210.582 203.395 211.492 203.152 212.125 202.668C212.758 202.184 213.074 201.523 213.074 200.688C213.074 199.852 212.781 199.207 212.195 198.754C211.609 198.293 210.547 197.84 209.008 197.395ZM220.059 193.855C221.02 192.676 222.27 192.086 223.809 192.086C226.488 192.086 227.84 193.598 227.863 196.621V205H225.695V196.609C225.688 195.695 225.477 195.02 225.062 194.582C224.656 194.145 224.02 193.926 223.152 193.926C222.449 193.926 221.832 194.113 221.301 194.488C220.77 194.863 220.355 195.355 220.059 195.965V205H217.891V187H220.059V193.855ZM230.535 198.543C230.535 197.301 230.777 196.184 231.262 195.191C231.754 194.199 232.434 193.434 233.301 192.895C234.176 192.355 235.172 192.086 236.289 192.086C238.016 192.086 239.41 192.684 240.473 193.879C241.543 195.074 242.078 196.664 242.078 198.648V198.801C242.078 200.035 241.84 201.145 241.363 202.129C240.895 203.105 240.219 203.867 239.336 204.414C238.461 204.961 237.453 205.234 236.312 205.234C234.594 205.234 233.199 204.637 232.129 203.441C231.066 202.246 230.535 200.664 230.535 198.695V198.543ZM232.715 198.801C232.715 200.207 233.039 201.336 233.688 202.188C234.344 203.039 235.219 203.465 236.312 203.465C237.414 203.465 238.289 203.035 238.938 202.176C239.586 201.309 239.91 200.098 239.91 198.543C239.91 197.152 239.578 196.027 238.914 195.168C238.258 194.301 237.383 193.867 236.289 193.867C235.219 193.867 234.355 194.293 233.699 195.145C233.043 195.996 232.715 197.215 232.715 198.801ZM256.023 202.012L258.461 192.32H260.629L256.938 205H255.18L252.098 195.391L249.098 205H247.34L243.66 192.32H245.816L248.312 201.812L251.266 192.32H253.012L256.023 202.012ZM206.887 211.938L212.465 225.859L218.043 211.938H220.961V229H218.711V222.355L218.922 215.184L213.32 229H211.598L206.008 215.219L206.23 222.355V229H203.98V211.938H206.887ZM232.422 229C232.297 228.75 232.195 228.305 232.117 227.664C231.109 228.711 229.906 229.234 228.508 229.234C227.258 229.234 226.23 228.883 225.426 228.18C224.629 227.469 224.23 226.57 224.23 225.484C224.23 224.164 224.73 223.141 225.73 222.414C226.738 221.68 228.152 221.312 229.973 221.312H232.082V220.316C232.082 219.559 231.855 218.957 231.402 218.512C230.949 218.059 230.281 217.832 229.398 217.832C228.625 217.832 227.977 218.027 227.453 218.418C226.93 218.809 226.668 219.281 226.668 219.836H224.488C224.488 219.203 224.711 218.594 225.156 218.008C225.609 217.414 226.219 216.945 226.984 216.602C227.758 216.258 228.605 216.086 229.527 216.086C230.988 216.086 232.133 216.453 232.961 217.188C233.789 217.914 234.219 218.918 234.25 220.199V226.035C234.25 227.199 234.398 228.125 234.695 228.812V229H232.422ZM228.824 227.348C229.504 227.348 230.148 227.172 230.758 226.82C231.367 226.469 231.809 226.012 232.082 225.449V222.848H230.383C227.727 222.848 226.398 223.625 226.398 225.18C226.398 225.859 226.625 226.391 227.078 226.773C227.531 227.156 228.113 227.348 228.824 227.348ZM248.359 222.801C248.359 224.73 247.918 226.285 247.035 227.465C246.152 228.645 244.957 229.234 243.449 229.234C241.91 229.234 240.699 228.746 239.816 227.77V233.875H237.648V216.32H239.629L239.734 217.727C240.617 216.633 241.844 216.086 243.414 216.086C244.938 216.086 246.141 216.66 247.023 217.809C247.914 218.957 248.359 220.555 248.359 222.602V222.801ZM246.191 222.555C246.191 221.125 245.887 219.996 245.277 219.168C244.668 218.34 243.832 217.926 242.77 217.926C241.457 217.926 240.473 218.508 239.816 219.672V225.73C240.465 226.887 241.457 227.465 242.793 227.465C243.832 227.465 244.656 227.055 245.266 226.234C245.883 225.406 246.191 224.18 246.191 222.555Z" fill="white"/>
</g>
<rect width="168" height="216" transform="translate(8 80)" fill="#219653"/>
<g filter="url(#filter2_d)">
<path fill-rule="evenodd" clip-rule="evenodd" d="M11 80C9.34314 80 8 81.3431 8 83V293C8 294.657 9.34315 296 11 296H173C174.657 296 176 294.657 176 293V83C176 81.3431 174.657 80 173 80H11Z" fill="white"/>
</g>
<mask id="mask1" mask-type="alpha" maskUnits="userSpaceOnUse" x="8" y="80" width="168" height="216">
<path fill-rule="evenodd" clip-rule="evenodd" d="M11 80C9.34314 80 8 81.3431 8 83V293C8 294.657 9.34315 296 11 296H173C174.657 296 176 294.657 176 293V83C176 81.3431 174.657 80 173 80H11Z" fill="white"/>
</mask>
<g mask="url(#mask1)">
<rect x="8" y="80" width="169" height="216" fill="#00BCD4"/>
<path d="M40.5312 199.586C40.3203 201.391 39.6523 202.785 38.5273 203.77C37.4102 204.746 35.9219 205.234 34.0625 205.234C32.0469 205.234 30.4297 204.512 29.2109 203.066C28 201.621 27.3945 199.688 27.3945 197.266V195.625C27.3945 194.039 27.6758 192.645 28.2383 191.441C28.8086 190.238 29.6133 189.316 30.6523 188.676C31.6914 188.027 32.8945 187.703 34.2617 187.703C36.0742 187.703 37.5273 188.211 38.6211 189.227C39.7148 190.234 40.3516 191.633 40.5312 193.422H38.2695C38.0742 192.062 37.6484 191.078 36.9922 190.469C36.3438 189.859 35.4336 189.555 34.2617 189.555C32.8242 189.555 31.6953 190.086 30.875 191.148C30.0625 192.211 29.6562 193.723 29.6562 195.684V197.336C29.6562 199.188 30.043 200.66 30.8164 201.754C31.5898 202.848 32.6719 203.395 34.0625 203.395C35.3125 203.395 36.2695 203.113 36.9336 202.551C37.6055 201.98 38.0508 200.992 38.2695 199.586H40.5312ZM49.4023 194.266C49.0742 194.211 48.7188 194.184 48.3359 194.184C46.9141 194.184 45.9492 194.789 45.4414 196V205H43.2734V192.32H45.3828L45.418 193.785C46.1289 192.652 47.1367 192.086 48.4414 192.086C48.8633 192.086 49.1836 192.141 49.4023 192.25V194.266ZM56.4336 205.234C54.7148 205.234 53.3164 204.672 52.2383 203.547C51.1602 202.414 50.6211 200.902 50.6211 199.012V198.613C50.6211 197.355 50.8594 196.234 51.3359 195.25C51.8203 194.258 52.4922 193.484 53.3516 192.93C54.2188 192.367 55.1562 192.086 56.1641 192.086C57.8125 192.086 59.0938 192.629 60.0078 193.715C60.9219 194.801 61.3789 196.355 61.3789 198.379V199.281H52.7891C52.8203 200.531 53.1836 201.543 53.8789 202.316C54.582 203.082 55.4727 203.465 56.5508 203.465C57.3164 203.465 57.9648 203.309 58.4961 202.996C59.0273 202.684 59.4922 202.27 59.8906 201.754L61.2148 202.785C60.1523 204.418 58.5586 205.234 56.4336 205.234ZM56.1641 193.867C55.2891 193.867 54.5547 194.188 53.9609 194.828C53.3672 195.461 53 196.352 52.8594 197.5H59.2109V197.336C59.1484 196.234 58.8516 195.383 58.3203 194.781C57.7891 194.172 57.0703 193.867 56.1641 193.867ZM71.7266 205C71.6016 204.75 71.5 204.305 71.4219 203.664C70.4141 204.711 69.2109 205.234 67.8125 205.234C66.5625 205.234 65.5352 204.883 64.7305 204.18C63.9336 203.469 63.5352 202.57 63.5352 201.484C63.5352 200.164 64.0352 199.141 65.0352 198.414C66.043 197.68 67.457 197.312 69.2773 197.312H71.3867V196.316C71.3867 195.559 71.1602 194.957 70.707 194.512C70.2539 194.059 69.5859 193.832 68.7031 193.832C67.9297 193.832 67.2812 194.027 66.7578 194.418C66.2344 194.809 65.9727 195.281 65.9727 195.836H63.793C63.793 195.203 64.0156 194.594 64.4609 194.008C64.9141 193.414 65.5234 192.945 66.2891 192.602C67.0625 192.258 67.9102 192.086 68.832 192.086C70.293 192.086 71.4375 192.453 72.2656 193.188C73.0938 193.914 73.5234 194.918 73.5547 196.199V202.035C73.5547 203.199 73.7031 204.125 74 204.812V205H71.7266ZM68.1289 203.348C68.8086 203.348 69.4531 203.172 70.0625 202.82C70.6719 202.469 71.1133 202.012 71.3867 201.449V198.848H69.6875C67.0312 198.848 65.7031 199.625 65.7031 201.18C65.7031 201.859 65.9297 202.391 66.3828 202.773C66.8359 203.156 67.418 203.348 68.1289 203.348ZM79.8945 189.25V192.32H82.2617V193.996H79.8945V201.859C79.8945 202.367 80 202.75 80.2109 203.008C80.4219 203.258 80.7812 203.383 81.2891 203.383C81.5391 203.383 81.8828 203.336 82.3203 203.242V205C81.75 205.156 81.1953 205.234 80.6562 205.234C79.6875 205.234 78.957 204.941 78.4648 204.355C77.9727 203.77 77.7266 202.938 77.7266 201.859V193.996H75.418V192.32H77.7266V189.25H79.8945ZM90.0664 205.234C88.3477 205.234 86.9492 204.672 85.8711 203.547C84.793 202.414 84.2539 200.902 84.2539 199.012V198.613C84.2539 197.355 84.4922 196.234 84.9688 195.25C85.4531 194.258 86.125 193.484 86.9844 192.93C87.8516 192.367 88.7891 192.086 89.7969 192.086C91.4453 192.086 92.7266 192.629 93.6406 193.715C94.5547 194.801 95.0117 196.355 95.0117 198.379V199.281H86.4219C86.4531 200.531 86.8164 201.543 87.5117 202.316C88.2148 203.082 89.1055 203.465 90.1836 203.465C90.9492 203.465 91.5977 203.309 92.1289 202.996C92.6602 202.684 93.125 202.27 93.5234 201.754L94.8477 202.785C93.7852 204.418 92.1914 205.234 90.0664 205.234ZM89.7969 193.867C88.9219 193.867 88.1875 194.188 87.5938 194.828C87 195.461 86.6328 196.352 86.4922 197.5H92.8438V197.336C92.7812 196.234 92.4844 195.383 91.9531 194.781C91.4219 194.172 90.7031 193.867 89.7969 193.867ZM34.2383 222.098H30.2305V229H27.9688V211.938H33.6172C35.5391 211.938 37.0156 212.375 38.0469 213.25C39.0859 214.125 39.6055 215.398 39.6055 217.07C39.6055 218.133 39.3164 219.059 38.7383 219.848C38.168 220.637 37.3711 221.227 36.3477 221.617L40.3555 228.859V229H37.9414L34.2383 222.098ZM30.2305 220.258H33.6875C34.8047 220.258 35.6914 219.969 36.3477 219.391C37.0117 218.812 37.3438 218.039 37.3438 217.07C37.3438 216.016 37.0273 215.207 36.3945 214.645C35.7695 214.082 34.8633 213.797 33.6758 213.789H30.2305V220.258ZM47.6914 229.234C45.9727 229.234 44.5742 228.672 43.4961 227.547C42.418 226.414 41.8789 224.902 41.8789 223.012V222.613C41.8789 221.355 42.1172 220.234 42.5938 219.25C43.0781 218.258 43.75 217.484 44.6094 216.93C45.4766 216.367 46.4141 216.086 47.4219 216.086C49.0703 216.086 50.3516 216.629 51.2656 217.715C52.1797 218.801 52.6367 220.355 52.6367 222.379V223.281H44.0469C44.0781 224.531 44.4414 225.543 45.1367 226.316C45.8398 227.082 46.7305 227.465 47.8086 227.465C48.5742 227.465 49.2227 227.309 49.7539 226.996C50.2852 226.684 50.75 226.27 51.1484 225.754L52.4727 226.785C51.4102 228.418 49.8164 229.234 47.6914 229.234ZM47.4219 217.867C46.5469 217.867 45.8125 218.188 45.2188 218.828C44.625 219.461 44.2578 220.352 44.1172 221.5H50.4688V221.336C50.4062 220.234 50.1094 219.383 49.5781 218.781C49.0469 218.172 48.3281 217.867 47.4219 217.867ZM65.8672 222.801C65.8672 224.73 65.4258 226.285 64.543 227.465C63.6602 228.645 62.4648 229.234 60.957 229.234C59.418 229.234 58.207 228.746 57.3242 227.77V233.875H55.1562V216.32H57.1367L57.2422 217.727C58.125 216.633 59.3516 216.086 60.9219 216.086C62.4453 216.086 63.6484 216.66 64.5312 217.809C65.4219 218.957 65.8672 220.555 65.8672 222.602V222.801ZM63.6992 222.555C63.6992 221.125 63.3945 219.996 62.7852 219.168C62.1758 218.34 61.3398 217.926 60.2773 217.926C58.9648 217.926 57.9805 218.508 57.3242 219.672V225.73C57.9727 226.887 58.9648 227.465 60.3008 227.465C61.3398 227.465 62.1641 227.055 62.7734 226.234C63.3906 225.406 63.6992 224.18 63.6992 222.555ZM68.0586 222.543C68.0586 221.301 68.3008 220.184 68.7852 219.191C69.2773 218.199 69.957 217.434 70.8242 216.895C71.6992 216.355 72.6953 216.086 73.8125 216.086C75.5391 216.086 76.9336 216.684 77.9961 217.879C79.0664 219.074 79.6016 220.664 79.6016 222.648V222.801C79.6016 224.035 79.3633 225.145 78.8867 226.129C78.418 227.105 77.7422 227.867 76.8594 228.414C75.9844 228.961 74.9766 229.234 73.8359 229.234C72.1172 229.234 70.7227 228.637 69.6523 227.441C68.5898 226.246 68.0586 224.664 68.0586 222.695V222.543ZM70.2383 222.801C70.2383 224.207 70.5625 225.336 71.2109 226.188C71.8672 227.039 72.7422 227.465 73.8359 227.465C74.9375 227.465 75.8125 227.035 76.4609 226.176C77.1094 225.309 77.4336 224.098 77.4336 222.543C77.4336 221.152 77.1016 220.027 76.4375 219.168C75.7812 218.301 74.9062 217.867 73.8125 217.867C72.7422 217.867 71.8789 218.293 71.2227 219.145C70.5664 219.996 70.2383 221.215 70.2383 222.801ZM88.4492 218.266C88.1211 218.211 87.7656 218.184 87.3828 218.184C85.9609 218.184 84.9961 218.789 84.4883 220V229H82.3203V216.32H84.4297L84.4648 217.785C85.1758 216.652 86.1836 216.086 87.4883 216.086C87.9102 216.086 88.2305 216.141 88.4492 216.25V218.266ZM93.9805 213.25V216.32H96.3477V217.996H93.9805V225.859C93.9805 226.367 94.0859 226.75 94.2969 227.008C94.5078 227.258 94.8672 227.383 95.375 227.383C95.625 227.383 95.9688 227.336 96.4062 227.242V229C95.8359 229.156 95.2812 229.234 94.7422 229.234C93.7734 229.234 93.043 228.941 92.5508 228.355C92.0586 227.77 91.8125 226.938 91.8125 225.859V217.996H89.5039V216.32H91.8125V213.25H93.9805Z" fill="white"/>
</g>
</g>
<defs>
<filter id="filter0_dd" x="-4" y="-4" width="368" height="68" filterUnits="userSpaceOnUse" color-interpolation-filters="sRGB">
<feFlood flood-opacity="0" result="BackgroundImageFix"/>
<feColorMatrix in="SourceAlpha" type="matrix" values="0 0 0 0 0 0 0 0 0 0 0 0 0 0 0 0 0 0 127 0"/>
<feOffset dy="4"/>
<feGaussianBlur stdDeviation="2"/>
<feColorMatrix type="matrix" values="0 0 0 0 0 0 0 0 0 0 0 0 0 0 0 0 0 0 0.24 0"/>
<feBlend mode="normal" in2="BackgroundImageFix" result="effect1_dropShadow"/>
<feColorMatrix in="SourceAlpha" type="matrix" values="0 0 0 0 0 0 0 0 0 0 0 0 0 0 0 0 0 0 127 0"/>
<feOffset/>
<feGaussianBlur stdDeviation="2"/>
<feColorMatrix type="matrix" values="0 0 0 0 0 0 0 0 0 0 0 0 0 0 0 0 0 0 0.12 0"/>
<feBlend mode="normal" in2="effect1_dropShadow" result="effect2_dropShadow"/>
<feBlend mode="normal" in="SourceGraphic" in2="effect2_dropShadow" result="shape"/>
</filter>
<filter id="filter1_d" x="180" y="78" width="176" height="224" filterUnits="userSpaceOnUse" color-interpolation-filters="sRGB">
<feFlood flood-opacity="0" result="BackgroundImageFix"/>
<feColorMatrix in="SourceAlpha" type="matrix" values="0 0 0 0 0 0 0 0 0 0 0 0 0 0 0 0 0 0 127 0"/>
<feOffset dy="2"/>
<feGaussianBlur stdDeviation="2"/>
<feColorMatrix type="matrix" values="0 0 0 0 0 0 0 0 0 0 0 0 0 0 0 0 0 0 0.25 0"/>
<feBlend mode="normal" in2="BackgroundImageFix" result="effect1_dropShadow"/>
<feBlend mode="normal" in="SourceGraphic" in2="effect1_dropShadow" result="shape"/>
</filter>
<filter id="filter2_d" x="4" y="78" width="176" height="224" filterUnits="userSpaceOnUse" color-interpolation-filters="sRGB">
<feFlood flood-opacity="0" result="BackgroundImageFix"/>
<feColorMatrix in="SourceAlpha" type="matrix" values="0 0 0 0 0 0 0 0 0 0 0 0 0 0 0 0 0 0 127 0"/>
<feOffset dy="2"/>
<feGaussianBlur stdDeviation="2"/>
<feColorMatrix type="matrix" values="0 0 0 0 0 0 0 0 0 0 0 0 0 0 0 0 0 0 0.25 0"/>
<feBlend mode="normal" in2="BackgroundImageFix" result="effect1_dropShadow"/>
<feBlend mode="normal" in="SourceGraphic" in2="effect1_dropShadow" result="shape"/>
</filter>
<clipPath id="clip0">
<rect width="360" height="640" fill="white"/>
</clipPath>
</defs>
</svg>
