<svg width="360" height="640" viewBox="0 0 360 640" fill="none" xmlns="http://www.w3.org/2000/svg">
<g clip-path="url(#clip0)">
<rect width="360" height="640" fill="white"/>
<g filter="url(#filter0_dd)">
<rect width="360" height="56" fill="#00BCD4"/>
<path d="M141.43 29.5215H138.676V35H136.205V20.7812H141.205C142.846 20.7812 144.112 21.1491 145.004 21.8848C145.896 22.6204 146.342 23.6849 146.342 25.0781C146.342 26.0286 146.111 26.8262 145.648 27.4707C145.193 28.1087 144.555 28.6003 143.734 28.9453L146.928 34.873V35H144.281L141.43 29.5215ZM138.676 27.5391H141.215C142.048 27.5391 142.699 27.3307 143.168 26.9141C143.637 26.4909 143.871 25.9147 143.871 25.1855C143.871 24.4238 143.653 23.8346 143.217 23.418C142.787 23.0013 142.143 22.7865 141.283 22.7734H138.676V27.5391ZM154.77 35C154.665 34.7982 154.574 34.4694 154.496 34.0137C153.741 34.8014 152.816 35.1953 151.723 35.1953C150.661 35.1953 149.796 34.8926 149.125 34.2871C148.454 33.6816 148.119 32.9329 148.119 32.041C148.119 30.9147 148.536 30.0521 149.369 29.4531C150.209 28.8477 151.407 28.5449 152.963 28.5449H154.418V27.8516C154.418 27.3047 154.265 26.8685 153.959 26.543C153.653 26.2109 153.188 26.0449 152.562 26.0449C152.022 26.0449 151.579 26.1816 151.234 26.4551C150.889 26.722 150.717 27.0638 150.717 27.4805H148.344C148.344 26.901 148.536 26.3607 148.92 25.8594C149.304 25.3516 149.825 24.9544 150.482 24.668C151.146 24.3815 151.885 24.2383 152.699 24.2383C153.936 24.2383 154.923 24.5508 155.658 25.1758C156.394 25.7943 156.771 26.6667 156.791 27.793V32.5586C156.791 33.5091 156.924 34.2676 157.191 34.834V35H154.77ZM152.162 33.291C152.631 33.291 153.07 33.1771 153.48 32.9492C153.897 32.7214 154.21 32.4154 154.418 32.0312V30.0391H153.139C152.26 30.0391 151.599 30.1921 151.156 30.498C150.714 30.804 150.492 31.237 150.492 31.7969C150.492 32.2526 150.642 32.6172 150.941 32.8906C151.247 33.1576 151.654 33.291 152.162 33.291ZM161.479 24.4336L161.547 25.6543C162.328 24.7103 163.354 24.2383 164.623 24.2383C166.824 24.2383 167.943 25.498 167.982 28.0176V35H165.609V28.1543C165.609 27.4837 165.463 26.9889 165.17 26.6699C164.883 26.3444 164.411 26.1816 163.754 26.1816C162.797 26.1816 162.084 26.6146 161.615 27.4805V35H159.242V24.4336H161.479ZM173.842 30.4688L172.787 31.5527V35H170.414V20H172.787V28.6523L173.529 27.7246L176.449 24.4336H179.301L175.375 28.8379L179.721 35H176.977L173.842 30.4688ZM183.383 35H181.01V24.4336H183.383V35ZM180.863 21.6895C180.863 21.3249 180.977 21.0221 181.205 20.7812C181.439 20.5404 181.771 20.4199 182.201 20.4199C182.631 20.4199 182.963 20.5404 183.197 20.7812C183.432 21.0221 183.549 21.3249 183.549 21.6895C183.549 22.0475 183.432 22.347 183.197 22.5879C182.963 22.8223 182.631 22.9395 182.201 22.9395C181.771 22.9395 181.439 22.8223 181.205 22.5879C180.977 22.347 180.863 22.0475 180.863 21.6895ZM188.178 24.4336L188.246 25.6543C189.027 24.7103 190.053 24.2383 191.322 24.2383C193.523 24.2383 194.643 25.498 194.682 28.0176V35H192.309V28.1543C192.309 27.4837 192.162 26.9889 191.869 26.6699C191.583 26.3444 191.111 26.1816 190.453 26.1816C189.496 26.1816 188.783 26.6146 188.314 27.4805V35H185.941V24.4336H188.178ZM196.693 29.6387C196.693 27.998 197.077 26.6895 197.846 25.7129C198.62 24.7298 199.646 24.2383 200.922 24.2383C202.126 24.2383 203.074 24.6582 203.764 25.498L203.871 24.4336H206.01V34.6777C206.01 36.0645 205.577 37.1582 204.711 37.959C203.852 38.7598 202.689 39.1602 201.225 39.1602C200.45 39.1602 199.691 38.9974 198.949 38.6719C198.214 38.3529 197.654 37.9329 197.27 37.4121L198.393 35.9863C199.122 36.8522 200.02 37.2852 201.088 37.2852C201.876 37.2852 202.497 37.0703 202.953 36.6406C203.409 36.2174 203.637 35.5924 203.637 34.7656V34.0527C202.953 34.8145 202.042 35.1953 200.902 35.1953C199.665 35.1953 198.653 34.7038 197.865 33.7207C197.084 32.7376 196.693 31.377 196.693 29.6387ZM199.057 29.8438C199.057 30.9049 199.271 31.7415 199.701 32.3535C200.137 32.959 200.74 33.2617 201.508 33.2617C202.465 33.2617 203.174 32.8516 203.637 32.0312V27.3828C203.188 26.582 202.484 26.1816 201.527 26.1816C200.746 26.1816 200.137 26.4909 199.701 27.1094C199.271 27.7279 199.057 28.6393 199.057 29.8438Z" fill="white"/>
<path fill-rule="evenodd" clip-rule="evenodd" d="M35.4 23.4L34 22L28 28L34 34L35.4 32.6L30.8 28L35.4 23.4Z" fill="white"/>
</g>
<g clip-path="url(#clip1)">
<path d="M78.0312 89.9844L80.7578 85.625H82.5234L78.9297 91.2656L82.6094 97H80.8281L78.0312 92.5625L75.2188 97H73.4453L77.1328 91.2656L73.5312 85.625H75.2891L78.0312 89.9844ZM88.0625 89.9844L90.7891 85.625H92.5547L88.9609 91.2656L92.6406 97H90.8594L88.0625 92.5625L85.25 97H83.4766L87.1641 91.2656L83.5625 85.625H85.3203L88.0625 89.9844ZM105.109 92.1484C105.109 93.8411 104.82 95.099 104.242 95.9219C103.664 96.7448 102.76 97.1562 101.531 97.1562C100.318 97.1562 99.4193 96.7552 98.8359 95.9531C98.2526 95.1458 97.9505 93.9427 97.9297 92.3438V90.4141C97.9297 88.7422 98.2188 87.5 98.7969 86.6875C99.375 85.875 100.281 85.4688 101.516 85.4688C102.74 85.4688 103.641 85.862 104.219 86.6484C104.797 87.4297 105.094 88.638 105.109 90.2734V92.1484ZM103.664 90.1719C103.664 88.9479 103.492 88.0573 103.148 87.5C102.805 86.9375 102.26 86.6562 101.516 86.6562C100.776 86.6562 100.237 86.9349 99.8984 87.4922C99.5599 88.0495 99.3854 88.9062 99.375 90.0625V92.375C99.375 93.6042 99.5521 94.513 99.9062 95.1016C100.266 95.6849 100.807 95.9766 101.531 95.9766C102.245 95.9766 102.773 95.7005 103.117 95.1484C103.466 94.5964 103.648 93.7266 103.664 92.5391V90.1719ZM114.094 92.1484C114.094 93.8411 113.805 95.099 113.227 95.9219C112.648 96.7448 111.745 97.1562 110.516 97.1562C109.302 97.1562 108.404 96.7552 107.82 95.9531C107.237 95.1458 106.935 93.9427 106.914 92.3438V90.4141C106.914 88.7422 107.203 87.5 107.781 86.6875C108.359 85.875 109.266 85.4688 110.5 85.4688C111.724 85.4688 112.625 85.862 113.203 86.6484C113.781 87.4297 114.078 88.638 114.094 90.2734V92.1484ZM112.648 90.1719C112.648 88.9479 112.477 88.0573 112.133 87.5C111.789 86.9375 111.245 86.6562 110.5 86.6562C109.76 86.6562 109.221 86.9349 108.883 87.4922C108.544 88.0495 108.37 88.9062 108.359 90.0625V92.375C108.359 93.6042 108.536 94.513 108.891 95.1016C109.25 95.6849 109.792 95.9766 110.516 95.9766C111.229 95.9766 111.758 95.7005 112.102 95.1484C112.451 94.5964 112.633 93.7266 112.648 92.5391V90.1719ZM123.078 92.1484C123.078 93.8411 122.789 95.099 122.211 95.9219C121.633 96.7448 120.729 97.1562 119.5 97.1562C118.286 97.1562 117.388 96.7552 116.805 95.9531C116.221 95.1458 115.919 93.9427 115.898 92.3438V90.4141C115.898 88.7422 116.188 87.5 116.766 86.6875C117.344 85.875 118.25 85.4688 119.484 85.4688C120.708 85.4688 121.609 85.862 122.188 86.6484C122.766 87.4297 123.062 88.638 123.078 90.2734V92.1484ZM121.633 90.1719C121.633 88.9479 121.461 88.0573 121.117 87.5C120.773 86.9375 120.229 86.6562 119.484 86.6562C118.745 86.6562 118.206 86.9349 117.867 87.4922C117.529 88.0495 117.354 88.9062 117.344 90.0625V92.375C117.344 93.6042 117.521 94.513 117.875 95.1016C118.234 95.6849 118.776 95.9766 119.5 95.9766C120.214 95.9766 120.742 95.7005 121.086 95.1484C121.435 94.5964 121.617 93.7266 121.633 92.5391V90.1719ZM132.984 89.9844L135.711 85.625H137.477L133.883 91.2656L137.562 97H135.781L132.984 92.5625L130.172 97H128.398L132.086 91.2656L128.484 85.625H130.242L132.984 89.9844ZM143.016 89.9844L145.742 85.625H147.508L143.914 91.2656L147.594 97H145.812L143.016 92.5625L140.203 97H138.43L142.117 91.2656L138.516 85.625H140.273L143.016 89.9844Z" fill="black" fill-opacity="0.87"/>
<path fill-rule="evenodd" clip-rule="evenodd" d="M36 112C47.0457 112 56 103.046 56 92C56 80.9543 47.0457 72 36 72C24.9543 72 16 80.9543 16 92C16 103.046 24.9543 112 36 112Z" fill="black" fill-opacity="0.26"/>
<path d="M38.2578 97H36V88.2969L33.3047 89.1328V87.2969L38.0156 85.6094H38.2578V97Z" fill="white"/>
<path d="M78.0312 257.984L80.7578 253.625H82.5234L78.9297 259.266L82.6094 265H80.8281L78.0312 260.562L75.2188 265H73.4453L77.1328 259.266L73.5312 253.625H75.2891L78.0312 257.984ZM88.0625 257.984L90.7891 253.625H92.5547L88.9609 259.266L92.6406 265H90.8594L88.0625 260.562L85.25 265H83.4766L87.1641 259.266L83.5625 253.625H85.3203L88.0625 257.984ZM105.109 260.148C105.109 261.841 104.82 263.099 104.242 263.922C103.664 264.745 102.76 265.156 101.531 265.156C100.318 265.156 99.4193 264.755 98.8359 263.953C98.2526 263.146 97.9505 261.943 97.9297 260.344V258.414C97.9297 256.742 98.2188 255.5 98.7969 254.688C99.375 253.875 100.281 253.469 101.516 253.469C102.74 253.469 103.641 253.862 104.219 254.648C104.797 255.43 105.094 256.638 105.109 258.273V260.148ZM103.664 258.172C103.664 256.948 103.492 256.057 103.148 255.5C102.805 254.938 102.26 254.656 101.516 254.656C100.776 254.656 100.237 254.935 99.8984 255.492C99.5599 256.049 99.3854 256.906 99.375 258.062V260.375C99.375 261.604 99.5521 262.513 99.9062 263.102C100.266 263.685 100.807 263.977 101.531 263.977C102.245 263.977 102.773 263.701 103.117 263.148C103.466 262.596 103.648 261.727 103.664 260.539V258.172ZM114.094 260.148C114.094 261.841 113.805 263.099 113.227 263.922C112.648 264.745 111.745 265.156 110.516 265.156C109.302 265.156 108.404 264.755 107.82 263.953C107.237 263.146 106.935 261.943 106.914 260.344V258.414C106.914 256.742 107.203 255.5 107.781 254.688C108.359 253.875 109.266 253.469 110.5 253.469C111.724 253.469 112.625 253.862 113.203 254.648C113.781 255.43 114.078 256.638 114.094 258.273V260.148ZM112.648 258.172C112.648 256.948 112.477 256.057 112.133 255.5C111.789 254.938 111.245 254.656 110.5 254.656C109.76 254.656 109.221 254.935 108.883 255.492C108.544 256.049 108.37 256.906 108.359 258.062V260.375C108.359 261.604 108.536 262.513 108.891 263.102C109.25 263.685 109.792 263.977 110.516 263.977C111.229 263.977 111.758 263.701 112.102 263.148C112.451 262.596 112.633 261.727 112.648 260.539V258.172ZM118.047 258.609H119.133C119.815 258.599 120.352 258.419 120.742 258.07C121.133 257.721 121.328 257.25 121.328 256.656C121.328 255.323 120.664 254.656 119.336 254.656C118.711 254.656 118.211 254.836 117.836 255.195C117.466 255.549 117.281 256.021 117.281 256.609H115.836C115.836 255.708 116.164 254.961 116.82 254.367C117.482 253.768 118.32 253.469 119.336 253.469C120.409 253.469 121.25 253.753 121.859 254.32C122.469 254.888 122.773 255.677 122.773 256.688C122.773 257.182 122.612 257.661 122.289 258.125C121.971 258.589 121.536 258.935 120.984 259.164C121.609 259.362 122.091 259.69 122.43 260.148C122.773 260.607 122.945 261.167 122.945 261.828C122.945 262.849 122.612 263.659 121.945 264.258C121.279 264.857 120.411 265.156 119.344 265.156C118.276 265.156 117.406 264.867 116.734 264.289C116.068 263.711 115.734 262.948 115.734 262H117.188C117.188 262.599 117.383 263.078 117.773 263.438C118.164 263.797 118.688 263.977 119.344 263.977C120.042 263.977 120.576 263.794 120.945 263.43C121.315 263.065 121.5 262.542 121.5 261.859C121.5 261.198 121.297 260.69 120.891 260.336C120.484 259.982 119.898 259.799 119.133 259.789H118.047V258.609ZM132.984 257.984L135.711 253.625H137.477L133.883 259.266L137.562 265H135.781L132.984 260.562L130.172 265H128.398L132.086 259.266L128.484 253.625H130.242L132.984 257.984ZM143.016 257.984L145.742 253.625H147.508L143.914 259.266L147.594 265H145.812L143.016 260.562L140.203 265H138.43L142.117 259.266L138.516 253.625H140.273L143.016 257.984Z" fill="black" fill-opacity="0.87"/>
<path fill-rule="evenodd" clip-rule="evenodd" d="M36 280C47.0457 280 56 271.046 56 260C56 248.954 47.0457 240 36 240C24.9543 240 16 248.954 16 260C16 271.046 24.9543 280 36 280Z" fill="black" fill-opacity="0.26"/>
<path d="M38.4531 260.719H39.7422V262.539H38.4531V265H36.1953V262.539H31.5312L31.4297 261.117L36.1719 253.625H38.4531V260.719ZM33.6797 260.719H36.1953V256.703L36.0469 256.961L33.6797 260.719Z" fill="white"/>
<path d="M78.0312 313.984L80.7578 309.625H82.5234L78.9297 315.266L82.6094 321H80.8281L78.0312 316.562L75.2188 321H73.4453L77.1328 315.266L73.5312 309.625H75.2891L78.0312 313.984ZM88.0625 313.984L90.7891 309.625H92.5547L88.9609 315.266L92.6406 321H90.8594L88.0625 316.562L85.25 321H83.4766L87.1641 315.266L83.5625 309.625H85.3203L88.0625 313.984ZM105.109 316.148C105.109 317.841 104.82 319.099 104.242 319.922C103.664 320.745 102.76 321.156 101.531 321.156C100.318 321.156 99.4193 320.755 98.8359 319.953C98.2526 319.146 97.9505 317.943 97.9297 316.344V314.414C97.9297 312.742 98.2188 311.5 98.7969 310.688C99.375 309.875 100.281 309.469 101.516 309.469C102.74 309.469 103.641 309.862 104.219 310.648C104.797 311.43 105.094 312.638 105.109 314.273V316.148ZM103.664 314.172C103.664 312.948 103.492 312.057 103.148 311.5C102.805 310.938 102.26 310.656 101.516 310.656C100.776 310.656 100.237 310.935 99.8984 311.492C99.5599 312.049 99.3854 312.906 99.375 314.062V316.375C99.375 317.604 99.5521 318.513 99.9062 319.102C100.266 319.685 100.807 319.977 101.531 319.977C102.245 319.977 102.773 319.701 103.117 319.148C103.466 318.596 103.648 317.727 103.664 316.539V314.172ZM114.094 316.148C114.094 317.841 113.805 319.099 113.227 319.922C112.648 320.745 111.745 321.156 110.516 321.156C109.302 321.156 108.404 320.755 107.82 319.953C107.237 319.146 106.935 317.943 106.914 316.344V314.414C106.914 312.742 107.203 311.5 107.781 310.688C108.359 309.875 109.266 309.469 110.5 309.469C111.724 309.469 112.625 309.862 113.203 310.648C113.781 311.43 114.078 312.638 114.094 314.273V316.148ZM112.648 314.172C112.648 312.948 112.477 312.057 112.133 311.5C111.789 310.938 111.245 310.656 110.5 310.656C109.76 310.656 109.221 310.935 108.883 311.492C108.544 312.049 108.37 312.906 108.359 314.062V316.375C108.359 317.604 108.536 318.513 108.891 319.102C109.25 319.685 109.792 319.977 110.516 319.977C111.229 319.977 111.758 319.701 112.102 319.148C112.451 318.596 112.633 317.727 112.648 316.539V314.172ZM122.047 317.18H123.625V318.359H122.047V321H120.594V318.359H115.414V317.508L120.508 309.625H122.047V317.18ZM117.055 317.18H120.594V311.602L120.422 311.914L117.055 317.18ZM132.984 313.984L135.711 309.625H137.477L133.883 315.266L137.562 321H135.781L132.984 316.562L130.172 321H128.398L132.086 315.266L128.484 309.625H130.242L132.984 313.984ZM143.016 313.984L145.742 309.625H147.508L143.914 315.266L147.594 321H145.812L143.016 316.562L140.203 321H138.43L142.117 315.266L138.516 309.625H140.273L143.016 313.984Z" fill="black" fill-opacity="0.87"/>
<path fill-rule="evenodd" clip-rule="evenodd" d="M36 336C47.0457 336 56 327.046 56 316C56 304.954 47.0457 296 36 296C24.9543 296 16 304.954 16 316C16 327.046 24.9543 336 36 336Z" fill="black" fill-opacity="0.26"/>
<path d="M32.1094 315.406L32.7656 309.625H39.1406V311.508H34.6172L34.3359 313.953C34.8724 313.667 35.4427 313.523 36.0469 313.523C37.1302 313.523 37.9792 313.859 38.5938 314.531C39.2083 315.203 39.5156 316.143 39.5156 317.352C39.5156 318.086 39.3594 318.745 39.0469 319.328C38.7396 319.906 38.2969 320.357 37.7188 320.68C37.1406 320.997 36.4583 321.156 35.6719 321.156C34.9844 321.156 34.3464 321.018 33.7578 320.742C33.1693 320.461 32.7031 320.068 32.3594 319.562C32.0208 319.057 31.8411 318.482 31.8203 317.836H34.0547C34.1016 318.31 34.2656 318.68 34.5469 318.945C34.8333 319.206 35.2057 319.336 35.6641 319.336C36.1745 319.336 36.5677 319.154 36.8438 318.789C37.1198 318.419 37.2578 317.898 37.2578 317.227C37.2578 316.581 37.099 316.086 36.7812 315.742C36.4635 315.398 36.013 315.227 35.4297 315.227C34.8932 315.227 34.4583 315.367 34.125 315.648L33.9062 315.852L32.1094 315.406Z" fill="white"/>
<path d="M78.0312 361.984L80.7578 357.625H82.5234L78.9297 363.266L82.6094 369H80.8281L78.0312 364.562L75.2188 369H73.4453L77.1328 363.266L73.5312 357.625H75.2891L78.0312 361.984ZM88.0625 361.984L90.7891 357.625H92.5547L88.9609 363.266L92.6406 369H90.8594L88.0625 364.562L85.25 369H83.4766L87.1641 363.266L83.5625 357.625H85.3203L88.0625 361.984ZM105.109 364.148C105.109 365.841 104.82 367.099 104.242 367.922C103.664 368.745 102.76 369.156 101.531 369.156C100.318 369.156 99.4193 368.755 98.8359 367.953C98.2526 367.146 97.9505 365.943 97.9297 364.344V362.414C97.9297 360.742 98.2188 359.5 98.7969 358.688C99.375 357.875 100.281 357.469 101.516 357.469C102.74 357.469 103.641 357.862 104.219 358.648C104.797 359.43 105.094 360.638 105.109 362.273V364.148ZM103.664 362.172C103.664 360.948 103.492 360.057 103.148 359.5C102.805 358.938 102.26 358.656 101.516 358.656C100.776 358.656 100.237 358.935 99.8984 359.492C99.5599 360.049 99.3854 360.906 99.375 362.062V364.375C99.375 365.604 99.5521 366.513 99.9062 367.102C100.266 367.685 100.807 367.977 101.531 367.977C102.245 367.977 102.773 367.701 103.117 367.148C103.466 366.596 103.648 365.727 103.664 364.539V362.172ZM114.094 364.148C114.094 365.841 113.805 367.099 113.227 367.922C112.648 368.745 111.745 369.156 110.516 369.156C109.302 369.156 108.404 368.755 107.82 367.953C107.237 367.146 106.935 365.943 106.914 364.344V362.414C106.914 360.742 107.203 359.5 107.781 358.688C108.359 357.875 109.266 357.469 110.5 357.469C111.724 357.469 112.625 357.862 113.203 358.648C113.781 359.43 114.078 360.638 114.094 362.273V364.148ZM112.648 362.172C112.648 360.948 112.477 360.057 112.133 359.5C111.789 358.938 111.245 358.656 110.5 358.656C109.76 358.656 109.221 358.935 108.883 359.492C108.544 360.049 108.37 360.906 108.359 362.062V364.375C108.359 365.604 108.536 366.513 108.891 367.102C109.25 367.685 109.792 367.977 110.516 367.977C111.229 367.977 111.758 367.701 112.102 367.148C112.451 366.596 112.633 365.727 112.648 364.539V362.172ZM116.609 363.297L117.188 357.625H123.016V358.961H118.414L118.07 362.062C118.628 361.734 119.26 361.57 119.969 361.57C121.005 361.57 121.828 361.914 122.438 362.602C123.047 363.284 123.352 364.208 123.352 365.375C123.352 366.547 123.034 367.471 122.398 368.148C121.768 368.82 120.885 369.156 119.75 369.156C118.745 369.156 117.924 368.878 117.289 368.32C116.654 367.763 116.292 366.992 116.203 366.008H117.57C117.659 366.659 117.891 367.151 118.266 367.484C118.641 367.812 119.135 367.977 119.75 367.977C120.422 367.977 120.948 367.747 121.328 367.289C121.714 366.831 121.906 366.198 121.906 365.391C121.906 364.63 121.698 364.021 121.281 363.562C120.87 363.099 120.32 362.867 119.633 362.867C119.003 362.867 118.508 363.005 118.148 363.281L117.766 363.594L116.609 363.297ZM132.984 361.984L135.711 357.625H137.477L133.883 363.266L137.562 369H135.781L132.984 364.562L130.172 369H128.398L132.086 363.266L128.484 357.625H130.242L132.984 361.984ZM143.016 361.984L145.742 357.625H147.508L143.914 363.266L147.594 369H145.812L143.016 364.562L140.203 369H138.43L142.117 363.266L138.516 357.625H140.273L143.016 361.984Z" fill="black" fill-opacity="0.87"/>
<path fill-rule="evenodd" clip-rule="evenodd" d="M36 384C47.0457 384 56 375.046 56 364C56 352.954 47.0457 344 36 344C24.9543 344 16 352.954 16 364C16 375.046 24.9543 384 36 384Z" fill="black" fill-opacity="0.26"/>
<path d="M37.8984 357.508V359.367H37.6797C36.6589 359.383 35.8359 359.648 35.2109 360.164C34.5911 360.68 34.2188 361.396 34.0938 362.312C34.6979 361.698 35.4609 361.391 36.3828 361.391C37.3724 361.391 38.1589 361.745 38.7422 362.453C39.3255 363.161 39.6172 364.094 39.6172 365.25C39.6172 365.99 39.4557 366.659 39.1328 367.258C38.8151 367.857 38.362 368.323 37.7734 368.656C37.1901 368.99 36.5286 369.156 35.7891 369.156C34.5911 369.156 33.6224 368.74 32.8828 367.906C32.1484 367.073 31.7812 365.961 31.7812 364.57V363.758C31.7812 362.523 32.013 361.435 32.4766 360.492C32.9453 359.544 33.6146 358.812 34.4844 358.297C35.3594 357.776 36.3724 357.513 37.5234 357.508H37.8984ZM35.6953 363.203C35.3307 363.203 35 363.299 34.7031 363.492C34.4062 363.68 34.1875 363.93 34.0469 364.242V364.93C34.0469 365.685 34.1953 366.276 34.4922 366.703C34.7891 367.125 35.2057 367.336 35.7422 367.336C36.2266 367.336 36.6172 367.146 36.9141 366.766C37.2161 366.38 37.3672 365.883 37.3672 365.273C37.3672 364.654 37.2161 364.154 36.9141 363.773C36.612 363.393 36.2057 363.203 35.6953 363.203Z" fill="white"/>
<path d="M78.0312 409.984L80.7578 405.625H82.5234L78.9297 411.266L82.6094 417H80.8281L78.0312 412.562L75.2188 417H73.4453L77.1328 411.266L73.5312 405.625H75.2891L78.0312 409.984ZM88.0625 409.984L90.7891 405.625H92.5547L88.9609 411.266L92.6406 417H90.8594L88.0625 412.562L85.25 417H83.4766L87.1641 411.266L83.5625 405.625H85.3203L88.0625 409.984ZM105.109 412.148C105.109 413.841 104.82 415.099 104.242 415.922C103.664 416.745 102.76 417.156 101.531 417.156C100.318 417.156 99.4193 416.755 98.8359 415.953C98.2526 415.146 97.9505 413.943 97.9297 412.344V410.414C97.9297 408.742 98.2188 407.5 98.7969 406.688C99.375 405.875 100.281 405.469 101.516 405.469C102.74 405.469 103.641 405.862 104.219 406.648C104.797 407.43 105.094 408.638 105.109 410.273V412.148ZM103.664 410.172C103.664 408.948 103.492 408.057 103.148 407.5C102.805 406.938 102.26 406.656 101.516 406.656C100.776 406.656 100.237 406.935 99.8984 407.492C99.5599 408.049 99.3854 408.906 99.375 410.062V412.375C99.375 413.604 99.5521 414.513 99.9062 415.102C100.266 415.685 100.807 415.977 101.531 415.977C102.245 415.977 102.773 415.701 103.117 415.148C103.466 414.596 103.648 413.727 103.664 412.539V410.172ZM114.094 412.148C114.094 413.841 113.805 415.099 113.227 415.922C112.648 416.745 111.745 417.156 110.516 417.156C109.302 417.156 108.404 416.755 107.82 415.953C107.237 415.146 106.935 413.943 106.914 412.344V410.414C106.914 408.742 107.203 407.5 107.781 406.688C108.359 405.875 109.266 405.469 110.5 405.469C111.724 405.469 112.625 405.862 113.203 406.648C113.781 407.43 114.078 408.638 114.094 410.273V412.148ZM112.648 410.172C112.648 408.948 112.477 408.057 112.133 407.5C111.789 406.938 111.245 406.656 110.5 406.656C109.76 406.656 109.221 406.935 108.883 407.492C108.544 408.049 108.37 408.906 108.359 410.062V412.375C108.359 413.604 108.536 414.513 108.891 415.102C109.25 415.685 109.792 415.977 110.516 415.977C111.229 415.977 111.758 415.701 112.102 415.148C112.451 414.596 112.633 413.727 112.648 412.539V410.172ZM121.617 405.617V406.844H121.352C120.227 406.865 119.331 407.198 118.664 407.844C117.997 408.49 117.612 409.398 117.508 410.57C118.107 409.883 118.924 409.539 119.961 409.539C120.951 409.539 121.74 409.888 122.328 410.586C122.922 411.284 123.219 412.185 123.219 413.289C123.219 414.461 122.898 415.398 122.258 416.102C121.622 416.805 120.768 417.156 119.695 417.156C118.607 417.156 117.724 416.74 117.047 415.906C116.37 415.068 116.031 413.99 116.031 412.672V412.117C116.031 410.023 116.477 408.424 117.367 407.32C118.263 406.211 119.594 405.643 121.359 405.617H121.617ZM119.719 410.742C119.224 410.742 118.768 410.891 118.352 411.188C117.935 411.484 117.646 411.857 117.484 412.305V412.836C117.484 413.773 117.695 414.529 118.117 415.102C118.539 415.674 119.065 415.961 119.695 415.961C120.346 415.961 120.857 415.721 121.227 415.242C121.602 414.763 121.789 414.135 121.789 413.359C121.789 412.578 121.599 411.948 121.219 411.469C120.844 410.984 120.344 410.742 119.719 410.742ZM132.984 409.984L135.711 405.625H137.477L133.883 411.266L137.562 417H135.781L132.984 412.562L130.172 417H128.398L132.086 411.266L128.484 405.625H130.242L132.984 409.984ZM143.016 409.984L145.742 405.625H147.508L143.914 411.266L147.594 417H145.812L143.016 412.562L140.203 417H138.43L142.117 411.266L138.516 405.625H140.273L143.016 409.984Z" fill="black" fill-opacity="0.87"/>
<path fill-rule="evenodd" clip-rule="evenodd" d="M36 432C47.0457 432 56 423.046 56 412C56 400.954 47.0457 392 36 392C24.9543 392 16 400.954 16 412C16 423.046 24.9543 432 36 432Z" fill="black" fill-opacity="0.26"/>
<path d="M39.5078 406.891L35.1094 417H32.7266L37.1328 407.453H31.4766V405.625H39.5078V406.891Z" fill="white"/>
<path d="M78.0312 457.984L80.7578 453.625H82.5234L78.9297 459.266L82.6094 465H80.8281L78.0312 460.562L75.2188 465H73.4453L77.1328 459.266L73.5312 453.625H75.2891L78.0312 457.984ZM88.0625 457.984L90.7891 453.625H92.5547L88.9609 459.266L92.6406 465H90.8594L88.0625 460.562L85.25 465H83.4766L87.1641 459.266L83.5625 453.625H85.3203L88.0625 457.984ZM105.109 460.148C105.109 461.841 104.82 463.099 104.242 463.922C103.664 464.745 102.76 465.156 101.531 465.156C100.318 465.156 99.4193 464.755 98.8359 463.953C98.2526 463.146 97.9505 461.943 97.9297 460.344V458.414C97.9297 456.742 98.2188 455.5 98.7969 454.688C99.375 453.875 100.281 453.469 101.516 453.469C102.74 453.469 103.641 453.862 104.219 454.648C104.797 455.43 105.094 456.638 105.109 458.273V460.148ZM103.664 458.172C103.664 456.948 103.492 456.057 103.148 455.5C102.805 454.938 102.26 454.656 101.516 454.656C100.776 454.656 100.237 454.935 99.8984 455.492C99.5599 456.049 99.3854 456.906 99.375 458.062V460.375C99.375 461.604 99.5521 462.513 99.9062 463.102C100.266 463.685 100.807 463.977 101.531 463.977C102.245 463.977 102.773 463.701 103.117 463.148C103.466 462.596 103.648 461.727 103.664 460.539V458.172ZM114.094 460.148C114.094 461.841 113.805 463.099 113.227 463.922C112.648 464.745 111.745 465.156 110.516 465.156C109.302 465.156 108.404 464.755 107.82 463.953C107.237 463.146 106.935 461.943 106.914 460.344V458.414C106.914 456.742 107.203 455.5 107.781 454.688C108.359 453.875 109.266 453.469 110.5 453.469C111.724 453.469 112.625 453.862 113.203 454.648C113.781 455.43 114.078 456.638 114.094 458.273V460.148ZM112.648 458.172C112.648 456.948 112.477 456.057 112.133 455.5C111.789 454.938 111.245 454.656 110.5 454.656C109.76 454.656 109.221 454.935 108.883 455.492C108.544 456.049 108.37 456.906 108.359 458.062V460.375C108.359 461.604 108.536 462.513 108.891 463.102C109.25 463.685 109.792 463.977 110.516 463.977C111.229 463.977 111.758 463.701 112.102 463.148C112.451 462.596 112.633 461.727 112.648 460.539V458.172ZM123.289 454.438L118.578 465H117.062L121.758 454.812H115.602V453.625H123.289V454.438ZM132.984 457.984L135.711 453.625H137.477L133.883 459.266L137.562 465H135.781L132.984 460.562L130.172 465H128.398L132.086 459.266L128.484 453.625H130.242L132.984 457.984ZM143.016 457.984L145.742 453.625H147.508L143.914 459.266L147.594 465H145.812L143.016 460.562L140.203 465H138.43L142.117 459.266L138.516 453.625H140.273L143.016 457.984Z" fill="black" fill-opacity="0.87"/>
<path fill-rule="evenodd" clip-rule="evenodd" d="M36 480C47.0457 480 56 471.046 56 460C56 448.954 47.0457 440 36 440C24.9543 440 16 448.954 16 460C16 471.046 24.9543 480 36 480Z" fill="black" fill-opacity="0.26"/>
<path d="M39.1875 456.648C39.1875 457.201 39.0495 457.69 38.7734 458.117C38.4974 458.544 38.1172 458.885 37.6328 459.141C38.1849 459.406 38.6224 459.773 38.9453 460.242C39.2682 460.706 39.4297 461.253 39.4297 461.883C39.4297 462.893 39.0859 463.693 38.3984 464.281C37.7109 464.865 36.776 465.156 35.5938 465.156C34.4115 465.156 33.474 464.862 32.7812 464.273C32.0885 463.685 31.7422 462.888 31.7422 461.883C31.7422 461.253 31.9036 460.703 32.2266 460.234C32.5495 459.766 32.9844 459.401 33.5312 459.141C33.0469 458.885 32.6667 458.544 32.3906 458.117C32.1198 457.69 31.9844 457.201 31.9844 456.648C31.9844 455.68 32.3073 454.909 32.9531 454.336C33.599 453.758 34.4766 453.469 35.5859 453.469C36.6901 453.469 37.5651 453.755 38.2109 454.328C38.862 454.896 39.1875 455.669 39.1875 456.648ZM37.1641 461.719C37.1641 461.224 37.0208 460.828 36.7344 460.531C36.4479 460.234 36.0625 460.086 35.5781 460.086C35.099 460.086 34.7161 460.234 34.4297 460.531C34.1432 460.823 34 461.219 34 461.719C34 462.203 34.1406 462.594 34.4219 462.891C34.7031 463.188 35.0938 463.336 35.5938 463.336C36.0833 463.336 36.4661 463.193 36.7422 462.906C37.0234 462.62 37.1641 462.224 37.1641 461.719ZM36.9297 456.758C36.9297 456.315 36.8125 455.961 36.5781 455.695C36.3438 455.424 36.013 455.289 35.5859 455.289C35.1641 455.289 34.8359 455.419 34.6016 455.68C34.3672 455.94 34.25 456.299 34.25 456.758C34.25 457.211 34.3672 457.576 34.6016 457.852C34.8359 458.128 35.1667 458.266 35.5938 458.266C36.0208 458.266 36.349 458.128 36.5781 457.852C36.8125 457.576 36.9297 457.211 36.9297 456.758Z" fill="white"/>
<path d="M78.0312 513.984L80.7578 509.625H82.5234L78.9297 515.266L82.6094 521H80.8281L78.0312 516.562L75.2188 521H73.4453L77.1328 515.266L73.5312 509.625H75.2891L78.0312 513.984ZM88.0625 513.984L90.7891 509.625H92.5547L88.9609 515.266L92.6406 521H90.8594L88.0625 516.562L85.25 521H83.4766L87.1641 515.266L83.5625 509.625H85.3203L88.0625 513.984ZM105.109 516.148C105.109 517.841 104.82 519.099 104.242 519.922C103.664 520.745 102.76 521.156 101.531 521.156C100.318 521.156 99.4193 520.755 98.8359 519.953C98.2526 519.146 97.9505 517.943 97.9297 516.344V514.414C97.9297 512.742 98.2188 511.5 98.7969 510.688C99.375 509.875 100.281 509.469 101.516 509.469C102.74 509.469 103.641 509.862 104.219 510.648C104.797 511.43 105.094 512.638 105.109 514.273V516.148ZM103.664 514.172C103.664 512.948 103.492 512.057 103.148 511.5C102.805 510.938 102.26 510.656 101.516 510.656C100.776 510.656 100.237 510.935 99.8984 511.492C99.5599 512.049 99.3854 512.906 99.375 514.062V516.375C99.375 517.604 99.5521 518.513 99.9062 519.102C100.266 519.685 100.807 519.977 101.531 519.977C102.245 519.977 102.773 519.701 103.117 519.148C103.466 518.596 103.648 517.727 103.664 516.539V514.172ZM114.094 516.148C114.094 517.841 113.805 519.099 113.227 519.922C112.648 520.745 111.745 521.156 110.516 521.156C109.302 521.156 108.404 520.755 107.82 519.953C107.237 519.146 106.935 517.943 106.914 516.344V514.414C106.914 512.742 107.203 511.5 107.781 510.688C108.359 509.875 109.266 509.469 110.5 509.469C111.724 509.469 112.625 509.862 113.203 510.648C113.781 511.43 114.078 512.638 114.094 514.273V516.148ZM112.648 514.172C112.648 512.948 112.477 512.057 112.133 511.5C111.789 510.938 111.245 510.656 110.5 510.656C109.76 510.656 109.221 510.935 108.883 511.492C108.544 512.049 108.37 512.906 108.359 514.062V516.375C108.359 517.604 108.536 518.513 108.891 519.102C109.25 519.685 109.792 519.977 110.516 519.977C111.229 519.977 111.758 519.701 112.102 519.148C112.451 518.596 112.633 517.727 112.648 516.539V514.172ZM122.844 512.594C122.844 513.161 122.693 513.667 122.391 514.109C122.094 514.552 121.69 514.898 121.18 515.148C121.773 515.404 122.242 515.776 122.586 516.266C122.935 516.755 123.109 517.31 123.109 517.93C123.109 518.914 122.776 519.698 122.109 520.281C121.448 520.865 120.576 521.156 119.492 521.156C118.398 521.156 117.521 520.865 116.859 520.281C116.203 519.693 115.875 518.909 115.875 517.93C115.875 517.315 116.042 516.76 116.375 516.266C116.714 515.771 117.18 515.396 117.773 515.141C117.268 514.891 116.87 514.544 116.578 514.102C116.286 513.659 116.141 513.156 116.141 512.594C116.141 511.635 116.448 510.875 117.062 510.312C117.677 509.75 118.487 509.469 119.492 509.469C120.492 509.469 121.299 509.75 121.914 510.312C122.534 510.875 122.844 511.635 122.844 512.594ZM121.664 517.898C121.664 517.263 121.461 516.745 121.055 516.344C120.654 515.943 120.128 515.742 119.477 515.742C118.826 515.742 118.302 515.94 117.906 516.336C117.516 516.732 117.32 517.253 117.32 517.898C117.32 518.544 117.51 519.052 117.891 519.422C118.276 519.792 118.81 519.977 119.492 519.977C120.169 519.977 120.701 519.792 121.086 519.422C121.471 519.047 121.664 518.539 121.664 517.898ZM119.492 510.656C118.924 510.656 118.464 510.833 118.109 511.188C117.76 511.536 117.586 512.013 117.586 512.617C117.586 513.195 117.758 513.664 118.102 514.023C118.451 514.378 118.914 514.555 119.492 514.555C120.07 514.555 120.531 514.378 120.875 514.023C121.224 513.664 121.398 513.195 121.398 512.617C121.398 512.039 121.219 511.568 120.859 511.203C120.5 510.839 120.044 510.656 119.492 510.656ZM132.984 513.984L135.711 509.625H137.477L133.883 515.266L137.562 521H135.781L132.984 516.562L130.172 521H128.398L132.086 515.266L128.484 509.625H130.242L132.984 513.984ZM143.016 513.984L145.742 509.625H147.508L143.914 515.266L147.594 521H145.812L143.016 516.562L140.203 521H138.43L142.117 515.266L138.516 509.625H140.273L143.016 513.984Z" fill="black" fill-opacity="0.87"/>
<path fill-rule="evenodd" clip-rule="evenodd" d="M36 536C47.0457 536 56 527.046 56 516C56 504.954 47.0457 496 36 496C24.9543 496 16 504.954 16 516C16 527.046 24.9543 536 36 536Z" fill="black" fill-opacity="0.26"/>
<path d="M37.0547 516.453C36.4661 517.031 35.7786 517.32 34.9922 517.32C33.987 517.32 33.1823 516.977 32.5781 516.289C31.974 515.596 31.6719 514.664 31.6719 513.492C31.6719 512.747 31.8333 512.065 32.1562 511.445C32.4844 510.82 32.9401 510.336 33.5234 509.992C34.1068 509.643 34.763 509.469 35.4922 509.469C36.2422 509.469 36.9089 509.656 37.4922 510.031C38.0755 510.406 38.5286 510.945 38.8516 511.648C39.1745 512.352 39.3385 513.156 39.3438 514.062V514.898C39.3438 516.794 38.8724 518.284 37.9297 519.367C36.987 520.451 35.651 521.029 33.9219 521.102L33.3672 521.109V519.227L33.8672 519.219C35.8307 519.13 36.8932 518.208 37.0547 516.453ZM35.5469 515.594C35.9115 515.594 36.224 515.5 36.4844 515.312C36.75 515.125 36.9505 514.898 37.0859 514.633V513.703C37.0859 512.938 36.9401 512.344 36.6484 511.922C36.3568 511.5 35.9661 511.289 35.4766 511.289C35.0234 511.289 34.651 511.497 34.3594 511.914C34.0677 512.326 33.9219 512.844 33.9219 513.469C33.9219 514.089 34.0625 514.599 34.3438 515C34.6302 515.396 35.0312 515.594 35.5469 515.594Z" fill="white"/>
<path d="M78.0312 569.984L80.7578 565.625H82.5234L78.9297 571.266L82.6094 577H80.8281L78.0312 572.562L75.2188 577H73.4453L77.1328 571.266L73.5312 565.625H75.2891L78.0312 569.984ZM88.0625 569.984L90.7891 565.625H92.5547L88.9609 571.266L92.6406 577H90.8594L88.0625 572.562L85.25 577H83.4766L87.1641 571.266L83.5625 565.625H85.3203L88.0625 569.984ZM105.109 572.148C105.109 573.841 104.82 575.099 104.242 575.922C103.664 576.745 102.76 577.156 101.531 577.156C100.318 577.156 99.4193 576.755 98.8359 575.953C98.2526 575.146 97.9505 573.943 97.9297 572.344V570.414C97.9297 568.742 98.2188 567.5 98.7969 566.688C99.375 565.875 100.281 565.469 101.516 565.469C102.74 565.469 103.641 565.862 104.219 566.648C104.797 567.43 105.094 568.638 105.109 570.273V572.148ZM103.664 570.172C103.664 568.948 103.492 568.057 103.148 567.5C102.805 566.938 102.26 566.656 101.516 566.656C100.776 566.656 100.237 566.935 99.8984 567.492C99.5599 568.049 99.3854 568.906 99.375 570.062V572.375C99.375 573.604 99.5521 574.513 99.9062 575.102C100.266 575.685 100.807 575.977 101.531 575.977C102.245 575.977 102.773 575.701 103.117 575.148C103.466 574.596 103.648 573.727 103.664 572.539V570.172ZM114.094 572.148C114.094 573.841 113.805 575.099 113.227 575.922C112.648 576.745 111.745 577.156 110.516 577.156C109.302 577.156 108.404 576.755 107.82 575.953C107.237 575.146 106.935 573.943 106.914 572.344V570.414C106.914 568.742 107.203 567.5 107.781 566.688C108.359 565.875 109.266 565.469 110.5 565.469C111.724 565.469 112.625 565.862 113.203 566.648C113.781 567.43 114.078 568.638 114.094 570.273V572.148ZM112.648 570.172C112.648 568.948 112.477 568.057 112.133 567.5C111.789 566.938 111.245 566.656 110.5 566.656C109.76 566.656 109.221 566.935 108.883 567.492C108.544 568.049 108.37 568.906 108.359 570.062V572.375C108.359 573.604 108.536 574.513 108.891 575.102C109.25 575.685 109.792 575.977 110.516 575.977C111.229 575.977 111.758 575.701 112.102 575.148C112.451 574.596 112.633 573.727 112.648 572.539V570.172ZM121.484 572C121.182 572.359 120.82 572.648 120.398 572.867C119.982 573.086 119.523 573.195 119.023 573.195C118.367 573.195 117.794 573.034 117.305 572.711C116.82 572.388 116.445 571.935 116.18 571.352C115.914 570.763 115.781 570.115 115.781 569.406C115.781 568.646 115.924 567.961 116.211 567.352C116.503 566.742 116.914 566.276 117.445 565.953C117.977 565.63 118.596 565.469 119.305 565.469C120.43 565.469 121.315 565.891 121.961 566.734C122.612 567.573 122.938 568.719 122.938 570.172V570.594C122.938 572.807 122.5 574.424 121.625 575.445C120.75 576.461 119.43 576.982 117.664 577.008H117.383V575.789H117.688C118.88 575.768 119.797 575.458 120.438 574.859C121.078 574.255 121.427 573.302 121.484 572ZM119.258 572C119.742 572 120.188 571.852 120.594 571.555C121.005 571.258 121.305 570.891 121.492 570.453V569.875C121.492 568.927 121.286 568.156 120.875 567.562C120.464 566.969 119.943 566.672 119.312 566.672C118.677 566.672 118.167 566.917 117.781 567.406C117.396 567.891 117.203 568.531 117.203 569.328C117.203 570.104 117.388 570.745 117.758 571.25C118.133 571.75 118.633 572 119.258 572ZM132.984 569.984L135.711 565.625H137.477L133.883 571.266L137.562 577H135.781L132.984 572.562L130.172 577H128.398L132.086 571.266L128.484 565.625H130.242L132.984 569.984ZM143.016 569.984L145.742 565.625H147.508L143.914 571.266L147.594 577H145.812L143.016 572.562L140.203 577H138.43L142.117 571.266L138.516 565.625H140.273L143.016 569.984Z" fill="black" fill-opacity="0.87"/>
<path fill-rule="evenodd" clip-rule="evenodd" d="M36 592C47.0457 592 56 583.046 56 572C56 560.954 47.0457 552 36 552C24.9543 552 16 560.954 16 572C16 583.046 24.9543 592 36 592Z" fill="black" fill-opacity="0.26"/>
<path d="M33.2578 577H31V568.297L28.3047 569.133V567.297L33.0156 565.609H33.2578V577ZM44.6172 572.297C44.6172 573.87 44.2917 575.073 43.6406 575.906C42.9896 576.74 42.0365 577.156 40.7812 577.156C39.5417 577.156 38.5938 576.747 37.9375 575.93C37.2812 575.112 36.9453 573.94 36.9297 572.414V570.32C36.9297 568.732 37.2578 567.526 37.9141 566.703C38.5755 565.88 39.526 565.469 40.7656 565.469C42.0052 565.469 42.9531 565.878 43.6094 566.695C44.2656 567.508 44.6016 568.677 44.6172 570.203V572.297ZM42.3594 570C42.3594 569.057 42.2292 568.372 41.9688 567.945C41.7135 567.513 41.3125 567.297 40.7656 567.297C40.2344 567.297 39.8411 567.503 39.5859 567.914C39.3359 568.32 39.2031 568.958 39.1875 569.828V572.594C39.1875 573.521 39.3125 574.211 39.5625 574.664C39.8177 575.112 40.224 575.336 40.7812 575.336C41.3333 575.336 41.7318 575.12 41.9766 574.688C42.2214 574.255 42.349 573.594 42.3594 572.703V570Z" fill="white"/>
<path d="M78.0312 625.984L80.7578 621.625H82.5234L78.9297 627.266L82.6094 633H80.8281L78.0312 628.562L75.2188 633H73.4453L77.1328 627.266L73.5312 621.625H75.2891L78.0312 625.984ZM88.0625 625.984L90.7891 621.625H92.5547L88.9609 627.266L92.6406 633H90.8594L88.0625 628.562L85.25 633H83.4766L87.1641 627.266L83.5625 621.625H85.3203L88.0625 625.984ZM105.109 628.148C105.109 629.841 104.82 631.099 104.242 631.922C103.664 632.745 102.76 633.156 101.531 633.156C100.318 633.156 99.4193 632.755 98.8359 631.953C98.2526 631.146 97.9505 629.943 97.9297 628.344V626.414C97.9297 624.742 98.2188 623.5 98.7969 622.688C99.375 621.875 100.281 621.469 101.516 621.469C102.74 621.469 103.641 621.862 104.219 622.648C104.797 623.43 105.094 624.638 105.109 626.273V628.148ZM103.664 626.172C103.664 624.948 103.492 624.057 103.148 623.5C102.805 622.938 102.26 622.656 101.516 622.656C100.776 622.656 100.237 622.935 99.8984 623.492C99.5599 624.049 99.3854 624.906 99.375 626.062V628.375C99.375 629.604 99.5521 630.513 99.9062 631.102C100.266 631.685 100.807 631.977 101.531 631.977C102.245 631.977 102.773 631.701 103.117 631.148C103.466 630.596 103.648 629.727 103.664 628.539V626.172ZM111.711 633H110.258V623.367L107.344 624.438V623.125L111.484 621.57H111.711V633ZM123.078 628.148C123.078 629.841 122.789 631.099 122.211 631.922C121.633 632.745 120.729 633.156 119.5 633.156C118.286 633.156 117.388 632.755 116.805 631.953C116.221 631.146 115.919 629.943 115.898 628.344V626.414C115.898 624.742 116.188 623.5 116.766 622.688C117.344 621.875 118.25 621.469 119.484 621.469C120.708 621.469 121.609 621.862 122.188 622.648C122.766 623.43 123.062 624.638 123.078 626.273V628.148ZM121.633 626.172C121.633 624.948 121.461 624.057 121.117 623.5C120.773 622.938 120.229 622.656 119.484 622.656C118.745 622.656 118.206 622.935 117.867 623.492C117.529 624.049 117.354 624.906 117.344 626.062V628.375C117.344 629.604 117.521 630.513 117.875 631.102C118.234 631.685 118.776 631.977 119.5 631.977C120.214 631.977 120.742 631.701 121.086 631.148C121.435 630.596 121.617 629.727 121.633 628.539V626.172ZM132.984 625.984L135.711 621.625H137.477L133.883 627.266L137.562 633H135.781L132.984 628.562L130.172 633H128.398L132.086 627.266L128.484 621.625H130.242L132.984 625.984ZM143.016 625.984L145.742 621.625H147.508L143.914 627.266L147.594 633H145.812L143.016 628.562L140.203 633H138.43L142.117 627.266L138.516 621.625H140.273L143.016 625.984Z" fill="black" fill-opacity="0.87"/>
<path fill-rule="evenodd" clip-rule="evenodd" d="M36 648C47.0457 648 56 639.046 56 628C56 616.954 47.0457 608 36 608C24.9543 608 16 616.954 16 628C16 639.046 24.9543 648 36 648Z" fill="black" fill-opacity="0.26"/>
<path d="M33.2578 633H31V624.297L28.3047 625.133V623.297L33.0156 621.609H33.2578V633ZM42.4453 633H40.1875V624.297L37.4922 625.133V623.297L42.2031 621.609H42.4453V633Z" fill="white"/>
<path d="M78.0312 145.984L80.7578 141.625H82.5234L78.9297 147.266L82.6094 153H80.8281L78.0312 148.562L75.2188 153H73.4453L77.1328 147.266L73.5312 141.625H75.2891L78.0312 145.984ZM88.0625 145.984L90.7891 141.625H92.5547L88.9609 147.266L92.6406 153H90.8594L88.0625 148.562L85.25 153H83.4766L87.1641 147.266L83.5625 141.625H85.3203L88.0625 145.984ZM105.109 148.148C105.109 149.841 104.82 151.099 104.242 151.922C103.664 152.745 102.76 153.156 101.531 153.156C100.318 153.156 99.4193 152.755 98.8359 151.953C98.2526 151.146 97.9505 149.943 97.9297 148.344V146.414C97.9297 144.742 98.2188 143.5 98.7969 142.688C99.375 141.875 100.281 141.469 101.516 141.469C102.74 141.469 103.641 141.862 104.219 142.648C104.797 143.43 105.094 144.638 105.109 146.273V148.148ZM103.664 146.172C103.664 144.948 103.492 144.057 103.148 143.5C102.805 142.938 102.26 142.656 101.516 142.656C100.776 142.656 100.237 142.935 99.8984 143.492C99.5599 144.049 99.3854 144.906 99.375 146.062V148.375C99.375 149.604 99.5521 150.513 99.9062 151.102C100.266 151.685 100.807 151.977 101.531 151.977C102.245 151.977 102.773 151.701 103.117 151.148C103.466 150.596 103.648 149.727 103.664 148.539V146.172ZM114.094 148.148C114.094 149.841 113.805 151.099 113.227 151.922C112.648 152.745 111.745 153.156 110.516 153.156C109.302 153.156 108.404 152.755 107.82 151.953C107.237 151.146 106.935 149.943 106.914 148.344V146.414C106.914 144.742 107.203 143.5 107.781 142.688C108.359 141.875 109.266 141.469 110.5 141.469C111.724 141.469 112.625 141.862 113.203 142.648C113.781 143.43 114.078 144.638 114.094 146.273V148.148ZM112.648 146.172C112.648 144.948 112.477 144.057 112.133 143.5C111.789 142.938 111.245 142.656 110.5 142.656C109.76 142.656 109.221 142.935 108.883 143.492C108.544 144.049 108.37 144.906 108.359 146.062V148.375C108.359 149.604 108.536 150.513 108.891 151.102C109.25 151.685 109.792 151.977 110.516 151.977C111.229 151.977 111.758 151.701 112.102 151.148C112.451 150.596 112.633 149.727 112.648 148.539V146.172ZM120.695 153H119.242V143.367L116.328 144.438V143.125L120.469 141.57H120.695V153ZM132.984 145.984L135.711 141.625H137.477L133.883 147.266L137.562 153H135.781L132.984 148.562L130.172 153H128.398L132.086 147.266L128.484 141.625H130.242L132.984 145.984ZM143.016 145.984L145.742 141.625H147.508L143.914 147.266L147.594 153H145.812L143.016 148.562L140.203 153H138.43L142.117 147.266L138.516 141.625H140.273L143.016 145.984Z" fill="black" fill-opacity="0.87"/>
<path fill-rule="evenodd" clip-rule="evenodd" d="M36 168C47.0457 168 56 159.046 56 148C56 136.954 47.0457 128 36 128C24.9543 128 16 136.954 16 148C16 159.046 24.9543 168 36 168Z" fill="black" fill-opacity="0.26"/>
<path d="M39.5703 153H31.7734V151.453L35.4531 147.531C35.9583 146.979 36.3307 146.497 36.5703 146.086C36.8151 145.674 36.9375 145.284 36.9375 144.914C36.9375 144.409 36.8099 144.013 36.5547 143.727C36.2995 143.435 35.9349 143.289 35.4609 143.289C34.9505 143.289 34.5469 143.466 34.25 143.82C33.9583 144.169 33.8125 144.63 33.8125 145.203H31.5469C31.5469 144.51 31.7109 143.878 32.0391 143.305C32.3724 142.732 32.8411 142.284 33.4453 141.961C34.0495 141.633 34.7344 141.469 35.5 141.469C36.6719 141.469 37.5807 141.75 38.2266 142.312C38.8776 142.875 39.2031 143.669 39.2031 144.695C39.2031 145.258 39.0573 145.831 38.7656 146.414C38.474 146.997 37.974 147.677 37.2656 148.453L34.6797 151.18H39.5703V153Z" fill="white"/>
<path d="M78.0312 201.984L80.7578 197.625H82.5234L78.9297 203.266L82.6094 209H80.8281L78.0312 204.562L75.2188 209H73.4453L77.1328 203.266L73.5312 197.625H75.2891L78.0312 201.984ZM88.0625 201.984L90.7891 197.625H92.5547L88.9609 203.266L92.6406 209H90.8594L88.0625 204.562L85.25 209H83.4766L87.1641 203.266L83.5625 197.625H85.3203L88.0625 201.984ZM105.109 204.148C105.109 205.841 104.82 207.099 104.242 207.922C103.664 208.745 102.76 209.156 101.531 209.156C100.318 209.156 99.4193 208.755 98.8359 207.953C98.2526 207.146 97.9505 205.943 97.9297 204.344V202.414C97.9297 200.742 98.2188 199.5 98.7969 198.688C99.375 197.875 100.281 197.469 101.516 197.469C102.74 197.469 103.641 197.862 104.219 198.648C104.797 199.43 105.094 200.638 105.109 202.273V204.148ZM103.664 202.172C103.664 200.948 103.492 200.057 103.148 199.5C102.805 198.938 102.26 198.656 101.516 198.656C100.776 198.656 100.237 198.935 99.8984 199.492C99.5599 200.049 99.3854 200.906 99.375 202.062V204.375C99.375 205.604 99.5521 206.513 99.9062 207.102C100.266 207.685 100.807 207.977 101.531 207.977C102.245 207.977 102.773 207.701 103.117 207.148C103.466 206.596 103.648 205.727 103.664 204.539V202.172ZM114.094 204.148C114.094 205.841 113.805 207.099 113.227 207.922C112.648 208.745 111.745 209.156 110.516 209.156C109.302 209.156 108.404 208.755 107.82 207.953C107.237 207.146 106.935 205.943 106.914 204.344V202.414C106.914 200.742 107.203 199.5 107.781 198.688C108.359 197.875 109.266 197.469 110.5 197.469C111.724 197.469 112.625 197.862 113.203 198.648C113.781 199.43 114.078 200.638 114.094 202.273V204.148ZM112.648 202.172C112.648 200.948 112.477 200.057 112.133 199.5C111.789 198.938 111.245 198.656 110.5 198.656C109.76 198.656 109.221 198.935 108.883 199.492C108.544 200.049 108.37 200.906 108.359 202.062V204.375C108.359 205.604 108.536 206.513 108.891 207.102C109.25 207.685 109.792 207.977 110.516 207.977C111.229 207.977 111.758 207.701 112.102 207.148C112.451 206.596 112.633 205.727 112.648 204.539V202.172ZM123.398 209H115.945V207.961L119.883 203.586C120.466 202.924 120.867 202.388 121.086 201.977C121.31 201.56 121.422 201.13 121.422 200.688C121.422 200.094 121.242 199.607 120.883 199.227C120.523 198.846 120.044 198.656 119.445 198.656C118.727 198.656 118.167 198.862 117.766 199.273C117.37 199.68 117.172 200.247 117.172 200.977H115.727C115.727 199.93 116.062 199.083 116.734 198.438C117.411 197.792 118.315 197.469 119.445 197.469C120.503 197.469 121.339 197.747 121.953 198.305C122.568 198.857 122.875 199.594 122.875 200.516C122.875 201.635 122.161 202.969 120.734 204.516L117.688 207.82H123.398V209ZM132.984 201.984L135.711 197.625H137.477L133.883 203.266L137.562 209H135.781L132.984 204.562L130.172 209H128.398L132.086 203.266L128.484 197.625H130.242L132.984 201.984ZM143.016 201.984L145.742 197.625H147.508L143.914 203.266L147.594 209H145.812L143.016 204.562L140.203 209H138.43L142.117 203.266L138.516 197.625H140.273L143.016 201.984Z" fill="black" fill-opacity="0.87"/>
<path fill-rule="evenodd" clip-rule="evenodd" d="M36 224C47.0457 224 56 215.046 56 204C56 192.954 47.0457 184 36 184C24.9543 184 16 192.954 16 204C16 215.046 24.9543 224 36 224Z" fill="black" fill-opacity="0.26"/>
<path d="M34.0703 202.312H35.2734C35.8464 202.312 36.2708 202.169 36.5469 201.883C36.8229 201.596 36.9609 201.216 36.9609 200.742C36.9609 200.284 36.8229 199.927 36.5469 199.672C36.276 199.417 35.901 199.289 35.4219 199.289C34.9896 199.289 34.6276 199.409 34.3359 199.648C34.0443 199.883 33.8984 200.19 33.8984 200.57H31.6406C31.6406 199.977 31.7995 199.445 32.1172 198.977C32.4401 198.503 32.888 198.133 33.4609 197.867C34.0391 197.602 34.6745 197.469 35.3672 197.469C36.5703 197.469 37.513 197.758 38.1953 198.336C38.8776 198.909 39.2188 199.701 39.2188 200.711C39.2188 201.232 39.0599 201.711 38.7422 202.148C38.4245 202.586 38.0078 202.922 37.4922 203.156C38.1328 203.385 38.6094 203.729 38.9219 204.188C39.2396 204.646 39.3984 205.188 39.3984 205.812C39.3984 206.823 39.0286 207.633 38.2891 208.242C37.5547 208.852 36.5807 209.156 35.3672 209.156C34.2318 209.156 33.3021 208.857 32.5781 208.258C31.8594 207.659 31.5 206.867 31.5 205.883H33.7578C33.7578 206.31 33.9167 206.659 34.2344 206.93C34.5573 207.201 34.9531 207.336 35.4219 207.336C35.9583 207.336 36.3776 207.195 36.6797 206.914C36.987 206.628 37.1406 206.25 37.1406 205.781C37.1406 204.646 36.5156 204.078 35.2656 204.078H34.0703V202.312Z" fill="white"/>
</g>
</g>
<defs>
<filter id="filter0_dd" x="-4" y="-4" width="368" height="68" filterUnits="userSpaceOnUse" color-interpolation-filters="sRGB">
<feFlood flood-opacity="0" result="BackgroundImageFix"/>
<feColorMatrix in="SourceAlpha" type="matrix" values="0 0 0 0 0 0 0 0 0 0 0 0 0 0 0 0 0 0 127 0"/>
<feOffset dy="4"/>
<feGaussianBlur stdDeviation="2"/>
<feColorMatrix type="matrix" values="0 0 0 0 0 0 0 0 0 0 0 0 0 0 0 0 0 0 0.24 0"/>
<feBlend mode="normal" in2="BackgroundImageFix" result="effect1_dropShadow"/>
<feColorMatrix in="SourceAlpha" type="matrix" values="0 0 0 0 0 0 0 0 0 0 0 0 0 0 0 0 0 0 127 0"/>
<feOffset/>
<feGaussianBlur stdDeviation="2"/>
<feColorMatrix type="matrix" values="0 0 0 0 0 0 0 0 0 0 0 0 0 0 0 0 0 0 0.12 0"/>
<feBlend mode="normal" in2="effect1_dropShadow" result="effect2_dropShadow"/>
<feBlend mode="normal" in="SourceGraphic" in2="effect2_dropShadow" result="shape"/>
</filter>
<clipPath id="clip0">
<rect width="360" height="640" fill="white"/>
</clipPath>
<clipPath id="clip1">
<rect width="360" height="584" fill="white" transform="translate(0 56)"/>
</clipPath>
</defs>
</svg>
