<svg width="360" height="640" viewBox="0 0 360 640" fill="none" xmlns="http://www.w3.org/2000/svg">
<g clip-path="url(#clip0)">
<rect width="360" height="640" fill="white"/>
<g filter="url(#filter0_dd)">
<rect width="360" height="56" fill="#00BCD4"/>
<path d="M141.865 31.3379C141.865 30.7129 141.644 30.2311 141.201 29.8926C140.765 29.554 139.974 29.2122 138.828 28.8672C137.682 28.5221 136.771 28.138 136.094 27.7148C134.798 26.901 134.15 25.8398 134.15 24.5312C134.15 23.3854 134.616 22.4414 135.547 21.6992C136.484 20.957 137.699 20.5859 139.189 20.5859C140.179 20.5859 141.061 20.7682 141.836 21.1328C142.611 21.4974 143.219 22.0182 143.662 22.6953C144.105 23.3659 144.326 24.1113 144.326 24.9316H141.865C141.865 24.1895 141.631 23.61 141.162 23.1934C140.7 22.7702 140.036 22.5586 139.17 22.5586C138.363 22.5586 137.734 22.7311 137.285 23.0762C136.842 23.4212 136.621 23.903 136.621 24.5215C136.621 25.0423 136.862 25.4785 137.344 25.8301C137.826 26.1751 138.62 26.5137 139.727 26.8457C140.833 27.1712 141.722 27.5456 142.393 27.9688C143.063 28.3854 143.555 28.8672 143.867 29.4141C144.18 29.9544 144.336 30.5892 144.336 31.3184C144.336 32.5033 143.88 33.4473 142.969 34.1504C142.064 34.847 140.833 35.1953 139.277 35.1953C138.249 35.1953 137.301 35.0065 136.436 34.6289C135.576 34.2448 134.906 33.7174 134.424 33.0469C133.949 32.3763 133.711 31.5951 133.711 30.7031H136.182C136.182 31.5104 136.449 32.1354 136.982 32.5781C137.516 33.0208 138.281 33.2422 139.277 33.2422C140.137 33.2422 140.781 33.0697 141.211 32.7246C141.647 32.373 141.865 31.9108 141.865 31.3379ZM148.613 25.5859C149.388 24.6875 150.368 24.2383 151.553 24.2383C153.805 24.2383 154.948 25.5241 154.98 28.0957V35H152.607V28.1836C152.607 27.4544 152.448 26.9401 152.129 26.6406C151.816 26.3346 151.354 26.1816 150.742 26.1816C149.792 26.1816 149.082 26.6048 148.613 27.4512V35H146.24V20H148.613V25.5859ZM156.943 29.6191C156.943 28.584 157.148 27.653 157.559 26.8262C157.969 25.9928 158.545 25.3548 159.287 24.9121C160.029 24.4629 160.882 24.2383 161.846 24.2383C163.271 24.2383 164.427 24.6973 165.312 25.6152C166.204 26.5332 166.686 27.7507 166.758 29.2676L166.768 29.8242C166.768 30.8659 166.566 31.7969 166.162 32.6172C165.765 33.4375 165.192 34.0723 164.443 34.5215C163.701 34.9707 162.842 35.1953 161.865 35.1953C160.374 35.1953 159.18 34.7005 158.281 33.7109C157.389 32.7148 156.943 31.39 156.943 29.7363V29.6191ZM159.316 29.8242C159.316 30.9115 159.541 31.7643 159.99 32.3828C160.439 32.9948 161.064 33.3008 161.865 33.3008C162.666 33.3008 163.288 32.9883 163.73 32.3633C164.18 31.7383 164.404 30.8236 164.404 29.6191C164.404 28.5514 164.173 27.7051 163.711 27.0801C163.255 26.4551 162.633 26.1426 161.846 26.1426C161.071 26.1426 160.456 26.4518 160 27.0703C159.544 27.6823 159.316 28.6003 159.316 29.8242ZM178.057 31.7285L179.736 24.4336H182.051L179.17 35H177.217L174.951 27.7441L172.725 35H170.771L167.881 24.4336H170.195L171.904 31.6504L174.072 24.4336H175.859L178.057 31.7285ZM192.051 20.7812L196.152 31.6797L200.244 20.7812H203.438V35H200.977V30.3125L201.221 24.043L197.021 35H195.254L191.064 24.0527L191.309 30.3125V35H188.848V20.7812H192.051ZM212.451 35C212.347 34.7982 212.256 34.4694 212.178 34.0137C211.423 34.8014 210.498 35.1953 209.404 35.1953C208.343 35.1953 207.477 34.8926 206.807 34.2871C206.136 33.6816 205.801 32.9329 205.801 32.041C205.801 30.9147 206.217 30.0521 207.051 29.4531C207.891 28.8477 209.089 28.5449 210.645 28.5449H212.1V27.8516C212.1 27.3047 211.947 26.8685 211.641 26.543C211.335 26.2109 210.869 26.0449 210.244 26.0449C209.704 26.0449 209.261 26.1816 208.916 26.4551C208.571 26.722 208.398 27.0638 208.398 27.4805H206.025C206.025 26.901 206.217 26.3607 206.602 25.8594C206.986 25.3516 207.507 24.9544 208.164 24.668C208.828 24.3815 209.567 24.2383 210.381 24.2383C211.618 24.2383 212.604 24.5508 213.34 25.1758C214.076 25.7943 214.453 26.6667 214.473 27.793V32.5586C214.473 33.5091 214.606 34.2676 214.873 34.834V35H212.451ZM209.844 33.291C210.312 33.291 210.752 33.1771 211.162 32.9492C211.579 32.7214 211.891 32.4154 212.1 32.0312V30.0391H210.82C209.941 30.0391 209.281 30.1921 208.838 30.498C208.395 30.804 208.174 31.237 208.174 31.7969C208.174 32.2526 208.324 32.6172 208.623 32.8906C208.929 33.1576 209.336 33.291 209.844 33.291ZM226.211 29.8242C226.211 31.4583 225.84 32.7637 225.098 33.7402C224.355 34.7103 223.359 35.1953 222.109 35.1953C220.951 35.1953 220.023 34.8145 219.326 34.0527V39.0625H216.953V24.4336H219.141L219.238 25.5078C219.935 24.6615 220.882 24.2383 222.08 24.2383C223.369 24.2383 224.378 24.7201 225.107 25.6836C225.843 26.6406 226.211 27.972 226.211 29.6777V29.8242ZM223.848 29.6191C223.848 28.5645 223.636 27.7279 223.213 27.1094C222.796 26.4909 222.197 26.1816 221.416 26.1816C220.446 26.1816 219.749 26.582 219.326 27.3828V32.0703C219.756 32.8906 220.459 33.3008 221.436 33.3008C222.191 33.3008 222.78 32.998 223.203 32.3926C223.633 31.7806 223.848 30.8561 223.848 29.6191Z" fill="white"/>
</g>
<path fill-rule="evenodd" clip-rule="evenodd" d="M35.4 23.4L34 22L28 28L34 34L35.4 32.6L30.8 28L35.4 23.4Z" fill="white"/>
<path d="M25.6719 115.93C24.3854 115.56 23.4479 115.107 22.8594 114.57C22.276 114.029 21.9844 113.362 21.9844 112.57C21.9844 111.674 22.3411 110.935 23.0547 110.352C23.7734 109.763 24.7057 109.469 25.8516 109.469C26.6328 109.469 27.3281 109.62 27.9375 109.922C28.5521 110.224 29.026 110.641 29.3594 111.172C29.6979 111.703 29.8672 112.284 29.8672 112.914H28.3594C28.3594 112.227 28.1406 111.688 27.7031 111.297C27.2656 110.901 26.6484 110.703 25.8516 110.703C25.112 110.703 24.5339 110.867 24.1172 111.195C23.7057 111.518 23.5 111.969 23.5 112.547C23.5 113.01 23.6953 113.404 24.0859 113.727C24.4818 114.044 25.151 114.336 26.0938 114.602C27.0417 114.867 27.7812 115.161 28.3125 115.484C28.849 115.802 29.2448 116.174 29.5 116.602C29.7604 117.029 29.8906 117.531 29.8906 118.109C29.8906 119.031 29.5312 119.771 28.8125 120.328C28.0938 120.88 27.1328 121.156 25.9297 121.156C25.1484 121.156 24.4193 121.008 23.7422 120.711C23.0651 120.409 22.5417 119.997 22.1719 119.477C21.8073 118.956 21.625 118.365 21.625 117.703H23.1328C23.1328 118.391 23.3854 118.935 23.8906 119.336C24.401 119.732 25.0807 119.93 25.9297 119.93C26.7214 119.93 27.3281 119.768 27.75 119.445C28.1719 119.122 28.3828 118.682 28.3828 118.125C28.3828 117.568 28.1875 117.138 27.7969 116.836C27.4062 116.529 26.6979 116.227 25.6719 115.93ZM35.1016 121.156C33.9557 121.156 33.0234 120.781 32.3047 120.031C31.5859 119.276 31.2266 118.268 31.2266 117.008V116.742C31.2266 115.904 31.3854 115.156 31.7031 114.5C32.026 113.839 32.474 113.323 33.0469 112.953C33.625 112.578 34.25 112.391 34.9219 112.391C36.0208 112.391 36.875 112.753 37.4844 113.477C38.0938 114.201 38.3984 115.237 38.3984 116.586V117.188H32.6719C32.6927 118.021 32.9349 118.695 33.3984 119.211C33.8672 119.721 34.4609 119.977 35.1797 119.977C35.6901 119.977 36.1224 119.872 36.4766 119.664C36.8307 119.456 37.1406 119.18 37.4062 118.836L38.2891 119.523C37.5807 120.612 36.5182 121.156 35.1016 121.156ZM34.9219 113.578C34.3385 113.578 33.849 113.792 33.4531 114.219C33.0573 114.641 32.8125 115.234 32.7188 116H36.9531V115.891C36.9115 115.156 36.7135 114.589 36.3594 114.188C36.0052 113.781 35.526 113.578 34.9219 113.578ZM41.6484 121H40.2031V109H41.6484V121ZM47.4766 121.156C46.3307 121.156 45.3984 120.781 44.6797 120.031C43.9609 119.276 43.6016 118.268 43.6016 117.008V116.742C43.6016 115.904 43.7604 115.156 44.0781 114.5C44.401 113.839 44.849 113.323 45.4219 112.953C46 112.578 46.625 112.391 47.2969 112.391C48.3958 112.391 49.25 112.753 49.8594 113.477C50.4688 114.201 50.7734 115.237 50.7734 116.586V117.188H45.0469C45.0677 118.021 45.3099 118.695 45.7734 119.211C46.2422 119.721 46.8359 119.977 47.5547 119.977C48.0651 119.977 48.4974 119.872 48.8516 119.664C49.2057 119.456 49.5156 119.18 49.7812 118.836L50.6641 119.523C49.9557 120.612 48.8932 121.156 47.4766 121.156ZM47.2969 113.578C46.7135 113.578 46.224 113.792 45.8281 114.219C45.4323 114.641 45.1875 115.234 45.0938 116H49.3281V115.891C49.2865 115.156 49.0885 114.589 48.7344 114.188C48.3802 113.781 47.901 113.578 47.2969 113.578ZM55.8438 119.977C56.3594 119.977 56.8099 119.82 57.1953 119.508C57.5807 119.195 57.7943 118.805 57.8359 118.336H59.2031C59.1771 118.82 59.0104 119.281 58.7031 119.719C58.3958 120.156 57.9844 120.505 57.4688 120.766C56.9583 121.026 56.4167 121.156 55.8438 121.156C54.6927 121.156 53.776 120.773 53.0938 120.008C52.4167 119.237 52.0781 118.185 52.0781 116.852V116.609C52.0781 115.786 52.2292 115.055 52.5312 114.414C52.8333 113.773 53.2656 113.276 53.8281 112.922C54.3958 112.568 55.0651 112.391 55.8359 112.391C56.7839 112.391 57.5703 112.674 58.1953 113.242C58.8255 113.81 59.1615 114.547 59.2031 115.453H57.8359C57.7943 114.906 57.5859 114.458 57.2109 114.109C56.8411 113.755 56.3828 113.578 55.8359 113.578C55.1016 113.578 54.5312 113.844 54.125 114.375C53.724 114.901 53.5234 115.664 53.5234 116.664V116.938C53.5234 117.911 53.724 118.661 54.125 119.188C54.526 119.714 55.099 119.977 55.8438 119.977ZM62.7891 110.5V112.547H64.3672V113.664H62.7891V118.906C62.7891 119.245 62.8594 119.5 63 119.672C63.1406 119.839 63.3802 119.922 63.7188 119.922C63.8854 119.922 64.1146 119.891 64.4062 119.828V121C64.026 121.104 63.6562 121.156 63.2969 121.156C62.651 121.156 62.1641 120.961 61.8359 120.57C61.5078 120.18 61.3438 119.625 61.3438 118.906V113.664H59.8047V112.547H61.3438V110.5H62.7891ZM71.9922 110.5V112.547H73.5703V113.664H71.9922V118.906C71.9922 119.245 72.0625 119.5 72.2031 119.672C72.3438 119.839 72.5833 119.922 72.9219 119.922C73.0885 119.922 73.3177 119.891 73.6094 119.828V121C73.2292 121.104 72.8594 121.156 72.5 121.156C71.8542 121.156 71.3672 120.961 71.0391 120.57C70.7109 120.18 70.5469 119.625 70.5469 118.906V113.664H69.0078V112.547H70.5469V110.5H71.9922ZM76.7109 113.57C77.3516 112.784 78.1849 112.391 79.2109 112.391C80.9974 112.391 81.8984 113.398 81.9141 115.414V121H80.4688V115.406C80.4635 114.797 80.3229 114.346 80.0469 114.055C79.776 113.763 79.3516 113.617 78.7734 113.617C78.3047 113.617 77.8932 113.742 77.5391 113.992C77.1849 114.242 76.9089 114.57 76.7109 114.977V121H75.2656V109H76.7109V113.57ZM87.5859 121.156C86.4401 121.156 85.5078 120.781 84.7891 120.031C84.0703 119.276 83.7109 118.268 83.7109 117.008V116.742C83.7109 115.904 83.8698 115.156 84.1875 114.5C84.5104 113.839 84.9583 113.323 85.5312 112.953C86.1094 112.578 86.7344 112.391 87.4062 112.391C88.5052 112.391 89.3594 112.753 89.9688 113.477C90.5781 114.201 90.8828 115.237 90.8828 116.586V117.188H85.1562C85.1771 118.021 85.4193 118.695 85.8828 119.211C86.3516 119.721 86.9453 119.977 87.6641 119.977C88.1745 119.977 88.6068 119.872 88.9609 119.664C89.3151 119.456 89.625 119.18 89.8906 118.836L90.7734 119.523C90.0651 120.612 89.0026 121.156 87.5859 121.156ZM87.4062 113.578C86.8229 113.578 86.3333 113.792 85.9375 114.219C85.5417 114.641 85.2969 115.234 85.2031 116H89.4375V115.891C89.3958 115.156 89.1979 114.589 88.8438 114.188C88.4896 113.781 88.0104 113.578 87.4062 113.578ZM98.4922 110.5V112.547H100.07V113.664H98.4922V118.906C98.4922 119.245 98.5625 119.5 98.7031 119.672C98.8438 119.839 99.0833 119.922 99.4219 119.922C99.5885 119.922 99.8177 119.891 100.109 119.828V121C99.7292 121.104 99.3594 121.156 99 121.156C98.3542 121.156 97.8672 120.961 97.5391 120.57C97.2109 120.18 97.0469 119.625 97.0469 118.906V113.664H95.5078V112.547H97.0469V110.5H98.4922ZM104.531 118.883L106.5 112.547H108.047L104.648 122.305C104.122 123.711 103.286 124.414 102.141 124.414L101.867 124.391L101.328 124.289V123.117L101.719 123.148C102.208 123.148 102.589 123.049 102.859 122.852C103.135 122.654 103.362 122.292 103.539 121.766L103.859 120.906L100.844 112.547H102.422L104.531 118.883ZM116.484 116.867C116.484 118.154 116.19 119.19 115.602 119.977C115.013 120.763 114.216 121.156 113.211 121.156C112.185 121.156 111.378 120.831 110.789 120.18V124.25H109.344V112.547H110.664L110.734 113.484C111.323 112.755 112.141 112.391 113.188 112.391C114.203 112.391 115.005 112.773 115.594 113.539C116.188 114.305 116.484 115.37 116.484 116.734V116.867ZM115.039 116.703C115.039 115.75 114.836 114.997 114.43 114.445C114.023 113.893 113.466 113.617 112.758 113.617C111.883 113.617 111.227 114.005 110.789 114.781V118.82C111.221 119.591 111.883 119.977 112.773 119.977C113.466 119.977 114.016 119.703 114.422 119.156C114.833 118.604 115.039 117.786 115.039 116.703ZM121.836 121.156C120.69 121.156 119.758 120.781 119.039 120.031C118.32 119.276 117.961 118.268 117.961 117.008V116.742C117.961 115.904 118.12 115.156 118.438 114.5C118.76 113.839 119.208 113.323 119.781 112.953C120.359 112.578 120.984 112.391 121.656 112.391C122.755 112.391 123.609 112.753 124.219 113.477C124.828 114.201 125.133 115.237 125.133 116.586V117.188H119.406C119.427 118.021 119.669 118.695 120.133 119.211C120.602 119.721 121.195 119.977 121.914 119.977C122.424 119.977 122.857 119.872 123.211 119.664C123.565 119.456 123.875 119.18 124.141 118.836L125.023 119.523C124.315 120.612 123.253 121.156 121.836 121.156ZM121.656 113.578C121.073 113.578 120.583 113.792 120.188 114.219C119.792 114.641 119.547 115.234 119.453 116H123.688V115.891C123.646 115.156 123.448 114.589 123.094 114.188C122.74 113.781 122.26 113.578 121.656 113.578ZM130.398 116.695C130.398 115.867 130.56 115.122 130.883 114.461C131.211 113.799 131.664 113.289 132.242 112.93C132.826 112.57 133.49 112.391 134.234 112.391C135.385 112.391 136.315 112.789 137.023 113.586C137.737 114.383 138.094 115.443 138.094 116.766V116.867C138.094 117.69 137.935 118.43 137.617 119.086C137.305 119.737 136.854 120.245 136.266 120.609C135.682 120.974 135.01 121.156 134.25 121.156C133.104 121.156 132.174 120.758 131.461 119.961C130.753 119.164 130.398 118.109 130.398 116.797V116.695ZM131.852 116.867C131.852 117.805 132.068 118.557 132.5 119.125C132.938 119.693 133.521 119.977 134.25 119.977C134.984 119.977 135.568 119.69 136 119.117C136.432 118.539 136.648 117.732 136.648 116.695C136.648 115.768 136.427 115.018 135.984 114.445C135.547 113.867 134.964 113.578 134.234 113.578C133.521 113.578 132.945 113.862 132.508 114.43C132.07 114.997 131.852 115.81 131.852 116.867ZM140.617 121V113.664H139.281V112.547H140.617V111.68C140.617 110.773 140.859 110.073 141.344 109.578C141.828 109.083 142.513 108.836 143.398 108.836C143.732 108.836 144.062 108.88 144.391 108.969L144.312 110.141C144.068 110.094 143.807 110.07 143.531 110.07C143.062 110.07 142.701 110.208 142.445 110.484C142.19 110.755 142.062 111.146 142.062 111.656V112.547H143.867V113.664H142.062V121H140.617ZM152.227 119.039L154.32 112.547H155.797L152.766 121H151.664L148.602 112.547H150.078L152.227 119.039ZM158.758 121H157.312V112.547H158.758V121ZM157.195 110.305C157.195 110.07 157.266 109.872 157.406 109.711C157.552 109.549 157.766 109.469 158.047 109.469C158.328 109.469 158.542 109.549 158.688 109.711C158.833 109.872 158.906 110.07 158.906 110.305C158.906 110.539 158.833 110.734 158.688 110.891C158.542 111.047 158.328 111.125 158.047 111.125C157.766 111.125 157.552 111.047 157.406 110.891C157.266 110.734 157.195 110.539 157.195 110.305ZM160.695 116.695C160.695 115.867 160.857 115.122 161.18 114.461C161.508 113.799 161.961 113.289 162.539 112.93C163.122 112.57 163.786 112.391 164.531 112.391C165.682 112.391 166.612 112.789 167.32 113.586C168.034 114.383 168.391 115.443 168.391 116.766V116.867C168.391 117.69 168.232 118.43 167.914 119.086C167.602 119.737 167.151 120.245 166.562 120.609C165.979 120.974 165.307 121.156 164.547 121.156C163.401 121.156 162.471 120.758 161.758 119.961C161.049 119.164 160.695 118.109 160.695 116.797V116.695ZM162.148 116.867C162.148 117.805 162.365 118.557 162.797 119.125C163.234 119.693 163.818 119.977 164.547 119.977C165.281 119.977 165.865 119.69 166.297 119.117C166.729 118.539 166.945 117.732 166.945 116.695C166.945 115.768 166.724 115.018 166.281 114.445C165.844 113.867 165.26 113.578 164.531 113.578C163.818 113.578 163.242 113.862 162.805 114.43C162.367 114.997 162.148 115.81 162.148 116.867ZM171.773 121H170.328V109H171.773V121ZM179.312 121C179.229 120.833 179.161 120.536 179.109 120.109C178.438 120.807 177.635 121.156 176.703 121.156C175.87 121.156 175.185 120.922 174.648 120.453C174.117 119.979 173.852 119.38 173.852 118.656C173.852 117.776 174.185 117.094 174.852 116.609C175.523 116.12 176.466 115.875 177.68 115.875H179.086V115.211C179.086 114.706 178.935 114.305 178.633 114.008C178.331 113.706 177.885 113.555 177.297 113.555C176.781 113.555 176.349 113.685 176 113.945C175.651 114.206 175.477 114.521 175.477 114.891H174.023C174.023 114.469 174.172 114.062 174.469 113.672C174.771 113.276 175.177 112.964 175.688 112.734C176.203 112.505 176.768 112.391 177.383 112.391C178.357 112.391 179.12 112.635 179.672 113.125C180.224 113.609 180.51 114.279 180.531 115.133V119.023C180.531 119.799 180.63 120.417 180.828 120.875V121H179.312ZM176.914 119.898C177.367 119.898 177.797 119.781 178.203 119.547C178.609 119.312 178.904 119.008 179.086 118.633V116.898H177.953C176.182 116.898 175.297 117.417 175.297 118.453C175.297 118.906 175.448 119.26 175.75 119.516C176.052 119.771 176.44 119.898 176.914 119.898ZM184.758 110.5V112.547H186.336V113.664H184.758V118.906C184.758 119.245 184.828 119.5 184.969 119.672C185.109 119.839 185.349 119.922 185.688 119.922C185.854 119.922 186.083 119.891 186.375 119.828V121C185.995 121.104 185.625 121.156 185.266 121.156C184.62 121.156 184.133 120.961 183.805 120.57C183.477 120.18 183.312 119.625 183.312 118.906V113.664H181.773V112.547H183.312V110.5H184.758ZM189.602 121H188.156V112.547H189.602V121ZM188.039 110.305C188.039 110.07 188.109 109.872 188.25 109.711C188.396 109.549 188.609 109.469 188.891 109.469C189.172 109.469 189.385 109.549 189.531 109.711C189.677 109.872 189.75 110.07 189.75 110.305C189.75 110.539 189.677 110.734 189.531 110.891C189.385 111.047 189.172 111.125 188.891 111.125C188.609 111.125 188.396 111.047 188.25 110.891C188.109 110.734 188.039 110.539 188.039 110.305ZM191.539 116.695C191.539 115.867 191.701 115.122 192.023 114.461C192.352 113.799 192.805 113.289 193.383 112.93C193.966 112.57 194.63 112.391 195.375 112.391C196.526 112.391 197.456 112.789 198.164 113.586C198.878 114.383 199.234 115.443 199.234 116.766V116.867C199.234 117.69 199.076 118.43 198.758 119.086C198.445 119.737 197.995 120.245 197.406 120.609C196.823 120.974 196.151 121.156 195.391 121.156C194.245 121.156 193.315 120.758 192.602 119.961C191.893 119.164 191.539 118.109 191.539 116.797V116.695ZM192.992 116.867C192.992 117.805 193.208 118.557 193.641 119.125C194.078 119.693 194.661 119.977 195.391 119.977C196.125 119.977 196.708 119.69 197.141 119.117C197.573 118.539 197.789 117.732 197.789 116.695C197.789 115.768 197.568 115.018 197.125 114.445C196.688 113.867 196.104 113.578 195.375 113.578C194.661 113.578 194.086 113.862 193.648 114.43C193.211 114.997 192.992 115.81 192.992 116.867ZM202.414 112.547L202.461 113.609C203.107 112.797 203.951 112.391 204.992 112.391C206.779 112.391 207.68 113.398 207.695 115.414V121H206.25V115.406C206.245 114.797 206.104 114.346 205.828 114.055C205.557 113.763 205.133 113.617 204.555 113.617C204.086 113.617 203.674 113.742 203.32 113.992C202.966 114.242 202.69 114.57 202.492 114.977V121H201.047V112.547H202.414ZM214.797 118.758C214.797 118.367 214.648 118.065 214.352 117.852C214.06 117.633 213.547 117.445 212.812 117.289C212.083 117.133 211.503 116.945 211.07 116.727C210.643 116.508 210.326 116.247 210.117 115.945C209.914 115.643 209.812 115.284 209.812 114.867C209.812 114.174 210.104 113.589 210.688 113.109C211.276 112.63 212.026 112.391 212.938 112.391C213.896 112.391 214.672 112.638 215.266 113.133C215.865 113.628 216.164 114.26 216.164 115.031H214.711C214.711 114.635 214.542 114.294 214.203 114.008C213.87 113.721 213.448 113.578 212.938 113.578C212.411 113.578 212 113.693 211.703 113.922C211.406 114.151 211.258 114.451 211.258 114.82C211.258 115.169 211.396 115.432 211.672 115.609C211.948 115.786 212.445 115.956 213.164 116.117C213.888 116.279 214.474 116.471 214.922 116.695C215.37 116.919 215.701 117.19 215.914 117.508C216.133 117.82 216.242 118.203 216.242 118.656C216.242 119.411 215.94 120.018 215.336 120.477C214.732 120.93 213.948 121.156 212.984 121.156C212.307 121.156 211.708 121.036 211.188 120.797C210.667 120.557 210.258 120.224 209.961 119.797C209.669 119.365 209.523 118.898 209.523 118.398H210.969C210.995 118.883 211.188 119.268 211.547 119.555C211.911 119.836 212.391 119.977 212.984 119.977C213.531 119.977 213.969 119.867 214.297 119.648C214.63 119.424 214.797 119.128 214.797 118.758ZM224.859 118.883L226.828 112.547H228.375L224.977 122.305C224.451 123.711 223.615 124.414 222.469 124.414L222.195 124.391L221.656 124.289V123.117L222.047 123.148C222.536 123.148 222.917 123.049 223.188 122.852C223.464 122.654 223.69 122.292 223.867 121.766L224.188 120.906L221.172 112.547H222.75L224.859 118.883ZM229.164 116.695C229.164 115.867 229.326 115.122 229.648 114.461C229.977 113.799 230.43 113.289 231.008 112.93C231.591 112.57 232.255 112.391 233 112.391C234.151 112.391 235.081 112.789 235.789 113.586C236.503 114.383 236.859 115.443 236.859 116.766V116.867C236.859 117.69 236.701 118.43 236.383 119.086C236.07 119.737 235.62 120.245 235.031 120.609C234.448 120.974 233.776 121.156 233.016 121.156C231.87 121.156 230.94 120.758 230.227 119.961C229.518 119.164 229.164 118.109 229.164 116.797V116.695ZM230.617 116.867C230.617 117.805 230.833 118.557 231.266 119.125C231.703 119.693 232.286 119.977 233.016 119.977C233.75 119.977 234.333 119.69 234.766 119.117C235.198 118.539 235.414 117.732 235.414 116.695C235.414 115.768 235.193 115.018 234.75 114.445C234.312 113.867 233.729 113.578 233 113.578C232.286 113.578 231.711 113.862 231.273 114.43C230.836 114.997 230.617 115.81 230.617 116.867ZM243.891 120.164C243.328 120.826 242.503 121.156 241.414 121.156C240.513 121.156 239.826 120.896 239.352 120.375C238.883 119.849 238.646 119.073 238.641 118.047V112.547H240.086V118.008C240.086 119.289 240.607 119.93 241.648 119.93C242.753 119.93 243.487 119.518 243.852 118.695V112.547H245.297V121H243.922L243.891 120.164ZM258.953 119.008L260.578 112.547H262.023L259.562 121H258.391L256.336 114.594L254.336 121H253.164L250.711 112.547H252.148L253.812 118.875L255.781 112.547H256.945L258.953 119.008ZM268.719 121C268.635 120.833 268.568 120.536 268.516 120.109C267.844 120.807 267.042 121.156 266.109 121.156C265.276 121.156 264.591 120.922 264.055 120.453C263.523 119.979 263.258 119.38 263.258 118.656C263.258 117.776 263.591 117.094 264.258 116.609C264.93 116.12 265.872 115.875 267.086 115.875H268.492V115.211C268.492 114.706 268.341 114.305 268.039 114.008C267.737 113.706 267.292 113.555 266.703 113.555C266.188 113.555 265.755 113.685 265.406 113.945C265.057 114.206 264.883 114.521 264.883 114.891H263.43C263.43 114.469 263.578 114.062 263.875 113.672C264.177 113.276 264.583 112.964 265.094 112.734C265.609 112.505 266.174 112.391 266.789 112.391C267.763 112.391 268.526 112.635 269.078 113.125C269.63 113.609 269.917 114.279 269.938 115.133V119.023C269.938 119.799 270.036 120.417 270.234 120.875V121H268.719ZM266.32 119.898C266.773 119.898 267.203 119.781 267.609 119.547C268.016 119.312 268.31 119.008 268.492 118.633V116.898H267.359C265.589 116.898 264.703 117.417 264.703 118.453C264.703 118.906 264.854 119.26 265.156 119.516C265.458 119.771 265.846 119.898 266.32 119.898ZM273.57 112.547L273.617 113.609C274.263 112.797 275.107 112.391 276.148 112.391C277.935 112.391 278.836 113.398 278.852 115.414V121H277.406V115.406C277.401 114.797 277.26 114.346 276.984 114.055C276.714 113.763 276.289 113.617 275.711 113.617C275.242 113.617 274.831 113.742 274.477 113.992C274.122 114.242 273.846 114.57 273.648 114.977V121H272.203V112.547H273.57ZM282.992 110.5V112.547H284.57V113.664H282.992V118.906C282.992 119.245 283.062 119.5 283.203 119.672C283.344 119.839 283.583 119.922 283.922 119.922C284.089 119.922 284.318 119.891 284.609 119.828V121C284.229 121.104 283.859 121.156 283.5 121.156C282.854 121.156 282.367 120.961 282.039 120.57C281.711 120.18 281.547 119.625 281.547 118.906V113.664H280.008V112.547H281.547V110.5H282.992ZM292.195 110.5V112.547H293.773V113.664H292.195V118.906C292.195 119.245 292.266 119.5 292.406 119.672C292.547 119.839 292.786 119.922 293.125 119.922C293.292 119.922 293.521 119.891 293.812 119.828V121C293.432 121.104 293.062 121.156 292.703 121.156C292.057 121.156 291.57 120.961 291.242 120.57C290.914 120.18 290.75 119.625 290.75 118.906V113.664H289.211V112.547H290.75V110.5H292.195ZM294.93 116.695C294.93 115.867 295.091 115.122 295.414 114.461C295.742 113.799 296.195 113.289 296.773 112.93C297.357 112.57 298.021 112.391 298.766 112.391C299.917 112.391 300.846 112.789 301.555 113.586C302.268 114.383 302.625 115.443 302.625 116.766V116.867C302.625 117.69 302.466 118.43 302.148 119.086C301.836 119.737 301.385 120.245 300.797 120.609C300.214 120.974 299.542 121.156 298.781 121.156C297.635 121.156 296.706 120.758 295.992 119.961C295.284 119.164 294.93 118.109 294.93 116.797V116.695ZM296.383 116.867C296.383 117.805 296.599 118.557 297.031 119.125C297.469 119.693 298.052 119.977 298.781 119.977C299.516 119.977 300.099 119.69 300.531 119.117C300.964 118.539 301.18 117.732 301.18 116.695C301.18 115.768 300.958 115.018 300.516 114.445C300.078 113.867 299.495 113.578 298.766 113.578C298.052 113.578 297.477 113.862 297.039 114.43C296.602 114.997 296.383 115.81 296.383 116.867ZM308.891 121V113.664H307.555V112.547H308.891V111.828C308.891 110.885 309.159 110.151 309.695 109.625C310.237 109.099 311 108.836 311.984 108.836C312.568 108.836 313.305 108.995 314.195 109.312L313.953 110.531C313.302 110.271 312.682 110.141 312.094 110.141C311.474 110.141 311.026 110.281 310.75 110.562C310.479 110.839 310.344 111.255 310.344 111.812V112.547H312.07V113.664H310.344V121H308.891ZM314.914 121H313.461V112.547H314.914V121ZM318.836 121H317.391V109H318.836V121ZM323.117 110.5V112.547H324.695V113.664H323.117V118.906C323.117 119.245 323.188 119.5 323.328 119.672C323.469 119.839 323.708 119.922 324.047 119.922C324.214 119.922 324.443 119.891 324.734 119.828V121C324.354 121.104 323.984 121.156 323.625 121.156C322.979 121.156 322.492 120.961 322.164 120.57C321.836 120.18 321.672 119.625 321.672 118.906V113.664H320.133V112.547H321.672V110.5H323.117ZM329.898 121.156C328.753 121.156 327.82 120.781 327.102 120.031C326.383 119.276 326.023 118.268 326.023 117.008V116.742C326.023 115.904 326.182 115.156 326.5 114.5C326.823 113.839 327.271 113.323 327.844 112.953C328.422 112.578 329.047 112.391 329.719 112.391C330.818 112.391 331.672 112.753 332.281 113.477C332.891 114.201 333.195 115.237 333.195 116.586V117.188H327.469C327.49 118.021 327.732 118.695 328.195 119.211C328.664 119.721 329.258 119.977 329.977 119.977C330.487 119.977 330.919 119.872 331.273 119.664C331.628 119.456 331.938 119.18 332.203 118.836L333.086 119.523C332.378 120.612 331.315 121.156 329.898 121.156ZM329.719 113.578C329.135 113.578 328.646 113.792 328.25 114.219C327.854 114.641 327.609 115.234 327.516 116H331.75V115.891C331.708 115.156 331.51 114.589 331.156 114.188C330.802 113.781 330.323 113.578 329.719 113.578ZM338.961 113.844C338.742 113.807 338.505 113.789 338.25 113.789C337.302 113.789 336.659 114.193 336.32 115V121H334.875V112.547H336.281L336.305 113.523C336.779 112.768 337.451 112.391 338.32 112.391C338.602 112.391 338.815 112.427 338.961 112.5V113.844Z" fill="black"/>
<g clip-path="url(#clip1)">
<path d="M57.1797 205.859H53.5234V216H52.0312V205.859H48.3828V204.625H57.1797V205.859ZM60.8438 213.883L62.8125 207.547H64.3594L60.9609 217.305C60.4349 218.711 59.599 219.414 58.4531 219.414L58.1797 219.391L57.6406 219.289V218.117L58.0312 218.148C58.5208 218.148 58.901 218.049 59.1719 217.852C59.4479 217.654 59.6745 217.292 59.8516 216.766L60.1719 215.906L57.1562 207.547H58.7344L60.8438 213.883ZM72.7969 211.867C72.7969 213.154 72.5026 214.19 71.9141 214.977C71.3255 215.763 70.5286 216.156 69.5234 216.156C68.4974 216.156 67.6901 215.831 67.1016 215.18V219.25H65.6562V207.547H66.9766L67.0469 208.484C67.6354 207.755 68.4531 207.391 69.5 207.391C70.5156 207.391 71.3177 207.773 71.9062 208.539C72.5 209.305 72.7969 210.37 72.7969 211.734V211.867ZM71.3516 211.703C71.3516 210.75 71.1484 209.997 70.7422 209.445C70.3359 208.893 69.7786 208.617 69.0703 208.617C68.1953 208.617 67.5391 209.005 67.1016 209.781V213.82C67.5339 214.591 68.1953 214.977 69.0859 214.977C69.7786 214.977 70.3281 214.703 70.7344 214.156C71.1458 213.604 71.3516 212.786 71.3516 211.703ZM78.1484 216.156C77.0026 216.156 76.0703 215.781 75.3516 215.031C74.6328 214.276 74.2734 213.268 74.2734 212.008V211.742C74.2734 210.904 74.4323 210.156 74.75 209.5C75.0729 208.839 75.5208 208.323 76.0938 207.953C76.6719 207.578 77.2969 207.391 77.9688 207.391C79.0677 207.391 79.9219 207.753 80.5312 208.477C81.1406 209.201 81.4453 210.237 81.4453 211.586V212.188H75.7188C75.7396 213.021 75.9818 213.695 76.4453 214.211C76.9141 214.721 77.5078 214.977 78.2266 214.977C78.737 214.977 79.1693 214.872 79.5234 214.664C79.8776 214.456 80.1875 214.18 80.4531 213.836L81.3359 214.523C80.6276 215.612 79.5651 216.156 78.1484 216.156ZM77.9688 208.578C77.3854 208.578 76.8958 208.792 76.5 209.219C76.1042 209.641 75.8594 210.234 75.7656 211H80V210.891C79.9583 210.156 79.7604 209.589 79.4062 209.188C79.0521 208.781 78.5729 208.578 77.9688 208.578ZM89.8828 214.039L91.9766 207.547H93.4531L90.4219 216H89.3203L86.2578 207.547H87.7344L89.8828 214.039ZM96.4141 216H94.9688V207.547H96.4141V216ZM94.8516 205.305C94.8516 205.07 94.9219 204.872 95.0625 204.711C95.2083 204.549 95.4219 204.469 95.7031 204.469C95.9844 204.469 96.1979 204.549 96.3438 204.711C96.4896 204.872 96.5625 205.07 96.5625 205.305C96.5625 205.539 96.4896 205.734 96.3438 205.891C96.1979 206.047 95.9844 206.125 95.7031 206.125C95.4219 206.125 95.2083 206.047 95.0625 205.891C94.9219 205.734 94.8516 205.539 94.8516 205.305ZM98.3516 211.695C98.3516 210.867 98.513 210.122 98.8359 209.461C99.1641 208.799 99.6172 208.289 100.195 207.93C100.779 207.57 101.443 207.391 102.188 207.391C103.339 207.391 104.268 207.789 104.977 208.586C105.69 209.383 106.047 210.443 106.047 211.766V211.867C106.047 212.69 105.888 213.43 105.57 214.086C105.258 214.737 104.807 215.245 104.219 215.609C103.635 215.974 102.964 216.156 102.203 216.156C101.057 216.156 100.128 215.758 99.4141 214.961C98.7057 214.164 98.3516 213.109 98.3516 211.797V211.695ZM99.8047 211.867C99.8047 212.805 100.021 213.557 100.453 214.125C100.891 214.693 101.474 214.977 102.203 214.977C102.938 214.977 103.521 214.69 103.953 214.117C104.385 213.539 104.602 212.732 104.602 211.695C104.602 210.768 104.38 210.018 103.938 209.445C103.5 208.867 102.917 208.578 102.188 208.578C101.474 208.578 100.898 208.862 100.461 209.43C100.023 209.997 99.8047 210.81 99.8047 211.867ZM109.43 216H107.984V204H109.43V216ZM116.969 216C116.885 215.833 116.818 215.536 116.766 215.109C116.094 215.807 115.292 216.156 114.359 216.156C113.526 216.156 112.841 215.922 112.305 215.453C111.773 214.979 111.508 214.38 111.508 213.656C111.508 212.776 111.841 212.094 112.508 211.609C113.18 211.12 114.122 210.875 115.336 210.875H116.742V210.211C116.742 209.706 116.591 209.305 116.289 209.008C115.987 208.706 115.542 208.555 114.953 208.555C114.438 208.555 114.005 208.685 113.656 208.945C113.307 209.206 113.133 209.521 113.133 209.891H111.68C111.68 209.469 111.828 209.062 112.125 208.672C112.427 208.276 112.833 207.964 113.344 207.734C113.859 207.505 114.424 207.391 115.039 207.391C116.013 207.391 116.776 207.635 117.328 208.125C117.88 208.609 118.167 209.279 118.188 210.133V214.023C118.188 214.799 118.286 215.417 118.484 215.875V216H116.969ZM114.57 214.898C115.023 214.898 115.453 214.781 115.859 214.547C116.266 214.312 116.56 214.008 116.742 213.633V211.898H115.609C113.839 211.898 112.953 212.417 112.953 213.453C112.953 213.906 113.104 214.26 113.406 214.516C113.708 214.771 114.096 214.898 114.57 214.898ZM122.414 205.5V207.547H123.992V208.664H122.414V213.906C122.414 214.245 122.484 214.5 122.625 214.672C122.766 214.839 123.005 214.922 123.344 214.922C123.51 214.922 123.74 214.891 124.031 214.828V216C123.651 216.104 123.281 216.156 122.922 216.156C122.276 216.156 121.789 215.961 121.461 215.57C121.133 215.18 120.969 214.625 120.969 213.906V208.664H119.43V207.547H120.969V205.5H122.414ZM127.258 216H125.812V207.547H127.258V216ZM125.695 205.305C125.695 205.07 125.766 204.872 125.906 204.711C126.052 204.549 126.266 204.469 126.547 204.469C126.828 204.469 127.042 204.549 127.188 204.711C127.333 204.872 127.406 205.07 127.406 205.305C127.406 205.539 127.333 205.734 127.188 205.891C127.042 206.047 126.828 206.125 126.547 206.125C126.266 206.125 126.052 206.047 125.906 205.891C125.766 205.734 125.695 205.539 125.695 205.305ZM129.195 211.695C129.195 210.867 129.357 210.122 129.68 209.461C130.008 208.799 130.461 208.289 131.039 207.93C131.622 207.57 132.286 207.391 133.031 207.391C134.182 207.391 135.112 207.789 135.82 208.586C136.534 209.383 136.891 210.443 136.891 211.766V211.867C136.891 212.69 136.732 213.43 136.414 214.086C136.102 214.737 135.651 215.245 135.062 215.609C134.479 215.974 133.807 216.156 133.047 216.156C131.901 216.156 130.971 215.758 130.258 214.961C129.549 214.164 129.195 213.109 129.195 211.797V211.695ZM130.648 211.867C130.648 212.805 130.865 213.557 131.297 214.125C131.734 214.693 132.318 214.977 133.047 214.977C133.781 214.977 134.365 214.69 134.797 214.117C135.229 213.539 135.445 212.732 135.445 211.695C135.445 210.768 135.224 210.018 134.781 209.445C134.344 208.867 133.76 208.578 133.031 208.578C132.318 208.578 131.742 208.862 131.305 209.43C130.867 209.997 130.648 210.81 130.648 211.867ZM140.07 207.547L140.117 208.609C140.763 207.797 141.607 207.391 142.648 207.391C144.435 207.391 145.336 208.398 145.352 210.414V216H143.906V210.406C143.901 209.797 143.76 209.346 143.484 209.055C143.214 208.763 142.789 208.617 142.211 208.617C141.742 208.617 141.331 208.742 140.977 208.992C140.622 209.242 140.346 209.57 140.148 209.977V216H138.703V207.547H140.07ZM156.102 216H154.648V206.367L151.734 207.438V206.125L155.875 204.57H156.102V216Z" fill="black" fill-opacity="0.87"/>
<path fill-rule="evenodd" clip-rule="evenodd" d="M314 204V218H300V204H314ZM314 202H300C298.9 202 298 202.9 298 204V218C298 219.1 298.9 220 300 220H314C315.1 220 316 219.1 316 218V204C316 202.9 315.1 202 314 202Z" fill="black" fill-opacity="0.54"/>
<path d="M57.1797 261.859H53.5234V272H52.0312V261.859H48.3828V260.625H57.1797V261.859ZM60.8438 269.883L62.8125 263.547H64.3594L60.9609 273.305C60.4349 274.711 59.599 275.414 58.4531 275.414L58.1797 275.391L57.6406 275.289V274.117L58.0312 274.148C58.5208 274.148 58.901 274.049 59.1719 273.852C59.4479 273.654 59.6745 273.292 59.8516 272.766L60.1719 271.906L57.1562 263.547H58.7344L60.8438 269.883ZM72.7969 267.867C72.7969 269.154 72.5026 270.19 71.9141 270.977C71.3255 271.763 70.5286 272.156 69.5234 272.156C68.4974 272.156 67.6901 271.831 67.1016 271.18V275.25H65.6562V263.547H66.9766L67.0469 264.484C67.6354 263.755 68.4531 263.391 69.5 263.391C70.5156 263.391 71.3177 263.773 71.9062 264.539C72.5 265.305 72.7969 266.37 72.7969 267.734V267.867ZM71.3516 267.703C71.3516 266.75 71.1484 265.997 70.7422 265.445C70.3359 264.893 69.7786 264.617 69.0703 264.617C68.1953 264.617 67.5391 265.005 67.1016 265.781V269.82C67.5339 270.591 68.1953 270.977 69.0859 270.977C69.7786 270.977 70.3281 270.703 70.7344 270.156C71.1458 269.604 71.3516 268.786 71.3516 267.703ZM78.1484 272.156C77.0026 272.156 76.0703 271.781 75.3516 271.031C74.6328 270.276 74.2734 269.268 74.2734 268.008V267.742C74.2734 266.904 74.4323 266.156 74.75 265.5C75.0729 264.839 75.5208 264.323 76.0938 263.953C76.6719 263.578 77.2969 263.391 77.9688 263.391C79.0677 263.391 79.9219 263.753 80.5312 264.477C81.1406 265.201 81.4453 266.237 81.4453 267.586V268.188H75.7188C75.7396 269.021 75.9818 269.695 76.4453 270.211C76.9141 270.721 77.5078 270.977 78.2266 270.977C78.737 270.977 79.1693 270.872 79.5234 270.664C79.8776 270.456 80.1875 270.18 80.4531 269.836L81.3359 270.523C80.6276 271.612 79.5651 272.156 78.1484 272.156ZM77.9688 264.578C77.3854 264.578 76.8958 264.792 76.5 265.219C76.1042 265.641 75.8594 266.234 75.7656 267H80V266.891C79.9583 266.156 79.7604 265.589 79.4062 265.188C79.0521 264.781 78.5729 264.578 77.9688 264.578ZM89.8828 270.039L91.9766 263.547H93.4531L90.4219 272H89.3203L86.2578 263.547H87.7344L89.8828 270.039ZM96.4141 272H94.9688V263.547H96.4141V272ZM94.8516 261.305C94.8516 261.07 94.9219 260.872 95.0625 260.711C95.2083 260.549 95.4219 260.469 95.7031 260.469C95.9844 260.469 96.1979 260.549 96.3438 260.711C96.4896 260.872 96.5625 261.07 96.5625 261.305C96.5625 261.539 96.4896 261.734 96.3438 261.891C96.1979 262.047 95.9844 262.125 95.7031 262.125C95.4219 262.125 95.2083 262.047 95.0625 261.891C94.9219 261.734 94.8516 261.539 94.8516 261.305ZM98.3516 267.695C98.3516 266.867 98.513 266.122 98.8359 265.461C99.1641 264.799 99.6172 264.289 100.195 263.93C100.779 263.57 101.443 263.391 102.188 263.391C103.339 263.391 104.268 263.789 104.977 264.586C105.69 265.383 106.047 266.443 106.047 267.766V267.867C106.047 268.69 105.888 269.43 105.57 270.086C105.258 270.737 104.807 271.245 104.219 271.609C103.635 271.974 102.964 272.156 102.203 272.156C101.057 272.156 100.128 271.758 99.4141 270.961C98.7057 270.164 98.3516 269.109 98.3516 267.797V267.695ZM99.8047 267.867C99.8047 268.805 100.021 269.557 100.453 270.125C100.891 270.693 101.474 270.977 102.203 270.977C102.938 270.977 103.521 270.69 103.953 270.117C104.385 269.539 104.602 268.732 104.602 267.695C104.602 266.768 104.38 266.018 103.938 265.445C103.5 264.867 102.917 264.578 102.188 264.578C101.474 264.578 100.898 264.862 100.461 265.43C100.023 265.997 99.8047 266.81 99.8047 267.867ZM109.43 272H107.984V260H109.43V272ZM116.969 272C116.885 271.833 116.818 271.536 116.766 271.109C116.094 271.807 115.292 272.156 114.359 272.156C113.526 272.156 112.841 271.922 112.305 271.453C111.773 270.979 111.508 270.38 111.508 269.656C111.508 268.776 111.841 268.094 112.508 267.609C113.18 267.12 114.122 266.875 115.336 266.875H116.742V266.211C116.742 265.706 116.591 265.305 116.289 265.008C115.987 264.706 115.542 264.555 114.953 264.555C114.438 264.555 114.005 264.685 113.656 264.945C113.307 265.206 113.133 265.521 113.133 265.891H111.68C111.68 265.469 111.828 265.062 112.125 264.672C112.427 264.276 112.833 263.964 113.344 263.734C113.859 263.505 114.424 263.391 115.039 263.391C116.013 263.391 116.776 263.635 117.328 264.125C117.88 264.609 118.167 265.279 118.188 266.133V270.023C118.188 270.799 118.286 271.417 118.484 271.875V272H116.969ZM114.57 270.898C115.023 270.898 115.453 270.781 115.859 270.547C116.266 270.312 116.56 270.008 116.742 269.633V267.898H115.609C113.839 267.898 112.953 268.417 112.953 269.453C112.953 269.906 113.104 270.26 113.406 270.516C113.708 270.771 114.096 270.898 114.57 270.898ZM122.414 261.5V263.547H123.992V264.664H122.414V269.906C122.414 270.245 122.484 270.5 122.625 270.672C122.766 270.839 123.005 270.922 123.344 270.922C123.51 270.922 123.74 270.891 124.031 270.828V272C123.651 272.104 123.281 272.156 122.922 272.156C122.276 272.156 121.789 271.961 121.461 271.57C121.133 271.18 120.969 270.625 120.969 269.906V264.664H119.43V263.547H120.969V261.5H122.414ZM127.258 272H125.812V263.547H127.258V272ZM125.695 261.305C125.695 261.07 125.766 260.872 125.906 260.711C126.052 260.549 126.266 260.469 126.547 260.469C126.828 260.469 127.042 260.549 127.188 260.711C127.333 260.872 127.406 261.07 127.406 261.305C127.406 261.539 127.333 261.734 127.188 261.891C127.042 262.047 126.828 262.125 126.547 262.125C126.266 262.125 126.052 262.047 125.906 261.891C125.766 261.734 125.695 261.539 125.695 261.305ZM129.195 267.695C129.195 266.867 129.357 266.122 129.68 265.461C130.008 264.799 130.461 264.289 131.039 263.93C131.622 263.57 132.286 263.391 133.031 263.391C134.182 263.391 135.112 263.789 135.82 264.586C136.534 265.383 136.891 266.443 136.891 267.766V267.867C136.891 268.69 136.732 269.43 136.414 270.086C136.102 270.737 135.651 271.245 135.062 271.609C134.479 271.974 133.807 272.156 133.047 272.156C131.901 272.156 130.971 271.758 130.258 270.961C129.549 270.164 129.195 269.109 129.195 267.797V267.695ZM130.648 267.867C130.648 268.805 130.865 269.557 131.297 270.125C131.734 270.693 132.318 270.977 133.047 270.977C133.781 270.977 134.365 270.69 134.797 270.117C135.229 269.539 135.445 268.732 135.445 267.695C135.445 266.768 135.224 266.018 134.781 265.445C134.344 264.867 133.76 264.578 133.031 264.578C132.318 264.578 131.742 264.862 131.305 265.43C130.867 265.997 130.648 266.81 130.648 267.867ZM140.07 263.547L140.117 264.609C140.763 263.797 141.607 263.391 142.648 263.391C144.435 263.391 145.336 264.398 145.352 266.414V272H143.906V266.406C143.901 265.797 143.76 265.346 143.484 265.055C143.214 264.763 142.789 264.617 142.211 264.617C141.742 264.617 141.331 264.742 140.977 264.992C140.622 265.242 140.346 265.57 140.148 265.977V272H138.703V263.547H140.07ZM158.805 272H151.352V270.961L155.289 266.586C155.872 265.924 156.273 265.388 156.492 264.977C156.716 264.56 156.828 264.13 156.828 263.688C156.828 263.094 156.648 262.607 156.289 262.227C155.93 261.846 155.451 261.656 154.852 261.656C154.133 261.656 153.573 261.862 153.172 262.273C152.776 262.68 152.578 263.247 152.578 263.977H151.133C151.133 262.93 151.469 262.083 152.141 261.438C152.818 260.792 153.721 260.469 154.852 260.469C155.909 260.469 156.745 260.747 157.359 261.305C157.974 261.857 158.281 262.594 158.281 263.516C158.281 264.635 157.568 265.969 156.141 267.516L153.094 270.82H158.805V272Z" fill="black" fill-opacity="0.87"/>
<path fill-rule="evenodd" clip-rule="evenodd" d="M314 260V274H300V260H314ZM314 258H300C298.9 258 298 258.9 298 260V274C298 275.1 298.9 276 300 276H314C315.1 276 316 275.1 316 274V260C316 258.9 315.1 258 314 258Z" fill="black" fill-opacity="0.54"/>
<mask id="mask0" mask-type="alpha" maskUnits="userSpaceOnUse" x="298" y="258" width="18" height="18">
<path fill-rule="evenodd" clip-rule="evenodd" d="M314 258H300C298.9 258 298 258.9 298 260V274C298 275.1 298.9 276 300 276H314C315.1 276 316 275.1 316 274V260C316 258.9 315.1 258 314 258ZM305 272L300 267.192L301.4 265.846L305 269.308L312.6 262L314 263.346L305 272Z" fill="black"/>
</mask>
<g mask="url(#mask0)">
<rect x="298" y="258" width="18" height="18" fill="#00BCD4"/>
</g>
<path d="M57.1797 317.859H53.5234V328H52.0312V317.859H48.3828V316.625H57.1797V317.859ZM60.8438 325.883L62.8125 319.547H64.3594L60.9609 329.305C60.4349 330.711 59.599 331.414 58.4531 331.414L58.1797 331.391L57.6406 331.289V330.117L58.0312 330.148C58.5208 330.148 58.901 330.049 59.1719 329.852C59.4479 329.654 59.6745 329.292 59.8516 328.766L60.1719 327.906L57.1562 319.547H58.7344L60.8438 325.883ZM72.7969 323.867C72.7969 325.154 72.5026 326.19 71.9141 326.977C71.3255 327.763 70.5286 328.156 69.5234 328.156C68.4974 328.156 67.6901 327.831 67.1016 327.18V331.25H65.6562V319.547H66.9766L67.0469 320.484C67.6354 319.755 68.4531 319.391 69.5 319.391C70.5156 319.391 71.3177 319.773 71.9062 320.539C72.5 321.305 72.7969 322.37 72.7969 323.734V323.867ZM71.3516 323.703C71.3516 322.75 71.1484 321.997 70.7422 321.445C70.3359 320.893 69.7786 320.617 69.0703 320.617C68.1953 320.617 67.5391 321.005 67.1016 321.781V325.82C67.5339 326.591 68.1953 326.977 69.0859 326.977C69.7786 326.977 70.3281 326.703 70.7344 326.156C71.1458 325.604 71.3516 324.786 71.3516 323.703ZM78.1484 328.156C77.0026 328.156 76.0703 327.781 75.3516 327.031C74.6328 326.276 74.2734 325.268 74.2734 324.008V323.742C74.2734 322.904 74.4323 322.156 74.75 321.5C75.0729 320.839 75.5208 320.323 76.0938 319.953C76.6719 319.578 77.2969 319.391 77.9688 319.391C79.0677 319.391 79.9219 319.753 80.5312 320.477C81.1406 321.201 81.4453 322.237 81.4453 323.586V324.188H75.7188C75.7396 325.021 75.9818 325.695 76.4453 326.211C76.9141 326.721 77.5078 326.977 78.2266 326.977C78.737 326.977 79.1693 326.872 79.5234 326.664C79.8776 326.456 80.1875 326.18 80.4531 325.836L81.3359 326.523C80.6276 327.612 79.5651 328.156 78.1484 328.156ZM77.9688 320.578C77.3854 320.578 76.8958 320.792 76.5 321.219C76.1042 321.641 75.8594 322.234 75.7656 323H80V322.891C79.9583 322.156 79.7604 321.589 79.4062 321.188C79.0521 320.781 78.5729 320.578 77.9688 320.578ZM89.8828 326.039L91.9766 319.547H93.4531L90.4219 328H89.3203L86.2578 319.547H87.7344L89.8828 326.039ZM96.4141 328H94.9688V319.547H96.4141V328ZM94.8516 317.305C94.8516 317.07 94.9219 316.872 95.0625 316.711C95.2083 316.549 95.4219 316.469 95.7031 316.469C95.9844 316.469 96.1979 316.549 96.3438 316.711C96.4896 316.872 96.5625 317.07 96.5625 317.305C96.5625 317.539 96.4896 317.734 96.3438 317.891C96.1979 318.047 95.9844 318.125 95.7031 318.125C95.4219 318.125 95.2083 318.047 95.0625 317.891C94.9219 317.734 94.8516 317.539 94.8516 317.305ZM98.3516 323.695C98.3516 322.867 98.513 322.122 98.8359 321.461C99.1641 320.799 99.6172 320.289 100.195 319.93C100.779 319.57 101.443 319.391 102.188 319.391C103.339 319.391 104.268 319.789 104.977 320.586C105.69 321.383 106.047 322.443 106.047 323.766V323.867C106.047 324.69 105.888 325.43 105.57 326.086C105.258 326.737 104.807 327.245 104.219 327.609C103.635 327.974 102.964 328.156 102.203 328.156C101.057 328.156 100.128 327.758 99.4141 326.961C98.7057 326.164 98.3516 325.109 98.3516 323.797V323.695ZM99.8047 323.867C99.8047 324.805 100.021 325.557 100.453 326.125C100.891 326.693 101.474 326.977 102.203 326.977C102.938 326.977 103.521 326.69 103.953 326.117C104.385 325.539 104.602 324.732 104.602 323.695C104.602 322.768 104.38 322.018 103.938 321.445C103.5 320.867 102.917 320.578 102.188 320.578C101.474 320.578 100.898 320.862 100.461 321.43C100.023 321.997 99.8047 322.81 99.8047 323.867ZM109.43 328H107.984V316H109.43V328ZM116.969 328C116.885 327.833 116.818 327.536 116.766 327.109C116.094 327.807 115.292 328.156 114.359 328.156C113.526 328.156 112.841 327.922 112.305 327.453C111.773 326.979 111.508 326.38 111.508 325.656C111.508 324.776 111.841 324.094 112.508 323.609C113.18 323.12 114.122 322.875 115.336 322.875H116.742V322.211C116.742 321.706 116.591 321.305 116.289 321.008C115.987 320.706 115.542 320.555 114.953 320.555C114.438 320.555 114.005 320.685 113.656 320.945C113.307 321.206 113.133 321.521 113.133 321.891H111.68C111.68 321.469 111.828 321.062 112.125 320.672C112.427 320.276 112.833 319.964 113.344 319.734C113.859 319.505 114.424 319.391 115.039 319.391C116.013 319.391 116.776 319.635 117.328 320.125C117.88 320.609 118.167 321.279 118.188 322.133V326.023C118.188 326.799 118.286 327.417 118.484 327.875V328H116.969ZM114.57 326.898C115.023 326.898 115.453 326.781 115.859 326.547C116.266 326.312 116.56 326.008 116.742 325.633V323.898H115.609C113.839 323.898 112.953 324.417 112.953 325.453C112.953 325.906 113.104 326.26 113.406 326.516C113.708 326.771 114.096 326.898 114.57 326.898ZM122.414 317.5V319.547H123.992V320.664H122.414V325.906C122.414 326.245 122.484 326.5 122.625 326.672C122.766 326.839 123.005 326.922 123.344 326.922C123.51 326.922 123.74 326.891 124.031 326.828V328C123.651 328.104 123.281 328.156 122.922 328.156C122.276 328.156 121.789 327.961 121.461 327.57C121.133 327.18 120.969 326.625 120.969 325.906V320.664H119.43V319.547H120.969V317.5H122.414ZM127.258 328H125.812V319.547H127.258V328ZM125.695 317.305C125.695 317.07 125.766 316.872 125.906 316.711C126.052 316.549 126.266 316.469 126.547 316.469C126.828 316.469 127.042 316.549 127.188 316.711C127.333 316.872 127.406 317.07 127.406 317.305C127.406 317.539 127.333 317.734 127.188 317.891C127.042 318.047 126.828 318.125 126.547 318.125C126.266 318.125 126.052 318.047 125.906 317.891C125.766 317.734 125.695 317.539 125.695 317.305ZM129.195 323.695C129.195 322.867 129.357 322.122 129.68 321.461C130.008 320.799 130.461 320.289 131.039 319.93C131.622 319.57 132.286 319.391 133.031 319.391C134.182 319.391 135.112 319.789 135.82 320.586C136.534 321.383 136.891 322.443 136.891 323.766V323.867C136.891 324.69 136.732 325.43 136.414 326.086C136.102 326.737 135.651 327.245 135.062 327.609C134.479 327.974 133.807 328.156 133.047 328.156C131.901 328.156 130.971 327.758 130.258 326.961C129.549 326.164 129.195 325.109 129.195 323.797V323.695ZM130.648 323.867C130.648 324.805 130.865 325.557 131.297 326.125C131.734 326.693 132.318 326.977 133.047 326.977C133.781 326.977 134.365 326.69 134.797 326.117C135.229 325.539 135.445 324.732 135.445 323.695C135.445 322.768 135.224 322.018 134.781 321.445C134.344 320.867 133.76 320.578 133.031 320.578C132.318 320.578 131.742 320.862 131.305 321.43C130.867 321.997 130.648 322.81 130.648 323.867ZM140.07 319.547L140.117 320.609C140.763 319.797 141.607 319.391 142.648 319.391C144.435 319.391 145.336 320.398 145.352 322.414V328H143.906V322.406C143.901 321.797 143.76 321.346 143.484 321.055C143.214 320.763 142.789 320.617 142.211 320.617C141.742 320.617 141.331 320.742 140.977 320.992C140.622 321.242 140.346 321.57 140.148 321.977V328H138.703V319.547H140.07ZM156.102 328H154.648V318.367L151.734 319.438V318.125L155.875 316.57H156.102V328Z" fill="black" fill-opacity="0.87"/>
<path fill-rule="evenodd" clip-rule="evenodd" d="M317 313V327H303V313H317ZM317 311H303C301.9 311 301 311.9 301 313V327C301 328.1 301.9 329 303 329H317C318.1 329 319 328.1 319 327V313C319 311.9 318.1 311 317 311Z" fill="black" fill-opacity="0.54"/>
</g>
<rect y="320" width="360" height="320" fill="white"/>
<path d="M16 398C16 395.791 17.7909 394 20 394H341C343.209 394 345 395.791 345 398V450H16V398Z" fill="#333333" fill-opacity="0.06"/>
<path d="M16 448.911H345V449.911H16V448.911Z" fill="black" fill-opacity="0.38"/>
<path d="M35.5469 465H34.416V461.057H30.1152V465H28.9902V456.469H30.1152V460.137H34.416V456.469H35.5469V465ZM40.0059 465.117C39.1465 465.117 38.4473 464.836 37.9082 464.273C37.3691 463.707 37.0996 462.951 37.0996 462.006V461.807C37.0996 461.178 37.2188 460.617 37.457 460.125C37.6992 459.629 38.0352 459.242 38.4648 458.965C38.8984 458.684 39.3672 458.543 39.8711 458.543C40.6953 458.543 41.3359 458.814 41.793 459.357C42.25 459.9 42.4785 460.678 42.4785 461.689V462.141H38.1836C38.1992 462.766 38.3809 463.271 38.7285 463.658C39.0801 464.041 39.5254 464.232 40.0645 464.232C40.4473 464.232 40.7715 464.154 41.0371 463.998C41.3027 463.842 41.5352 463.635 41.7344 463.377L42.3965 463.893C41.8652 464.709 41.0684 465.117 40.0059 465.117ZM39.8711 459.434C39.4336 459.434 39.0664 459.594 38.7695 459.914C38.4727 460.23 38.2891 460.676 38.2188 461.25H41.3945V461.168C41.3633 460.617 41.2148 460.191 40.9492 459.891C40.6836 459.586 40.3242 459.434 39.8711 459.434ZM44.916 465H43.832V456H44.916V465ZM52.0117 461.9C52.0117 462.865 51.791 463.643 51.3496 464.232C50.9082 464.822 50.3105 465.117 49.5566 465.117C48.7871 465.117 48.1816 464.873 47.7402 464.385V467.438H46.6562V458.66H47.6465L47.6992 459.363C48.1406 458.816 48.7539 458.543 49.5391 458.543C50.3008 458.543 50.9023 458.83 51.3438 459.404C51.7891 459.979 52.0117 460.777 52.0117 461.801V461.9ZM50.9277 461.777C50.9277 461.062 50.7754 460.498 50.4707 460.084C50.166 459.67 49.748 459.463 49.2168 459.463C48.5605 459.463 48.0684 459.754 47.7402 460.336V463.365C48.0645 463.943 48.5605 464.232 49.2285 464.232C49.748 464.232 50.1602 464.027 50.4648 463.617C50.7734 463.203 50.9277 462.59 50.9277 461.777ZM56.0254 465.117C55.166 465.117 54.4668 464.836 53.9277 464.273C53.3887 463.707 53.1191 462.951 53.1191 462.006V461.807C53.1191 461.178 53.2383 460.617 53.4766 460.125C53.7188 459.629 54.0547 459.242 54.4844 458.965C54.918 458.684 55.3867 458.543 55.8906 458.543C56.7148 458.543 57.3555 458.814 57.8125 459.357C58.2695 459.9 58.498 460.678 58.498 461.689V462.141H54.2031C54.2188 462.766 54.4004 463.271 54.748 463.658C55.0996 464.041 55.5449 464.232 56.084 464.232C56.4668 464.232 56.791 464.154 57.0566 463.998C57.3223 463.842 57.5547 463.635 57.7539 463.377L58.416 463.893C57.8848 464.709 57.0879 465.117 56.0254 465.117ZM55.8906 459.434C55.4531 459.434 55.0859 459.594 54.7891 459.914C54.4922 460.23 54.3086 460.676 54.2383 461.25H57.4141V461.168C57.3828 460.617 57.2344 460.191 56.9688 459.891C56.7031 459.586 56.3438 459.434 55.8906 459.434ZM62.8223 459.633C62.6582 459.605 62.4805 459.592 62.2891 459.592C61.5781 459.592 61.0957 459.895 60.8418 460.5V465H59.7578V458.66H60.8125L60.8301 459.393C61.1855 458.826 61.6895 458.543 62.3418 458.543C62.5527 458.543 62.7129 458.57 62.8223 458.625V459.633ZM68.2715 457.125V458.66H69.4551V459.498H68.2715V463.43C68.2715 463.684 68.3242 463.875 68.4297 464.004C68.5352 464.129 68.7148 464.191 68.9688 464.191C69.0938 464.191 69.2656 464.168 69.4844 464.121V465C69.1992 465.078 68.9219 465.117 68.6523 465.117C68.168 465.117 67.8027 464.971 67.5566 464.678C67.3105 464.385 67.1875 463.969 67.1875 463.43V459.498H66.0332V458.66H67.1875V457.125H68.2715ZM73.3574 465.117C72.498 465.117 71.7988 464.836 71.2598 464.273C70.7207 463.707 70.4512 462.951 70.4512 462.006V461.807C70.4512 461.178 70.5703 460.617 70.8086 460.125C71.0508 459.629 71.3867 459.242 71.8164 458.965C72.25 458.684 72.7188 458.543 73.2227 458.543C74.0469 458.543 74.6875 458.814 75.1445 459.357C75.6016 459.9 75.8301 460.678 75.8301 461.689V462.141H71.5352C71.5508 462.766 71.7324 463.271 72.0801 463.658C72.4316 464.041 72.877 464.232 73.416 464.232C73.7988 464.232 74.123 464.154 74.3887 463.998C74.6543 463.842 74.8867 463.635 75.0859 463.377L75.748 463.893C75.2168 464.709 74.4199 465.117 73.3574 465.117ZM73.2227 459.434C72.7852 459.434 72.418 459.594 72.1211 459.914C71.8242 460.23 71.6406 460.676 71.5703 461.25H74.7461V461.168C74.7148 460.617 74.5664 460.191 74.3008 459.891C74.0352 459.586 73.6758 459.434 73.2227 459.434ZM79.2168 460.975L80.623 458.66H81.8887L79.8145 461.795L81.9531 465H80.6992L79.2344 462.627L77.7695 465H76.5098L78.6484 461.795L76.5742 458.66H77.8281L79.2168 460.975ZM84.5137 457.125V458.66H85.6973V459.498H84.5137V463.43C84.5137 463.684 84.5664 463.875 84.6719 464.004C84.7773 464.129 84.957 464.191 85.2109 464.191C85.3359 464.191 85.5078 464.168 85.7266 464.121V465C85.4414 465.078 85.1641 465.117 84.8945 465.117C84.4102 465.117 84.0449 464.971 83.7988 464.678C83.5527 464.385 83.4297 463.969 83.4297 463.43V459.498H82.2754V458.66H83.4297V457.125H84.5137Z" fill="black" fill-opacity="0.54"/>
<path d="M36.3984 434H28.9453V432.961L32.8828 428.586C33.4661 427.924 33.8672 427.388 34.0859 426.977C34.3099 426.56 34.4219 426.13 34.4219 425.688C34.4219 425.094 34.2422 424.607 33.8828 424.227C33.5234 423.846 33.0443 423.656 32.4453 423.656C31.7266 423.656 31.1667 423.862 30.7656 424.273C30.3698 424.68 30.1719 425.247 30.1719 425.977H28.7266C28.7266 424.93 29.0625 424.083 29.7344 423.438C30.4115 422.792 31.3151 422.469 32.4453 422.469C33.5026 422.469 34.3385 422.747 34.9531 423.305C35.5677 423.857 35.875 424.594 35.875 425.516C35.875 426.635 35.1615 427.969 33.7344 429.516L30.6875 432.82H36.3984V434ZM45.0625 429.148C45.0625 430.841 44.7734 432.099 44.1953 432.922C43.6172 433.745 42.7135 434.156 41.4844 434.156C40.2708 434.156 39.3724 433.755 38.7891 432.953C38.2057 432.146 37.9036 430.943 37.8828 429.344V427.414C37.8828 425.742 38.1719 424.5 38.75 423.688C39.3281 422.875 40.2344 422.469 41.4688 422.469C42.6927 422.469 43.5938 422.862 44.1719 423.648C44.75 424.43 45.0469 425.638 45.0625 427.273V429.148ZM43.6172 427.172C43.6172 425.948 43.4453 425.057 43.1016 424.5C42.7578 423.938 42.2135 423.656 41.4688 423.656C40.7292 423.656 40.1901 423.935 39.8516 424.492C39.513 425.049 39.3385 425.906 39.3281 427.062V429.375C39.3281 430.604 39.5052 431.513 39.8594 432.102C40.2188 432.685 40.7604 432.977 41.4844 432.977C42.1979 432.977 42.7266 432.701 43.0703 432.148C43.4193 431.596 43.6016 430.727 43.6172 429.539V427.172ZM51.6641 434H50.2109V424.367L47.2969 425.438V424.125L51.4375 422.57H51.6641V434ZM61.4375 429C61.1354 429.359 60.7734 429.648 60.3516 429.867C59.9349 430.086 59.4766 430.195 58.9766 430.195C58.3203 430.195 57.7474 430.034 57.2578 429.711C56.7734 429.388 56.3984 428.935 56.1328 428.352C55.8672 427.763 55.7344 427.115 55.7344 426.406C55.7344 425.646 55.8776 424.961 56.1641 424.352C56.4557 423.742 56.8672 423.276 57.3984 422.953C57.9297 422.63 58.5495 422.469 59.2578 422.469C60.3828 422.469 61.2682 422.891 61.9141 423.734C62.5651 424.573 62.8906 425.719 62.8906 427.172V427.594C62.8906 429.807 62.4531 431.424 61.5781 432.445C60.7031 433.461 59.3828 433.982 57.6172 434.008H57.3359V432.789H57.6406C58.8333 432.768 59.75 432.458 60.3906 431.859C61.0312 431.255 61.3802 430.302 61.4375 429ZM59.2109 429C59.6953 429 60.1406 428.852 60.5469 428.555C60.9583 428.258 61.2578 427.891 61.4453 427.453V426.875C61.4453 425.927 61.2396 425.156 60.8281 424.562C60.4167 423.969 59.8958 423.672 59.2656 423.672C58.6302 423.672 58.1198 423.917 57.7344 424.406C57.349 424.891 57.1562 425.531 57.1562 426.328C57.1562 427.104 57.3411 427.745 57.7109 428.25C58.0859 428.75 58.5859 429 59.2109 429ZM65.3203 434.977H64.0781L68.8281 422.625H70.0625L65.3203 434.977ZM76.2266 434H74.7734V424.367L71.8594 425.438V424.125L76 422.57H76.2266V434ZM87.9141 434H80.4609V432.961L84.3984 428.586C84.9818 427.924 85.3828 427.388 85.6016 426.977C85.8255 426.56 85.9375 426.13 85.9375 425.688C85.9375 425.094 85.7578 424.607 85.3984 424.227C85.0391 423.846 84.5599 423.656 83.9609 423.656C83.2422 423.656 82.6823 423.862 82.2812 424.273C81.8854 424.68 81.6875 425.247 81.6875 425.977H80.2422C80.2422 424.93 80.5781 424.083 81.25 423.438C81.9271 422.792 82.8307 422.469 83.9609 422.469C85.0182 422.469 85.8542 422.747 86.4688 423.305C87.0833 423.857 87.3906 424.594 87.3906 425.516C87.3906 426.635 86.6771 427.969 85.25 429.516L82.2031 432.82H87.9141V434ZM89.8828 434.977H88.6406L93.3906 422.625H94.625L89.8828 434.977ZM103.172 429.148C103.172 430.841 102.883 432.099 102.305 432.922C101.727 433.745 100.823 434.156 99.5938 434.156C98.3802 434.156 97.4818 433.755 96.8984 432.953C96.3151 432.146 96.013 430.943 95.9922 429.344V427.414C95.9922 425.742 96.2812 424.5 96.8594 423.688C97.4375 422.875 98.3438 422.469 99.5781 422.469C100.802 422.469 101.703 422.862 102.281 423.648C102.859 424.43 103.156 425.638 103.172 427.273V429.148ZM101.727 427.172C101.727 425.948 101.555 425.057 101.211 424.5C100.867 423.938 100.323 423.656 99.5781 423.656C98.8385 423.656 98.2995 423.935 97.9609 424.492C97.6224 425.049 97.4479 425.906 97.4375 427.062V429.375C97.4375 430.604 97.6146 431.513 97.9688 432.102C98.3281 432.685 98.8698 432.977 99.5938 432.977C100.307 432.977 100.836 432.701 101.18 432.148C101.529 431.596 101.711 430.727 101.727 429.539V427.172ZM107.125 427.609H108.211C108.893 427.599 109.43 427.419 109.82 427.07C110.211 426.721 110.406 426.25 110.406 425.656C110.406 424.323 109.742 423.656 108.414 423.656C107.789 423.656 107.289 423.836 106.914 424.195C106.544 424.549 106.359 425.021 106.359 425.609H104.914C104.914 424.708 105.242 423.961 105.898 423.367C106.56 422.768 107.398 422.469 108.414 422.469C109.487 422.469 110.328 422.753 110.938 423.32C111.547 423.888 111.852 424.677 111.852 425.688C111.852 426.182 111.69 426.661 111.367 427.125C111.049 427.589 110.615 427.935 110.062 428.164C110.688 428.362 111.169 428.69 111.508 429.148C111.852 429.607 112.023 430.167 112.023 430.828C112.023 431.849 111.69 432.659 111.023 433.258C110.357 433.857 109.49 434.156 108.422 434.156C107.354 434.156 106.484 433.867 105.812 433.289C105.146 432.711 104.812 431.948 104.812 431H106.266C106.266 431.599 106.461 432.078 106.852 432.438C107.242 432.797 107.766 432.977 108.422 432.977C109.12 432.977 109.654 432.794 110.023 432.43C110.393 432.065 110.578 431.542 110.578 430.859C110.578 430.198 110.375 429.69 109.969 429.336C109.562 428.982 108.977 428.799 108.211 428.789H107.125V427.609Z" fill="black" fill-opacity="0.87"/>
<path d="M33.6953 410.232H30.1152V414H28.9902V405.469H34.2754V406.395H30.1152V409.312H33.6953V410.232ZM38.3652 408.633C38.2012 408.605 38.0234 408.592 37.832 408.592C37.1211 408.592 36.6387 408.895 36.3848 409.5V414H35.3008V407.66H36.3555L36.373 408.393C36.7285 407.826 37.2324 407.543 37.8848 407.543C38.0957 407.543 38.2559 407.57 38.3652 407.625V408.633ZM38.9629 410.771C38.9629 410.15 39.084 409.592 39.3262 409.096C39.5723 408.6 39.9121 408.217 40.3457 407.947C40.7832 407.678 41.2812 407.543 41.8398 407.543C42.7031 407.543 43.4004 407.842 43.9316 408.439C44.4668 409.037 44.7344 409.832 44.7344 410.824V410.9C44.7344 411.518 44.6152 412.072 44.377 412.564C44.1426 413.053 43.8047 413.434 43.3633 413.707C42.9258 413.98 42.4219 414.117 41.8516 414.117C40.9922 414.117 40.2949 413.818 39.7598 413.221C39.2285 412.623 38.9629 411.832 38.9629 410.848V410.771ZM40.0527 410.9C40.0527 411.604 40.2148 412.168 40.5391 412.594C40.8672 413.02 41.3047 413.232 41.8516 413.232C42.4023 413.232 42.8398 413.018 43.1641 412.588C43.4883 412.154 43.6504 411.549 43.6504 410.771C43.6504 410.076 43.4844 409.514 43.1523 409.084C42.8242 408.65 42.3867 408.434 41.8398 408.434C41.3047 408.434 40.873 408.646 40.5449 409.072C40.2168 409.498 40.0527 410.107 40.0527 410.9ZM47.1133 407.66L47.1426 408.363C47.6074 407.816 48.2344 407.543 49.0234 407.543C49.9102 407.543 50.5137 407.883 50.834 408.562C51.0449 408.258 51.3184 408.012 51.6543 407.824C51.9941 407.637 52.3945 407.543 52.8555 407.543C54.2461 407.543 54.9531 408.279 54.9766 409.752V414H53.8926V409.816C53.8926 409.363 53.7891 409.025 53.582 408.803C53.375 408.576 53.0273 408.463 52.5391 408.463C52.1367 408.463 51.8027 408.584 51.5371 408.826C51.2715 409.064 51.1172 409.387 51.0742 409.793V414H49.9844V409.846C49.9844 408.924 49.5332 408.463 48.6309 408.463C47.9199 408.463 47.4336 408.766 47.1719 409.371V414H46.0879V407.66H47.1133ZM56.582 413.432C56.582 413.244 56.6367 413.088 56.7461 412.963C56.8594 412.838 57.0273 412.775 57.25 412.775C57.4727 412.775 57.6406 412.838 57.7539 412.963C57.8711 413.088 57.9297 413.244 57.9297 413.432C57.9297 413.611 57.8711 413.762 57.7539 413.883C57.6406 414.004 57.4727 414.064 57.25 414.064C57.0273 414.064 56.8594 414.004 56.7461 413.883C56.6367 413.762 56.582 413.611 56.582 413.432ZM56.5879 408.258C56.5879 408.07 56.6426 407.914 56.752 407.789C56.8652 407.664 57.0332 407.602 57.2559 407.602C57.4785 407.602 57.6465 407.664 57.7598 407.789C57.877 407.914 57.9355 408.07 57.9355 408.258C57.9355 408.438 57.877 408.588 57.7598 408.709C57.6465 408.83 57.4785 408.891 57.2559 408.891C57.0332 408.891 56.8652 408.83 56.752 408.709C56.6426 408.588 56.5879 408.438 56.5879 408.258Z" fill="black" fill-opacity="0.54"/>
<path d="M16 479C16 476.791 17.7909 475 20 475H341C343.209 475 345 476.791 345 479V531H16V479Z" fill="#333333" fill-opacity="0.06"/>
<path d="M16 529.911H345V530.911H16V529.911Z" fill="black" fill-opacity="0.38"/>
<path d="M35.5469 546H34.416V542.057H30.1152V546H28.9902V537.469H30.1152V541.137H34.416V537.469H35.5469V546ZM40.0059 546.117C39.1465 546.117 38.4473 545.836 37.9082 545.273C37.3691 544.707 37.0996 543.951 37.0996 543.006V542.807C37.0996 542.178 37.2188 541.617 37.457 541.125C37.6992 540.629 38.0352 540.242 38.4648 539.965C38.8984 539.684 39.3672 539.543 39.8711 539.543C40.6953 539.543 41.3359 539.814 41.793 540.357C42.25 540.9 42.4785 541.678 42.4785 542.689V543.141H38.1836C38.1992 543.766 38.3809 544.271 38.7285 544.658C39.0801 545.041 39.5254 545.232 40.0645 545.232C40.4473 545.232 40.7715 545.154 41.0371 544.998C41.3027 544.842 41.5352 544.635 41.7344 544.377L42.3965 544.893C41.8652 545.709 41.0684 546.117 40.0059 546.117ZM39.8711 540.434C39.4336 540.434 39.0664 540.594 38.7695 540.914C38.4727 541.23 38.2891 541.676 38.2188 542.25H41.3945V542.168C41.3633 541.617 41.2148 541.191 40.9492 540.891C40.6836 540.586 40.3242 540.434 39.8711 540.434ZM44.916 546H43.832V537H44.916V546ZM52.0117 542.9C52.0117 543.865 51.791 544.643 51.3496 545.232C50.9082 545.822 50.3105 546.117 49.5566 546.117C48.7871 546.117 48.1816 545.873 47.7402 545.385V548.438H46.6562V539.66H47.6465L47.6992 540.363C48.1406 539.816 48.7539 539.543 49.5391 539.543C50.3008 539.543 50.9023 539.83 51.3438 540.404C51.7891 540.979 52.0117 541.777 52.0117 542.801V542.9ZM50.9277 542.777C50.9277 542.062 50.7754 541.498 50.4707 541.084C50.166 540.67 49.748 540.463 49.2168 540.463C48.5605 540.463 48.0684 540.754 47.7402 541.336V544.365C48.0645 544.943 48.5605 545.232 49.2285 545.232C49.748 545.232 50.1602 545.027 50.4648 544.617C50.7734 544.203 50.9277 543.59 50.9277 542.777ZM56.0254 546.117C55.166 546.117 54.4668 545.836 53.9277 545.273C53.3887 544.707 53.1191 543.951 53.1191 543.006V542.807C53.1191 542.178 53.2383 541.617 53.4766 541.125C53.7188 540.629 54.0547 540.242 54.4844 539.965C54.918 539.684 55.3867 539.543 55.8906 539.543C56.7148 539.543 57.3555 539.814 57.8125 540.357C58.2695 540.9 58.498 541.678 58.498 542.689V543.141H54.2031C54.2188 543.766 54.4004 544.271 54.748 544.658C55.0996 545.041 55.5449 545.232 56.084 545.232C56.4668 545.232 56.791 545.154 57.0566 544.998C57.3223 544.842 57.5547 544.635 57.7539 544.377L58.416 544.893C57.8848 545.709 57.0879 546.117 56.0254 546.117ZM55.8906 540.434C55.4531 540.434 55.0859 540.594 54.7891 540.914C54.4922 541.23 54.3086 541.676 54.2383 542.25H57.4141V542.168C57.3828 541.617 57.2344 541.191 56.9688 540.891C56.7031 540.586 56.3438 540.434 55.8906 540.434ZM62.8223 540.633C62.6582 540.605 62.4805 540.592 62.2891 540.592C61.5781 540.592 61.0957 540.895 60.8418 541.5V546H59.7578V539.66H60.8125L60.8301 540.393C61.1855 539.826 61.6895 539.543 62.3418 539.543C62.5527 539.543 62.7129 539.57 62.8223 539.625V540.633ZM68.2715 538.125V539.66H69.4551V540.498H68.2715V544.43C68.2715 544.684 68.3242 544.875 68.4297 545.004C68.5352 545.129 68.7148 545.191 68.9688 545.191C69.0938 545.191 69.2656 545.168 69.4844 545.121V546C69.1992 546.078 68.9219 546.117 68.6523 546.117C68.168 546.117 67.8027 545.971 67.5566 545.678C67.3105 545.385 67.1875 544.969 67.1875 544.43V540.498H66.0332V539.66H67.1875V538.125H68.2715ZM73.3574 546.117C72.498 546.117 71.7988 545.836 71.2598 545.273C70.7207 544.707 70.4512 543.951 70.4512 543.006V542.807C70.4512 542.178 70.5703 541.617 70.8086 541.125C71.0508 540.629 71.3867 540.242 71.8164 539.965C72.25 539.684 72.7188 539.543 73.2227 539.543C74.0469 539.543 74.6875 539.814 75.1445 540.357C75.6016 540.9 75.8301 541.678 75.8301 542.689V543.141H71.5352C71.5508 543.766 71.7324 544.271 72.0801 544.658C72.4316 545.041 72.877 545.232 73.416 545.232C73.7988 545.232 74.123 545.154 74.3887 544.998C74.6543 544.842 74.8867 544.635 75.0859 544.377L75.748 544.893C75.2168 545.709 74.4199 546.117 73.3574 546.117ZM73.2227 540.434C72.7852 540.434 72.418 540.594 72.1211 540.914C71.8242 541.23 71.6406 541.676 71.5703 542.25H74.7461V542.168C74.7148 541.617 74.5664 541.191 74.3008 540.891C74.0352 540.586 73.6758 540.434 73.2227 540.434ZM79.2168 541.975L80.623 539.66H81.8887L79.8145 542.795L81.9531 546H80.6992L79.2344 543.627L77.7695 546H76.5098L78.6484 542.795L76.5742 539.66H77.8281L79.2168 541.975ZM84.5137 538.125V539.66H85.6973V540.498H84.5137V544.43C84.5137 544.684 84.5664 544.875 84.6719 545.004C84.7773 545.129 84.957 545.191 85.2109 545.191C85.3359 545.191 85.5078 545.168 85.7266 545.121V546C85.4414 546.078 85.1641 546.117 84.8945 546.117C84.4102 546.117 84.0449 545.971 83.7988 545.678C83.5527 545.385 83.4297 544.969 83.4297 544.43V540.498H82.2754V539.66H83.4297V538.125H84.5137Z" fill="black" fill-opacity="0.54"/>
<path d="M36.3984 515H28.9453V513.961L32.8828 509.586C33.4661 508.924 33.8672 508.388 34.0859 507.977C34.3099 507.56 34.4219 507.13 34.4219 506.688C34.4219 506.094 34.2422 505.607 33.8828 505.227C33.5234 504.846 33.0443 504.656 32.4453 504.656C31.7266 504.656 31.1667 504.862 30.7656 505.273C30.3698 505.68 30.1719 506.247 30.1719 506.977H28.7266C28.7266 505.93 29.0625 505.083 29.7344 504.438C30.4115 503.792 31.3151 503.469 32.4453 503.469C33.5026 503.469 34.3385 503.747 34.9531 504.305C35.5677 504.857 35.875 505.594 35.875 506.516C35.875 507.635 35.1615 508.969 33.7344 510.516L30.6875 513.82H36.3984V515ZM45.0625 510.148C45.0625 511.841 44.7734 513.099 44.1953 513.922C43.6172 514.745 42.7135 515.156 41.4844 515.156C40.2708 515.156 39.3724 514.755 38.7891 513.953C38.2057 513.146 37.9036 511.943 37.8828 510.344V508.414C37.8828 506.742 38.1719 505.5 38.75 504.688C39.3281 503.875 40.2344 503.469 41.4688 503.469C42.6927 503.469 43.5938 503.862 44.1719 504.648C44.75 505.43 45.0469 506.638 45.0625 508.273V510.148ZM43.6172 508.172C43.6172 506.948 43.4453 506.057 43.1016 505.5C42.7578 504.938 42.2135 504.656 41.4688 504.656C40.7292 504.656 40.1901 504.935 39.8516 505.492C39.513 506.049 39.3385 506.906 39.3281 508.062V510.375C39.3281 511.604 39.5052 512.513 39.8594 513.102C40.2188 513.685 40.7604 513.977 41.4844 513.977C42.1979 513.977 42.7266 513.701 43.0703 513.148C43.4193 512.596 43.6016 511.727 43.6172 510.539V508.172ZM51.6641 515H50.2109V505.367L47.2969 506.438V505.125L51.4375 503.57H51.6641V515ZM61.4375 510C61.1354 510.359 60.7734 510.648 60.3516 510.867C59.9349 511.086 59.4766 511.195 58.9766 511.195C58.3203 511.195 57.7474 511.034 57.2578 510.711C56.7734 510.388 56.3984 509.935 56.1328 509.352C55.8672 508.763 55.7344 508.115 55.7344 507.406C55.7344 506.646 55.8776 505.961 56.1641 505.352C56.4557 504.742 56.8672 504.276 57.3984 503.953C57.9297 503.63 58.5495 503.469 59.2578 503.469C60.3828 503.469 61.2682 503.891 61.9141 504.734C62.5651 505.573 62.8906 506.719 62.8906 508.172V508.594C62.8906 510.807 62.4531 512.424 61.5781 513.445C60.7031 514.461 59.3828 514.982 57.6172 515.008H57.3359V513.789H57.6406C58.8333 513.768 59.75 513.458 60.3906 512.859C61.0312 512.255 61.3802 511.302 61.4375 510ZM59.2109 510C59.6953 510 60.1406 509.852 60.5469 509.555C60.9583 509.258 61.2578 508.891 61.4453 508.453V507.875C61.4453 506.927 61.2396 506.156 60.8281 505.562C60.4167 504.969 59.8958 504.672 59.2656 504.672C58.6302 504.672 58.1198 504.917 57.7344 505.406C57.349 505.891 57.1562 506.531 57.1562 507.328C57.1562 508.104 57.3411 508.745 57.7109 509.25C58.0859 509.75 58.5859 510 59.2109 510ZM65.3203 515.977H64.0781L68.8281 503.625H70.0625L65.3203 515.977ZM76.2266 515H74.7734V505.367L71.8594 506.438V505.125L76 503.57H76.2266V515ZM87.9141 515H80.4609V513.961L84.3984 509.586C84.9818 508.924 85.3828 508.388 85.6016 507.977C85.8255 507.56 85.9375 507.13 85.9375 506.688C85.9375 506.094 85.7578 505.607 85.3984 505.227C85.0391 504.846 84.5599 504.656 83.9609 504.656C83.2422 504.656 82.6823 504.862 82.2812 505.273C81.8854 505.68 81.6875 506.247 81.6875 506.977H80.2422C80.2422 505.93 80.5781 505.083 81.25 504.438C81.9271 503.792 82.8307 503.469 83.9609 503.469C85.0182 503.469 85.8542 503.747 86.4688 504.305C87.0833 504.857 87.3906 505.594 87.3906 506.516C87.3906 507.635 86.6771 508.969 85.25 510.516L82.2031 513.82H87.9141V515ZM89.8828 515.977H88.6406L93.3906 503.625H94.625L89.8828 515.977ZM100.789 515H99.3359V505.367L96.4219 506.438V505.125L100.562 503.57H100.789V515ZM112.156 510.148C112.156 511.841 111.867 513.099 111.289 513.922C110.711 514.745 109.807 515.156 108.578 515.156C107.365 515.156 106.466 514.755 105.883 513.953C105.299 513.146 104.997 511.943 104.977 510.344V508.414C104.977 506.742 105.266 505.5 105.844 504.688C106.422 503.875 107.328 503.469 108.562 503.469C109.786 503.469 110.688 503.862 111.266 504.648C111.844 505.43 112.141 506.638 112.156 508.273V510.148ZM110.711 508.172C110.711 506.948 110.539 506.057 110.195 505.5C109.852 504.938 109.307 504.656 108.562 504.656C107.823 504.656 107.284 504.935 106.945 505.492C106.607 506.049 106.432 506.906 106.422 508.062V510.375C106.422 511.604 106.599 512.513 106.953 513.102C107.312 513.685 107.854 513.977 108.578 513.977C109.292 513.977 109.82 513.701 110.164 513.148C110.513 512.596 110.695 511.727 110.711 510.539V508.172Z" fill="black" fill-opacity="0.87"/>
<path d="M34.8848 487.395H32.1426V495H31.0234V487.395H28.2871V486.469H34.8848V487.395ZM35.1074 491.771C35.1074 491.15 35.2285 490.592 35.4707 490.096C35.7168 489.6 36.0566 489.217 36.4902 488.947C36.9277 488.678 37.4258 488.543 37.9844 488.543C38.8477 488.543 39.5449 488.842 40.0762 489.439C40.6113 490.037 40.8789 490.832 40.8789 491.824V491.9C40.8789 492.518 40.7598 493.072 40.5215 493.564C40.2871 494.053 39.9492 494.434 39.5078 494.707C39.0703 494.98 38.5664 495.117 37.9961 495.117C37.1367 495.117 36.4395 494.818 35.9043 494.221C35.373 493.623 35.1074 492.832 35.1074 491.848V491.771ZM36.1973 491.9C36.1973 492.604 36.3594 493.168 36.6836 493.594C37.0117 494.02 37.4492 494.232 37.9961 494.232C38.5469 494.232 38.9844 494.018 39.3086 493.588C39.6328 493.154 39.7949 492.549 39.7949 491.771C39.7949 491.076 39.6289 490.514 39.2969 490.084C38.9688 489.65 38.5312 489.434 37.9844 489.434C37.4492 489.434 37.0176 489.646 36.6895 490.072C36.3613 490.498 36.1973 491.107 36.1973 491.9ZM42.2031 494.432C42.2031 494.244 42.2578 494.088 42.3672 493.963C42.4805 493.838 42.6484 493.775 42.8711 493.775C43.0938 493.775 43.2617 493.838 43.375 493.963C43.4922 494.088 43.5508 494.244 43.5508 494.432C43.5508 494.611 43.4922 494.762 43.375 494.883C43.2617 495.004 43.0938 495.064 42.8711 495.064C42.6484 495.064 42.4805 495.004 42.3672 494.883C42.2578 494.762 42.2031 494.611 42.2031 494.432ZM42.209 489.258C42.209 489.07 42.2637 488.914 42.373 488.789C42.4863 488.664 42.6543 488.602 42.877 488.602C43.0996 488.602 43.2676 488.664 43.3809 488.789C43.498 488.914 43.5566 489.07 43.5566 489.258C43.5566 489.438 43.498 489.588 43.3809 489.709C43.2676 489.83 43.0996 489.891 42.877 489.891C42.6543 489.891 42.4863 489.83 42.373 489.709C42.2637 489.588 42.209 489.438 42.209 489.258Z" fill="black" fill-opacity="0.54"/>
<path d="M24.6719 370.93C23.3854 370.56 22.4479 370.107 21.8594 369.57C21.276 369.029 20.9844 368.362 20.9844 367.57C20.9844 366.674 21.3411 365.935 22.0547 365.352C22.7734 364.763 23.7057 364.469 24.8516 364.469C25.6328 364.469 26.3281 364.62 26.9375 364.922C27.5521 365.224 28.026 365.641 28.3594 366.172C28.6979 366.703 28.8672 367.284 28.8672 367.914H27.3594C27.3594 367.227 27.1406 366.688 26.7031 366.297C26.2656 365.901 25.6484 365.703 24.8516 365.703C24.112 365.703 23.5339 365.867 23.1172 366.195C22.7057 366.518 22.5 366.969 22.5 367.547C22.5 368.01 22.6953 368.404 23.0859 368.727C23.4818 369.044 24.151 369.336 25.0938 369.602C26.0417 369.867 26.7812 370.161 27.3125 370.484C27.849 370.802 28.2448 371.174 28.5 371.602C28.7604 372.029 28.8906 372.531 28.8906 373.109C28.8906 374.031 28.5312 374.771 27.8125 375.328C27.0938 375.88 26.1328 376.156 24.9297 376.156C24.1484 376.156 23.4193 376.008 22.7422 375.711C22.0651 375.409 21.5417 374.997 21.1719 374.477C20.8073 373.956 20.625 373.365 20.625 372.703H22.1328C22.1328 373.391 22.3854 373.935 22.8906 374.336C23.401 374.732 24.0807 374.93 24.9297 374.93C25.7214 374.93 26.3281 374.768 26.75 374.445C27.1719 374.122 27.3828 373.682 27.3828 373.125C27.3828 372.568 27.1875 372.138 26.7969 371.836C26.4062 371.529 25.6979 371.227 24.6719 370.93ZM34.1016 376.156C32.9557 376.156 32.0234 375.781 31.3047 375.031C30.5859 374.276 30.2266 373.268 30.2266 372.008V371.742C30.2266 370.904 30.3854 370.156 30.7031 369.5C31.026 368.839 31.474 368.323 32.0469 367.953C32.625 367.578 33.25 367.391 33.9219 367.391C35.0208 367.391 35.875 367.753 36.4844 368.477C37.0938 369.201 37.3984 370.237 37.3984 371.586V372.188H31.6719C31.6927 373.021 31.9349 373.695 32.3984 374.211C32.8672 374.721 33.4609 374.977 34.1797 374.977C34.6901 374.977 35.1224 374.872 35.4766 374.664C35.8307 374.456 36.1406 374.18 36.4062 373.836L37.2891 374.523C36.5807 375.612 35.5182 376.156 34.1016 376.156ZM33.9219 368.578C33.3385 368.578 32.849 368.792 32.4531 369.219C32.0573 369.641 31.8125 370.234 31.7188 371H35.9531V370.891C35.9115 370.156 35.7135 369.589 35.3594 369.188C35.0052 368.781 34.526 368.578 33.9219 368.578ZM40.6484 376H39.2031V364H40.6484V376ZM46.4766 376.156C45.3307 376.156 44.3984 375.781 43.6797 375.031C42.9609 374.276 42.6016 373.268 42.6016 372.008V371.742C42.6016 370.904 42.7604 370.156 43.0781 369.5C43.401 368.839 43.849 368.323 44.4219 367.953C45 367.578 45.625 367.391 46.2969 367.391C47.3958 367.391 48.25 367.753 48.8594 368.477C49.4688 369.201 49.7734 370.237 49.7734 371.586V372.188H44.0469C44.0677 373.021 44.3099 373.695 44.7734 374.211C45.2422 374.721 45.8359 374.977 46.5547 374.977C47.0651 374.977 47.4974 374.872 47.8516 374.664C48.2057 374.456 48.5156 374.18 48.7812 373.836L49.6641 374.523C48.9557 375.612 47.8932 376.156 46.4766 376.156ZM46.2969 368.578C45.7135 368.578 45.224 368.792 44.8281 369.219C44.4323 369.641 44.1875 370.234 44.0938 371H48.3281V370.891C48.2865 370.156 48.0885 369.589 47.7344 369.188C47.3802 368.781 46.901 368.578 46.2969 368.578ZM54.8438 374.977C55.3594 374.977 55.8099 374.82 56.1953 374.508C56.5807 374.195 56.7943 373.805 56.8359 373.336H58.2031C58.1771 373.82 58.0104 374.281 57.7031 374.719C57.3958 375.156 56.9844 375.505 56.4688 375.766C55.9583 376.026 55.4167 376.156 54.8438 376.156C53.6927 376.156 52.776 375.773 52.0938 375.008C51.4167 374.237 51.0781 373.185 51.0781 371.852V371.609C51.0781 370.786 51.2292 370.055 51.5312 369.414C51.8333 368.773 52.2656 368.276 52.8281 367.922C53.3958 367.568 54.0651 367.391 54.8359 367.391C55.7839 367.391 56.5703 367.674 57.1953 368.242C57.8255 368.81 58.1615 369.547 58.2031 370.453H56.8359C56.7943 369.906 56.5859 369.458 56.2109 369.109C55.8411 368.755 55.3828 368.578 54.8359 368.578C54.1016 368.578 53.5312 368.844 53.125 369.375C52.724 369.901 52.5234 370.664 52.5234 371.664V371.938C52.5234 372.911 52.724 373.661 53.125 374.188C53.526 374.714 54.099 374.977 54.8438 374.977ZM61.7891 365.5V367.547H63.3672V368.664H61.7891V373.906C61.7891 374.245 61.8594 374.5 62 374.672C62.1406 374.839 62.3802 374.922 62.7188 374.922C62.8854 374.922 63.1146 374.891 63.4062 374.828V376C63.026 376.104 62.6562 376.156 62.2969 376.156C61.651 376.156 61.1641 375.961 60.8359 375.57C60.5078 375.18 60.3438 374.625 60.3438 373.906V368.664H58.8047V367.547H60.3438V365.5H61.7891ZM70.9922 365.5V367.547H72.5703V368.664H70.9922V373.906C70.9922 374.245 71.0625 374.5 71.2031 374.672C71.3438 374.839 71.5833 374.922 71.9219 374.922C72.0885 374.922 72.3177 374.891 72.6094 374.828V376C72.2292 376.104 71.8594 376.156 71.5 376.156C70.8542 376.156 70.3672 375.961 70.0391 375.57C69.7109 375.18 69.5469 374.625 69.5469 373.906V368.664H68.0078V367.547H69.5469V365.5H70.9922ZM75.7109 368.57C76.3516 367.784 77.1849 367.391 78.2109 367.391C79.9974 367.391 80.8984 368.398 80.9141 370.414V376H79.4688V370.406C79.4635 369.797 79.3229 369.346 79.0469 369.055C78.776 368.763 78.3516 368.617 77.7734 368.617C77.3047 368.617 76.8932 368.742 76.5391 368.992C76.1849 369.242 75.9089 369.57 75.7109 369.977V376H74.2656V364H75.7109V368.57ZM86.5859 376.156C85.4401 376.156 84.5078 375.781 83.7891 375.031C83.0703 374.276 82.7109 373.268 82.7109 372.008V371.742C82.7109 370.904 82.8698 370.156 83.1875 369.5C83.5104 368.839 83.9583 368.323 84.5312 367.953C85.1094 367.578 85.7344 367.391 86.4062 367.391C87.5052 367.391 88.3594 367.753 88.9688 368.477C89.5781 369.201 89.8828 370.237 89.8828 371.586V372.188H84.1562C84.1771 373.021 84.4193 373.695 84.8828 374.211C85.3516 374.721 85.9453 374.977 86.6641 374.977C87.1745 374.977 87.6068 374.872 87.9609 374.664C88.3151 374.456 88.625 374.18 88.8906 373.836L89.7734 374.523C89.0651 375.612 88.0026 376.156 86.5859 376.156ZM86.4062 368.578C85.8229 368.578 85.3333 368.792 84.9375 369.219C84.5417 369.641 84.2969 370.234 84.2031 371H88.4375V370.891C88.3958 370.156 88.1979 369.589 87.8438 369.188C87.4896 368.781 87.0104 368.578 86.4062 368.578ZM95.1797 371.703C95.1797 370.406 95.487 369.365 96.1016 368.578C96.7161 367.786 97.5208 367.391 98.5156 367.391C99.5052 367.391 100.289 367.729 100.867 368.406V364H102.312V376H100.984L100.914 375.094C100.336 375.802 99.5312 376.156 98.5 376.156C97.5208 376.156 96.7214 375.755 96.1016 374.953C95.487 374.151 95.1797 373.104 95.1797 371.812V371.703ZM96.625 371.867C96.625 372.826 96.8229 373.576 97.2188 374.117C97.6146 374.659 98.1615 374.93 98.8594 374.93C99.776 374.93 100.445 374.518 100.867 373.695V369.812C100.435 369.016 99.7708 368.617 98.875 368.617C98.1667 368.617 97.6146 368.891 97.2188 369.438C96.8229 369.984 96.625 370.794 96.625 371.867ZM109.781 376C109.698 375.833 109.63 375.536 109.578 375.109C108.906 375.807 108.104 376.156 107.172 376.156C106.339 376.156 105.654 375.922 105.117 375.453C104.586 374.979 104.32 374.38 104.32 373.656C104.32 372.776 104.654 372.094 105.32 371.609C105.992 371.12 106.935 370.875 108.148 370.875H109.555V370.211C109.555 369.706 109.404 369.305 109.102 369.008C108.799 368.706 108.354 368.555 107.766 368.555C107.25 368.555 106.818 368.685 106.469 368.945C106.12 369.206 105.945 369.521 105.945 369.891H104.492C104.492 369.469 104.641 369.062 104.938 368.672C105.24 368.276 105.646 367.964 106.156 367.734C106.672 367.505 107.237 367.391 107.852 367.391C108.826 367.391 109.589 367.635 110.141 368.125C110.693 368.609 110.979 369.279 111 370.133V374.023C111 374.799 111.099 375.417 111.297 375.875V376H109.781ZM107.383 374.898C107.836 374.898 108.266 374.781 108.672 374.547C109.078 374.312 109.372 374.008 109.555 373.633V371.898H108.422C106.651 371.898 105.766 372.417 105.766 373.453C105.766 373.906 105.917 374.26 106.219 374.516C106.521 374.771 106.909 374.898 107.383 374.898ZM115.227 365.5V367.547H116.805V368.664H115.227V373.906C115.227 374.245 115.297 374.5 115.438 374.672C115.578 374.839 115.818 374.922 116.156 374.922C116.323 374.922 116.552 374.891 116.844 374.828V376C116.464 376.104 116.094 376.156 115.734 376.156C115.089 376.156 114.602 375.961 114.273 375.57C113.945 375.18 113.781 374.625 113.781 373.906V368.664H112.242V367.547H113.781V365.5H115.227ZM122.008 376.156C120.862 376.156 119.93 375.781 119.211 375.031C118.492 374.276 118.133 373.268 118.133 372.008V371.742C118.133 370.904 118.292 370.156 118.609 369.5C118.932 368.839 119.38 368.323 119.953 367.953C120.531 367.578 121.156 367.391 121.828 367.391C122.927 367.391 123.781 367.753 124.391 368.477C125 369.201 125.305 370.237 125.305 371.586V372.188H119.578C119.599 373.021 119.841 373.695 120.305 374.211C120.773 374.721 121.367 374.977 122.086 374.977C122.596 374.977 123.029 374.872 123.383 374.664C123.737 374.456 124.047 374.18 124.312 373.836L125.195 374.523C124.487 375.612 123.424 376.156 122.008 376.156ZM121.828 368.578C121.245 368.578 120.755 368.792 120.359 369.219C119.964 369.641 119.719 370.234 119.625 371H123.859V370.891C123.818 370.156 123.62 369.589 123.266 369.188C122.911 368.781 122.432 368.578 121.828 368.578ZM135.039 368.844C134.82 368.807 134.583 368.789 134.328 368.789C133.38 368.789 132.737 369.193 132.398 370V376H130.953V367.547H132.359L132.383 368.523C132.857 367.768 133.529 367.391 134.398 367.391C134.68 367.391 134.893 367.427 135.039 367.5V368.844ZM141.281 376C141.198 375.833 141.13 375.536 141.078 375.109C140.406 375.807 139.604 376.156 138.672 376.156C137.839 376.156 137.154 375.922 136.617 375.453C136.086 374.979 135.82 374.38 135.82 373.656C135.82 372.776 136.154 372.094 136.82 371.609C137.492 371.12 138.435 370.875 139.648 370.875H141.055V370.211C141.055 369.706 140.904 369.305 140.602 369.008C140.299 368.706 139.854 368.555 139.266 368.555C138.75 368.555 138.318 368.685 137.969 368.945C137.62 369.206 137.445 369.521 137.445 369.891H135.992C135.992 369.469 136.141 369.062 136.438 368.672C136.74 368.276 137.146 367.964 137.656 367.734C138.172 367.505 138.737 367.391 139.352 367.391C140.326 367.391 141.089 367.635 141.641 368.125C142.193 368.609 142.479 369.279 142.5 370.133V374.023C142.5 374.799 142.599 375.417 142.797 375.875V376H141.281ZM138.883 374.898C139.336 374.898 139.766 374.781 140.172 374.547C140.578 374.312 140.872 374.008 141.055 373.633V371.898H139.922C138.151 371.898 137.266 372.417 137.266 373.453C137.266 373.906 137.417 374.26 137.719 374.516C138.021 374.771 138.409 374.898 138.883 374.898ZM146.133 367.547L146.18 368.609C146.826 367.797 147.669 367.391 148.711 367.391C150.497 367.391 151.398 368.398 151.414 370.414V376H149.969V370.406C149.964 369.797 149.823 369.346 149.547 369.055C149.276 368.763 148.852 368.617 148.273 368.617C147.805 368.617 147.393 368.742 147.039 368.992C146.685 369.242 146.409 369.57 146.211 369.977V376H144.766V367.547H146.133ZM153.25 371.703C153.25 370.385 153.555 369.339 154.164 368.562C154.773 367.781 155.581 367.391 156.586 367.391C157.617 367.391 158.422 367.755 159 368.484L159.07 367.547H160.391V375.797C160.391 376.891 160.065 377.753 159.414 378.383C158.768 379.013 157.898 379.328 156.805 379.328C156.195 379.328 155.599 379.198 155.016 378.938C154.432 378.677 153.987 378.32 153.68 377.867L154.43 377C155.049 377.766 155.807 378.148 156.703 378.148C157.406 378.148 157.953 377.951 158.344 377.555C158.74 377.159 158.938 376.602 158.938 375.883V375.156C158.359 375.823 157.57 376.156 156.57 376.156C155.581 376.156 154.779 375.758 154.164 374.961C153.555 374.164 153.25 373.078 153.25 371.703ZM154.703 371.867C154.703 372.82 154.898 373.57 155.289 374.117C155.68 374.659 156.227 374.93 156.93 374.93C157.841 374.93 158.51 374.516 158.938 373.688V369.828C158.495 369.021 157.831 368.617 156.945 368.617C156.242 368.617 155.693 368.891 155.297 369.438C154.901 369.984 154.703 370.794 154.703 371.867ZM166.086 376.156C164.94 376.156 164.008 375.781 163.289 375.031C162.57 374.276 162.211 373.268 162.211 372.008V371.742C162.211 370.904 162.37 370.156 162.688 369.5C163.01 368.839 163.458 368.323 164.031 367.953C164.609 367.578 165.234 367.391 165.906 367.391C167.005 367.391 167.859 367.753 168.469 368.477C169.078 369.201 169.383 370.237 169.383 371.586V372.188H163.656C163.677 373.021 163.919 373.695 164.383 374.211C164.852 374.721 165.445 374.977 166.164 374.977C166.674 374.977 167.107 374.872 167.461 374.664C167.815 374.456 168.125 374.18 168.391 373.836L169.273 374.523C168.565 375.612 167.503 376.156 166.086 376.156ZM165.906 368.578C165.323 368.578 164.833 368.792 164.438 369.219C164.042 369.641 163.797 370.234 163.703 371H167.938V370.891C167.896 370.156 167.698 369.589 167.344 369.188C166.99 368.781 166.51 368.578 165.906 368.578Z" fill="black"/>
<line y1="319.5" x2="360" y2="319.5" stroke="black"/>
<line x1="4.37114e-08" y1="174.5" x2="360" y2="174.5" stroke="black"/>
<g filter="url(#filter1_ddi)">
<rect x="282" y="556" width="56" height="56" rx="28" fill="#FF005C"/>
</g>
<path fill-rule="evenodd" clip-rule="evenodd" d="M307 588.2L302.8 584L301.4 585.4L307 591L319 579L317.6 577.6L307 588.2Z" fill="white"/>
</g>
<defs>
<filter id="filter0_dd" x="-4" y="-4" width="368" height="68" filterUnits="userSpaceOnUse" color-interpolation-filters="sRGB">
<feFlood flood-opacity="0" result="BackgroundImageFix"/>
<feColorMatrix in="SourceAlpha" type="matrix" values="0 0 0 0 0 0 0 0 0 0 0 0 0 0 0 0 0 0 127 0"/>
<feOffset dy="4"/>
<feGaussianBlur stdDeviation="2"/>
<feColorMatrix type="matrix" values="0 0 0 0 0 0 0 0 0 0 0 0 0 0 0 0 0 0 0.24 0"/>
<feBlend mode="normal" in2="BackgroundImageFix" result="effect1_dropShadow"/>
<feColorMatrix in="SourceAlpha" type="matrix" values="0 0 0 0 0 0 0 0 0 0 0 0 0 0 0 0 0 0 127 0"/>
<feOffset/>
<feGaussianBlur stdDeviation="2"/>
<feColorMatrix type="matrix" values="0 0 0 0 0 0 0 0 0 0 0 0 0 0 0 0 0 0 0.12 0"/>
<feBlend mode="normal" in2="effect1_dropShadow" result="effect2_dropShadow"/>
<feBlend mode="normal" in="SourceGraphic" in2="effect2_dropShadow" result="shape"/>
</filter>
<filter id="filter1_ddi" x="274" y="548" width="72" height="80" filterUnits="userSpaceOnUse" color-interpolation-filters="sRGB">
<feFlood flood-opacity="0" result="BackgroundImageFix"/>
<feColorMatrix in="SourceAlpha" type="matrix" values="0 0 0 0 0 0 0 0 0 0 0 0 0 0 0 0 0 0 127 0"/>
<feOffset dy="8"/>
<feGaussianBlur stdDeviation="4"/>
<feColorMatrix type="matrix" values="0 0 0 0 0 0 0 0 0 0 0 0 0 0 0 0 0 0 0.24 0"/>
<feBlend mode="normal" in2="BackgroundImageFix" result="effect1_dropShadow"/>
<feColorMatrix in="SourceAlpha" type="matrix" values="0 0 0 0 0 0 0 0 0 0 0 0 0 0 0 0 0 0 127 0"/>
<feOffset/>
<feGaussianBlur stdDeviation="4"/>
<feColorMatrix type="matrix" values="0 0 0 0 0 0 0 0 0 0 0 0 0 0 0 0 0 0 0.12 0"/>
<feBlend mode="normal" in2="effect1_dropShadow" result="effect2_dropShadow"/>
<feBlend mode="normal" in="SourceGraphic" in2="effect2_dropShadow" result="shape"/>
<feColorMatrix in="SourceAlpha" type="matrix" values="0 0 0 0 0 0 0 0 0 0 0 0 0 0 0 0 0 0 127 0" result="hardAlpha"/>
<feOffset dy="1"/>
<feComposite in2="hardAlpha" operator="arithmetic" k2="-1" k3="1"/>
<feColorMatrix type="matrix" values="0 0 0 0 1 0 0 0 0 1 0 0 0 0 1 0 0 0 0.12 0"/>
<feBlend mode="normal" in2="shape" result="effect3_innerShadow"/>
</filter>
<clipPath id="clip0">
<rect width="360" height="640" fill="white"/>
</clipPath>
<clipPath id="clip1">
<rect width="360" height="184" fill="white" transform="translate(0 175)"/>
</clipPath>
</defs>
</svg>
