<svg width="368" height="648" viewBox="0 0 368 648" fill="none" xmlns="http://www.w3.org/2000/svg">
<g clip-path="url(#clip0)" filter="url(#filter0_d)">
<rect width="360" height="640" transform="translate(4)" fill="white"/>
<g clip-path="url(#clip1)">
<path d="M38 164.5H330C331.933 164.5 333.5 166.067 333.5 168V219.5H34.5V168C34.5 166.067 36.067 164.5 38 164.5Z" fill="#333333" fill-opacity="0.06" stroke="white"/>
<mask id="path-2-inside-1" fill="white">
<path d="M34 218.911H334V219.911H34V218.911Z"/>
</mask>
<path d="M34 218.911H334V219.911H34V218.911Z" fill="black" fill-opacity="0.38"/>
<path d="M34 218.911V217.911H33V218.911H34ZM334 218.911H335V217.911H334V218.911ZM334 219.911V220.911H335V219.911H334ZM34 219.911H33V220.911H34V219.911ZM34 219.911H334V217.911H34V219.911ZM333 218.911V219.911H335V218.911H333ZM334 218.911H34V220.911H334V218.911ZM35 219.911V218.911H33V219.911H35Z" fill="white" mask="url(#path-2-inside-1)"/>
<path d="M53.5469 235H52.416V231.057H48.1152V235H46.9902V226.469H48.1152V230.137H52.416V226.469H53.5469V235ZM58.0059 235.117C57.1465 235.117 56.4473 234.836 55.9082 234.273C55.3691 233.707 55.0996 232.951 55.0996 232.006V231.807C55.0996 231.178 55.2188 230.617 55.457 230.125C55.6992 229.629 56.0352 229.242 56.4648 228.965C56.8984 228.684 57.3672 228.543 57.8711 228.543C58.6953 228.543 59.3359 228.814 59.793 229.357C60.25 229.9 60.4785 230.678 60.4785 231.689V232.141H56.1836C56.1992 232.766 56.3809 233.271 56.7285 233.658C57.0801 234.041 57.5254 234.232 58.0645 234.232C58.4473 234.232 58.7715 234.154 59.0371 233.998C59.3027 233.842 59.5352 233.635 59.7344 233.377L60.3965 233.893C59.8652 234.709 59.0684 235.117 58.0059 235.117ZM57.8711 229.434C57.4336 229.434 57.0664 229.594 56.7695 229.914C56.4727 230.23 56.2891 230.676 56.2188 231.25H59.3945V231.168C59.3633 230.617 59.2148 230.191 58.9492 229.891C58.6836 229.586 58.3242 229.434 57.8711 229.434ZM62.916 235H61.832V226H62.916V235ZM70.0117 231.9C70.0117 232.865 69.791 233.643 69.3496 234.232C68.9082 234.822 68.3105 235.117 67.5566 235.117C66.7871 235.117 66.1816 234.873 65.7402 234.385V237.438H64.6562V228.66H65.6465L65.6992 229.363C66.1406 228.816 66.7539 228.543 67.5391 228.543C68.3008 228.543 68.9023 228.83 69.3438 229.404C69.7891 229.979 70.0117 230.777 70.0117 231.801V231.9ZM68.9277 231.777C68.9277 231.062 68.7754 230.498 68.4707 230.084C68.166 229.67 67.748 229.463 67.2168 229.463C66.5605 229.463 66.0684 229.754 65.7402 230.336V233.365C66.0645 233.943 66.5605 234.232 67.2285 234.232C67.748 234.232 68.1602 234.027 68.4648 233.617C68.7734 233.203 68.9277 232.59 68.9277 231.777ZM74.0254 235.117C73.166 235.117 72.4668 234.836 71.9277 234.273C71.3887 233.707 71.1191 232.951 71.1191 232.006V231.807C71.1191 231.178 71.2383 230.617 71.4766 230.125C71.7188 229.629 72.0547 229.242 72.4844 228.965C72.918 228.684 73.3867 228.543 73.8906 228.543C74.7148 228.543 75.3555 228.814 75.8125 229.357C76.2695 229.9 76.498 230.678 76.498 231.689V232.141H72.2031C72.2188 232.766 72.4004 233.271 72.748 233.658C73.0996 234.041 73.5449 234.232 74.084 234.232C74.4668 234.232 74.791 234.154 75.0566 233.998C75.3223 233.842 75.5547 233.635 75.7539 233.377L76.416 233.893C75.8848 234.709 75.0879 235.117 74.0254 235.117ZM73.8906 229.434C73.4531 229.434 73.0859 229.594 72.7891 229.914C72.4922 230.23 72.3086 230.676 72.2383 231.25H75.4141V231.168C75.3828 230.617 75.2344 230.191 74.9688 229.891C74.7031 229.586 74.3438 229.434 73.8906 229.434ZM80.8223 229.633C80.6582 229.605 80.4805 229.592 80.2891 229.592C79.5781 229.592 79.0957 229.895 78.8418 230.5V235H77.7578V228.66H78.8125L78.8301 229.393C79.1855 228.826 79.6895 228.543 80.3418 228.543C80.5527 228.543 80.7129 228.57 80.8223 228.625V229.633ZM86.2715 227.125V228.66H87.4551V229.498H86.2715V233.43C86.2715 233.684 86.3242 233.875 86.4297 234.004C86.5352 234.129 86.7148 234.191 86.9688 234.191C87.0938 234.191 87.2656 234.168 87.4844 234.121V235C87.1992 235.078 86.9219 235.117 86.6523 235.117C86.168 235.117 85.8027 234.971 85.5566 234.678C85.3105 234.385 85.1875 233.969 85.1875 233.43V229.498H84.0332V228.66H85.1875V227.125H86.2715ZM91.3574 235.117C90.498 235.117 89.7988 234.836 89.2598 234.273C88.7207 233.707 88.4512 232.951 88.4512 232.006V231.807C88.4512 231.178 88.5703 230.617 88.8086 230.125C89.0508 229.629 89.3867 229.242 89.8164 228.965C90.25 228.684 90.7188 228.543 91.2227 228.543C92.0469 228.543 92.6875 228.814 93.1445 229.357C93.6016 229.9 93.8301 230.678 93.8301 231.689V232.141H89.5352C89.5508 232.766 89.7324 233.271 90.0801 233.658C90.4316 234.041 90.877 234.232 91.416 234.232C91.7988 234.232 92.123 234.154 92.3887 233.998C92.6543 233.842 92.8867 233.635 93.0859 233.377L93.748 233.893C93.2168 234.709 92.4199 235.117 91.3574 235.117ZM91.2227 229.434C90.7852 229.434 90.418 229.594 90.1211 229.914C89.8242 230.23 89.6406 230.676 89.5703 231.25H92.7461V231.168C92.7148 230.617 92.5664 230.191 92.3008 229.891C92.0352 229.586 91.6758 229.434 91.2227 229.434ZM97.2168 230.975L98.623 228.66H99.8887L97.8145 231.795L99.9531 235H98.6992L97.2344 232.627L95.7695 235H94.5098L96.6484 231.795L94.5742 228.66H95.8281L97.2168 230.975ZM102.514 227.125V228.66H103.697V229.498H102.514V233.43C102.514 233.684 102.566 233.875 102.672 234.004C102.777 234.129 102.957 234.191 103.211 234.191C103.336 234.191 103.508 234.168 103.727 234.121V235C103.441 235.078 103.164 235.117 102.895 235.117C102.41 235.117 102.045 234.971 101.799 234.678C101.553 234.385 101.43 233.969 101.43 233.43V229.498H100.275V228.66H101.43V227.125H102.514Z" fill="black" fill-opacity="0.54"/>
<path d="M48.9297 204H47.4297V192.625H48.9297V204ZM52.8203 195.547L52.8672 196.609C53.513 195.797 54.3568 195.391 55.3984 195.391C57.1849 195.391 58.0859 196.398 58.1016 198.414V204H56.6562V198.406C56.651 197.797 56.5104 197.346 56.2344 197.055C55.9635 196.763 55.5391 196.617 54.9609 196.617C54.4922 196.617 54.0807 196.742 53.7266 196.992C53.3724 197.242 53.0964 197.57 52.8984 197.977V204H51.4531V195.547H52.8203ZM67.4219 199.867C67.4219 201.154 67.1276 202.19 66.5391 202.977C65.9505 203.763 65.1536 204.156 64.1484 204.156C63.1224 204.156 62.3151 203.831 61.7266 203.18V207.25H60.2812V195.547H61.6016L61.6719 196.484C62.2604 195.755 63.0781 195.391 64.125 195.391C65.1406 195.391 65.9427 195.773 66.5312 196.539C67.125 197.305 67.4219 198.37 67.4219 199.734V199.867ZM65.9766 199.703C65.9766 198.75 65.7734 197.997 65.3672 197.445C64.9609 196.893 64.4036 196.617 63.6953 196.617C62.8203 196.617 62.1641 197.005 61.7266 197.781V201.82C62.1589 202.591 62.8203 202.977 63.7109 202.977C64.4036 202.977 64.9531 202.703 65.3594 202.156C65.7708 201.604 65.9766 200.786 65.9766 199.703ZM74.4844 203.164C73.9219 203.826 73.0964 204.156 72.0078 204.156C71.1068 204.156 70.4193 203.896 69.9453 203.375C69.4766 202.849 69.2396 202.073 69.2344 201.047V195.547H70.6797V201.008C70.6797 202.289 71.2005 202.93 72.2422 202.93C73.3464 202.93 74.0807 202.518 74.4453 201.695V195.547H75.8906V204H74.5156L74.4844 203.164ZM80.0547 193.5V195.547H81.6328V196.664H80.0547V201.906C80.0547 202.245 80.125 202.5 80.2656 202.672C80.4062 202.839 80.6458 202.922 80.9844 202.922C81.151 202.922 81.3802 202.891 81.6719 202.828V204C81.2917 204.104 80.9219 204.156 80.5625 204.156C79.9167 204.156 79.4297 203.961 79.1016 203.57C78.7734 203.18 78.6094 202.625 78.6094 201.906V196.664H77.0703V195.547H78.6094V193.5H80.0547ZM89.2578 193.5V195.547H90.8359V196.664H89.2578V201.906C89.2578 202.245 89.3281 202.5 89.4688 202.672C89.6094 202.839 89.849 202.922 90.1875 202.922C90.3542 202.922 90.5833 202.891 90.875 202.828V204C90.4948 204.104 90.125 204.156 89.7656 204.156C89.1198 204.156 88.6328 203.961 88.3047 203.57C87.9766 203.18 87.8125 202.625 87.8125 201.906V196.664H86.2734V195.547H87.8125V193.5H89.2578ZM96.0391 204.156C94.8932 204.156 93.9609 203.781 93.2422 203.031C92.5234 202.276 92.1641 201.268 92.1641 200.008V199.742C92.1641 198.904 92.3229 198.156 92.6406 197.5C92.9635 196.839 93.4115 196.323 93.9844 195.953C94.5625 195.578 95.1875 195.391 95.8594 195.391C96.9583 195.391 97.8125 195.753 98.4219 196.477C99.0312 197.201 99.3359 198.237 99.3359 199.586V200.188H93.6094C93.6302 201.021 93.8724 201.695 94.3359 202.211C94.8047 202.721 95.3984 202.977 96.1172 202.977C96.6276 202.977 97.0599 202.872 97.4141 202.664C97.7682 202.456 98.0781 202.18 98.3438 201.836L99.2266 202.523C98.5182 203.612 97.4557 204.156 96.0391 204.156ZM95.8594 196.578C95.276 196.578 94.7865 196.792 94.3906 197.219C93.9948 197.641 93.75 198.234 93.6562 199H97.8906V198.891C97.849 198.156 97.651 197.589 97.2969 197.188C96.9427 196.781 96.4635 196.578 95.8594 196.578ZM103.852 198.633L105.727 195.547H107.414L104.648 199.727L107.5 204H105.828L103.875 200.836L101.922 204H100.242L103.094 199.727L100.328 195.547H102L103.852 198.633ZM110.914 193.5V195.547H112.492V196.664H110.914V201.906C110.914 202.245 110.984 202.5 111.125 202.672C111.266 202.839 111.505 202.922 111.844 202.922C112.01 202.922 112.24 202.891 112.531 202.828V204C112.151 204.104 111.781 204.156 111.422 204.156C110.776 204.156 110.289 203.961 109.961 203.57C109.633 203.18 109.469 202.625 109.469 201.906V196.664H107.93V195.547H109.469V193.5H110.914Z" fill="black" fill-opacity="0.87"/>
<path d="M51.8125 180.057H48.1152V183.08H52.4102V184H46.9902V175.469H52.3516V176.395H48.1152V179.137H51.8125V180.057ZM54.6602 177.66L54.6895 178.363C55.1543 177.816 55.7812 177.543 56.5703 177.543C57.457 177.543 58.0605 177.883 58.3809 178.562C58.5918 178.258 58.8652 178.012 59.2012 177.824C59.541 177.637 59.9414 177.543 60.4023 177.543C61.793 177.543 62.5 178.279 62.5234 179.752V184H61.4395V179.816C61.4395 179.363 61.3359 179.025 61.1289 178.803C60.9219 178.576 60.5742 178.463 60.0859 178.463C59.6836 178.463 59.3496 178.584 59.084 178.826C58.8184 179.064 58.6641 179.387 58.6211 179.793V184H57.5312V179.846C57.5312 178.924 57.0801 178.463 56.1777 178.463C55.4668 178.463 54.9805 178.766 54.7188 179.371V184H53.6348V177.66H54.6602ZM68.0781 184C68.0156 183.875 67.9648 183.652 67.9258 183.332C67.4219 183.855 66.8203 184.117 66.1211 184.117C65.4961 184.117 64.9824 183.941 64.5801 183.59C64.1816 183.234 63.9824 182.785 63.9824 182.242C63.9824 181.582 64.2324 181.07 64.7324 180.707C65.2363 180.34 65.9434 180.156 66.8535 180.156H67.9082V179.658C67.9082 179.279 67.7949 178.979 67.5684 178.756C67.3418 178.529 67.0078 178.416 66.5664 178.416C66.1797 178.416 65.8555 178.514 65.5938 178.709C65.332 178.904 65.2012 179.141 65.2012 179.418H64.1113C64.1113 179.102 64.2227 178.797 64.4453 178.504C64.6719 178.207 64.9766 177.973 65.3594 177.801C65.7461 177.629 66.1699 177.543 66.6309 177.543C67.3613 177.543 67.9336 177.727 68.3477 178.094C68.7617 178.457 68.9766 178.959 68.9922 179.6V182.518C68.9922 183.1 69.0664 183.562 69.2148 183.906V184H68.0781ZM66.2793 183.174C66.6191 183.174 66.9414 183.086 67.2461 182.91C67.5508 182.734 67.7715 182.506 67.9082 182.225V180.924H67.0586C65.7305 180.924 65.0664 181.312 65.0664 182.09C65.0664 182.43 65.1797 182.695 65.4062 182.887C65.6328 183.078 65.9238 183.174 66.2793 183.174ZM71.8691 184H70.7852V177.66H71.8691V184ZM70.6973 175.979C70.6973 175.803 70.75 175.654 70.8555 175.533C70.9648 175.412 71.125 175.352 71.3359 175.352C71.5469 175.352 71.707 175.412 71.8164 175.533C71.9258 175.654 71.9805 175.803 71.9805 175.979C71.9805 176.154 71.9258 176.301 71.8164 176.418C71.707 176.535 71.5469 176.594 71.3359 176.594C71.125 176.594 70.9648 176.535 70.8555 176.418C70.75 176.301 70.6973 176.154 70.6973 175.979ZM74.7871 184H73.7031V175H74.7871V184Z" fill="black" fill-opacity="0.54"/>
<path d="M38 258.5H330C331.933 258.5 333.5 260.067 333.5 262V313.5H34.5V262C34.5 260.067 36.067 258.5 38 258.5Z" fill="#333333" fill-opacity="0.06" stroke="white"/>
<mask id="path-8-inside-2" fill="white">
<path d="M34 312.911H334V313.911H34V312.911Z"/>
</mask>
<path d="M34 312.911H334V313.911H34V312.911Z" fill="black" fill-opacity="0.38"/>
<path d="M34 312.911V311.911H33V312.911H34ZM334 312.911H335V311.911H334V312.911ZM334 313.911V314.911H335V313.911H334ZM34 313.911H33V314.911H34V313.911ZM34 313.911H334V311.911H34V313.911ZM333 312.911V313.911H335V312.911H333ZM334 312.911H34V314.911H334V312.911ZM35 313.911V312.911H33V313.911H35Z" fill="white" mask="url(#path-8-inside-2)"/>
<path d="M53.5469 329H52.416V325.057H48.1152V329H46.9902V320.469H48.1152V324.137H52.416V320.469H53.5469V329ZM58.0059 329.117C57.1465 329.117 56.4473 328.836 55.9082 328.273C55.3691 327.707 55.0996 326.951 55.0996 326.006V325.807C55.0996 325.178 55.2188 324.617 55.457 324.125C55.6992 323.629 56.0352 323.242 56.4648 322.965C56.8984 322.684 57.3672 322.543 57.8711 322.543C58.6953 322.543 59.3359 322.814 59.793 323.357C60.25 323.9 60.4785 324.678 60.4785 325.689V326.141H56.1836C56.1992 326.766 56.3809 327.271 56.7285 327.658C57.0801 328.041 57.5254 328.232 58.0645 328.232C58.4473 328.232 58.7715 328.154 59.0371 327.998C59.3027 327.842 59.5352 327.635 59.7344 327.377L60.3965 327.893C59.8652 328.709 59.0684 329.117 58.0059 329.117ZM57.8711 323.434C57.4336 323.434 57.0664 323.594 56.7695 323.914C56.4727 324.23 56.2891 324.676 56.2188 325.25H59.3945V325.168C59.3633 324.617 59.2148 324.191 58.9492 323.891C58.6836 323.586 58.3242 323.434 57.8711 323.434ZM62.916 329H61.832V320H62.916V329ZM70.0117 325.9C70.0117 326.865 69.791 327.643 69.3496 328.232C68.9082 328.822 68.3105 329.117 67.5566 329.117C66.7871 329.117 66.1816 328.873 65.7402 328.385V331.438H64.6562V322.66H65.6465L65.6992 323.363C66.1406 322.816 66.7539 322.543 67.5391 322.543C68.3008 322.543 68.9023 322.83 69.3438 323.404C69.7891 323.979 70.0117 324.777 70.0117 325.801V325.9ZM68.9277 325.777C68.9277 325.062 68.7754 324.498 68.4707 324.084C68.166 323.67 67.748 323.463 67.2168 323.463C66.5605 323.463 66.0684 323.754 65.7402 324.336V327.365C66.0645 327.943 66.5605 328.232 67.2285 328.232C67.748 328.232 68.1602 328.027 68.4648 327.617C68.7734 327.203 68.9277 326.59 68.9277 325.777ZM74.0254 329.117C73.166 329.117 72.4668 328.836 71.9277 328.273C71.3887 327.707 71.1191 326.951 71.1191 326.006V325.807C71.1191 325.178 71.2383 324.617 71.4766 324.125C71.7188 323.629 72.0547 323.242 72.4844 322.965C72.918 322.684 73.3867 322.543 73.8906 322.543C74.7148 322.543 75.3555 322.814 75.8125 323.357C76.2695 323.9 76.498 324.678 76.498 325.689V326.141H72.2031C72.2188 326.766 72.4004 327.271 72.748 327.658C73.0996 328.041 73.5449 328.232 74.084 328.232C74.4668 328.232 74.791 328.154 75.0566 327.998C75.3223 327.842 75.5547 327.635 75.7539 327.377L76.416 327.893C75.8848 328.709 75.0879 329.117 74.0254 329.117ZM73.8906 323.434C73.4531 323.434 73.0859 323.594 72.7891 323.914C72.4922 324.23 72.3086 324.676 72.2383 325.25H75.4141V325.168C75.3828 324.617 75.2344 324.191 74.9688 323.891C74.7031 323.586 74.3438 323.434 73.8906 323.434ZM80.8223 323.633C80.6582 323.605 80.4805 323.592 80.2891 323.592C79.5781 323.592 79.0957 323.895 78.8418 324.5V329H77.7578V322.66H78.8125L78.8301 323.393C79.1855 322.826 79.6895 322.543 80.3418 322.543C80.5527 322.543 80.7129 322.57 80.8223 322.625V323.633ZM86.2715 321.125V322.66H87.4551V323.498H86.2715V327.43C86.2715 327.684 86.3242 327.875 86.4297 328.004C86.5352 328.129 86.7148 328.191 86.9688 328.191C87.0938 328.191 87.2656 328.168 87.4844 328.121V329C87.1992 329.078 86.9219 329.117 86.6523 329.117C86.168 329.117 85.8027 328.971 85.5566 328.678C85.3105 328.385 85.1875 327.969 85.1875 327.43V323.498H84.0332V322.66H85.1875V321.125H86.2715ZM91.3574 329.117C90.498 329.117 89.7988 328.836 89.2598 328.273C88.7207 327.707 88.4512 326.951 88.4512 326.006V325.807C88.4512 325.178 88.5703 324.617 88.8086 324.125C89.0508 323.629 89.3867 323.242 89.8164 322.965C90.25 322.684 90.7188 322.543 91.2227 322.543C92.0469 322.543 92.6875 322.814 93.1445 323.357C93.6016 323.9 93.8301 324.678 93.8301 325.689V326.141H89.5352C89.5508 326.766 89.7324 327.271 90.0801 327.658C90.4316 328.041 90.877 328.232 91.416 328.232C91.7988 328.232 92.123 328.154 92.3887 327.998C92.6543 327.842 92.8867 327.635 93.0859 327.377L93.748 327.893C93.2168 328.709 92.4199 329.117 91.3574 329.117ZM91.2227 323.434C90.7852 323.434 90.418 323.594 90.1211 323.914C89.8242 324.23 89.6406 324.676 89.5703 325.25H92.7461V325.168C92.7148 324.617 92.5664 324.191 92.3008 323.891C92.0352 323.586 91.6758 323.434 91.2227 323.434ZM97.2168 324.975L98.623 322.66H99.8887L97.8145 325.795L99.9531 329H98.6992L97.2344 326.627L95.7695 329H94.5098L96.6484 325.795L94.5742 322.66H95.8281L97.2168 324.975ZM102.514 321.125V322.66H103.697V323.498H102.514V327.43C102.514 327.684 102.566 327.875 102.672 328.004C102.777 328.129 102.957 328.191 103.211 328.191C103.336 328.191 103.508 328.168 103.727 328.121V329C103.441 329.078 103.164 329.117 102.895 329.117C102.41 329.117 102.045 328.971 101.799 328.678C101.553 328.385 101.43 327.969 101.43 327.43V323.498H100.275V322.66H101.43V321.125H102.514Z" fill="black" fill-opacity="0.54"/>
<path d="M48.9297 298H47.4297V286.625H48.9297V298ZM52.8203 289.547L52.8672 290.609C53.513 289.797 54.3568 289.391 55.3984 289.391C57.1849 289.391 58.0859 290.398 58.1016 292.414V298H56.6562V292.406C56.651 291.797 56.5104 291.346 56.2344 291.055C55.9635 290.763 55.5391 290.617 54.9609 290.617C54.4922 290.617 54.0807 290.742 53.7266 290.992C53.3724 291.242 53.0964 291.57 52.8984 291.977V298H51.4531V289.547H52.8203ZM67.4219 293.867C67.4219 295.154 67.1276 296.19 66.5391 296.977C65.9505 297.763 65.1536 298.156 64.1484 298.156C63.1224 298.156 62.3151 297.831 61.7266 297.18V301.25H60.2812V289.547H61.6016L61.6719 290.484C62.2604 289.755 63.0781 289.391 64.125 289.391C65.1406 289.391 65.9427 289.773 66.5312 290.539C67.125 291.305 67.4219 292.37 67.4219 293.734V293.867ZM65.9766 293.703C65.9766 292.75 65.7734 291.997 65.3672 291.445C64.9609 290.893 64.4036 290.617 63.6953 290.617C62.8203 290.617 62.1641 291.005 61.7266 291.781V295.82C62.1589 296.591 62.8203 296.977 63.7109 296.977C64.4036 296.977 64.9531 296.703 65.3594 296.156C65.7708 295.604 65.9766 294.786 65.9766 293.703ZM74.4844 297.164C73.9219 297.826 73.0964 298.156 72.0078 298.156C71.1068 298.156 70.4193 297.896 69.9453 297.375C69.4766 296.849 69.2396 296.073 69.2344 295.047V289.547H70.6797V295.008C70.6797 296.289 71.2005 296.93 72.2422 296.93C73.3464 296.93 74.0807 296.518 74.4453 295.695V289.547H75.8906V298H74.5156L74.4844 297.164ZM80.0547 287.5V289.547H81.6328V290.664H80.0547V295.906C80.0547 296.245 80.125 296.5 80.2656 296.672C80.4062 296.839 80.6458 296.922 80.9844 296.922C81.151 296.922 81.3802 296.891 81.6719 296.828V298C81.2917 298.104 80.9219 298.156 80.5625 298.156C79.9167 298.156 79.4297 297.961 79.1016 297.57C78.7734 297.18 78.6094 296.625 78.6094 295.906V290.664H77.0703V289.547H78.6094V287.5H80.0547ZM89.2578 287.5V289.547H90.8359V290.664H89.2578V295.906C89.2578 296.245 89.3281 296.5 89.4688 296.672C89.6094 296.839 89.849 296.922 90.1875 296.922C90.3542 296.922 90.5833 296.891 90.875 296.828V298C90.4948 298.104 90.125 298.156 89.7656 298.156C89.1198 298.156 88.6328 297.961 88.3047 297.57C87.9766 297.18 87.8125 296.625 87.8125 295.906V290.664H86.2734V289.547H87.8125V287.5H89.2578ZM96.0391 298.156C94.8932 298.156 93.9609 297.781 93.2422 297.031C92.5234 296.276 92.1641 295.268 92.1641 294.008V293.742C92.1641 292.904 92.3229 292.156 92.6406 291.5C92.9635 290.839 93.4115 290.323 93.9844 289.953C94.5625 289.578 95.1875 289.391 95.8594 289.391C96.9583 289.391 97.8125 289.753 98.4219 290.477C99.0312 291.201 99.3359 292.237 99.3359 293.586V294.188H93.6094C93.6302 295.021 93.8724 295.695 94.3359 296.211C94.8047 296.721 95.3984 296.977 96.1172 296.977C96.6276 296.977 97.0599 296.872 97.4141 296.664C97.7682 296.456 98.0781 296.18 98.3438 295.836L99.2266 296.523C98.5182 297.612 97.4557 298.156 96.0391 298.156ZM95.8594 290.578C95.276 290.578 94.7865 290.792 94.3906 291.219C93.9948 291.641 93.75 292.234 93.6562 293H97.8906V292.891C97.849 292.156 97.651 291.589 97.2969 291.188C96.9427 290.781 96.4635 290.578 95.8594 290.578ZM103.852 292.633L105.727 289.547H107.414L104.648 293.727L107.5 298H105.828L103.875 294.836L101.922 298H100.242L103.094 293.727L100.328 289.547H102L103.852 292.633ZM110.914 287.5V289.547H112.492V290.664H110.914V295.906C110.914 296.245 110.984 296.5 111.125 296.672C111.266 296.839 111.505 296.922 111.844 296.922C112.01 296.922 112.24 296.891 112.531 296.828V298C112.151 298.104 111.781 298.156 111.422 298.156C110.776 298.156 110.289 297.961 109.961 297.57C109.633 297.18 109.469 296.625 109.469 295.906V290.664H107.93V289.547H109.469V287.5H110.914Z" fill="black" fill-opacity="0.87"/>
<path d="M48.1152 274.66V278H46.9902V269.469H50.1367C51.0703 269.469 51.8008 269.707 52.3281 270.184C52.8594 270.66 53.125 271.291 53.125 272.076C53.125 272.904 52.8652 273.543 52.3457 273.992C51.8301 274.438 51.0898 274.66 50.125 274.66H48.1152ZM48.1152 273.74H50.1367C50.7383 273.74 51.1992 273.6 51.5195 273.318C51.8398 273.033 52 272.623 52 272.088C52 271.58 51.8398 271.174 51.5195 270.869C51.1992 270.564 50.7598 270.406 50.2012 270.395H48.1152V273.74ZM58.2344 278C58.1719 277.875 58.1211 277.652 58.082 277.332C57.5781 277.855 56.9766 278.117 56.2773 278.117C55.6523 278.117 55.1387 277.941 54.7363 277.59C54.3379 277.234 54.1387 276.785 54.1387 276.242C54.1387 275.582 54.3887 275.07 54.8887 274.707C55.3926 274.34 56.0996 274.156 57.0098 274.156H58.0645V273.658C58.0645 273.279 57.9512 272.979 57.7246 272.756C57.498 272.529 57.1641 272.416 56.7227 272.416C56.3359 272.416 56.0117 272.514 55.75 272.709C55.4883 272.904 55.3574 273.141 55.3574 273.418H54.2676C54.2676 273.102 54.3789 272.797 54.6016 272.504C54.8281 272.207 55.1328 271.973 55.5156 271.801C55.9023 271.629 56.3262 271.543 56.7871 271.543C57.5176 271.543 58.0898 271.727 58.5039 272.094C58.918 272.457 59.1328 272.959 59.1484 273.6V276.518C59.1484 277.1 59.2227 277.562 59.3711 277.906V278H58.2344ZM56.4355 277.174C56.7754 277.174 57.0977 277.086 57.4023 276.91C57.707 276.734 57.9277 276.506 58.0645 276.225V274.924H57.2148C55.8867 274.924 55.2227 275.312 55.2227 276.09C55.2227 276.43 55.3359 276.695 55.5625 276.887C55.7891 277.078 56.0801 277.174 56.4355 277.174ZM64.5391 276.318C64.5391 276.025 64.4277 275.799 64.2051 275.639C63.9863 275.475 63.6016 275.334 63.0508 275.217C62.5039 275.1 62.0684 274.959 61.7441 274.795C61.4238 274.631 61.1855 274.436 61.0293 274.209C60.877 273.982 60.8008 273.713 60.8008 273.4C60.8008 272.881 61.0195 272.441 61.457 272.082C61.8984 271.723 62.4609 271.543 63.1445 271.543C63.8633 271.543 64.4453 271.729 64.8906 272.1C65.3398 272.471 65.5645 272.945 65.5645 273.523H64.4746C64.4746 273.227 64.3477 272.971 64.0938 272.756C63.8438 272.541 63.5273 272.434 63.1445 272.434C62.75 272.434 62.4414 272.52 62.2188 272.691C61.9961 272.863 61.8848 273.088 61.8848 273.365C61.8848 273.627 61.9883 273.824 62.1953 273.957C62.4023 274.09 62.7754 274.217 63.3145 274.338C63.8574 274.459 64.2969 274.604 64.6328 274.771C64.9688 274.939 65.2168 275.143 65.377 275.381C65.541 275.615 65.623 275.902 65.623 276.242C65.623 276.809 65.3965 277.264 64.9434 277.607C64.4902 277.947 63.9023 278.117 63.1797 278.117C62.6719 278.117 62.2227 278.027 61.832 277.848C61.4414 277.668 61.1348 277.418 60.9121 277.098C60.6934 276.773 60.584 276.424 60.584 276.049H61.668C61.6875 276.412 61.832 276.701 62.1016 276.916C62.375 277.127 62.7344 277.232 63.1797 277.232C63.5898 277.232 63.918 277.15 64.1641 276.986C64.4141 276.818 64.5391 276.596 64.5391 276.318ZM70.7266 276.318C70.7266 276.025 70.6152 275.799 70.3926 275.639C70.1738 275.475 69.7891 275.334 69.2383 275.217C68.6914 275.1 68.2559 274.959 67.9316 274.795C67.6113 274.631 67.373 274.436 67.2168 274.209C67.0645 273.982 66.9883 273.713 66.9883 273.4C66.9883 272.881 67.207 272.441 67.6445 272.082C68.0859 271.723 68.6484 271.543 69.332 271.543C70.0508 271.543 70.6328 271.729 71.0781 272.1C71.5273 272.471 71.752 272.945 71.752 273.523H70.6621C70.6621 273.227 70.5352 272.971 70.2812 272.756C70.0312 272.541 69.7148 272.434 69.332 272.434C68.9375 272.434 68.6289 272.52 68.4062 272.691C68.1836 272.863 68.0723 273.088 68.0723 273.365C68.0723 273.627 68.1758 273.824 68.3828 273.957C68.5898 274.09 68.9629 274.217 69.502 274.338C70.0449 274.459 70.4844 274.604 70.8203 274.771C71.1562 274.939 71.4043 275.143 71.5645 275.381C71.7285 275.615 71.8105 275.902 71.8105 276.242C71.8105 276.809 71.584 277.264 71.1309 277.607C70.6777 277.947 70.0898 278.117 69.3672 278.117C68.8594 278.117 68.4102 278.027 68.0195 277.848C67.6289 277.668 67.3223 277.418 67.0996 277.098C66.8809 276.773 66.7715 276.424 66.7715 276.049H67.8555C67.875 276.412 68.0195 276.701 68.2891 276.916C68.5625 277.127 68.9219 277.232 69.3672 277.232C69.7773 277.232 70.1055 277.15 70.3516 276.986C70.6016 276.818 70.7266 276.596 70.7266 276.318ZM78.8359 276.506L80.0547 271.66H81.1387L79.293 278H78.4141L76.873 273.195L75.373 278H74.4941L72.6543 271.66H73.7324L74.9805 276.406L76.457 271.66H77.3301L78.8359 276.506ZM81.959 274.771C81.959 274.15 82.0801 273.592 82.3223 273.096C82.5684 272.6 82.9082 272.217 83.3418 271.947C83.7793 271.678 84.2773 271.543 84.8359 271.543C85.6992 271.543 86.3965 271.842 86.9277 272.439C87.4629 273.037 87.7305 273.832 87.7305 274.824V274.9C87.7305 275.518 87.6113 276.072 87.373 276.564C87.1387 277.053 86.8008 277.434 86.3594 277.707C85.9219 277.98 85.418 278.117 84.8477 278.117C83.9883 278.117 83.291 277.818 82.7559 277.221C82.2246 276.623 81.959 275.832 81.959 274.848V274.771ZM83.0488 274.9C83.0488 275.604 83.2109 276.168 83.5352 276.594C83.8633 277.02 84.3008 277.232 84.8477 277.232C85.3984 277.232 85.8359 277.018 86.1602 276.588C86.4844 276.154 86.6465 275.549 86.6465 274.771C86.6465 274.076 86.4805 273.514 86.1484 273.084C85.8203 272.65 85.3828 272.434 84.8359 272.434C84.3008 272.434 83.8691 272.646 83.541 273.072C83.2129 273.498 83.0488 274.107 83.0488 274.9ZM92.1543 272.633C91.9902 272.605 91.8125 272.592 91.6211 272.592C90.9102 272.592 90.4277 272.895 90.1738 273.5V278H89.0898V271.66H90.1445L90.1621 272.393C90.5176 271.826 91.0215 271.543 91.6738 271.543C91.8848 271.543 92.0449 271.57 92.1543 271.625V272.633ZM92.7754 274.777C92.7754 273.805 93.0059 273.023 93.4668 272.434C93.9277 271.84 94.5312 271.543 95.2773 271.543C96.0195 271.543 96.6074 271.797 97.041 272.305V269H98.125V278H97.1289L97.0762 277.32C96.6426 277.852 96.0391 278.117 95.2656 278.117C94.5312 278.117 93.9316 277.816 93.4668 277.215C93.0059 276.613 92.7754 275.828 92.7754 274.859V274.777ZM93.8594 274.9C93.8594 275.619 94.0078 276.182 94.3047 276.588C94.6016 276.994 95.0117 277.197 95.5352 277.197C96.2227 277.197 96.7246 276.889 97.041 276.271V273.359C96.7168 272.762 96.2188 272.463 95.5469 272.463C95.0156 272.463 94.6016 272.668 94.3047 273.078C94.0078 273.488 93.8594 274.096 93.8594 274.9Z" fill="black" fill-opacity="0.54"/>
<g opacity="0.5" filter="url(#filter1_d)">
<rect x="217.5" y="359.5" width="33" height="13" rx="6.5" fill="#00BCD4" stroke="white"/>
</g>
<g filter="url(#filter2_dd)">
<rect x="234.5" y="356.5" width="19" height="19" rx="9.5" fill="#00BCD4" stroke="white"/>
</g>
<path d="M103.119 369.549H101.115V373H99.9844V364.469H102.809C103.77 364.469 104.508 364.688 105.023 365.125C105.543 365.562 105.803 366.199 105.803 367.035C105.803 367.566 105.658 368.029 105.369 368.424C105.084 368.818 104.686 369.113 104.174 369.309L106.178 372.93V373H104.971L103.119 369.549ZM101.115 368.629H102.844C103.402 368.629 103.846 368.484 104.174 368.195C104.506 367.906 104.672 367.52 104.672 367.035C104.672 366.508 104.514 366.104 104.197 365.822C103.885 365.541 103.432 365.398 102.838 365.395H101.115V368.629ZM109.846 373.117C108.986 373.117 108.287 372.836 107.748 372.273C107.209 371.707 106.939 370.951 106.939 370.006V369.807C106.939 369.178 107.059 368.617 107.297 368.125C107.539 367.629 107.875 367.242 108.305 366.965C108.738 366.684 109.207 366.543 109.711 366.543C110.535 366.543 111.176 366.814 111.633 367.357C112.09 367.9 112.318 368.678 112.318 369.689V370.141H108.023C108.039 370.766 108.221 371.271 108.568 371.658C108.92 372.041 109.365 372.232 109.904 372.232C110.287 372.232 110.611 372.154 110.877 371.998C111.143 371.842 111.375 371.635 111.574 371.377L112.236 371.893C111.705 372.709 110.908 373.117 109.846 373.117ZM109.711 367.434C109.273 367.434 108.906 367.594 108.609 367.914C108.312 368.23 108.129 368.676 108.059 369.25H111.234V369.168C111.203 368.617 111.055 368.191 110.789 367.891C110.523 367.586 110.164 367.434 109.711 367.434ZM114.598 366.66L114.627 367.363C115.092 366.816 115.719 366.543 116.508 366.543C117.395 366.543 117.998 366.883 118.318 367.562C118.529 367.258 118.803 367.012 119.139 366.824C119.479 366.637 119.879 366.543 120.34 366.543C121.73 366.543 122.438 367.279 122.461 368.752V373H121.377V368.816C121.377 368.363 121.273 368.025 121.066 367.803C120.859 367.576 120.512 367.463 120.023 367.463C119.621 367.463 119.287 367.584 119.021 367.826C118.756 368.064 118.602 368.387 118.559 368.793V373H117.469V368.846C117.469 367.924 117.018 367.463 116.115 367.463C115.404 367.463 114.918 367.766 114.656 368.371V373H113.572V366.66H114.598ZM126.732 373.117C125.873 373.117 125.174 372.836 124.635 372.273C124.096 371.707 123.826 370.951 123.826 370.006V369.807C123.826 369.178 123.945 368.617 124.184 368.125C124.426 367.629 124.762 367.242 125.191 366.965C125.625 366.684 126.094 366.543 126.598 366.543C127.422 366.543 128.062 366.814 128.52 367.357C128.977 367.9 129.205 368.678 129.205 369.689V370.141H124.91C124.926 370.766 125.107 371.271 125.455 371.658C125.807 372.041 126.252 372.232 126.791 372.232C127.174 372.232 127.498 372.154 127.764 371.998C128.029 371.842 128.262 371.635 128.461 371.377L129.123 371.893C128.592 372.709 127.795 373.117 126.732 373.117ZM126.598 367.434C126.16 367.434 125.793 367.594 125.496 367.914C125.199 368.23 125.016 368.676 124.945 369.25H128.121V369.168C128.09 368.617 127.941 368.191 127.676 367.891C127.41 367.586 127.051 367.434 126.598 367.434ZM131.484 366.66L131.514 367.363C131.979 366.816 132.605 366.543 133.395 366.543C134.281 366.543 134.885 366.883 135.205 367.562C135.416 367.258 135.689 367.012 136.025 366.824C136.365 366.637 136.766 366.543 137.227 366.543C138.617 366.543 139.324 367.279 139.348 368.752V373H138.264V368.816C138.264 368.363 138.16 368.025 137.953 367.803C137.746 367.576 137.398 367.463 136.91 367.463C136.508 367.463 136.174 367.584 135.908 367.826C135.643 368.064 135.488 368.387 135.445 368.793V373H134.355V368.846C134.355 367.924 133.904 367.463 133.002 367.463C132.291 367.463 131.805 367.766 131.543 368.371V373H130.459V366.66H131.484ZM146.355 369.9C146.355 370.869 146.133 371.648 145.688 372.238C145.242 372.824 144.645 373.117 143.895 373.117C143.094 373.117 142.475 372.834 142.037 372.268L141.984 373H140.988V364H142.072V367.357C142.51 366.814 143.113 366.543 143.883 366.543C144.652 366.543 145.256 366.834 145.693 367.416C146.135 367.998 146.355 368.795 146.355 369.807V369.9ZM145.271 369.777C145.271 369.039 145.129 368.469 144.844 368.066C144.559 367.664 144.148 367.463 143.613 367.463C142.898 367.463 142.385 367.795 142.072 368.459V371.201C142.404 371.865 142.922 372.197 143.625 372.197C144.145 372.197 144.549 371.996 144.838 371.594C145.127 371.191 145.271 370.586 145.271 369.777ZM150.357 373.117C149.498 373.117 148.799 372.836 148.26 372.273C147.721 371.707 147.451 370.951 147.451 370.006V369.807C147.451 369.178 147.57 368.617 147.809 368.125C148.051 367.629 148.387 367.242 148.816 366.965C149.25 366.684 149.719 366.543 150.223 366.543C151.047 366.543 151.688 366.814 152.145 367.357C152.602 367.9 152.83 368.678 152.83 369.689V370.141H148.535C148.551 370.766 148.732 371.271 149.08 371.658C149.432 372.041 149.877 372.232 150.416 372.232C150.799 372.232 151.123 372.154 151.389 371.998C151.654 371.842 151.887 371.635 152.086 371.377L152.748 371.893C152.217 372.709 151.42 373.117 150.357 373.117ZM150.223 367.434C149.785 367.434 149.418 367.594 149.121 367.914C148.824 368.23 148.641 368.676 148.57 369.25H151.746V369.168C151.715 368.617 151.566 368.191 151.301 367.891C151.035 367.586 150.676 367.434 150.223 367.434ZM157.154 367.633C156.99 367.605 156.812 367.592 156.621 367.592C155.91 367.592 155.428 367.895 155.174 368.5V373H154.09V366.66H155.145L155.162 367.393C155.518 366.826 156.021 366.543 156.674 366.543C156.885 366.543 157.045 366.57 157.154 366.625V367.633ZM164.137 366.66L164.166 367.363C164.631 366.816 165.258 366.543 166.047 366.543C166.934 366.543 167.537 366.883 167.857 367.562C168.068 367.258 168.342 367.012 168.678 366.824C169.018 366.637 169.418 366.543 169.879 366.543C171.27 366.543 171.977 367.279 172 368.752V373H170.916V368.816C170.916 368.363 170.812 368.025 170.605 367.803C170.398 367.576 170.051 367.463 169.562 367.463C169.16 367.463 168.826 367.584 168.561 367.826C168.295 368.064 168.141 368.387 168.098 368.793V373H167.008V368.846C167.008 367.924 166.557 367.463 165.654 367.463C164.943 367.463 164.457 367.766 164.195 368.371V373H163.111V366.66H164.137ZM176.271 373.117C175.412 373.117 174.713 372.836 174.174 372.273C173.635 371.707 173.365 370.951 173.365 370.006V369.807C173.365 369.178 173.484 368.617 173.723 368.125C173.965 367.629 174.301 367.242 174.73 366.965C175.164 366.684 175.633 366.543 176.137 366.543C176.961 366.543 177.602 366.814 178.059 367.357C178.516 367.9 178.744 368.678 178.744 369.689V370.141H174.449C174.465 370.766 174.646 371.271 174.994 371.658C175.346 372.041 175.791 372.232 176.33 372.232C176.713 372.232 177.037 372.154 177.303 371.998C177.568 371.842 177.801 371.635 178 371.377L178.662 371.893C178.131 372.709 177.334 373.117 176.271 373.117ZM176.137 367.434C175.699 367.434 175.332 367.594 175.035 367.914C174.738 368.23 174.555 368.676 174.484 369.25H177.66V369.168C177.629 368.617 177.48 368.191 177.215 367.891C176.949 367.586 176.59 367.434 176.137 367.434Z" fill="black"/>
<path d="M103.119 369.549L104 369.076L103.717 368.549H103.119V369.549ZM101.115 369.549V368.549H100.115V369.549H101.115ZM101.115 373V374H102.115V373H101.115ZM99.9844 373H98.9844V374H99.9844V373ZM99.9844 364.469V363.469H98.9844V364.469H99.9844ZM105.023 365.125L104.376 365.888L104.379 365.89L105.023 365.125ZM105.369 368.424L104.562 367.833L104.559 367.838L105.369 368.424ZM104.174 369.309L103.817 368.374L102.741 368.785L103.299 369.793L104.174 369.309ZM106.178 372.93H107.178V372.671L107.053 372.445L106.178 372.93ZM106.178 373V374H107.178V373H106.178ZM104.971 373L104.09 373.473L104.372 374H104.971V373ZM101.115 368.629H100.115V369.629H101.115V368.629ZM104.174 368.195L103.517 367.441L103.513 367.445L104.174 368.195ZM104.197 365.822L103.528 366.566L103.533 366.57L104.197 365.822ZM102.838 365.395L102.844 364.395H102.838V365.395ZM101.115 365.395V364.395H100.115V365.395H101.115ZM103.119 368.549H101.115V370.549H103.119V368.549ZM100.115 369.549V373H102.115V369.549H100.115ZM101.115 372H99.9844V374H101.115V372ZM100.984 373V364.469H98.9844V373H100.984ZM99.9844 365.469H102.809V363.469H99.9844V365.469ZM102.809 365.469C103.631 365.469 104.105 365.657 104.376 365.888L105.67 364.362C104.911 363.718 103.908 363.469 102.809 363.469V365.469ZM104.379 365.89C104.622 366.094 104.803 366.42 104.803 367.035H106.803C106.803 365.979 106.464 365.031 105.668 364.36L104.379 365.89ZM104.803 367.035C104.803 367.373 104.715 367.625 104.562 367.833L106.176 369.015C106.601 368.434 106.803 367.76 106.803 367.035H104.803ZM104.559 367.838C104.402 368.055 104.17 368.24 103.817 368.374L104.53 370.243C105.201 369.987 105.766 369.581 106.18 369.01L104.559 367.838ZM103.299 369.793L105.303 373.414L107.053 372.445L105.049 368.824L103.299 369.793ZM105.178 372.93V373H107.178V372.93H105.178ZM106.178 372H104.971V374H106.178V372ZM105.852 372.527L104 369.076L102.238 370.022L104.09 373.473L105.852 372.527ZM101.115 369.629H102.844V367.629H101.115V369.629ZM102.844 369.629C103.576 369.629 104.278 369.436 104.835 368.946L103.513 367.445C103.413 367.532 103.228 367.629 102.844 367.629V369.629ZM104.83 368.95C105.404 368.45 105.672 367.776 105.672 367.035H103.672C103.672 367.263 103.608 367.362 103.517 367.441L104.83 368.95ZM105.672 367.035C105.672 366.298 105.442 365.591 104.862 365.075L103.533 366.57C103.585 366.616 103.672 366.718 103.672 367.035H105.672ZM104.866 365.079C104.309 364.577 103.583 364.399 102.844 364.395L102.831 366.395C103.281 366.397 103.461 366.505 103.528 366.566L104.866 365.079ZM102.838 364.395H101.115V366.395H102.838V364.395ZM100.115 365.395V368.629H102.115V365.395H100.115ZM107.748 372.273L107.024 372.963L107.026 372.965L107.748 372.273ZM107.297 368.125L106.398 367.686L106.397 367.689L107.297 368.125ZM108.305 366.965L108.847 367.805L108.849 367.804L108.305 366.965ZM112.318 370.141V371.141H113.318V370.141H112.318ZM108.023 370.141V369.141H106.998L107.024 370.166L108.023 370.141ZM108.568 371.658L107.825 372.327L107.832 372.335L108.568 371.658ZM111.574 371.377L112.189 370.588L111.397 369.971L110.783 370.766L111.574 371.377ZM112.236 371.893L113.074 372.438L113.576 371.668L112.851 371.104L112.236 371.893ZM108.609 367.914L109.339 368.598L109.343 368.594L108.609 367.914ZM108.059 369.25L107.066 369.128L106.929 370.25H108.059V369.25ZM111.234 369.25V370.25H112.234V369.25H111.234ZM111.234 369.168H112.234V369.14L112.233 369.111L111.234 369.168ZM110.789 367.891L110.035 368.548L110.04 368.553L110.789 367.891ZM109.846 372.117C109.228 372.117 108.8 371.926 108.47 371.582L107.026 372.965C107.774 373.746 108.745 374.117 109.846 374.117V372.117ZM108.472 371.584C108.146 371.241 107.939 370.751 107.939 370.006H105.939C105.939 371.151 106.272 372.173 107.024 372.963L108.472 371.584ZM107.939 370.006V369.807H105.939V370.006H107.939ZM107.939 369.807C107.939 369.306 108.034 368.898 108.197 368.561L106.397 367.689C106.084 368.336 105.939 369.049 105.939 369.807H107.939ZM108.196 368.564C108.364 368.218 108.583 367.976 108.847 367.805L107.762 366.125C107.167 366.509 106.714 367.04 106.398 367.686L108.196 368.564ZM108.849 367.804C109.125 367.625 109.405 367.543 109.711 367.543V365.543C109.009 365.543 108.352 365.742 107.76 366.126L108.849 367.804ZM109.711 367.543C110.293 367.543 110.632 367.722 110.868 368.001L112.398 366.713C111.719 365.907 110.777 365.543 109.711 365.543V367.543ZM110.868 368.001C111.12 368.301 111.318 368.815 111.318 369.689H113.318C113.318 368.541 113.06 367.5 112.398 366.713L110.868 368.001ZM111.318 369.689V370.141H113.318V369.689H111.318ZM112.318 369.141H108.023V371.141H112.318V369.141ZM107.024 370.166C107.044 370.978 107.287 371.729 107.825 372.327L109.312 370.99C109.154 370.814 109.034 370.553 109.023 370.116L107.024 370.166ZM107.832 372.335C108.381 372.932 109.097 373.232 109.904 373.232V371.232C109.633 371.232 109.459 371.15 109.305 370.982L107.832 372.335ZM109.904 373.232C110.423 373.232 110.932 373.126 111.384 372.86L110.37 371.136C110.291 371.182 110.152 371.232 109.904 371.232V373.232ZM111.384 372.86C111.766 372.635 112.093 372.341 112.366 371.988L110.783 370.766C110.657 370.928 110.52 371.048 110.37 371.136L111.384 372.86ZM110.96 372.166L111.622 372.682L112.851 371.104L112.189 370.588L110.96 372.166ZM111.398 371.347C111.07 371.851 110.606 372.117 109.846 372.117V374.117C111.21 374.117 112.34 373.567 113.074 372.438L111.398 371.347ZM109.711 366.434C108.996 366.434 108.362 366.709 107.876 367.234L109.343 368.594C109.45 368.478 109.551 368.434 109.711 368.434V366.434ZM107.88 367.23C107.396 367.745 107.154 368.413 107.066 369.128L109.051 369.372C109.104 368.939 109.229 368.716 109.339 368.598L107.88 367.23ZM108.059 370.25H111.234V368.25H108.059V370.25ZM112.234 369.25V369.168H110.234V369.25H112.234ZM112.233 369.111C112.194 368.42 112 367.751 111.539 367.229L110.04 368.553C110.11 368.632 110.213 368.815 110.236 369.225L112.233 369.111ZM111.543 367.233C111.063 366.683 110.414 366.434 109.711 366.434V368.434C109.914 368.434 109.984 368.489 110.035 368.548L111.543 367.233ZM114.598 366.66L115.597 366.619L115.557 365.66H114.598V366.66ZM114.627 367.363L113.628 367.405L113.734 369.958L115.389 368.011L114.627 367.363ZM118.318 367.562L117.414 367.989L118.153 369.558L119.141 368.132L118.318 367.562ZM119.139 366.824L118.656 365.949L118.651 365.951L119.139 366.824ZM122.461 368.752H123.461V368.744L123.461 368.736L122.461 368.752ZM122.461 373V374H123.461V373H122.461ZM121.377 373H120.377V374H121.377V373ZM121.066 367.803L120.328 368.477L120.334 368.484L121.066 367.803ZM119.021 367.826L119.689 368.571L119.695 368.565L119.021 367.826ZM118.559 368.793L117.564 368.688L117.559 368.74V368.793H118.559ZM118.559 373V374H119.559V373H118.559ZM117.469 373H116.469V374H117.469V373ZM114.656 368.371L113.738 367.974L113.656 368.164V368.371H114.656ZM114.656 373V374H115.656V373H114.656ZM113.572 373H112.572V374H113.572V373ZM113.572 366.66V365.66H112.572V366.66H113.572ZM113.599 366.702L113.628 367.405L115.626 367.322L115.597 366.619L113.599 366.702ZM115.389 368.011C115.643 367.711 115.979 367.543 116.508 367.543V365.543C115.458 365.543 114.54 365.921 113.865 366.716L115.389 368.011ZM116.508 367.543C116.826 367.543 117.019 367.604 117.135 367.669C117.24 367.729 117.334 367.82 117.414 367.989L119.223 367.136C118.982 366.625 118.614 366.207 118.116 365.927C117.628 365.652 117.076 365.543 116.508 365.543V367.543ZM119.141 368.132C119.261 367.957 119.418 367.813 119.626 367.697L118.651 365.951C118.187 366.21 117.797 366.558 117.496 366.993L119.141 368.132ZM119.622 367.7C119.788 367.608 120.016 367.543 120.34 367.543V365.543C119.742 365.543 119.169 365.665 118.656 365.949L119.622 367.7ZM120.34 367.543C120.865 367.543 121.087 367.679 121.192 367.788C121.306 367.907 121.452 368.173 121.461 368.768L123.461 368.736C123.447 367.858 123.227 367.02 122.634 366.403C122.032 365.775 121.206 365.543 120.34 365.543V367.543ZM121.461 368.752V373H123.461V368.752H121.461ZM122.461 372H121.377V374H122.461V372ZM122.377 373V368.816H120.377V373H122.377ZM122.377 368.816C122.377 368.232 122.246 367.602 121.799 367.122L120.334 368.484C120.301 368.448 120.377 368.495 120.377 368.816H122.377ZM121.805 367.128C121.321 366.599 120.63 366.463 120.023 366.463V368.463C120.195 368.463 120.294 368.483 120.341 368.499C120.382 368.512 120.362 368.514 120.328 368.477L121.805 367.128ZM120.023 366.463C119.404 366.463 118.82 366.657 118.348 367.087L119.695 368.565C119.754 368.511 119.838 368.463 120.023 368.463V366.463ZM118.354 367.082C117.877 367.509 117.629 368.073 117.564 368.688L119.553 368.898C119.574 368.7 119.635 368.62 119.689 368.571L118.354 367.082ZM117.559 368.793V373H119.559V368.793H117.559ZM118.559 372H117.469V374H118.559V372ZM118.469 373V368.846H116.469V373H118.469ZM118.469 368.846C118.469 368.236 118.32 367.594 117.845 367.109C117.367 366.62 116.726 366.463 116.115 366.463V368.463C116.407 368.463 116.443 368.536 116.416 368.508C116.392 368.484 116.469 368.534 116.469 368.846H118.469ZM116.115 366.463C115.618 366.463 115.125 366.57 114.689 366.841C114.248 367.116 113.937 367.514 113.738 367.974L115.574 368.768C115.637 368.623 115.701 368.567 115.746 368.539C115.796 368.508 115.902 368.463 116.115 368.463V366.463ZM113.656 368.371V373H115.656V368.371H113.656ZM114.656 372H113.572V374H114.656V372ZM114.572 373V366.66H112.572V373H114.572ZM113.572 367.66H114.598V365.66H113.572V367.66ZM124.635 372.273L123.91 372.963L123.913 372.965L124.635 372.273ZM124.184 368.125L123.285 367.686L123.284 367.689L124.184 368.125ZM125.191 366.965L125.734 367.805L125.736 367.804L125.191 366.965ZM129.205 370.141V371.141H130.205V370.141H129.205ZM124.91 370.141V369.141H123.885L123.91 370.166L124.91 370.141ZM125.455 371.658L124.711 372.327L124.719 372.335L125.455 371.658ZM128.461 371.377L129.075 370.588L128.283 369.971L127.67 370.766L128.461 371.377ZM129.123 371.893L129.961 372.438L130.462 371.668L129.737 371.104L129.123 371.893ZM125.496 367.914L126.225 368.598L126.23 368.594L125.496 367.914ZM124.945 369.25L123.953 369.128L123.815 370.25H124.945V369.25ZM128.121 369.25V370.25H129.121V369.25H128.121ZM128.121 369.168H129.121V369.14L129.119 369.111L128.121 369.168ZM127.676 367.891L126.922 368.548L126.926 368.553L127.676 367.891ZM126.732 372.117C126.115 372.117 125.687 371.926 125.357 371.582L123.913 372.965C124.661 373.746 125.631 374.117 126.732 374.117V372.117ZM125.359 371.584C125.033 371.241 124.826 370.751 124.826 370.006H122.826C122.826 371.151 123.159 372.173 123.91 372.963L125.359 371.584ZM124.826 370.006V369.807H122.826V370.006H124.826ZM124.826 369.807C124.826 369.306 124.92 368.898 125.084 368.561L123.284 367.689C122.97 368.336 122.826 369.049 122.826 369.807H124.826ZM125.082 368.564C125.251 368.218 125.469 367.976 125.734 367.805L124.649 366.125C124.054 366.509 123.601 367.04 123.285 367.686L125.082 368.564ZM125.736 367.804C126.012 367.625 126.292 367.543 126.598 367.543V365.543C125.895 365.543 125.238 365.742 124.647 366.126L125.736 367.804ZM126.598 367.543C127.18 367.543 127.519 367.722 127.754 368.001L129.285 366.713C128.606 365.907 127.664 365.543 126.598 365.543V367.543ZM127.754 368.001C128.007 368.301 128.205 368.815 128.205 369.689H130.205C130.205 368.541 129.947 367.5 129.285 366.713L127.754 368.001ZM128.205 369.689V370.141H130.205V369.689H128.205ZM129.205 369.141H124.91V371.141H129.205V369.141ZM123.91 370.166C123.931 370.978 124.174 371.729 124.711 372.327L126.199 370.99C126.041 370.814 125.921 370.553 125.91 370.116L123.91 370.166ZM124.719 372.335C125.267 372.932 125.984 373.232 126.791 373.232V371.232C126.52 371.232 126.346 371.15 126.192 370.982L124.719 372.335ZM126.791 373.232C127.309 373.232 127.818 373.126 128.271 372.86L127.257 371.136C127.178 371.182 127.038 371.232 126.791 371.232V373.232ZM128.271 372.86C128.652 372.635 128.98 372.341 129.252 371.988L127.67 370.766C127.544 370.928 127.406 371.048 127.257 371.136L128.271 372.86ZM127.847 372.166L128.509 372.682L129.737 371.104L129.075 370.588L127.847 372.166ZM128.285 371.347C127.957 371.851 127.493 372.117 126.732 372.117V374.117C128.097 374.117 129.226 373.567 129.961 372.438L128.285 371.347ZM126.598 366.434C125.882 366.434 125.249 366.709 124.763 367.234L126.23 368.594C126.337 368.478 126.438 368.434 126.598 368.434V366.434ZM124.767 367.23C124.283 367.745 124.04 368.413 123.953 369.128L125.938 369.372C125.991 368.939 126.115 368.716 126.225 368.598L124.767 367.23ZM124.945 370.25H128.121V368.25H124.945V370.25ZM129.121 369.25V369.168H127.121V369.25H129.121ZM129.119 369.111C129.08 368.42 128.886 367.751 128.425 367.229L126.926 368.553C126.996 368.632 127.099 368.815 127.123 369.225L129.119 369.111ZM128.43 367.233C127.95 366.683 127.301 366.434 126.598 366.434V368.434C126.801 368.434 126.871 368.489 126.922 368.548L128.43 367.233ZM131.484 366.66L132.484 366.619L132.444 365.66H131.484V366.66ZM131.514 367.363L130.515 367.405L130.621 369.958L132.276 368.011L131.514 367.363ZM135.205 367.562L134.3 367.989L135.04 369.558L136.027 368.132L135.205 367.562ZM136.025 366.824L135.542 365.949L135.538 365.951L136.025 366.824ZM139.348 368.752H140.348V368.744L140.348 368.736L139.348 368.752ZM139.348 373V374H140.348V373H139.348ZM138.264 373H137.264V374H138.264V373ZM137.953 367.803L137.215 368.477L137.221 368.484L137.953 367.803ZM135.908 367.826L136.576 368.571L136.582 368.565L135.908 367.826ZM135.445 368.793L134.451 368.688L134.445 368.74V368.793H135.445ZM135.445 373V374H136.445V373H135.445ZM134.355 373H133.355V374H134.355V373ZM131.543 368.371L130.625 367.974L130.543 368.164V368.371H131.543ZM131.543 373V374H132.543V373H131.543ZM130.459 373H129.459V374H130.459V373ZM130.459 366.66V365.66H129.459V366.66H130.459ZM130.485 366.702L130.515 367.405L132.513 367.322L132.484 366.619L130.485 366.702ZM132.276 368.011C132.53 367.711 132.866 367.543 133.395 367.543V365.543C132.345 365.543 131.427 365.921 130.752 366.716L132.276 368.011ZM133.395 367.543C133.713 367.543 133.906 367.604 134.022 367.669C134.127 367.729 134.221 367.82 134.3 367.989L136.11 367.136C135.869 366.625 135.501 366.207 135.003 365.927C134.515 365.652 133.963 365.543 133.395 365.543V367.543ZM136.027 368.132C136.148 367.957 136.305 367.813 136.513 367.697L135.538 365.951C135.074 366.21 134.684 366.558 134.383 366.993L136.027 368.132ZM136.508 367.7C136.675 367.608 136.903 367.543 137.227 367.543V365.543C136.628 365.543 136.056 365.665 135.542 365.949L136.508 367.7ZM137.227 367.543C137.751 367.543 137.974 367.679 138.078 367.788C138.193 367.907 138.338 368.173 138.348 368.768L140.348 368.736C140.334 367.858 140.114 367.02 139.521 366.403C138.919 365.775 138.092 365.543 137.227 365.543V367.543ZM138.348 368.752V373H140.348V368.752H138.348ZM139.348 372H138.264V374H139.348V372ZM139.264 373V368.816H137.264V373H139.264ZM139.264 368.816C139.264 368.232 139.132 367.602 138.685 367.122L137.221 368.484C137.188 368.448 137.264 368.495 137.264 368.816H139.264ZM138.691 367.128C138.208 366.599 137.517 366.463 136.91 366.463V368.463C137.082 368.463 137.181 368.483 137.227 368.499C137.268 368.512 137.248 368.514 137.215 368.477L138.691 367.128ZM136.91 366.463C136.291 366.463 135.707 366.657 135.234 367.087L136.582 368.565C136.641 368.511 136.725 368.463 136.91 368.463V366.463ZM135.24 367.082C134.764 367.509 134.516 368.073 134.451 368.688L136.44 368.898C136.461 368.7 136.521 368.62 136.576 368.571L135.24 367.082ZM134.445 368.793V373H136.445V368.793H134.445ZM135.445 372H134.355V374H135.445V372ZM135.355 373V368.846H133.355V373H135.355ZM135.355 368.846C135.355 368.236 135.206 367.594 134.732 367.109C134.253 366.62 133.613 366.463 133.002 366.463V368.463C133.293 368.463 133.33 368.536 133.302 368.508C133.279 368.484 133.355 368.534 133.355 368.846H135.355ZM133.002 366.463C132.505 366.463 132.012 366.57 131.576 366.841C131.134 367.116 130.824 367.514 130.625 367.974L132.461 368.768C132.524 368.623 132.587 368.567 132.632 368.539C132.683 368.508 132.788 368.463 133.002 368.463V366.463ZM130.543 368.371V373H132.543V368.371H130.543ZM131.543 372H130.459V374H131.543V372ZM131.459 373V366.66H129.459V373H131.459ZM130.459 367.66H131.484V365.66H130.459V367.66ZM145.688 372.238L146.484 372.843L146.486 372.841L145.688 372.238ZM142.037 372.268L142.829 371.656L141.228 369.584L141.04 372.196L142.037 372.268ZM141.984 373V374H142.915L142.982 373.072L141.984 373ZM140.988 373H139.988V374H140.988V373ZM140.988 364V363H139.988V364H140.988ZM142.072 364H143.072V363H142.072V364ZM142.072 367.357H141.072V370.192L142.851 367.985L142.072 367.357ZM145.693 367.416L144.894 368.017L144.897 368.02L145.693 367.416ZM142.072 368.459L141.167 368.033L141.072 368.235V368.459H142.072ZM142.072 371.201H141.072V371.437L141.178 371.648L142.072 371.201ZM145.355 369.9C145.355 370.719 145.168 371.267 144.889 371.636L146.486 372.841C147.098 372.03 147.355 371.019 147.355 369.9H145.355ZM144.891 371.633C144.639 371.965 144.339 372.117 143.895 372.117V374.117C144.95 374.117 145.845 373.684 146.484 372.843L144.891 371.633ZM143.895 372.117C143.361 372.117 143.052 371.946 142.829 371.656L141.246 372.879C141.897 373.722 142.826 374.117 143.895 374.117V372.117ZM141.04 372.196L140.987 372.928L142.982 373.072L143.035 372.339L141.04 372.196ZM141.984 372H140.988V374H141.984V372ZM141.988 373V364H139.988V373H141.988ZM140.988 365H142.072V363H140.988V365ZM141.072 364V367.357H143.072V364H141.072ZM142.851 367.985C143.077 367.704 143.38 367.543 143.883 367.543V365.543C142.846 365.543 141.942 365.925 141.294 366.73L142.851 367.985ZM143.883 367.543C144.359 367.543 144.658 367.702 144.894 368.017L146.493 366.815C145.854 365.966 144.946 365.543 143.883 365.543V367.543ZM144.897 368.02C145.164 368.373 145.355 368.931 145.355 369.807H147.355C147.355 368.659 147.106 367.623 146.49 366.812L144.897 368.02ZM145.355 369.807V369.9H147.355V369.807H145.355ZM146.271 369.777C146.271 368.929 146.111 368.125 145.66 367.488L144.028 368.645C144.147 368.813 144.271 369.149 144.271 369.777H146.271ZM145.66 367.488C145.169 366.796 144.44 366.463 143.613 366.463V368.463C143.857 368.463 143.948 368.532 144.028 368.645L145.66 367.488ZM143.613 366.463C143.096 366.463 142.593 366.585 142.149 366.872C141.706 367.158 141.387 367.566 141.167 368.033L142.977 368.885C143.07 368.688 143.164 368.598 143.235 368.552C143.304 368.507 143.415 368.463 143.613 368.463V366.463ZM141.072 368.459V371.201H143.072V368.459H141.072ZM141.178 371.648C141.408 372.108 141.731 372.508 142.17 372.79C142.612 373.074 143.11 373.197 143.625 373.197V371.197C143.437 371.197 143.325 371.155 143.249 371.107C143.171 371.056 143.069 370.958 142.967 370.754L141.178 371.648ZM143.625 373.197C144.448 373.197 145.163 372.856 145.65 372.177L144.026 371.01C143.935 371.136 143.841 371.197 143.625 371.197V373.197ZM145.65 372.177C146.117 371.528 146.271 370.674 146.271 369.777H144.271C144.271 370.498 144.137 370.855 144.026 371.01L145.65 372.177ZM148.26 372.273L147.535 372.963L147.538 372.965L148.26 372.273ZM147.809 368.125L146.91 367.686L146.909 367.689L147.809 368.125ZM148.816 366.965L149.359 367.805L149.361 367.804L148.816 366.965ZM152.83 370.141V371.141H153.83V370.141H152.83ZM148.535 370.141V369.141H147.51L147.535 370.166L148.535 370.141ZM149.08 371.658L148.336 372.327L148.344 372.335L149.08 371.658ZM152.086 371.377L152.7 370.588L151.908 369.971L151.295 370.766L152.086 371.377ZM152.748 371.893L153.586 372.438L154.087 371.668L153.362 371.104L152.748 371.893ZM149.121 367.914L149.85 368.598L149.855 368.594L149.121 367.914ZM148.57 369.25L147.578 369.128L147.44 370.25H148.57V369.25ZM151.746 369.25V370.25H152.746V369.25H151.746ZM151.746 369.168H152.746V369.14L152.744 369.111L151.746 369.168ZM151.301 367.891L150.547 368.548L150.551 368.553L151.301 367.891ZM150.357 372.117C149.74 372.117 149.312 371.926 148.982 371.582L147.538 372.965C148.286 373.746 149.256 374.117 150.357 374.117V372.117ZM148.984 371.584C148.658 371.241 148.451 370.751 148.451 370.006H146.451C146.451 371.151 146.784 372.173 147.535 372.963L148.984 371.584ZM148.451 370.006V369.807H146.451V370.006H148.451ZM148.451 369.807C148.451 369.306 148.545 368.898 148.709 368.561L146.909 367.689C146.595 368.336 146.451 369.049 146.451 369.807H148.451ZM148.707 368.564C148.876 368.218 149.094 367.976 149.359 367.805L148.274 366.125C147.679 366.509 147.226 367.04 146.91 367.686L148.707 368.564ZM149.361 367.804C149.637 367.625 149.917 367.543 150.223 367.543V365.543C149.52 365.543 148.863 365.742 148.272 366.126L149.361 367.804ZM150.223 367.543C150.805 367.543 151.144 367.722 151.379 368.001L152.91 366.713C152.231 365.907 151.289 365.543 150.223 365.543V367.543ZM151.379 368.001C151.632 368.301 151.83 368.815 151.83 369.689H153.83C153.83 368.541 153.572 367.5 152.91 366.713L151.379 368.001ZM151.83 369.689V370.141H153.83V369.689H151.83ZM152.83 369.141H148.535V371.141H152.83V369.141ZM147.535 370.166C147.556 370.978 147.799 371.729 148.336 372.327L149.824 370.99C149.666 370.814 149.546 370.553 149.535 370.116L147.535 370.166ZM148.344 372.335C148.892 372.932 149.609 373.232 150.416 373.232V371.232C150.145 371.232 149.971 371.15 149.817 370.982L148.344 372.335ZM150.416 373.232C150.934 373.232 151.443 373.126 151.896 372.86L150.882 371.136C150.803 371.182 150.663 371.232 150.416 371.232V373.232ZM151.896 372.86C152.277 372.635 152.605 372.341 152.877 371.988L151.295 370.766C151.169 370.928 151.031 371.048 150.882 371.136L151.896 372.86ZM151.472 372.166L152.134 372.682L153.362 371.104L152.7 370.588L151.472 372.166ZM151.91 371.347C151.582 371.851 151.118 372.117 150.357 372.117V374.117C151.722 374.117 152.851 373.567 153.586 372.438L151.91 371.347ZM150.223 366.434C149.507 366.434 148.874 366.709 148.388 367.234L149.855 368.594C149.962 368.478 150.063 368.434 150.223 368.434V366.434ZM148.392 367.23C147.908 367.745 147.665 368.413 147.578 369.128L149.563 369.372C149.616 368.939 149.74 368.716 149.85 368.598L148.392 367.23ZM148.57 370.25H151.746V368.25H148.57V370.25ZM152.746 369.25V369.168H150.746V369.25H152.746ZM152.744 369.111C152.705 368.42 152.511 367.751 152.05 367.229L150.551 368.553C150.621 368.632 150.724 368.815 150.748 369.225L152.744 369.111ZM152.055 367.233C151.575 366.683 150.926 366.434 150.223 366.434V368.434C150.426 368.434 150.496 368.489 150.547 368.548L152.055 367.233ZM157.154 367.633L156.99 368.619L158.154 368.813V367.633H157.154ZM155.174 368.5L154.252 368.113L154.174 368.299V368.5H155.174ZM155.174 373V374H156.174V373H155.174ZM154.09 373H153.09V374H154.09V373ZM154.09 366.66V365.66H153.09V366.66H154.09ZM155.145 366.66L156.144 366.636L156.121 365.66H155.145V366.66ZM155.162 367.393L154.162 367.417L154.242 370.74L156.009 367.924L155.162 367.393ZM157.154 366.625H158.154V366.007L157.602 365.731L157.154 366.625ZM157.319 366.646C157.093 366.609 156.86 366.592 156.621 366.592V368.592C156.765 368.592 156.888 368.602 156.99 368.619L157.319 366.646ZM156.621 366.592C156.124 366.592 155.63 366.698 155.195 366.972C154.753 367.249 154.446 367.651 154.252 368.113L156.096 368.887C156.156 368.744 156.217 368.692 156.258 368.666C156.304 368.637 156.407 368.592 156.621 368.592V366.592ZM154.174 368.5V373H156.174V368.5H154.174ZM155.174 372H154.09V374H155.174V372ZM155.09 373V366.66H153.09V373H155.09ZM154.09 367.66H155.145V365.66H154.09V367.66ZM154.145 366.684L154.162 367.417L156.162 367.369L156.144 366.636L154.145 366.684ZM156.009 367.924C156.187 367.64 156.376 367.543 156.674 367.543V365.543C155.667 365.543 154.848 366.012 154.315 366.861L156.009 367.924ZM156.674 367.543C156.705 367.543 156.73 367.544 156.749 367.545C156.768 367.547 156.779 367.548 156.784 367.549C156.789 367.55 156.784 367.549 156.772 367.546C156.759 367.542 156.737 367.534 156.707 367.519L157.602 365.731C157.287 365.573 156.943 365.543 156.674 365.543V367.543ZM156.154 366.625V367.633H158.154V366.625H156.154ZM164.137 366.66L165.136 366.619L165.096 365.66H164.137V366.66ZM164.166 367.363L163.167 367.405L163.273 369.958L164.928 368.011L164.166 367.363ZM167.857 367.562L166.953 367.989L167.692 369.558L168.68 368.132L167.857 367.562ZM168.678 366.824L168.195 365.949L168.19 365.951L168.678 366.824ZM172 368.752H173V368.744L173 368.736L172 368.752ZM172 373V374H173V373H172ZM170.916 373H169.916V374H170.916V373ZM170.605 367.803L169.867 368.477L169.873 368.484L170.605 367.803ZM168.561 367.826L169.228 368.571L169.234 368.565L168.561 367.826ZM168.098 368.793L167.103 368.688L167.098 368.74V368.793H168.098ZM168.098 373V374H169.098V373H168.098ZM167.008 373H166.008V374H167.008V373ZM164.195 368.371L163.277 367.974L163.195 368.164V368.371H164.195ZM164.195 373V374H165.195V373H164.195ZM163.111 373H162.111V374H163.111V373ZM163.111 366.66V365.66H162.111V366.66H163.111ZM163.138 366.702L163.167 367.405L165.165 367.322L165.136 366.619L163.138 366.702ZM164.928 368.011C165.182 367.711 165.518 367.543 166.047 367.543V365.543C164.997 365.543 164.079 365.921 163.404 366.716L164.928 368.011ZM166.047 367.543C166.365 367.543 166.558 367.604 166.674 367.669C166.779 367.729 166.873 367.82 166.953 367.989L168.762 367.136C168.521 366.625 168.153 366.207 167.655 365.927C167.167 365.652 166.615 365.543 166.047 365.543V367.543ZM168.68 368.132C168.8 367.957 168.957 367.813 169.165 367.697L168.19 365.951C167.726 366.21 167.336 366.558 167.035 366.993L168.68 368.132ZM169.161 367.7C169.327 367.608 169.555 367.543 169.879 367.543V365.543C169.281 365.543 168.708 365.665 168.195 365.949L169.161 367.7ZM169.879 367.543C170.404 367.543 170.626 367.679 170.731 367.788C170.845 367.907 170.991 368.173 171 368.768L173 368.736C172.986 367.858 172.766 367.02 172.173 366.403C171.571 365.775 170.745 365.543 169.879 365.543V367.543ZM171 368.752V373H173V368.752H171ZM172 372H170.916V374H172V372ZM171.916 373V368.816H169.916V373H171.916ZM171.916 368.816C171.916 368.232 171.785 367.602 171.338 367.122L169.873 368.484C169.84 368.448 169.916 368.495 169.916 368.816H171.916ZM171.344 367.128C170.86 366.599 170.169 366.463 169.562 366.463V368.463C169.734 368.463 169.833 368.483 169.88 368.499C169.921 368.512 169.901 368.514 169.867 368.477L171.344 367.128ZM169.562 366.463C168.943 366.463 168.359 366.657 167.887 367.087L169.234 368.565C169.293 368.511 169.377 368.463 169.562 368.463V366.463ZM167.893 367.082C167.416 367.509 167.168 368.073 167.103 368.688L169.092 368.898C169.113 368.7 169.174 368.62 169.228 368.571L167.893 367.082ZM167.098 368.793V373H169.098V368.793H167.098ZM168.098 372H167.008V374H168.098V372ZM168.008 373V368.846H166.008V373H168.008ZM168.008 368.846C168.008 368.236 167.859 367.594 167.384 367.109C166.906 366.62 166.265 366.463 165.654 366.463V368.463C165.946 368.463 165.982 368.536 165.955 368.508C165.931 368.484 166.008 368.534 166.008 368.846H168.008ZM165.654 366.463C165.157 366.463 164.664 366.57 164.228 366.841C163.787 367.116 163.476 367.514 163.277 367.974L165.113 368.768C165.176 368.623 165.24 368.567 165.285 368.539C165.335 368.508 165.441 368.463 165.654 368.463V366.463ZM163.195 368.371V373H165.195V368.371H163.195ZM164.195 372H163.111V374H164.195V372ZM164.111 373V366.66H162.111V373H164.111ZM163.111 367.66H164.137V365.66H163.111V367.66ZM174.174 372.273L173.449 372.963L173.452 372.965L174.174 372.273ZM173.723 368.125L172.824 367.686L172.823 367.689L173.723 368.125ZM174.73 366.965L175.273 367.805L175.275 367.804L174.73 366.965ZM178.744 370.141V371.141H179.744V370.141H178.744ZM174.449 370.141V369.141H173.424L173.45 370.166L174.449 370.141ZM174.994 371.658L174.25 372.327L174.258 372.335L174.994 371.658ZM178 371.377L178.614 370.588L177.822 369.971L177.209 370.766L178 371.377ZM178.662 371.893L179.5 372.438L180.001 371.668L179.277 371.104L178.662 371.893ZM175.035 367.914L175.764 368.598L175.769 368.594L175.035 367.914ZM174.484 369.25L173.492 369.128L173.354 370.25H174.484V369.25ZM177.66 369.25V370.25H178.66V369.25H177.66ZM177.66 369.168H178.66V369.14L178.659 369.111L177.66 369.168ZM177.215 367.891L176.461 368.548L176.465 368.553L177.215 367.891ZM176.271 372.117C175.654 372.117 175.226 371.926 174.896 371.582L173.452 372.965C174.2 373.746 175.171 374.117 176.271 374.117V372.117ZM174.898 371.584C174.572 371.241 174.365 370.751 174.365 370.006H172.365C172.365 371.151 172.698 372.173 173.449 372.963L174.898 371.584ZM174.365 370.006V369.807H172.365V370.006H174.365ZM174.365 369.807C174.365 369.306 174.459 368.898 174.623 368.561L172.823 367.689C172.509 368.336 172.365 369.049 172.365 369.807H174.365ZM174.621 368.564C174.79 368.218 175.008 367.976 175.273 367.805L174.188 366.125C173.593 366.509 173.14 367.04 172.824 367.686L174.621 368.564ZM175.275 367.804C175.551 367.625 175.831 367.543 176.137 367.543V365.543C175.434 365.543 174.778 365.742 174.186 366.126L175.275 367.804ZM176.137 367.543C176.719 367.543 177.058 367.722 177.294 368.001L178.824 366.713C178.145 365.907 177.203 365.543 176.137 365.543V367.543ZM177.294 368.001C177.546 368.301 177.744 368.815 177.744 369.689H179.744C179.744 368.541 179.486 367.5 178.824 366.713L177.294 368.001ZM177.744 369.689V370.141H179.744V369.689H177.744ZM178.744 369.141H174.449V371.141H178.744V369.141ZM173.45 370.166C173.47 370.978 173.713 371.729 174.25 372.327L175.738 370.99C175.58 370.814 175.46 370.553 175.449 370.116L173.45 370.166ZM174.258 372.335C174.806 372.932 175.523 373.232 176.33 373.232V371.232C176.059 371.232 175.885 371.15 175.731 370.982L174.258 372.335ZM176.33 373.232C176.848 373.232 177.357 373.126 177.81 372.86L176.796 371.136C176.717 371.182 176.577 371.232 176.33 371.232V373.232ZM177.81 372.86C178.191 372.635 178.519 372.341 178.791 371.988L177.209 370.766C177.083 370.928 176.945 371.048 176.796 371.136L177.81 372.86ZM177.386 372.166L178.048 372.682L179.277 371.104L178.614 370.588L177.386 372.166ZM177.824 371.347C177.496 371.851 177.032 372.117 176.271 372.117V374.117C177.636 374.117 178.765 373.567 179.5 372.438L177.824 371.347ZM176.137 366.434C175.421 366.434 174.788 366.709 174.302 367.234L175.769 368.594C175.876 368.478 175.977 368.434 176.137 368.434V366.434ZM174.306 367.23C173.822 367.745 173.579 368.413 173.492 369.128L175.477 369.372C175.53 368.939 175.654 368.716 175.764 368.598L174.306 367.23ZM174.484 370.25H177.66V368.25H174.484V370.25ZM178.66 369.25V369.168H176.66V369.25H178.66ZM178.659 369.111C178.619 368.42 178.425 367.751 177.964 367.229L176.465 368.553C176.535 368.632 176.639 368.815 176.662 369.225L178.659 369.111ZM177.969 367.233C177.489 366.683 176.84 366.434 176.137 366.434V368.434C176.34 368.434 176.41 368.489 176.461 368.548L177.969 367.233Z" fill="white"/>
</g>
<rect x="136.5" y="431.5" width="95" height="35" rx="1.5" fill="#00BCD4" stroke="white"/>
<path fill-rule="evenodd" clip-rule="evenodd" d="M138 431C136.895 431 136 431.895 136 433V464C136 465.105 136.895 466 138 466H230C231.105 466 232 465.105 232 464V433C232 431.895 231.105 431 230 431H138Z" fill="white" fill-opacity="0.18"/>
<path d="M163.387 452.619H167.905V454H161.657V444.047H163.387V452.619ZM177.237 449.283C177.237 450.258 177.069 451.115 176.731 451.854C176.394 452.587 175.911 453.152 175.282 453.549C174.658 453.941 173.938 454.137 173.122 454.137C172.315 454.137 171.595 453.941 170.962 453.549C170.333 453.152 169.845 452.59 169.499 451.86C169.157 451.131 168.984 450.29 168.979 449.338V448.777C168.979 447.807 169.15 446.95 169.492 446.207C169.839 445.464 170.324 444.897 170.948 444.505C171.577 444.108 172.297 443.91 173.108 443.91C173.92 443.91 174.637 444.106 175.262 444.498C175.891 444.885 176.376 445.446 176.718 446.18C177.06 446.909 177.233 447.759 177.237 448.729V449.283ZM175.508 448.764C175.508 447.661 175.298 446.815 174.879 446.228C174.464 445.64 173.874 445.346 173.108 445.346C172.361 445.346 171.775 445.64 171.352 446.228C170.932 446.811 170.718 447.638 170.709 448.709V449.283C170.709 450.377 170.921 451.222 171.345 451.819C171.773 452.416 172.366 452.715 173.122 452.715C173.888 452.715 174.476 452.423 174.886 451.84C175.3 451.257 175.508 450.404 175.508 449.283V448.764ZM187.089 452.708C186.729 453.177 186.23 453.533 185.592 453.774C184.954 454.016 184.229 454.137 183.418 454.137C182.584 454.137 181.846 453.948 181.203 453.569C180.561 453.191 180.064 452.651 179.713 451.949C179.367 451.243 179.187 450.42 179.173 449.481V448.702C179.173 447.198 179.533 446.025 180.253 445.182C180.973 444.334 181.978 443.91 183.268 443.91C184.375 443.91 185.255 444.184 185.906 444.73C186.558 445.277 186.95 446.066 187.082 447.096H185.387C185.195 445.897 184.5 445.298 183.302 445.298C182.527 445.298 181.937 445.578 181.531 446.139C181.13 446.695 180.923 447.513 180.909 448.593V449.358C180.909 450.434 181.135 451.27 181.586 451.867C182.042 452.46 182.673 452.756 183.479 452.756C184.364 452.756 184.993 452.555 185.366 452.154V450.206H183.315V448.894H187.089V452.708ZM195.301 454H193.578V444.047H195.301V454ZM205.822 454H204.093L199.656 446.938V454H197.927V444.047H199.656L204.106 451.136V444.047H205.822V454Z" fill="white"/>
<g opacity="0.12">
<rect x="136.5" y="517.5" width="95" height="35" rx="1.5" fill="#00BCD4" stroke="white"/>
</g>
<path d="M162.512 537.437C162.512 536.999 162.357 536.662 162.047 536.425C161.742 536.188 161.188 535.949 160.386 535.707C159.584 535.465 158.946 535.197 158.472 534.9C157.565 534.331 157.112 533.588 157.112 532.672C157.112 531.87 157.438 531.209 158.089 530.689C158.746 530.17 159.596 529.91 160.639 529.91C161.332 529.91 161.949 530.038 162.492 530.293C163.034 530.548 163.46 530.913 163.77 531.387C164.08 531.856 164.235 532.378 164.235 532.952H162.512C162.512 532.433 162.348 532.027 162.02 531.735C161.696 531.439 161.232 531.291 160.625 531.291C160.06 531.291 159.621 531.412 159.306 531.653C158.996 531.895 158.841 532.232 158.841 532.665C158.841 533.03 159.01 533.335 159.347 533.581C159.684 533.823 160.24 534.06 161.015 534.292C161.79 534.52 162.412 534.782 162.881 535.078C163.351 535.37 163.695 535.707 163.914 536.09C164.132 536.468 164.242 536.912 164.242 537.423C164.242 538.252 163.923 538.913 163.285 539.405C162.651 539.893 161.79 540.137 160.701 540.137C159.981 540.137 159.318 540.005 158.711 539.74C158.11 539.471 157.64 539.102 157.303 538.633C156.971 538.163 156.804 537.617 156.804 536.992H158.534C158.534 537.557 158.721 537.995 159.094 538.305C159.468 538.615 160.003 538.77 160.701 538.77C161.302 538.77 161.753 538.649 162.054 538.407C162.36 538.161 162.512 537.838 162.512 537.437ZM167.864 540H166.142V530.047H167.864V540ZM177.899 538.708C177.539 539.177 177.04 539.533 176.402 539.774C175.764 540.016 175.04 540.137 174.228 540.137C173.394 540.137 172.656 539.948 172.014 539.569C171.371 539.191 170.874 538.651 170.523 537.949C170.177 537.243 169.997 536.42 169.983 535.481V534.702C169.983 533.198 170.343 532.025 171.063 531.182C171.783 530.334 172.788 529.91 174.078 529.91C175.185 529.91 176.065 530.184 176.717 530.73C177.368 531.277 177.76 532.066 177.893 533.096H176.197C176.006 531.897 175.311 531.298 174.112 531.298C173.337 531.298 172.747 531.578 172.342 532.139C171.941 532.695 171.733 533.513 171.72 534.593V535.358C171.72 536.434 171.945 537.27 172.396 537.867C172.852 538.46 173.483 538.756 174.29 538.756C175.174 538.756 175.803 538.555 176.177 538.154V536.206H174.126V534.894H177.899V538.708ZM187.975 540H186.246L181.809 532.938V540H180.08V530.047H181.809L186.259 537.136V530.047H187.975V540ZM201.346 530.047V536.698C201.346 537.756 201.006 538.594 200.327 539.214C199.653 539.829 198.753 540.137 197.627 540.137C196.488 540.137 195.583 539.834 194.913 539.228C194.243 538.617 193.908 537.771 193.908 536.691V530.047H195.631V536.705C195.631 537.37 195.8 537.879 196.137 538.229C196.474 538.58 196.971 538.756 197.627 538.756C198.958 538.756 199.623 538.054 199.623 536.65V530.047H201.346ZM205.208 536.302V540H203.478V530.047H207.286C208.398 530.047 209.28 530.336 209.931 530.915C210.588 531.494 210.916 532.259 210.916 533.212C210.916 534.187 210.595 534.946 209.952 535.488C209.314 536.031 208.418 536.302 207.265 536.302H205.208ZM205.208 534.914H207.286C207.901 534.914 208.371 534.771 208.694 534.483C209.018 534.192 209.179 533.772 209.179 533.226C209.179 532.688 209.015 532.259 208.687 531.94C208.359 531.617 207.908 531.451 207.334 531.441H205.208V534.914Z" fill="black" fill-opacity="0.38"/>
<path d="M162.512 537.437C162.512 536.999 162.357 536.662 162.047 536.425C161.742 536.188 161.188 535.949 160.386 535.707C159.584 535.465 158.946 535.197 158.472 534.9C157.565 534.331 157.112 533.588 157.112 532.672C157.112 531.87 157.438 531.209 158.089 530.689C158.746 530.17 159.596 529.91 160.639 529.91C161.332 529.91 161.949 530.038 162.492 530.293C163.034 530.548 163.46 530.913 163.77 531.387C164.08 531.856 164.235 532.378 164.235 532.952H162.512C162.512 532.433 162.348 532.027 162.02 531.735C161.696 531.439 161.232 531.291 160.625 531.291C160.06 531.291 159.621 531.412 159.306 531.653C158.996 531.895 158.841 532.232 158.841 532.665C158.841 533.03 159.01 533.335 159.347 533.581C159.684 533.823 160.24 534.06 161.015 534.292C161.79 534.52 162.412 534.782 162.881 535.078C163.351 535.37 163.695 535.707 163.914 536.09C164.132 536.468 164.242 536.912 164.242 537.423C164.242 538.252 163.923 538.913 163.285 539.405C162.651 539.893 161.79 540.137 160.701 540.137C159.981 540.137 159.318 540.005 158.711 539.74C158.11 539.471 157.64 539.102 157.303 538.633C156.971 538.163 156.804 537.617 156.804 536.992H158.534C158.534 537.557 158.721 537.995 159.094 538.305C159.468 538.615 160.003 538.77 160.701 538.77C161.302 538.77 161.753 538.649 162.054 538.407C162.36 538.161 162.512 537.838 162.512 537.437ZM167.864 540H166.142V530.047H167.864V540ZM177.899 538.708C177.539 539.177 177.04 539.533 176.402 539.774C175.764 540.016 175.04 540.137 174.228 540.137C173.394 540.137 172.656 539.948 172.014 539.569C171.371 539.191 170.874 538.651 170.523 537.949C170.177 537.243 169.997 536.42 169.983 535.481V534.702C169.983 533.198 170.343 532.025 171.063 531.182C171.783 530.334 172.788 529.91 174.078 529.91C175.185 529.91 176.065 530.184 176.717 530.73C177.368 531.277 177.76 532.066 177.893 533.096H176.197C176.006 531.897 175.311 531.298 174.112 531.298C173.337 531.298 172.747 531.578 172.342 532.139C171.941 532.695 171.733 533.513 171.72 534.593V535.358C171.72 536.434 171.945 537.27 172.396 537.867C172.852 538.46 173.483 538.756 174.29 538.756C175.174 538.756 175.803 538.555 176.177 538.154V536.206H174.126V534.894H177.899V538.708ZM187.975 540H186.246L181.809 532.938V540H180.08V530.047H181.809L186.259 537.136V530.047H187.975V540ZM201.346 530.047V536.698C201.346 537.756 201.006 538.594 200.327 539.214C199.653 539.829 198.753 540.137 197.627 540.137C196.488 540.137 195.583 539.834 194.913 539.228C194.243 538.617 193.908 537.771 193.908 536.691V530.047H195.631V536.705C195.631 537.37 195.8 537.879 196.137 538.229C196.474 538.58 196.971 538.756 197.627 538.756C198.958 538.756 199.623 538.054 199.623 536.65V530.047H201.346ZM205.208 536.302V540H203.478V530.047H207.286C208.398 530.047 209.28 530.336 209.931 530.915C210.588 531.494 210.916 532.259 210.916 533.212C210.916 534.187 210.595 534.946 209.952 535.488C209.314 536.031 208.418 536.302 207.265 536.302H205.208ZM205.208 534.914H207.286C207.901 534.914 208.371 534.771 208.694 534.483C209.018 534.192 209.179 533.772 209.179 533.226C209.179 532.688 209.015 532.259 208.687 531.94C208.359 531.617 207.908 531.451 207.334 531.441H205.208V534.914Z" fill="#00BCD4"/>
<g filter="url(#filter3_dd)">
<rect x="4" width="360" height="56" fill="#00BCD4"/>
<path d="M115.895 31.3379C115.895 30.7129 115.673 30.2311 115.23 29.8926C114.794 29.554 114.003 29.2122 112.857 28.8672C111.712 28.5221 110.8 28.138 110.123 27.7148C108.827 26.901 108.18 25.8398 108.18 24.5312C108.18 23.3854 108.645 22.4414 109.576 21.6992C110.514 20.957 111.728 20.5859 113.219 20.5859C114.208 20.5859 115.09 20.7682 115.865 21.1328C116.64 21.4974 117.249 22.0182 117.691 22.6953C118.134 23.3659 118.355 24.1113 118.355 24.9316H115.895C115.895 24.1895 115.66 23.61 115.191 23.1934C114.729 22.7702 114.065 22.5586 113.199 22.5586C112.392 22.5586 111.764 22.7311 111.314 23.0762C110.872 23.4212 110.65 23.903 110.65 24.5215C110.65 25.0423 110.891 25.4785 111.373 25.8301C111.855 26.1751 112.649 26.5137 113.756 26.8457C114.863 27.1712 115.751 27.5456 116.422 27.9688C117.092 28.3854 117.584 28.8672 117.896 29.4141C118.209 29.9544 118.365 30.5892 118.365 31.3184C118.365 32.5033 117.91 33.4473 116.998 34.1504C116.093 34.847 114.863 35.1953 113.307 35.1953C112.278 35.1953 111.331 35.0065 110.465 34.6289C109.605 34.2448 108.935 33.7174 108.453 33.0469C107.978 32.3763 107.74 31.5951 107.74 30.7031H110.211C110.211 31.5104 110.478 32.1354 111.012 32.5781C111.546 33.0208 112.311 33.2422 113.307 33.2422C114.166 33.2422 114.811 33.0697 115.24 32.7246C115.676 32.373 115.895 31.9108 115.895 31.3379ZM126.617 35C126.513 34.7982 126.422 34.4694 126.344 34.0137C125.589 34.8014 124.664 35.1953 123.57 35.1953C122.509 35.1953 121.643 34.8926 120.973 34.2871C120.302 33.6816 119.967 32.9329 119.967 32.041C119.967 30.9147 120.383 30.0521 121.217 29.4531C122.057 28.8477 123.255 28.5449 124.811 28.5449H126.266V27.8516C126.266 27.3047 126.113 26.8685 125.807 26.543C125.501 26.2109 125.035 26.0449 124.41 26.0449C123.87 26.0449 123.427 26.1816 123.082 26.4551C122.737 26.722 122.564 27.0638 122.564 27.4805H120.191C120.191 26.901 120.383 26.3607 120.768 25.8594C121.152 25.3516 121.673 24.9544 122.33 24.668C122.994 24.3815 123.733 24.2383 124.547 24.2383C125.784 24.2383 126.77 24.5508 127.506 25.1758C128.242 25.7943 128.619 26.6667 128.639 27.793V32.5586C128.639 33.5091 128.772 34.2676 129.039 34.834V35H126.617ZM124.01 33.291C124.479 33.291 124.918 33.1771 125.328 32.9492C125.745 32.7214 126.057 32.4154 126.266 32.0312V30.0391H124.986C124.107 30.0391 123.447 30.1921 123.004 30.498C122.561 30.804 122.34 31.237 122.34 31.7969C122.34 32.2526 122.49 32.6172 122.789 32.8906C123.095 33.1576 123.502 33.291 124.01 33.291ZM131.959 35V26.1914H130.348V24.4336H131.959V23.4668C131.959 22.2949 132.285 21.39 132.936 20.752C133.587 20.1139 134.498 19.7949 135.67 19.7949C136.087 19.7949 136.529 19.8535 136.998 19.9707L136.939 21.8262C136.679 21.7741 136.376 21.748 136.031 21.748C134.898 21.748 134.332 22.3307 134.332 23.4961V24.4336H136.48V26.1914H134.332V35H131.959ZM142.633 35.1953C141.129 35.1953 139.908 34.7233 138.971 33.7793C138.04 32.8288 137.574 31.5658 137.574 29.9902V29.6973C137.574 28.6426 137.776 27.7018 138.18 26.875C138.59 26.0417 139.163 25.3939 139.898 24.9316C140.634 24.4694 141.454 24.2383 142.359 24.2383C143.798 24.2383 144.908 24.6973 145.689 25.6152C146.477 26.5332 146.871 27.832 146.871 29.5117V30.4688H139.967C140.038 31.3411 140.328 32.0312 140.836 32.5391C141.35 33.0469 141.995 33.3008 142.77 33.3008C143.857 33.3008 144.742 32.8613 145.426 31.9824L146.705 33.2031C146.282 33.8346 145.715 34.3262 145.006 34.6777C144.303 35.0228 143.512 35.1953 142.633 35.1953ZM142.35 26.1426C141.699 26.1426 141.171 26.3704 140.768 26.8262C140.37 27.2819 140.117 27.9167 140.006 28.7305H144.527V28.5547C144.475 27.7604 144.264 27.1615 143.893 26.7578C143.521 26.3477 143.007 26.1426 142.35 26.1426ZM161.363 31.3379C161.363 30.7129 161.142 30.2311 160.699 29.8926C160.263 29.554 159.472 29.2122 158.326 28.8672C157.18 28.5221 156.269 28.138 155.592 27.7148C154.296 26.901 153.648 25.8398 153.648 24.5312C153.648 23.3854 154.114 22.4414 155.045 21.6992C155.982 20.957 157.197 20.5859 158.688 20.5859C159.677 20.5859 160.559 20.7682 161.334 21.1328C162.109 21.4974 162.717 22.0182 163.16 22.6953C163.603 23.3659 163.824 24.1113 163.824 24.9316H161.363C161.363 24.1895 161.129 23.61 160.66 23.1934C160.198 22.7702 159.534 22.5586 158.668 22.5586C157.861 22.5586 157.232 22.7311 156.783 23.0762C156.34 23.4212 156.119 23.903 156.119 24.5215C156.119 25.0423 156.36 25.4785 156.842 25.8301C157.324 26.1751 158.118 26.5137 159.225 26.8457C160.331 27.1712 161.22 27.5456 161.891 27.9688C162.561 28.3854 163.053 28.8672 163.365 29.4141C163.678 29.9544 163.834 30.5892 163.834 31.3184C163.834 32.5033 163.378 33.4473 162.467 34.1504C161.562 34.847 160.331 35.1953 158.775 35.1953C157.747 35.1953 156.799 35.0065 155.934 34.6289C155.074 34.2448 154.404 33.7174 153.922 33.0469C153.447 32.3763 153.209 31.5951 153.209 30.7031H155.68C155.68 31.5104 155.947 32.1354 156.48 32.5781C157.014 33.0208 157.779 33.2422 158.775 33.2422C159.635 33.2422 160.279 33.0697 160.709 32.7246C161.145 32.373 161.363 31.9108 161.363 31.3379ZM168.746 21.8652V24.4336H170.611V26.1914H168.746V32.0898C168.746 32.4935 168.824 32.7865 168.98 32.9688C169.143 33.1445 169.43 33.2324 169.84 33.2324C170.113 33.2324 170.39 33.1999 170.67 33.1348V34.9707C170.13 35.1204 169.609 35.1953 169.107 35.1953C167.285 35.1953 166.373 34.1895 166.373 32.1777V26.1914H164.635V24.4336H166.373V21.8652H168.746ZM177.965 26.6016C177.652 26.5495 177.33 26.5234 176.998 26.5234C175.911 26.5234 175.178 26.9401 174.801 27.7734V35H172.428V24.4336H174.693L174.752 25.6152C175.325 24.6973 176.119 24.2383 177.135 24.2383C177.473 24.2383 177.753 24.2839 177.975 24.375L177.965 26.6016ZM183.922 35.1953C182.418 35.1953 181.197 34.7233 180.26 33.7793C179.329 32.8288 178.863 31.5658 178.863 29.9902V29.6973C178.863 28.6426 179.065 27.7018 179.469 26.875C179.879 26.0417 180.452 25.3939 181.188 24.9316C181.923 24.4694 182.743 24.2383 183.648 24.2383C185.087 24.2383 186.197 24.6973 186.979 25.6152C187.766 26.5332 188.16 27.832 188.16 29.5117V30.4688H181.256C181.327 31.3411 181.617 32.0312 182.125 32.5391C182.639 33.0469 183.284 33.3008 184.059 33.3008C185.146 33.3008 186.031 32.8613 186.715 31.9824L187.994 33.2031C187.571 33.8346 187.005 34.3262 186.295 34.6777C185.592 35.0228 184.801 35.1953 183.922 35.1953ZM183.639 26.1426C182.988 26.1426 182.46 26.3704 182.057 26.8262C181.66 27.2819 181.406 27.9167 181.295 28.7305H185.816V28.5547C185.764 27.7604 185.553 27.1615 185.182 26.7578C184.811 26.3477 184.296 26.1426 183.639 26.1426ZM194.664 35.1953C193.16 35.1953 191.939 34.7233 191.002 33.7793C190.071 32.8288 189.605 31.5658 189.605 29.9902V29.6973C189.605 28.6426 189.807 27.7018 190.211 26.875C190.621 26.0417 191.194 25.3939 191.93 24.9316C192.665 24.4694 193.486 24.2383 194.391 24.2383C195.829 24.2383 196.939 24.6973 197.721 25.6152C198.508 26.5332 198.902 27.832 198.902 29.5117V30.4688H191.998C192.07 31.3411 192.359 32.0312 192.867 32.5391C193.382 33.0469 194.026 33.3008 194.801 33.3008C195.888 33.3008 196.773 32.8613 197.457 31.9824L198.736 33.2031C198.313 33.8346 197.747 34.3262 197.037 34.6777C196.334 35.0228 195.543 35.1953 194.664 35.1953ZM194.381 26.1426C193.73 26.1426 193.202 26.3704 192.799 26.8262C192.402 27.2819 192.148 27.9167 192.037 28.7305H196.559V28.5547C196.507 27.7604 196.295 27.1615 195.924 26.7578C195.553 26.3477 195.038 26.1426 194.381 26.1426ZM203.727 21.8652V24.4336H205.592V26.1914H203.727V32.0898C203.727 32.4935 203.805 32.7865 203.961 32.9688C204.124 33.1445 204.41 33.2324 204.82 33.2324C205.094 33.2324 205.37 33.1999 205.65 33.1348V34.9707C205.11 35.1204 204.589 35.1953 204.088 35.1953C202.265 35.1953 201.354 34.1895 201.354 32.1777V26.1914H199.615V24.4336H201.354V21.8652H203.727ZM215.094 33.0273H221.549V35H212.623V20.7812H215.094V33.0273ZM222.77 29.6191C222.77 28.584 222.975 27.653 223.385 26.8262C223.795 25.9928 224.371 25.3548 225.113 24.9121C225.855 24.4629 226.708 24.2383 227.672 24.2383C229.098 24.2383 230.253 24.6973 231.139 25.6152C232.031 26.5332 232.512 27.7507 232.584 29.2676L232.594 29.8242C232.594 30.8659 232.392 31.7969 231.988 32.6172C231.591 33.4375 231.018 34.0723 230.27 34.5215C229.527 34.9707 228.668 35.1953 227.691 35.1953C226.201 35.1953 225.006 34.7005 224.107 33.7109C223.215 32.7148 222.77 31.39 222.77 29.7363V29.6191ZM225.143 29.8242C225.143 30.9115 225.367 31.7643 225.816 32.3828C226.266 32.9948 226.891 33.3008 227.691 33.3008C228.492 33.3008 229.114 32.9883 229.557 32.3633C230.006 31.7383 230.23 30.8236 230.23 29.6191C230.23 28.5514 229.999 27.7051 229.537 27.0801C229.081 26.4551 228.46 26.1426 227.672 26.1426C226.897 26.1426 226.282 26.4518 225.826 27.0703C225.37 27.6823 225.143 28.6003 225.143 29.8242ZM234.186 29.6387C234.186 27.998 234.57 26.6895 235.338 25.7129C236.113 24.7298 237.138 24.2383 238.414 24.2383C239.618 24.2383 240.566 24.6582 241.256 25.498L241.363 24.4336H243.502V34.6777C243.502 36.0645 243.069 37.1582 242.203 37.959C241.344 38.7598 240.182 39.1602 238.717 39.1602C237.942 39.1602 237.184 38.9974 236.441 38.6719C235.706 38.3529 235.146 37.9329 234.762 37.4121L235.885 35.9863C236.614 36.8522 237.512 37.2852 238.58 37.2852C239.368 37.2852 239.99 37.0703 240.445 36.6406C240.901 36.2174 241.129 35.5924 241.129 34.7656V34.0527C240.445 34.8145 239.534 35.1953 238.395 35.1953C237.158 35.1953 236.145 34.7038 235.357 33.7207C234.576 32.7376 234.186 31.377 234.186 29.6387ZM236.549 29.8438C236.549 30.9049 236.764 31.7415 237.193 32.3535C237.63 32.959 238.232 33.2617 239 33.2617C239.957 33.2617 240.667 32.8516 241.129 32.0312V27.3828C240.68 26.582 239.977 26.1816 239.02 26.1816C238.238 26.1816 237.63 26.4909 237.193 27.1094C236.764 27.7279 236.549 28.6393 236.549 29.8438ZM248.473 35H246.1V24.4336H248.473V35ZM245.953 21.6895C245.953 21.3249 246.067 21.0221 246.295 20.7812C246.529 20.5404 246.861 20.4199 247.291 20.4199C247.721 20.4199 248.053 20.5404 248.287 20.7812C248.521 21.0221 248.639 21.3249 248.639 21.6895C248.639 22.0475 248.521 22.347 248.287 22.5879C248.053 22.8223 247.721 22.9395 247.291 22.9395C246.861 22.9395 246.529 22.8223 246.295 22.5879C246.067 22.347 245.953 22.0475 245.953 21.6895ZM253.268 24.4336L253.336 25.6543C254.117 24.7103 255.143 24.2383 256.412 24.2383C258.613 24.2383 259.732 25.498 259.771 28.0176V35H257.398V28.1543C257.398 27.4837 257.252 26.9889 256.959 26.6699C256.673 26.3444 256.201 26.1816 255.543 26.1816C254.586 26.1816 253.873 26.6146 253.404 27.4805V35H251.031V24.4336H253.268Z" fill="white"/>
</g>
</g>
<defs>
<filter id="filter0_d" x="0" y="0" width="368" height="648" filterUnits="userSpaceOnUse" color-interpolation-filters="sRGB">
<feFlood flood-opacity="0" result="BackgroundImageFix"/>
<feColorMatrix in="SourceAlpha" type="matrix" values="0 0 0 0 0 0 0 0 0 0 0 0 0 0 0 0 0 0 127 0"/>
<feOffset dy="4"/>
<feGaussianBlur stdDeviation="2"/>
<feColorMatrix type="matrix" values="0 0 0 0 0 0 0 0 0 0 0 0 0 0 0 0 0 0 0.25 0"/>
<feBlend mode="normal" in2="BackgroundImageFix" result="effect1_dropShadow"/>
<feBlend mode="normal" in="SourceGraphic" in2="effect1_dropShadow" result="shape"/>
</filter>
<filter id="filter1_d" x="215" y="357" width="38" height="18" filterUnits="userSpaceOnUse" color-interpolation-filters="sRGB">
<feFlood flood-opacity="0" result="BackgroundImageFix"/>
<feColorMatrix in="SourceAlpha" type="matrix" values="0 0 0 0 0 0 0 0 0 0 0 0 0 0 0 0 0 0 127 0"/>
<feOffset/>
<feGaussianBlur stdDeviation="1"/>
<feColorMatrix type="matrix" values="0 0 0 0 0 0 0 0 0 0 0 0 0 0 0 0 0 0 0.12 0"/>
<feBlend mode="normal" in2="BackgroundImageFix" result="effect1_dropShadow"/>
<feBlend mode="normal" in="SourceGraphic" in2="effect1_dropShadow" result="shape"/>
</filter>
<filter id="filter2_dd" x="232" y="354" width="24" height="26" filterUnits="userSpaceOnUse" color-interpolation-filters="sRGB">
<feFlood flood-opacity="0" result="BackgroundImageFix"/>
<feColorMatrix in="SourceAlpha" type="matrix" values="0 0 0 0 0 0 0 0 0 0 0 0 0 0 0 0 0 0 127 0"/>
<feOffset/>
<feGaussianBlur stdDeviation="1"/>
<feColorMatrix type="matrix" values="0 0 0 0 0 0 0 0 0 0 0 0 0 0 0 0 0 0 0.12 0"/>
<feBlend mode="normal" in2="BackgroundImageFix" result="effect1_dropShadow"/>
<feColorMatrix in="SourceAlpha" type="matrix" values="0 0 0 0 0 0 0 0 0 0 0 0 0 0 0 0 0 0 127 0"/>
<feOffset dy="2"/>
<feGaussianBlur stdDeviation="1"/>
<feColorMatrix type="matrix" values="0 0 0 0 0 0 0 0 0 0 0 0 0 0 0 0 0 0 0.24 0"/>
<feBlend mode="normal" in2="effect1_dropShadow" result="effect2_dropShadow"/>
<feBlend mode="normal" in="SourceGraphic" in2="effect2_dropShadow" result="shape"/>
</filter>
<filter id="filter3_dd" x="0" y="-4" width="368" height="68" filterUnits="userSpaceOnUse" color-interpolation-filters="sRGB">
<feFlood flood-opacity="0" result="BackgroundImageFix"/>
<feColorMatrix in="SourceAlpha" type="matrix" values="0 0 0 0 0 0 0 0 0 0 0 0 0 0 0 0 0 0 127 0"/>
<feOffset dy="4"/>
<feGaussianBlur stdDeviation="2"/>
<feColorMatrix type="matrix" values="0 0 0 0 0 0 0 0 0 0 0 0 0 0 0 0 0 0 0.24 0"/>
<feBlend mode="normal" in2="BackgroundImageFix" result="effect1_dropShadow"/>
<feColorMatrix in="SourceAlpha" type="matrix" values="0 0 0 0 0 0 0 0 0 0 0 0 0 0 0 0 0 0 127 0"/>
<feOffset/>
<feGaussianBlur stdDeviation="2"/>
<feColorMatrix type="matrix" values="0 0 0 0 0 0 0 0 0 0 0 0 0 0 0 0 0 0 0.12 0"/>
<feBlend mode="normal" in2="effect1_dropShadow" result="effect2_dropShadow"/>
<feBlend mode="normal" in="SourceGraphic" in2="effect2_dropShadow" result="shape"/>
</filter>
<clipPath id="clip0">
<rect width="360" height="640" fill="white" transform="translate(4)"/>
</clipPath>
<clipPath id="clip1">
<rect width="300" height="212" fill="white" transform="translate(34 164)"/>
</clipPath>
</defs>
</svg>
