<svg width="360" height="640" viewBox="0 0 360 640" fill="none" xmlns="http://www.w3.org/2000/svg">
<g clip-path="url(#clip0)">
<rect width="360" height="640" fill="white"/>
<g filter="url(#filter0_dd)">
<rect width="360" height="56" fill="#00BCD4"/>
<path d="M115 31.3379C115 30.7129 114.779 30.2311 114.336 29.8926C113.9 29.554 113.109 29.2122 111.963 28.8672C110.817 28.5221 109.906 28.138 109.229 27.7148C107.933 26.901 107.285 25.8398 107.285 24.5312C107.285 23.3854 107.751 22.4414 108.682 21.6992C109.619 20.957 110.833 20.5859 112.324 20.5859C113.314 20.5859 114.196 20.7682 114.971 21.1328C115.745 21.4974 116.354 22.0182 116.797 22.6953C117.24 23.3659 117.461 24.1113 117.461 24.9316H115C115 24.1895 114.766 23.61 114.297 23.1934C113.835 22.7702 113.171 22.5586 112.305 22.5586C111.497 22.5586 110.869 22.7311 110.42 23.0762C109.977 23.4212 109.756 23.903 109.756 24.5215C109.756 25.0423 109.997 25.4785 110.479 25.8301C110.96 26.1751 111.755 26.5137 112.861 26.8457C113.968 27.1712 114.857 27.5456 115.527 27.9688C116.198 28.3854 116.689 28.8672 117.002 29.4141C117.314 29.9544 117.471 30.5892 117.471 31.3184C117.471 32.5033 117.015 33.4473 116.104 34.1504C115.199 34.847 113.968 35.1953 112.412 35.1953C111.383 35.1953 110.436 35.0065 109.57 34.6289C108.711 34.2448 108.04 33.7174 107.559 33.0469C107.083 32.3763 106.846 31.5951 106.846 30.7031H109.316C109.316 31.5104 109.583 32.1354 110.117 32.5781C110.651 33.0208 111.416 33.2422 112.412 33.2422C113.271 33.2422 113.916 33.0697 114.346 32.7246C114.782 32.373 115 31.9108 115 31.3379ZM125.811 33.9648C125.114 34.7852 124.124 35.1953 122.842 35.1953C121.696 35.1953 120.827 34.86 120.234 34.1895C119.648 33.5189 119.355 32.5488 119.355 31.2793V24.4336H121.729V31.25C121.729 32.5911 122.285 33.2617 123.398 33.2617C124.551 33.2617 125.329 32.8483 125.732 32.0215V24.4336H128.105V35H125.869L125.811 33.9648ZM130.107 29.6387C130.107 27.998 130.492 26.6895 131.26 25.7129C132.035 24.7298 133.06 24.2383 134.336 24.2383C135.54 24.2383 136.488 24.6582 137.178 25.498L137.285 24.4336H139.424V34.6777C139.424 36.0645 138.991 37.1582 138.125 37.959C137.266 38.7598 136.104 39.1602 134.639 39.1602C133.864 39.1602 133.105 38.9974 132.363 38.6719C131.628 38.3529 131.068 37.9329 130.684 37.4121L131.807 35.9863C132.536 36.8522 133.434 37.2852 134.502 37.2852C135.29 37.2852 135.911 37.0703 136.367 36.6406C136.823 36.2174 137.051 35.5924 137.051 34.7656V34.0527C136.367 34.8145 135.456 35.1953 134.316 35.1953C133.079 35.1953 132.067 34.7038 131.279 33.7207C130.498 32.7376 130.107 31.377 130.107 29.6387ZM132.471 29.8438C132.471 30.9049 132.686 31.7415 133.115 32.3535C133.551 32.959 134.154 33.2617 134.922 33.2617C135.879 33.2617 136.589 32.8516 137.051 32.0312V27.3828C136.602 26.582 135.898 26.1816 134.941 26.1816C134.16 26.1816 133.551 26.4909 133.115 27.1094C132.686 27.7279 132.471 28.6393 132.471 29.8438ZM141.455 29.6387C141.455 27.998 141.839 26.6895 142.607 25.7129C143.382 24.7298 144.408 24.2383 145.684 24.2383C146.888 24.2383 147.835 24.6582 148.525 25.498L148.633 24.4336H150.771V34.6777C150.771 36.0645 150.339 37.1582 149.473 37.959C148.613 38.7598 147.451 39.1602 145.986 39.1602C145.212 39.1602 144.453 38.9974 143.711 38.6719C142.975 38.3529 142.415 37.9329 142.031 37.4121L143.154 35.9863C143.883 36.8522 144.782 37.2852 145.85 37.2852C146.637 37.2852 147.259 37.0703 147.715 36.6406C148.171 36.2174 148.398 35.5924 148.398 34.7656V34.0527C147.715 34.8145 146.803 35.1953 145.664 35.1953C144.427 35.1953 143.415 34.7038 142.627 33.7207C141.846 32.7376 141.455 31.377 141.455 29.6387ZM143.818 29.8438C143.818 30.9049 144.033 31.7415 144.463 32.3535C144.899 32.959 145.501 33.2617 146.27 33.2617C147.227 33.2617 147.936 32.8516 148.398 32.0312V27.3828C147.949 26.582 147.246 26.1816 146.289 26.1816C145.508 26.1816 144.899 26.4909 144.463 27.1094C144.033 27.7279 143.818 28.6393 143.818 29.8438ZM157.871 35.1953C156.367 35.1953 155.146 34.7233 154.209 33.7793C153.278 32.8288 152.812 31.5658 152.812 29.9902V29.6973C152.812 28.6426 153.014 27.7018 153.418 26.875C153.828 26.0417 154.401 25.3939 155.137 24.9316C155.872 24.4694 156.693 24.2383 157.598 24.2383C159.036 24.2383 160.146 24.6973 160.928 25.6152C161.715 26.5332 162.109 27.832 162.109 29.5117V30.4688H155.205C155.277 31.3411 155.566 32.0312 156.074 32.5391C156.589 33.0469 157.233 33.3008 158.008 33.3008C159.095 33.3008 159.98 32.8613 160.664 31.9824L161.943 33.2031C161.52 33.8346 160.954 34.3262 160.244 34.6777C159.541 35.0228 158.75 35.1953 157.871 35.1953ZM157.588 26.1426C156.937 26.1426 156.41 26.3704 156.006 26.8262C155.609 27.2819 155.355 27.9167 155.244 28.7305H159.766V28.5547C159.714 27.7604 159.502 27.1615 159.131 26.7578C158.76 26.3477 158.245 26.1426 157.588 26.1426ZM169.883 32.1289C169.883 31.7057 169.707 31.3835 169.355 31.1621C169.01 30.9408 168.434 30.7454 167.627 30.5762C166.82 30.4069 166.146 30.1921 165.605 29.9316C164.421 29.3587 163.828 28.5286 163.828 27.4414C163.828 26.5299 164.212 25.7682 164.98 25.1562C165.749 24.5443 166.725 24.2383 167.91 24.2383C169.173 24.2383 170.192 24.5508 170.967 25.1758C171.748 25.8008 172.139 26.6113 172.139 27.6074H169.766C169.766 27.1517 169.596 26.7741 169.258 26.4746C168.919 26.1686 168.47 26.0156 167.91 26.0156C167.389 26.0156 166.963 26.1361 166.631 26.377C166.305 26.6178 166.143 26.9401 166.143 27.3438C166.143 27.7083 166.296 27.9915 166.602 28.1934C166.908 28.3952 167.526 28.6003 168.457 28.8086C169.388 29.0104 170.117 29.2546 170.645 29.541C171.178 29.821 171.572 30.1595 171.826 30.5566C172.087 30.9538 172.217 31.4355 172.217 32.002C172.217 32.9525 171.823 33.724 171.035 34.3164C170.247 34.9023 169.215 35.1953 167.939 35.1953C167.074 35.1953 166.302 35.0391 165.625 34.7266C164.948 34.4141 164.421 33.9844 164.043 33.4375C163.665 32.8906 163.477 32.3014 163.477 31.6699H165.781C165.814 32.2298 166.025 32.6628 166.416 32.9688C166.807 33.2682 167.324 33.418 167.969 33.418C168.594 33.418 169.069 33.3008 169.395 33.0664C169.72 32.8255 169.883 32.513 169.883 32.1289ZM177.266 21.8652V24.4336H179.131V26.1914H177.266V32.0898C177.266 32.4935 177.344 32.7865 177.5 32.9688C177.663 33.1445 177.949 33.2324 178.359 33.2324C178.633 33.2324 178.91 33.1999 179.189 33.1348V34.9707C178.649 35.1204 178.128 35.1953 177.627 35.1953C175.804 35.1953 174.893 34.1895 174.893 32.1777V26.1914H173.154V24.4336H174.893V21.8652H177.266ZM183.477 35H181.104V24.4336H183.477V35ZM180.957 21.6895C180.957 21.3249 181.071 21.0221 181.299 20.7812C181.533 20.5404 181.865 20.4199 182.295 20.4199C182.725 20.4199 183.057 20.5404 183.291 20.7812C183.525 21.0221 183.643 21.3249 183.643 21.6895C183.643 22.0475 183.525 22.347 183.291 22.5879C183.057 22.8223 182.725 22.9395 182.295 22.9395C181.865 22.9395 181.533 22.8223 181.299 22.5879C181.071 22.347 180.957 22.0475 180.957 21.6895ZM185.625 29.6191C185.625 28.584 185.83 27.653 186.24 26.8262C186.65 25.9928 187.227 25.3548 187.969 24.9121C188.711 24.4629 189.564 24.2383 190.527 24.2383C191.953 24.2383 193.109 24.6973 193.994 25.6152C194.886 26.5332 195.368 27.7507 195.439 29.2676L195.449 29.8242C195.449 30.8659 195.247 31.7969 194.844 32.6172C194.447 33.4375 193.874 34.0723 193.125 34.5215C192.383 34.9707 191.523 35.1953 190.547 35.1953C189.056 35.1953 187.861 34.7005 186.963 33.7109C186.071 32.7148 185.625 31.39 185.625 29.7363V29.6191ZM187.998 29.8242C187.998 30.9115 188.223 31.7643 188.672 32.3828C189.121 32.9948 189.746 33.3008 190.547 33.3008C191.348 33.3008 191.969 32.9883 192.412 32.3633C192.861 31.7383 193.086 30.8236 193.086 29.6191C193.086 28.5514 192.855 27.7051 192.393 27.0801C191.937 26.4551 191.315 26.1426 190.527 26.1426C189.753 26.1426 189.137 26.4518 188.682 27.0703C188.226 27.6823 187.998 28.6003 187.998 29.8242ZM199.658 24.4336L199.727 25.6543C200.508 24.7103 201.533 24.2383 202.803 24.2383C205.003 24.2383 206.123 25.498 206.162 28.0176V35H203.789V28.1543C203.789 27.4837 203.643 26.9889 203.35 26.6699C203.063 26.3444 202.591 26.1816 201.934 26.1816C200.977 26.1816 200.264 26.6146 199.795 27.4805V35H197.422V24.4336H199.658ZM213.799 35V20.7812H217.998C219.255 20.7812 220.368 21.0612 221.338 21.6211C222.314 22.181 223.07 22.9753 223.604 24.0039C224.137 25.0326 224.404 26.2109 224.404 27.5391V28.252C224.404 29.5996 224.134 30.7845 223.594 31.8066C223.06 32.8288 222.295 33.6165 221.299 34.1699C220.309 34.7233 219.173 35 217.891 35H213.799ZM216.27 22.7734V33.0273H217.881C219.176 33.0273 220.169 32.6237 220.859 31.8164C221.556 31.0026 221.911 29.8372 221.924 28.3203V27.5293C221.924 25.9863 221.589 24.8079 220.918 23.9941C220.247 23.1803 219.274 22.7734 217.998 22.7734H216.27ZM231.289 35.1953C229.785 35.1953 228.564 34.7233 227.627 33.7793C226.696 32.8288 226.23 31.5658 226.23 29.9902V29.6973C226.23 28.6426 226.432 27.7018 226.836 26.875C227.246 26.0417 227.819 25.3939 228.555 24.9316C229.29 24.4694 230.111 24.2383 231.016 24.2383C232.454 24.2383 233.564 24.6973 234.346 25.6152C235.133 26.5332 235.527 27.832 235.527 29.5117V30.4688H228.623C228.695 31.3411 228.984 32.0312 229.492 32.5391C230.007 33.0469 230.651 33.3008 231.426 33.3008C232.513 33.3008 233.398 32.8613 234.082 31.9824L235.361 33.2031C234.938 33.8346 234.372 34.3262 233.662 34.6777C232.959 35.0228 232.168 35.1953 231.289 35.1953ZM231.006 26.1426C230.355 26.1426 229.827 26.3704 229.424 26.8262C229.027 27.2819 228.773 27.9167 228.662 28.7305H233.184V28.5547C233.132 27.7604 232.92 27.1615 232.549 26.7578C232.178 26.3477 231.663 26.1426 231.006 26.1426ZM240.352 21.8652V24.4336H242.217V26.1914H240.352V32.0898C240.352 32.4935 240.43 32.7865 240.586 32.9688C240.749 33.1445 241.035 33.2324 241.445 33.2324C241.719 33.2324 241.995 33.1999 242.275 33.1348V34.9707C241.735 35.1204 241.214 35.1953 240.713 35.1953C238.89 35.1953 237.979 34.1895 237.979 32.1777V26.1914H236.24V24.4336H237.979V21.8652H240.352ZM250.352 35C250.247 34.7982 250.156 34.4694 250.078 34.0137C249.323 34.8014 248.398 35.1953 247.305 35.1953C246.243 35.1953 245.378 34.8926 244.707 34.2871C244.036 33.6816 243.701 32.9329 243.701 32.041C243.701 30.9147 244.118 30.0521 244.951 29.4531C245.791 28.8477 246.989 28.5449 248.545 28.5449H250V27.8516C250 27.3047 249.847 26.8685 249.541 26.543C249.235 26.2109 248.77 26.0449 248.145 26.0449C247.604 26.0449 247.161 26.1816 246.816 26.4551C246.471 26.722 246.299 27.0638 246.299 27.4805H243.926C243.926 26.901 244.118 26.3607 244.502 25.8594C244.886 25.3516 245.407 24.9544 246.064 24.668C246.729 24.3815 247.467 24.2383 248.281 24.2383C249.518 24.2383 250.505 24.5508 251.24 25.1758C251.976 25.7943 252.354 26.6667 252.373 27.793V32.5586C252.373 33.5091 252.507 34.2676 252.773 34.834V35H250.352ZM247.744 33.291C248.213 33.291 248.652 33.1771 249.062 32.9492C249.479 32.7214 249.792 32.4154 250 32.0312V30.0391H248.721C247.842 30.0391 247.181 30.1921 246.738 30.498C246.296 30.804 246.074 31.237 246.074 31.7969C246.074 32.2526 246.224 32.6172 246.523 32.8906C246.829 33.1576 247.236 33.291 247.744 33.291ZM257.383 35H255.01V24.4336H257.383V35ZM254.863 21.6895C254.863 21.3249 254.977 21.0221 255.205 20.7812C255.439 20.5404 255.771 20.4199 256.201 20.4199C256.631 20.4199 256.963 20.5404 257.197 20.7812C257.432 21.0221 257.549 21.3249 257.549 21.6895C257.549 22.0475 257.432 22.347 257.197 22.5879C256.963 22.8223 256.631 22.9395 256.201 22.9395C255.771 22.9395 255.439 22.8223 255.205 22.5879C254.977 22.347 254.863 22.0475 254.863 21.6895ZM262.5 35H260.127V20H262.5V35Z" fill="white"/>
<path fill-rule="evenodd" clip-rule="evenodd" d="M35.4 23.4L34 22L28 28L34 34L35.4 32.6L30.8 28L35.4 23.4Z" fill="white"/>
</g>
<path d="M29.5273 117V102.781H33.7266C34.9831 102.781 36.0964 103.061 37.0664 103.621C38.043 104.181 38.7982 104.975 39.332 106.004C39.8659 107.033 40.1328 108.211 40.1328 109.539V110.252C40.1328 111.6 39.8626 112.785 39.3223 113.807C38.7884 114.829 38.0234 115.617 37.0273 116.17C36.0378 116.723 34.9017 117 33.6191 117H29.5273ZM31.998 104.773V115.027H33.6094C34.9049 115.027 35.8978 114.624 36.5879 113.816C37.2845 113.003 37.6393 111.837 37.6523 110.32V109.529C37.6523 107.986 37.3171 106.808 36.6465 105.994C35.9759 105.18 35.0026 104.773 33.7266 104.773H31.998ZM47.0176 117.195C45.5137 117.195 44.293 116.723 43.3555 115.779C42.4245 114.829 41.959 113.566 41.959 111.99V111.697C41.959 110.643 42.1608 109.702 42.5645 108.875C42.9746 108.042 43.5475 107.394 44.2832 106.932C45.0189 106.469 45.8392 106.238 46.7441 106.238C48.1829 106.238 49.293 106.697 50.0742 107.615C50.862 108.533 51.2559 109.832 51.2559 111.512V112.469H44.3516C44.4232 113.341 44.7129 114.031 45.2207 114.539C45.735 115.047 46.3796 115.301 47.1543 115.301C48.2415 115.301 49.127 114.861 49.8105 113.982L51.0898 115.203C50.6667 115.835 50.1003 116.326 49.3906 116.678C48.6875 117.023 47.8965 117.195 47.0176 117.195ZM46.7344 108.143C46.0833 108.143 45.556 108.37 45.1523 108.826C44.7552 109.282 44.5013 109.917 44.3906 110.73H48.9121V110.555C48.86 109.76 48.6484 109.161 48.2773 108.758C47.9062 108.348 47.3919 108.143 46.7344 108.143ZM56.0801 103.865V106.434H57.9453V108.191H56.0801V114.09C56.0801 114.493 56.1582 114.786 56.3145 114.969C56.4772 115.145 56.7637 115.232 57.1738 115.232C57.4473 115.232 57.724 115.2 58.0039 115.135V116.971C57.4635 117.12 56.9427 117.195 56.4414 117.195C54.6185 117.195 53.707 116.189 53.707 114.178V108.191H51.9688V106.434H53.707V103.865H56.0801ZM66.0801 117C65.9759 116.798 65.8848 116.469 65.8066 116.014C65.0514 116.801 64.127 117.195 63.0332 117.195C61.972 117.195 61.1061 116.893 60.4355 116.287C59.765 115.682 59.4297 114.933 59.4297 114.041C59.4297 112.915 59.8464 112.052 60.6797 111.453C61.5195 110.848 62.7174 110.545 64.2734 110.545H65.7285V109.852C65.7285 109.305 65.5755 108.868 65.2695 108.543C64.9635 108.211 64.498 108.045 63.873 108.045C63.3327 108.045 62.89 108.182 62.5449 108.455C62.1999 108.722 62.0273 109.064 62.0273 109.48H59.6543C59.6543 108.901 59.8464 108.361 60.2305 107.859C60.6146 107.352 61.1354 106.954 61.793 106.668C62.457 106.382 63.196 106.238 64.0098 106.238C65.2467 106.238 66.2331 106.551 66.9688 107.176C67.7044 107.794 68.082 108.667 68.1016 109.793V114.559C68.1016 115.509 68.235 116.268 68.502 116.834V117H66.0801ZM63.4727 115.291C63.9414 115.291 64.3809 115.177 64.791 114.949C65.2077 114.721 65.5202 114.415 65.7285 114.031V112.039H64.4492C63.5703 112.039 62.9095 112.192 62.4668 112.498C62.0241 112.804 61.8027 113.237 61.8027 113.797C61.8027 114.253 61.9525 114.617 62.252 114.891C62.5579 115.158 62.9648 115.291 63.4727 115.291ZM73.1113 117H70.7383V106.434H73.1113V117ZM70.5918 103.689C70.5918 103.325 70.7057 103.022 70.9336 102.781C71.168 102.54 71.5 102.42 71.9297 102.42C72.3594 102.42 72.6914 102.54 72.9258 102.781C73.1602 103.022 73.2773 103.325 73.2773 103.689C73.2773 104.048 73.1602 104.347 72.9258 104.588C72.6914 104.822 72.3594 104.939 71.9297 104.939C71.5 104.939 71.168 104.822 70.9336 104.588C70.7057 104.347 70.5918 104.048 70.5918 103.689ZM78.2285 117H75.8555V102H78.2285V117ZM82.252 114.5C82.6947 114.5 83.0365 114.627 83.2773 114.881C83.5182 115.128 83.6387 115.441 83.6387 115.818C83.6387 116.189 83.5182 116.499 83.2773 116.746C83.0365 116.987 82.6947 117.107 82.252 117.107C81.8288 117.107 81.4935 116.987 81.2461 116.746C80.9987 116.505 80.875 116.196 80.875 115.818C80.875 115.441 80.9954 115.128 81.2363 114.881C81.4772 114.627 81.8158 114.5 82.252 114.5ZM82.252 106.209C82.6947 106.209 83.0365 106.336 83.2773 106.59C83.5182 106.837 83.6387 107.15 83.6387 107.527C83.6387 107.898 83.5182 108.208 83.2773 108.455C83.0365 108.696 82.6947 108.816 82.252 108.816C81.8288 108.816 81.4935 108.696 81.2461 108.455C80.9987 108.214 80.875 107.905 80.875 107.527C80.875 107.15 80.9954 106.837 81.2363 106.59C81.4772 106.336 81.8158 106.209 82.252 106.209Z" fill="black"/>
<rect x="28" y="141" width="300" height="166" fill="#C4C4C4" fill-opacity="0.4"/>
<path d="M53.4043 170.689H47.8965L46.7441 174H44.1758L49.5469 159.781H51.7637L57.1445 174H54.5664L53.4043 170.689ZM48.5898 168.697H52.7109L50.6504 162.799L48.5898 168.697ZM58.0918 168.639C58.0918 167.011 58.4694 165.706 59.2246 164.723C59.9798 163.733 60.9922 163.238 62.2617 163.238C63.3815 163.238 64.2865 163.629 64.9766 164.41V159H67.3496V174H65.2012L65.084 172.906C64.3743 173.766 63.4271 174.195 62.2422 174.195C61.0052 174.195 60.0026 173.697 59.2344 172.701C58.4727 171.705 58.0918 170.351 58.0918 168.639ZM60.4648 168.844C60.4648 169.918 60.6699 170.758 61.0801 171.363C61.4967 171.962 62.0859 172.262 62.8477 172.262C63.8177 172.262 64.5273 171.829 64.9766 170.963V166.451C64.5404 165.605 63.8372 165.182 62.8672 165.182C62.099 165.182 61.5065 165.488 61.0898 166.1C60.6732 166.705 60.4648 167.62 60.4648 168.844ZM69.3809 168.639C69.3809 167.011 69.7585 165.706 70.5137 164.723C71.2689 163.733 72.2812 163.238 73.5508 163.238C74.6706 163.238 75.5755 163.629 76.2656 164.41V159H78.6387V174H76.4902L76.373 172.906C75.6634 173.766 74.7161 174.195 73.5312 174.195C72.2943 174.195 71.2917 173.697 70.5234 172.701C69.7617 171.705 69.3809 170.351 69.3809 168.639ZM71.7539 168.844C71.7539 169.918 71.959 170.758 72.3691 171.363C72.7858 171.962 73.375 172.262 74.1367 172.262C75.1068 172.262 75.8164 171.829 76.2656 170.963V166.451C75.8294 165.605 75.1263 165.182 74.1562 165.182C73.388 165.182 72.7956 165.488 72.3789 166.1C71.9622 166.705 71.7539 167.62 71.7539 168.844ZM92.4082 174C92.304 173.798 92.2129 173.469 92.1348 173.014C91.3796 173.801 90.4551 174.195 89.3613 174.195C88.3001 174.195 87.4342 173.893 86.7637 173.287C86.0931 172.682 85.7578 171.933 85.7578 171.041C85.7578 169.915 86.1745 169.052 87.0078 168.453C87.8477 167.848 89.0456 167.545 90.6016 167.545H92.0566V166.852C92.0566 166.305 91.9036 165.868 91.5977 165.543C91.2917 165.211 90.8262 165.045 90.2012 165.045C89.6608 165.045 89.2181 165.182 88.873 165.455C88.528 165.722 88.3555 166.064 88.3555 166.48H85.9824C85.9824 165.901 86.1745 165.361 86.5586 164.859C86.9427 164.352 87.4635 163.954 88.1211 163.668C88.7852 163.382 89.5241 163.238 90.3379 163.238C91.5749 163.238 92.5612 163.551 93.2969 164.176C94.0326 164.794 94.4102 165.667 94.4297 166.793V171.559C94.4297 172.509 94.5632 173.268 94.8301 173.834V174H92.4082ZM89.8008 172.291C90.2695 172.291 90.709 172.177 91.1191 171.949C91.5358 171.721 91.8483 171.415 92.0566 171.031V169.039H90.7773C89.8984 169.039 89.2376 169.192 88.7949 169.498C88.3522 169.804 88.1309 170.237 88.1309 170.797C88.1309 171.253 88.2806 171.617 88.5801 171.891C88.8861 172.158 89.293 172.291 89.8008 172.291ZM111.168 168.824C111.168 170.465 110.8 171.77 110.064 172.74C109.335 173.71 108.329 174.195 107.047 174.195C105.81 174.195 104.846 173.749 104.156 172.857L104.039 174H101.891V159H104.264V164.449C104.947 163.642 105.868 163.238 107.027 163.238C108.316 163.238 109.329 163.717 110.064 164.674C110.8 165.631 111.168 166.969 111.168 168.688V168.824ZM108.795 168.619C108.795 167.473 108.593 166.614 108.189 166.041C107.786 165.468 107.2 165.182 106.432 165.182C105.403 165.182 104.68 165.631 104.264 166.529V170.885C104.687 171.803 105.416 172.262 106.451 172.262C107.193 172.262 107.766 171.985 108.17 171.432C108.574 170.878 108.782 170.042 108.795 168.922V168.619ZM115.689 174H113.316V163.434H115.689V174ZM113.17 160.689C113.17 160.325 113.284 160.022 113.512 159.781C113.746 159.54 114.078 159.42 114.508 159.42C114.938 159.42 115.27 159.54 115.504 159.781C115.738 160.022 115.855 160.325 115.855 160.689C115.855 161.048 115.738 161.347 115.504 161.588C115.27 161.822 114.938 161.939 114.508 161.939C114.078 161.939 113.746 161.822 113.512 161.588C113.284 161.347 113.17 161.048 113.17 160.689ZM121.715 169.469L120.66 170.553V174H118.287V159H120.66V167.652L121.402 166.725L124.322 163.434H127.174L123.248 167.838L127.594 174H124.85L121.715 169.469ZM133.189 174.195C131.686 174.195 130.465 173.723 129.527 172.779C128.596 171.829 128.131 170.566 128.131 168.99V168.697C128.131 167.643 128.333 166.702 128.736 165.875C129.146 165.042 129.719 164.394 130.455 163.932C131.191 163.469 132.011 163.238 132.916 163.238C134.355 163.238 135.465 163.697 136.246 164.615C137.034 165.533 137.428 166.832 137.428 168.512V169.469H130.523C130.595 170.341 130.885 171.031 131.393 171.539C131.907 172.047 132.551 172.301 133.326 172.301C134.413 172.301 135.299 171.861 135.982 170.982L137.262 172.203C136.839 172.835 136.272 173.326 135.562 173.678C134.859 174.023 134.068 174.195 133.189 174.195ZM132.906 165.143C132.255 165.143 131.728 165.37 131.324 165.826C130.927 166.282 130.673 166.917 130.562 167.73H135.084V167.555C135.032 166.76 134.82 166.161 134.449 165.758C134.078 165.348 133.564 165.143 132.906 165.143ZM153.512 168.824C153.512 170.458 153.141 171.764 152.398 172.74C151.656 173.71 150.66 174.195 149.41 174.195C148.251 174.195 147.324 173.814 146.627 173.053V178.062H144.254V163.434H146.441L146.539 164.508C147.236 163.661 148.183 163.238 149.381 163.238C150.67 163.238 151.679 163.72 152.408 164.684C153.144 165.641 153.512 166.972 153.512 168.678V168.824ZM151.148 168.619C151.148 167.564 150.937 166.728 150.514 166.109C150.097 165.491 149.498 165.182 148.717 165.182C147.747 165.182 147.05 165.582 146.627 166.383V171.07C147.057 171.891 147.76 172.301 148.736 172.301C149.492 172.301 150.081 171.998 150.504 171.393C150.934 170.781 151.148 169.856 151.148 168.619ZM161.842 174C161.738 173.798 161.646 173.469 161.568 173.014C160.813 173.801 159.889 174.195 158.795 174.195C157.734 174.195 156.868 173.893 156.197 173.287C155.527 172.682 155.191 171.933 155.191 171.041C155.191 169.915 155.608 169.052 156.441 168.453C157.281 167.848 158.479 167.545 160.035 167.545H161.49V166.852C161.49 166.305 161.337 165.868 161.031 165.543C160.725 165.211 160.26 165.045 159.635 165.045C159.094 165.045 158.652 165.182 158.307 165.455C157.962 165.722 157.789 166.064 157.789 166.48H155.416C155.416 165.901 155.608 165.361 155.992 164.859C156.376 164.352 156.897 163.954 157.555 163.668C158.219 163.382 158.958 163.238 159.771 163.238C161.008 163.238 161.995 163.551 162.73 164.176C163.466 164.794 163.844 165.667 163.863 166.793V171.559C163.863 172.509 163.997 173.268 164.264 173.834V174H161.842ZM159.234 172.291C159.703 172.291 160.143 172.177 160.553 171.949C160.969 171.721 161.282 171.415 161.49 171.031V169.039H160.211C159.332 169.039 158.671 169.192 158.229 169.498C157.786 169.804 157.564 170.237 157.564 170.797C157.564 171.253 157.714 171.617 158.014 171.891C158.32 172.158 158.727 172.291 159.234 172.291ZM169.322 160.865V163.434H171.188V165.191H169.322V171.09C169.322 171.493 169.4 171.786 169.557 171.969C169.719 172.145 170.006 172.232 170.416 172.232C170.689 172.232 170.966 172.2 171.246 172.135V173.971C170.706 174.12 170.185 174.195 169.684 174.195C167.861 174.195 166.949 173.189 166.949 171.178V165.191H165.211V163.434H166.949V160.865H169.322ZM175.348 164.586C176.122 163.688 177.102 163.238 178.287 163.238C180.54 163.238 181.682 164.524 181.715 167.096V174H179.342V167.184C179.342 166.454 179.182 165.94 178.863 165.641C178.551 165.335 178.089 165.182 177.477 165.182C176.526 165.182 175.816 165.605 175.348 166.451V174H172.975V159H175.348V164.586Z" fill="black"/>
<path d="M33.8711 341V326.781H38.7441C40.3522 326.781 41.5762 327.104 42.416 327.748C43.2559 328.393 43.6758 329.353 43.6758 330.629C43.6758 331.28 43.5 331.866 43.1484 332.387C42.7969 332.908 42.2826 333.311 41.6055 333.598C42.3737 333.806 42.9661 334.2 43.3828 334.779C43.806 335.352 44.0176 336.042 44.0176 336.85C44.0176 338.184 43.5879 339.21 42.7285 339.926C41.8757 340.642 40.6517 341 39.0566 341H33.8711ZM36.3418 334.584V339.027H39.0859C39.8607 339.027 40.4661 338.835 40.9023 338.451C41.3385 338.067 41.5566 337.533 41.5566 336.85C41.5566 335.372 40.8014 334.617 39.291 334.584H36.3418ZM36.3418 332.768H38.7637C39.5319 332.768 40.1309 332.595 40.5605 332.25C40.9967 331.898 41.2148 331.404 41.2148 330.766C41.2148 330.062 41.013 329.555 40.6094 329.242C40.2122 328.93 39.5905 328.773 38.7441 328.773H36.3418V332.768ZM50.9121 341.195C49.4082 341.195 48.1875 340.723 47.25 339.779C46.319 338.829 45.8535 337.566 45.8535 335.99V335.697C45.8535 334.643 46.0553 333.702 46.459 332.875C46.8691 332.042 47.4421 331.394 48.1777 330.932C48.9134 330.469 49.7337 330.238 50.6387 330.238C52.0775 330.238 53.1875 330.697 53.9688 331.615C54.7565 332.533 55.1504 333.832 55.1504 335.512V336.469H48.2461C48.3177 337.341 48.6074 338.031 49.1152 338.539C49.6296 339.047 50.2741 339.301 51.0488 339.301C52.1361 339.301 53.0215 338.861 53.7051 337.982L54.9844 339.203C54.5612 339.835 53.9948 340.326 53.2852 340.678C52.582 341.023 51.791 341.195 50.9121 341.195ZM50.6289 332.143C49.9779 332.143 49.4505 332.37 49.0469 332.826C48.6497 333.282 48.3958 333.917 48.2852 334.73H52.8066V334.555C52.7546 333.76 52.543 333.161 52.1719 332.758C51.8008 332.348 51.2865 332.143 50.6289 332.143ZM61.3418 339.301C61.9342 339.301 62.4258 339.128 62.8164 338.783C63.207 338.438 63.4154 338.012 63.4414 337.504H65.6777C65.6517 338.161 65.4466 338.777 65.0625 339.35C64.6784 339.916 64.1576 340.365 63.5 340.697C62.8424 341.029 62.1328 341.195 61.3711 341.195C59.8932 341.195 58.7214 340.717 57.8555 339.76C56.9896 338.803 56.5566 337.481 56.5566 335.795V335.551C56.5566 333.943 56.9863 332.657 57.8457 331.693C58.7051 330.723 59.877 330.238 61.3613 330.238C62.6178 330.238 63.64 330.606 64.4277 331.342C65.222 332.071 65.6387 333.031 65.6777 334.223H63.4414C63.4154 333.617 63.207 333.119 62.8164 332.729C62.4323 332.338 61.9408 332.143 61.3418 332.143C60.5736 332.143 59.9811 332.423 59.5645 332.982C59.1478 333.536 58.9362 334.379 58.9297 335.512V335.893C58.9297 337.038 59.1348 337.895 59.5449 338.461C59.9616 339.021 60.5605 339.301 61.3418 339.301ZM73.7832 341C73.679 340.798 73.5879 340.469 73.5098 340.014C72.7546 340.801 71.8301 341.195 70.7363 341.195C69.6751 341.195 68.8092 340.893 68.1387 340.287C67.4681 339.682 67.1328 338.933 67.1328 338.041C67.1328 336.915 67.5495 336.052 68.3828 335.453C69.2227 334.848 70.4206 334.545 71.9766 334.545H73.4316V333.852C73.4316 333.305 73.2786 332.868 72.9727 332.543C72.6667 332.211 72.2012 332.045 71.5762 332.045C71.0358 332.045 70.5931 332.182 70.248 332.455C69.903 332.722 69.7305 333.064 69.7305 333.48H67.3574C67.3574 332.901 67.5495 332.361 67.9336 331.859C68.3177 331.352 68.8385 330.954 69.4961 330.668C70.1602 330.382 70.8991 330.238 71.7129 330.238C72.9499 330.238 73.9362 330.551 74.6719 331.176C75.4076 331.794 75.7852 332.667 75.8047 333.793V338.559C75.8047 339.509 75.9382 340.268 76.2051 340.834V341H73.7832ZM71.1758 339.291C71.6445 339.291 72.084 339.177 72.4941 338.949C72.9108 338.721 73.2233 338.415 73.4316 338.031V336.039H72.1523C71.2734 336.039 70.6126 336.192 70.1699 336.498C69.7272 336.804 69.5059 337.237 69.5059 337.797C69.5059 338.253 69.6556 338.617 69.9551 338.891C70.2611 339.158 70.668 339.291 71.1758 339.291ZM84.6914 339.965C83.9948 340.785 83.0052 341.195 81.7227 341.195C80.5768 341.195 79.7077 340.86 79.1152 340.189C78.5293 339.519 78.2363 338.549 78.2363 337.279V330.434H80.6094V337.25C80.6094 338.591 81.166 339.262 82.2793 339.262C83.4316 339.262 84.2096 338.848 84.6133 338.021V330.434H86.9863V341H84.75L84.6914 339.965ZM95.3262 338.129C95.3262 337.706 95.1504 337.383 94.7988 337.162C94.4538 336.941 93.8776 336.745 93.0703 336.576C92.263 336.407 91.5892 336.192 91.0488 335.932C89.8639 335.359 89.2715 334.529 89.2715 333.441C89.2715 332.53 89.6556 331.768 90.4238 331.156C91.1921 330.544 92.1686 330.238 93.3535 330.238C94.6165 330.238 95.6354 330.551 96.4102 331.176C97.1914 331.801 97.582 332.611 97.582 333.607H95.209C95.209 333.152 95.0397 332.774 94.7012 332.475C94.3626 332.169 93.9134 332.016 93.3535 332.016C92.8327 332.016 92.4062 332.136 92.0742 332.377C91.7487 332.618 91.5859 332.94 91.5859 333.344C91.5859 333.708 91.7389 333.992 92.0449 334.193C92.3509 334.395 92.9694 334.6 93.9004 334.809C94.8314 335.01 95.5605 335.255 96.0879 335.541C96.6217 335.821 97.0156 336.16 97.2695 336.557C97.5299 336.954 97.6602 337.436 97.6602 338.002C97.6602 338.952 97.2663 339.724 96.4785 340.316C95.6908 340.902 94.6589 341.195 93.3828 341.195C92.5169 341.195 91.7454 341.039 91.0684 340.727C90.3913 340.414 89.8639 339.984 89.4863 339.438C89.1087 338.891 88.9199 338.301 88.9199 337.67H91.2246C91.2572 338.23 91.4688 338.663 91.8594 338.969C92.25 339.268 92.7676 339.418 93.4121 339.418C94.0371 339.418 94.5124 339.301 94.8379 339.066C95.1634 338.826 95.3262 338.513 95.3262 338.129ZM104.389 341.195C102.885 341.195 101.664 340.723 100.727 339.779C99.7956 338.829 99.3301 337.566 99.3301 335.99V335.697C99.3301 334.643 99.5319 333.702 99.9355 332.875C100.346 332.042 100.919 331.394 101.654 330.932C102.39 330.469 103.21 330.238 104.115 330.238C105.554 330.238 106.664 330.697 107.445 331.615C108.233 332.533 108.627 333.832 108.627 335.512V336.469H101.723C101.794 337.341 102.084 338.031 102.592 338.539C103.106 339.047 103.751 339.301 104.525 339.301C105.613 339.301 106.498 338.861 107.182 337.982L108.461 339.203C108.038 339.835 107.471 340.326 106.762 340.678C106.059 341.023 105.268 341.195 104.389 341.195ZM104.105 332.143C103.454 332.143 102.927 332.37 102.523 332.826C102.126 333.282 101.872 333.917 101.762 334.73H106.283V334.555C106.231 333.76 106.02 333.161 105.648 332.758C105.277 332.348 104.763 332.143 104.105 332.143ZM111.908 338.5C112.351 338.5 112.693 338.627 112.934 338.881C113.174 339.128 113.295 339.441 113.295 339.818C113.295 340.189 113.174 340.499 112.934 340.746C112.693 340.987 112.351 341.107 111.908 341.107C111.485 341.107 111.15 340.987 110.902 340.746C110.655 340.505 110.531 340.196 110.531 339.818C110.531 339.441 110.652 339.128 110.893 338.881C111.133 338.627 111.472 338.5 111.908 338.5ZM111.908 330.209C112.351 330.209 112.693 330.336 112.934 330.59C113.174 330.837 113.295 331.15 113.295 331.527C113.295 331.898 113.174 332.208 112.934 332.455C112.693 332.696 112.351 332.816 111.908 332.816C111.485 332.816 111.15 332.696 110.902 332.455C110.655 332.214 110.531 331.905 110.531 331.527C110.531 331.15 110.652 330.837 110.893 330.59C111.133 330.336 111.472 330.209 111.908 330.209Z" fill="black"/>
<rect x="32" y="362" width="300" height="166" fill="#C4C4C4" fill-opacity="0.4"/>
<path d="M55.4902 395H53.127V383.584L49.6406 384.775V382.773L55.1875 380.732H55.4902V395ZM69.6992 389.014C69.6992 391.058 69.3151 392.601 68.5469 393.643C67.7852 394.678 66.623 395.195 65.0605 395.195C63.5241 395.195 62.3652 394.691 61.584 393.682C60.8092 392.666 60.4121 391.165 60.3926 389.18V386.719C60.3926 384.674 60.7734 383.141 61.5352 382.119C62.3034 381.097 63.472 380.586 65.041 380.586C66.597 380.586 67.7559 381.084 68.5176 382.08C69.2858 383.076 69.6797 384.567 69.6992 386.553V389.014ZM67.3262 386.357C67.3262 385.023 67.1439 384.046 66.7793 383.428C66.4147 382.803 65.8353 382.49 65.041 382.49C64.2663 382.49 63.6966 382.786 63.332 383.379C62.9674 383.965 62.7754 384.883 62.7559 386.133V389.355C62.7559 390.684 62.9414 391.673 63.3125 392.324C63.6836 392.975 64.2663 393.301 65.0605 393.301C65.8223 393.301 66.3854 393.001 66.75 392.402C67.1146 391.797 67.3066 390.853 67.3262 389.57V386.357ZM81.0664 389.014C81.0664 391.058 80.6823 392.601 79.9141 393.643C79.1523 394.678 77.9902 395.195 76.4277 395.195C74.8913 395.195 73.7324 394.691 72.9512 393.682C72.1764 392.666 71.7793 391.165 71.7598 389.18V386.719C71.7598 384.674 72.1406 383.141 72.9023 382.119C73.6706 381.097 74.8392 380.586 76.4082 380.586C77.9642 380.586 79.123 381.084 79.8848 382.08C80.653 383.076 81.0469 384.567 81.0664 386.553V389.014ZM78.6934 386.357C78.6934 385.023 78.5111 384.046 78.1465 383.428C77.7819 382.803 77.2025 382.49 76.4082 382.49C75.6335 382.49 75.0638 382.786 74.6992 383.379C74.3346 383.965 74.1426 384.883 74.123 386.133V389.355C74.123 390.684 74.3086 391.673 74.6797 392.324C75.0508 392.975 75.6335 393.301 76.4277 393.301C77.1895 393.301 77.7526 393.001 78.1172 392.402C78.4818 391.797 78.6738 390.853 78.6934 389.57V386.357ZM93.8301 386.602C93.5176 386.549 93.1953 386.523 92.8633 386.523C91.776 386.523 91.0436 386.94 90.666 387.773V395H88.293V384.434H90.5586L90.6172 385.615C91.1901 384.697 91.9844 384.238 93 384.238C93.3385 384.238 93.6185 384.284 93.8398 384.375L93.8301 386.602ZM99.7871 395.195C98.2832 395.195 97.0625 394.723 96.125 393.779C95.194 392.829 94.7285 391.566 94.7285 389.99V389.697C94.7285 388.643 94.9303 387.702 95.334 386.875C95.7441 386.042 96.3171 385.394 97.0527 384.932C97.7884 384.469 98.6087 384.238 99.5137 384.238C100.952 384.238 102.062 384.697 102.844 385.615C103.632 386.533 104.025 387.832 104.025 389.512V390.469H97.1211C97.1927 391.341 97.4824 392.031 97.9902 392.539C98.5046 393.047 99.1491 393.301 99.9238 393.301C101.011 393.301 101.896 392.861 102.58 391.982L103.859 393.203C103.436 393.835 102.87 394.326 102.16 394.678C101.457 395.023 100.666 395.195 99.7871 395.195ZM99.5039 386.143C98.8529 386.143 98.3255 386.37 97.9219 386.826C97.5247 387.282 97.2708 387.917 97.1602 388.73H101.682V388.555C101.63 387.76 101.418 387.161 101.047 386.758C100.676 386.348 100.161 386.143 99.5039 386.143ZM115.129 389.824C115.129 391.458 114.758 392.764 114.016 393.74C113.273 394.71 112.277 395.195 111.027 395.195C109.868 395.195 108.941 394.814 108.244 394.053V399.062H105.871V384.434H108.059L108.156 385.508C108.853 384.661 109.8 384.238 110.998 384.238C112.287 384.238 113.296 384.72 114.025 385.684C114.761 386.641 115.129 387.972 115.129 389.678V389.824ZM112.766 389.619C112.766 388.564 112.554 387.728 112.131 387.109C111.714 386.491 111.115 386.182 110.334 386.182C109.364 386.182 108.667 386.582 108.244 387.383V392.07C108.674 392.891 109.377 393.301 110.354 393.301C111.109 393.301 111.698 392.998 112.121 392.393C112.551 391.781 112.766 390.856 112.766 389.619ZM116.701 389.619C116.701 388.584 116.906 387.653 117.316 386.826C117.727 385.993 118.303 385.355 119.045 384.912C119.787 384.463 120.64 384.238 121.604 384.238C123.029 384.238 124.185 384.697 125.07 385.615C125.962 386.533 126.444 387.751 126.516 389.268L126.525 389.824C126.525 390.866 126.324 391.797 125.92 392.617C125.523 393.438 124.95 394.072 124.201 394.521C123.459 394.971 122.6 395.195 121.623 395.195C120.132 395.195 118.938 394.701 118.039 393.711C117.147 392.715 116.701 391.39 116.701 389.736V389.619ZM119.074 389.824C119.074 390.911 119.299 391.764 119.748 392.383C120.197 392.995 120.822 393.301 121.623 393.301C122.424 393.301 123.046 392.988 123.488 392.363C123.938 391.738 124.162 390.824 124.162 389.619C124.162 388.551 123.931 387.705 123.469 387.08C123.013 386.455 122.391 386.143 121.604 386.143C120.829 386.143 120.214 386.452 119.758 387.07C119.302 387.682 119.074 388.6 119.074 389.824ZM134.064 386.602C133.752 386.549 133.43 386.523 133.098 386.523C132.01 386.523 131.278 386.94 130.9 387.773V395H128.527V384.434H130.793L130.852 385.615C131.424 384.697 132.219 384.238 133.234 384.238C133.573 384.238 133.853 384.284 134.074 384.375L134.064 386.602ZM139.025 381.865V384.434H140.891V386.191H139.025V392.09C139.025 392.493 139.104 392.786 139.26 392.969C139.423 393.145 139.709 393.232 140.119 393.232C140.393 393.232 140.669 393.2 140.949 393.135V394.971C140.409 395.12 139.888 395.195 139.387 395.195C137.564 395.195 136.652 394.189 136.652 392.178V386.191H134.914V384.434H136.652V381.865H139.025ZM154.006 395C153.902 394.798 153.811 394.469 153.732 394.014C152.977 394.801 152.053 395.195 150.959 395.195C149.898 395.195 149.032 394.893 148.361 394.287C147.691 393.682 147.355 392.933 147.355 392.041C147.355 390.915 147.772 390.052 148.605 389.453C149.445 388.848 150.643 388.545 152.199 388.545H153.654V387.852C153.654 387.305 153.501 386.868 153.195 386.543C152.889 386.211 152.424 386.045 151.799 386.045C151.258 386.045 150.816 386.182 150.471 386.455C150.126 386.722 149.953 387.064 149.953 387.48H147.58C147.58 386.901 147.772 386.361 148.156 385.859C148.54 385.352 149.061 384.954 149.719 384.668C150.383 384.382 151.122 384.238 151.936 384.238C153.173 384.238 154.159 384.551 154.895 385.176C155.63 385.794 156.008 386.667 156.027 387.793V392.559C156.027 393.509 156.161 394.268 156.428 394.834V395H154.006ZM151.398 393.291C151.867 393.291 152.307 393.177 152.717 392.949C153.133 392.721 153.446 392.415 153.654 392.031V390.039H152.375C151.496 390.039 150.835 390.192 150.393 390.498C149.95 390.804 149.729 391.237 149.729 391.797C149.729 392.253 149.878 392.617 150.178 392.891C150.484 393.158 150.891 393.291 151.398 393.291ZM162.854 393.301C163.446 393.301 163.938 393.128 164.328 392.783C164.719 392.438 164.927 392.012 164.953 391.504H167.189C167.163 392.161 166.958 392.777 166.574 393.35C166.19 393.916 165.669 394.365 165.012 394.697C164.354 395.029 163.645 395.195 162.883 395.195C161.405 395.195 160.233 394.717 159.367 393.76C158.501 392.803 158.068 391.481 158.068 389.795V389.551C158.068 387.943 158.498 386.657 159.357 385.693C160.217 384.723 161.389 384.238 162.873 384.238C164.13 384.238 165.152 384.606 165.939 385.342C166.734 386.071 167.15 387.031 167.189 388.223H164.953C164.927 387.617 164.719 387.119 164.328 386.729C163.944 386.338 163.452 386.143 162.854 386.143C162.085 386.143 161.493 386.423 161.076 386.982C160.66 387.536 160.448 388.379 160.441 389.512V389.893C160.441 391.038 160.646 391.895 161.057 392.461C161.473 393.021 162.072 393.301 162.854 393.301ZM173.322 393.301C173.915 393.301 174.406 393.128 174.797 392.783C175.188 392.438 175.396 392.012 175.422 391.504H177.658C177.632 392.161 177.427 392.777 177.043 393.35C176.659 393.916 176.138 394.365 175.48 394.697C174.823 395.029 174.113 395.195 173.352 395.195C171.874 395.195 170.702 394.717 169.836 393.76C168.97 392.803 168.537 391.481 168.537 389.795V389.551C168.537 387.943 168.967 386.657 169.826 385.693C170.686 384.723 171.857 384.238 173.342 384.238C174.598 384.238 175.62 384.606 176.408 385.342C177.202 386.071 177.619 387.031 177.658 388.223H175.422C175.396 387.617 175.188 387.119 174.797 386.729C174.413 386.338 173.921 386.143 173.322 386.143C172.554 386.143 171.962 386.423 171.545 386.982C171.128 387.536 170.917 388.379 170.91 389.512V389.893C170.91 391.038 171.115 391.895 171.525 392.461C171.942 393.021 172.541 393.301 173.322 393.301ZM181.975 395H179.602V384.434H181.975V395ZM179.455 381.689C179.455 381.325 179.569 381.022 179.797 380.781C180.031 380.54 180.363 380.42 180.793 380.42C181.223 380.42 181.555 380.54 181.789 380.781C182.023 381.022 182.141 381.325 182.141 381.689C182.141 382.048 182.023 382.347 181.789 382.588C181.555 382.822 181.223 382.939 180.793 382.939C180.363 382.939 180.031 382.822 179.797 382.588C179.569 382.347 179.455 382.048 179.455 381.689ZM184.123 389.639C184.123 388.011 184.501 386.706 185.256 385.723C186.011 384.733 187.023 384.238 188.293 384.238C189.413 384.238 190.318 384.629 191.008 385.41V380H193.381V395H191.232L191.115 393.906C190.406 394.766 189.458 395.195 188.273 395.195C187.036 395.195 186.034 394.697 185.266 393.701C184.504 392.705 184.123 391.351 184.123 389.639ZM186.496 389.844C186.496 390.918 186.701 391.758 187.111 392.363C187.528 392.962 188.117 393.262 188.879 393.262C189.849 393.262 190.559 392.829 191.008 391.963V387.451C190.572 386.605 189.868 386.182 188.898 386.182C188.13 386.182 187.538 386.488 187.121 387.1C186.704 387.705 186.496 388.62 186.496 389.844ZM200.51 395.195C199.006 395.195 197.785 394.723 196.848 393.779C195.917 392.829 195.451 391.566 195.451 389.99V389.697C195.451 388.643 195.653 387.702 196.057 386.875C196.467 386.042 197.04 385.394 197.775 384.932C198.511 384.469 199.331 384.238 200.236 384.238C201.675 384.238 202.785 384.697 203.566 385.615C204.354 386.533 204.748 387.832 204.748 389.512V390.469H197.844C197.915 391.341 198.205 392.031 198.713 392.539C199.227 393.047 199.872 393.301 200.646 393.301C201.734 393.301 202.619 392.861 203.303 391.982L204.582 393.203C204.159 393.835 203.592 394.326 202.883 394.678C202.18 395.023 201.389 395.195 200.51 395.195ZM200.227 386.143C199.576 386.143 199.048 386.37 198.645 386.826C198.247 387.282 197.993 387.917 197.883 388.73H202.404V388.555C202.352 387.76 202.141 387.161 201.77 386.758C201.398 386.348 200.884 386.143 200.227 386.143ZM208.801 384.434L208.869 385.654C209.65 384.71 210.676 384.238 211.945 384.238C214.146 384.238 215.266 385.498 215.305 388.018V395H212.932V388.154C212.932 387.484 212.785 386.989 212.492 386.67C212.206 386.344 211.734 386.182 211.076 386.182C210.119 386.182 209.406 386.615 208.938 387.48V395H206.564V384.434H208.801ZM220.705 381.865V384.434H222.57V386.191H220.705V392.09C220.705 392.493 220.783 392.786 220.939 392.969C221.102 393.145 221.389 393.232 221.799 393.232C222.072 393.232 222.349 393.2 222.629 393.135V394.971C222.089 395.12 221.568 395.195 221.066 395.195C219.243 395.195 218.332 394.189 218.332 392.178V386.191H216.594V384.434H218.332V381.865H220.705ZM231.896 395H229.523V384.434H231.896V395ZM229.377 381.689C229.377 381.325 229.491 381.022 229.719 380.781C229.953 380.54 230.285 380.42 230.715 380.42C231.145 380.42 231.477 380.54 231.711 380.781C231.945 381.022 232.062 381.325 232.062 381.689C232.062 382.048 231.945 382.347 231.711 382.588C231.477 382.822 231.145 382.939 230.715 382.939C230.285 382.939 229.953 382.822 229.719 382.588C229.491 382.347 229.377 382.048 229.377 381.689ZM236.691 384.434L236.76 385.654C237.541 384.71 238.566 384.238 239.836 384.238C242.036 384.238 243.156 385.498 243.195 388.018V395H240.822V388.154C240.822 387.484 240.676 386.989 240.383 386.67C240.096 386.344 239.624 386.182 238.967 386.182C238.01 386.182 237.297 386.615 236.828 387.48V395H234.455V384.434H236.691ZM249.348 391.992L251.584 384.434H254.035L250.373 395H248.312L244.621 384.434H247.082L249.348 391.992ZM254.924 389.619C254.924 388.584 255.129 387.653 255.539 386.826C255.949 385.993 256.525 385.355 257.268 384.912C258.01 384.463 258.863 384.238 259.826 384.238C261.252 384.238 262.408 384.697 263.293 385.615C264.185 386.533 264.667 387.751 264.738 389.268L264.748 389.824C264.748 390.866 264.546 391.797 264.143 392.617C263.745 393.438 263.173 394.072 262.424 394.521C261.682 394.971 260.822 395.195 259.846 395.195C258.355 395.195 257.16 394.701 256.262 393.711C255.37 392.715 254.924 391.39 254.924 389.736V389.619ZM257.297 389.824C257.297 390.911 257.521 391.764 257.971 392.383C258.42 392.995 259.045 393.301 259.846 393.301C260.646 393.301 261.268 392.988 261.711 392.363C262.16 391.738 262.385 390.824 262.385 389.619C262.385 388.551 262.154 387.705 261.691 387.08C261.236 386.455 260.614 386.143 259.826 386.143C259.051 386.143 258.436 386.452 257.98 387.07C257.525 387.682 257.297 388.6 257.297 389.824ZM269.279 395H266.906V380H269.279V395ZM275.598 391.992L277.834 384.434H280.285L276.623 395H274.562L270.871 384.434H273.332L275.598 391.992ZM284.299 395H281.926V384.434H284.299V395ZM281.779 381.689C281.779 381.325 281.893 381.022 282.121 380.781C282.355 380.54 282.688 380.42 283.117 380.42C283.547 380.42 283.879 380.54 284.113 380.781C284.348 381.022 284.465 381.325 284.465 381.689C284.465 382.048 284.348 382.347 284.113 382.588C283.879 382.822 283.547 382.939 283.117 382.939C282.688 382.939 282.355 382.822 282.121 382.588C281.893 382.347 281.779 382.048 281.779 381.689ZM289.094 384.434L289.162 385.654C289.943 384.71 290.969 384.238 292.238 384.238C294.439 384.238 295.559 385.498 295.598 388.018V395H293.225V388.154C293.225 387.484 293.078 386.989 292.785 386.67C292.499 386.344 292.027 386.182 291.369 386.182C290.412 386.182 289.699 386.615 289.23 387.48V395H286.857V384.434H289.094ZM297.609 389.639C297.609 387.998 297.993 386.689 298.762 385.713C299.536 384.73 300.562 384.238 301.838 384.238C303.042 384.238 303.99 384.658 304.68 385.498L304.787 384.434H306.926V394.678C306.926 396.064 306.493 397.158 305.627 397.959C304.768 398.76 303.605 399.16 302.141 399.16C301.366 399.16 300.607 398.997 299.865 398.672C299.13 398.353 298.57 397.933 298.186 397.412L299.309 395.986C300.038 396.852 300.936 397.285 302.004 397.285C302.792 397.285 303.413 397.07 303.869 396.641C304.325 396.217 304.553 395.592 304.553 394.766V394.053C303.869 394.814 302.958 395.195 301.818 395.195C300.581 395.195 299.569 394.704 298.781 393.721C298 392.738 297.609 391.377 297.609 389.639ZM299.973 389.844C299.973 390.905 300.188 391.742 300.617 392.354C301.053 392.959 301.656 393.262 302.424 393.262C303.381 393.262 304.09 392.852 304.553 392.031V387.383C304.104 386.582 303.4 386.182 302.443 386.182C301.662 386.182 301.053 386.491 300.617 387.109C300.188 387.728 299.973 388.639 299.973 389.844ZM58.4883 412.824C58.4883 414.465 58.1204 415.77 57.3848 416.74C56.6556 417.71 55.6497 418.195 54.3672 418.195C53.1302 418.195 52.1667 417.749 51.4766 416.857L51.3594 418H49.2109V403H51.584V408.449C52.2676 407.642 53.1888 407.238 54.3477 407.238C55.6367 407.238 56.6491 407.717 57.3848 408.674C58.1204 409.631 58.4883 410.969 58.4883 412.688V412.824ZM56.1152 412.619C56.1152 411.473 55.9134 410.614 55.5098 410.041C55.1061 409.468 54.5202 409.182 53.752 409.182C52.7233 409.182 52.0007 409.631 51.584 410.529V414.885C52.0072 415.803 52.7363 416.262 53.7715 416.262C54.5137 416.262 55.0866 415.985 55.4902 415.432C55.8939 414.878 56.1022 414.042 56.1152 412.922V412.619ZM63.0098 418H60.6367V407.434H63.0098V418ZM60.4902 404.689C60.4902 404.325 60.6042 404.022 60.832 403.781C61.0664 403.54 61.3984 403.42 61.8281 403.42C62.2578 403.42 62.5898 403.54 62.8242 403.781C63.0586 404.022 63.1758 404.325 63.1758 404.689C63.1758 405.048 63.0586 405.347 62.8242 405.588C62.5898 405.822 62.2578 405.939 61.8281 405.939C61.3984 405.939 61.0664 405.822 60.832 405.588C60.6042 405.347 60.4902 405.048 60.4902 404.689ZM69.0352 413.469L67.9805 414.553V418H65.6074V403H67.9805V411.652L68.7227 410.725L71.6426 407.434H74.4941L70.5684 411.838L74.9141 418H72.1699L69.0352 413.469ZM80.5098 418.195C79.0059 418.195 77.7852 417.723 76.8477 416.779C75.9167 415.829 75.4512 414.566 75.4512 412.99V412.697C75.4512 411.643 75.653 410.702 76.0566 409.875C76.4668 409.042 77.0397 408.394 77.7754 407.932C78.5111 407.469 79.3314 407.238 80.2363 407.238C81.6751 407.238 82.7852 407.697 83.5664 408.615C84.3542 409.533 84.748 410.832 84.748 412.512V413.469H77.8438C77.9154 414.341 78.2051 415.031 78.7129 415.539C79.2272 416.047 79.8717 416.301 80.6465 416.301C81.7337 416.301 82.6191 415.861 83.3027 414.982L84.582 416.203C84.1589 416.835 83.5924 417.326 82.8828 417.678C82.1797 418.023 81.3887 418.195 80.5098 418.195ZM80.2266 409.143C79.5755 409.143 79.0482 409.37 78.6445 409.826C78.2474 410.282 77.9935 410.917 77.8828 411.73H82.4043V411.555C82.3522 410.76 82.1406 410.161 81.7695 409.758C81.3984 409.348 80.8841 409.143 80.2266 409.143ZM92.5215 415.129C92.5215 414.706 92.3457 414.383 91.9941 414.162C91.6491 413.941 91.0729 413.745 90.2656 413.576C89.4583 413.407 88.7845 413.192 88.2441 412.932C87.0592 412.359 86.4668 411.529 86.4668 410.441C86.4668 409.53 86.8509 408.768 87.6191 408.156C88.3874 407.544 89.3639 407.238 90.5488 407.238C91.8118 407.238 92.8307 407.551 93.6055 408.176C94.3867 408.801 94.7773 409.611 94.7773 410.607H92.4043C92.4043 410.152 92.235 409.774 91.8965 409.475C91.5579 409.169 91.1087 409.016 90.5488 409.016C90.028 409.016 89.6016 409.136 89.2695 409.377C88.944 409.618 88.7812 409.94 88.7812 410.344C88.7812 410.708 88.9342 410.992 89.2402 411.193C89.5462 411.395 90.1647 411.6 91.0957 411.809C92.0267 412.01 92.7559 412.255 93.2832 412.541C93.8171 412.821 94.2109 413.16 94.4648 413.557C94.7253 413.954 94.8555 414.436 94.8555 415.002C94.8555 415.952 94.4616 416.724 93.6738 417.316C92.8861 417.902 91.8542 418.195 90.5781 418.195C89.7122 418.195 88.9408 418.039 88.2637 417.727C87.5866 417.414 87.0592 416.984 86.6816 416.438C86.304 415.891 86.1152 415.301 86.1152 414.67H88.4199C88.4525 415.23 88.6641 415.663 89.0547 415.969C89.4453 416.268 89.9629 416.418 90.6074 416.418C91.2324 416.418 91.7077 416.301 92.0332 416.066C92.3587 415.826 92.5215 415.513 92.5215 415.129ZM108.225 418C108.12 417.798 108.029 417.469 107.951 417.014C107.196 417.801 106.271 418.195 105.178 418.195C104.117 418.195 103.251 417.893 102.58 417.287C101.91 416.682 101.574 415.933 101.574 415.041C101.574 413.915 101.991 413.052 102.824 412.453C103.664 411.848 104.862 411.545 106.418 411.545H107.873V410.852C107.873 410.305 107.72 409.868 107.414 409.543C107.108 409.211 106.643 409.045 106.018 409.045C105.477 409.045 105.035 409.182 104.689 409.455C104.344 409.722 104.172 410.064 104.172 410.48H101.799C101.799 409.901 101.991 409.361 102.375 408.859C102.759 408.352 103.28 407.954 103.938 407.668C104.602 407.382 105.34 407.238 106.154 407.238C107.391 407.238 108.378 407.551 109.113 408.176C109.849 408.794 110.227 409.667 110.246 410.793V415.559C110.246 416.509 110.38 417.268 110.646 417.834V418H108.225ZM105.617 416.291C106.086 416.291 106.525 416.177 106.936 415.949C107.352 415.721 107.665 415.415 107.873 415.031V413.039H106.594C105.715 413.039 105.054 413.192 104.611 413.498C104.169 413.804 103.947 414.237 103.947 414.797C103.947 415.253 104.097 415.617 104.396 415.891C104.702 416.158 105.109 416.291 105.617 416.291ZM114.934 407.434L115.002 408.654C115.783 407.71 116.809 407.238 118.078 407.238C120.279 407.238 121.398 408.498 121.438 411.018V418H119.064V411.154C119.064 410.484 118.918 409.989 118.625 409.67C118.339 409.344 117.867 409.182 117.209 409.182C116.252 409.182 115.539 409.615 115.07 410.48V418H112.697V407.434H114.934ZM123.42 412.639C123.42 411.011 123.798 409.706 124.553 408.723C125.308 407.733 126.32 407.238 127.59 407.238C128.71 407.238 129.615 407.629 130.305 408.41V403H132.678V418H130.529L130.412 416.906C129.702 417.766 128.755 418.195 127.57 418.195C126.333 418.195 125.331 417.697 124.562 416.701C123.801 415.705 123.42 414.351 123.42 412.639ZM125.793 412.844C125.793 413.918 125.998 414.758 126.408 415.363C126.825 415.962 127.414 416.262 128.176 416.262C129.146 416.262 129.855 415.829 130.305 414.963V410.451C129.868 409.605 129.165 409.182 128.195 409.182C127.427 409.182 126.835 409.488 126.418 410.1C126.001 410.705 125.793 411.62 125.793 412.844ZM144.475 416.301C145.067 416.301 145.559 416.128 145.949 415.783C146.34 415.438 146.548 415.012 146.574 414.504H148.811C148.785 415.161 148.579 415.777 148.195 416.35C147.811 416.916 147.29 417.365 146.633 417.697C145.975 418.029 145.266 418.195 144.504 418.195C143.026 418.195 141.854 417.717 140.988 416.76C140.122 415.803 139.689 414.481 139.689 412.795V412.551C139.689 410.943 140.119 409.657 140.979 408.693C141.838 407.723 143.01 407.238 144.494 407.238C145.751 407.238 146.773 407.606 147.561 408.342C148.355 409.071 148.771 410.031 148.811 411.223H146.574C146.548 410.617 146.34 410.119 145.949 409.729C145.565 409.338 145.074 409.143 144.475 409.143C143.706 409.143 143.114 409.423 142.697 409.982C142.281 410.536 142.069 411.379 142.062 412.512V412.893C142.062 414.038 142.268 414.895 142.678 415.461C143.094 416.021 143.693 416.301 144.475 416.301ZM156.916 418C156.812 417.798 156.721 417.469 156.643 417.014C155.887 417.801 154.963 418.195 153.869 418.195C152.808 418.195 151.942 417.893 151.271 417.287C150.601 416.682 150.266 415.933 150.266 415.041C150.266 413.915 150.682 413.052 151.516 412.453C152.355 411.848 153.553 411.545 155.109 411.545H156.564V410.852C156.564 410.305 156.411 409.868 156.105 409.543C155.799 409.211 155.334 409.045 154.709 409.045C154.169 409.045 153.726 409.182 153.381 409.455C153.036 409.722 152.863 410.064 152.863 410.48H150.49C150.49 409.901 150.682 409.361 151.066 408.859C151.451 408.352 151.971 407.954 152.629 407.668C153.293 407.382 154.032 407.238 154.846 407.238C156.083 407.238 157.069 407.551 157.805 408.176C158.54 408.794 158.918 409.667 158.938 410.793V415.559C158.938 416.509 159.071 417.268 159.338 417.834V418H156.916ZM154.309 416.291C154.777 416.291 155.217 416.177 155.627 415.949C156.044 415.721 156.356 415.415 156.564 415.031V413.039H155.285C154.406 413.039 153.745 413.192 153.303 413.498C152.86 413.804 152.639 414.237 152.639 414.797C152.639 415.253 152.788 415.617 153.088 415.891C153.394 416.158 153.801 416.291 154.309 416.291ZM166.955 409.602C166.643 409.549 166.32 409.523 165.988 409.523C164.901 409.523 164.169 409.94 163.791 410.773V418H161.418V407.434H163.684L163.742 408.615C164.315 407.697 165.109 407.238 166.125 407.238C166.464 407.238 166.743 407.284 166.965 407.375L166.955 409.602ZM174.377 415.129C174.377 414.706 174.201 414.383 173.85 414.162C173.505 413.941 172.928 413.745 172.121 413.576C171.314 413.407 170.64 413.192 170.1 412.932C168.915 412.359 168.322 411.529 168.322 410.441C168.322 409.53 168.706 408.768 169.475 408.156C170.243 407.544 171.219 407.238 172.404 407.238C173.667 407.238 174.686 407.551 175.461 408.176C176.242 408.801 176.633 409.611 176.633 410.607H174.26C174.26 410.152 174.09 409.774 173.752 409.475C173.413 409.169 172.964 409.016 172.404 409.016C171.883 409.016 171.457 409.136 171.125 409.377C170.799 409.618 170.637 409.94 170.637 410.344C170.637 410.708 170.79 410.992 171.096 411.193C171.402 411.395 172.02 411.6 172.951 411.809C173.882 412.01 174.611 412.255 175.139 412.541C175.673 412.821 176.066 413.16 176.32 413.557C176.581 413.954 176.711 414.436 176.711 415.002C176.711 415.952 176.317 416.724 175.529 417.316C174.742 417.902 173.71 418.195 172.434 418.195C171.568 418.195 170.796 418.039 170.119 417.727C169.442 417.414 168.915 416.984 168.537 416.438C168.16 415.891 167.971 415.301 167.971 414.67H170.275C170.308 415.23 170.52 415.663 170.91 415.969C171.301 416.268 171.818 416.418 172.463 416.418C173.088 416.418 173.563 416.301 173.889 416.066C174.214 415.826 174.377 415.513 174.377 415.129ZM188.42 418.195C186.916 418.195 185.695 417.723 184.758 416.779C183.827 415.829 183.361 414.566 183.361 412.99V412.697C183.361 411.643 183.563 410.702 183.967 409.875C184.377 409.042 184.95 408.394 185.686 407.932C186.421 407.469 187.242 407.238 188.146 407.238C189.585 407.238 190.695 407.697 191.477 408.615C192.264 409.533 192.658 410.832 192.658 412.512V413.469H185.754C185.826 414.341 186.115 415.031 186.623 415.539C187.137 416.047 187.782 416.301 188.557 416.301C189.644 416.301 190.529 415.861 191.213 414.982L192.492 416.203C192.069 416.835 191.503 417.326 190.793 417.678C190.09 418.023 189.299 418.195 188.42 418.195ZM188.137 409.143C187.486 409.143 186.958 409.37 186.555 409.826C186.158 410.282 185.904 410.917 185.793 411.73H190.314V411.555C190.262 410.76 190.051 410.161 189.68 409.758C189.309 409.348 188.794 409.143 188.137 409.143ZM200.822 418C200.718 417.798 200.627 417.469 200.549 417.014C199.794 417.801 198.869 418.195 197.775 418.195C196.714 418.195 195.848 417.893 195.178 417.287C194.507 416.682 194.172 415.933 194.172 415.041C194.172 413.915 194.589 413.052 195.422 412.453C196.262 411.848 197.46 411.545 199.016 411.545H200.471V410.852C200.471 410.305 200.318 409.868 200.012 409.543C199.706 409.211 199.24 409.045 198.615 409.045C198.075 409.045 197.632 409.182 197.287 409.455C196.942 409.722 196.77 410.064 196.77 410.48H194.396C194.396 409.901 194.589 409.361 194.973 408.859C195.357 408.352 195.878 407.954 196.535 407.668C197.199 407.382 197.938 407.238 198.752 407.238C199.989 407.238 200.975 407.551 201.711 408.176C202.447 408.794 202.824 409.667 202.844 410.793V415.559C202.844 416.509 202.977 417.268 203.244 417.834V418H200.822ZM198.215 416.291C198.684 416.291 199.123 416.177 199.533 415.949C199.95 415.721 200.262 415.415 200.471 415.031V413.039H199.191C198.312 413.039 197.652 413.192 197.209 413.498C196.766 413.804 196.545 414.237 196.545 414.797C196.545 415.253 196.695 415.617 196.994 415.891C197.3 416.158 197.707 416.291 198.215 416.291ZM209.67 416.301C210.262 416.301 210.754 416.128 211.145 415.783C211.535 415.438 211.743 415.012 211.77 414.504H214.006C213.98 415.161 213.775 415.777 213.391 416.35C213.007 416.916 212.486 417.365 211.828 417.697C211.171 418.029 210.461 418.195 209.699 418.195C208.221 418.195 207.049 417.717 206.184 416.76C205.318 415.803 204.885 414.481 204.885 412.795V412.551C204.885 410.943 205.314 409.657 206.174 408.693C207.033 407.723 208.205 407.238 209.689 407.238C210.946 407.238 211.968 407.606 212.756 408.342C213.55 409.071 213.967 410.031 214.006 411.223H211.77C211.743 410.617 211.535 410.119 211.145 409.729C210.76 409.338 210.269 409.143 209.67 409.143C208.902 409.143 208.309 409.423 207.893 409.982C207.476 410.536 207.264 411.379 207.258 412.512V412.893C207.258 414.038 207.463 414.895 207.873 415.461C208.29 416.021 208.889 416.301 209.67 416.301ZM218.137 408.586C218.911 407.688 219.891 407.238 221.076 407.238C223.329 407.238 224.471 408.524 224.504 411.096V418H222.131V411.184C222.131 410.454 221.971 409.94 221.652 409.641C221.34 409.335 220.878 409.182 220.266 409.182C219.315 409.182 218.605 409.605 218.137 410.451V418H215.764V403H218.137V408.586ZM234.123 407.434L234.191 408.537C234.934 407.671 235.949 407.238 237.238 407.238C238.651 407.238 239.618 407.779 240.139 408.859C240.907 407.779 241.988 407.238 243.381 407.238C244.546 407.238 245.412 407.561 245.979 408.205C246.551 408.85 246.844 409.8 246.857 411.057V418H244.484V411.125C244.484 410.454 244.338 409.963 244.045 409.65C243.752 409.338 243.267 409.182 242.59 409.182C242.049 409.182 241.607 409.328 241.262 409.621C240.923 409.908 240.686 410.285 240.549 410.754L240.559 418H238.186V411.047C238.153 409.803 237.518 409.182 236.281 409.182C235.331 409.182 234.657 409.569 234.26 410.344V418H231.887V407.434H234.123ZM248.85 412.619C248.85 411.584 249.055 410.653 249.465 409.826C249.875 408.993 250.451 408.355 251.193 407.912C251.936 407.463 252.788 407.238 253.752 407.238C255.178 407.238 256.333 407.697 257.219 408.615C258.111 409.533 258.592 410.751 258.664 412.268L258.674 412.824C258.674 413.866 258.472 414.797 258.068 415.617C257.671 416.438 257.098 417.072 256.35 417.521C255.607 417.971 254.748 418.195 253.771 418.195C252.281 418.195 251.086 417.701 250.188 416.711C249.296 415.715 248.85 414.39 248.85 412.736V412.619ZM251.223 412.824C251.223 413.911 251.447 414.764 251.896 415.383C252.346 415.995 252.971 416.301 253.771 416.301C254.572 416.301 255.194 415.988 255.637 415.363C256.086 414.738 256.311 413.824 256.311 412.619C256.311 411.551 256.079 410.705 255.617 410.08C255.161 409.455 254.54 409.143 253.752 409.143C252.977 409.143 252.362 409.452 251.906 410.07C251.451 410.682 251.223 411.6 251.223 412.824ZM262.883 407.434L262.951 408.654C263.732 407.71 264.758 407.238 266.027 407.238C268.228 407.238 269.348 408.498 269.387 411.018V418H267.014V411.154C267.014 410.484 266.867 409.989 266.574 409.67C266.288 409.344 265.816 409.182 265.158 409.182C264.201 409.182 263.488 409.615 263.02 410.48V418H260.646V407.434H262.883ZM274.787 404.865V407.434H276.652V409.191H274.787V415.09C274.787 415.493 274.865 415.786 275.021 415.969C275.184 416.145 275.471 416.232 275.881 416.232C276.154 416.232 276.431 416.2 276.711 416.135V417.971C276.171 418.12 275.65 418.195 275.148 418.195C273.326 418.195 272.414 417.189 272.414 415.178V409.191H270.676V407.434H272.414V404.865H274.787ZM280.812 408.586C281.587 407.688 282.567 407.238 283.752 407.238C286.005 407.238 287.147 408.524 287.18 411.096V418H284.807V411.184C284.807 410.454 284.647 409.94 284.328 409.641C284.016 409.335 283.553 409.182 282.941 409.182C281.991 409.182 281.281 409.605 280.812 410.451V418H278.439V403H280.812V408.586ZM48.7715 435.619C48.7715 434.584 48.9766 433.653 49.3867 432.826C49.7969 431.993 50.373 431.355 51.1152 430.912C51.8574 430.463 52.7103 430.238 53.6738 430.238C55.0996 430.238 56.2552 430.697 57.1406 431.615C58.0326 432.533 58.5143 433.751 58.5859 435.268L58.5957 435.824C58.5957 436.866 58.3939 437.797 57.9902 438.617C57.5931 439.438 57.0202 440.072 56.2715 440.521C55.5293 440.971 54.6699 441.195 53.6934 441.195C52.2025 441.195 51.0078 440.701 50.1094 439.711C49.2174 438.715 48.7715 437.39 48.7715 435.736V435.619ZM51.1445 435.824C51.1445 436.911 51.3691 437.764 51.8184 438.383C52.2676 438.995 52.8926 439.301 53.6934 439.301C54.4941 439.301 55.1159 438.988 55.5586 438.363C56.0078 437.738 56.2324 436.824 56.2324 435.619C56.2324 434.551 56.0013 433.705 55.5391 433.08C55.0833 432.455 54.4616 432.143 53.6738 432.143C52.8991 432.143 52.2839 432.452 51.8281 433.07C51.3724 433.682 51.1445 434.6 51.1445 435.824ZM62.8047 430.434L62.873 431.654C63.6543 430.71 64.6797 430.238 65.9492 430.238C68.1497 430.238 69.2695 431.498 69.3086 434.018V441H66.9355V434.154C66.9355 433.484 66.7891 432.989 66.4961 432.67C66.2096 432.344 65.7376 432.182 65.0801 432.182C64.123 432.182 63.4102 432.615 62.9414 433.48V441H60.5684V430.434H62.8047ZM83.0293 441C82.9251 440.798 82.834 440.469 82.7559 440.014C82.0007 440.801 81.0762 441.195 79.9824 441.195C78.9212 441.195 78.0553 440.893 77.3848 440.287C76.7142 439.682 76.3789 438.933 76.3789 438.041C76.3789 436.915 76.7956 436.052 77.6289 435.453C78.4688 434.848 79.6667 434.545 81.2227 434.545H82.6777V433.852C82.6777 433.305 82.5247 432.868 82.2188 432.543C81.9128 432.211 81.4473 432.045 80.8223 432.045C80.2819 432.045 79.8392 432.182 79.4941 432.455C79.1491 432.722 78.9766 433.064 78.9766 433.48H76.6035C76.6035 432.901 76.7956 432.361 77.1797 431.859C77.5638 431.352 78.0846 430.954 78.7422 430.668C79.4062 430.382 80.1452 430.238 80.959 430.238C82.196 430.238 83.1823 430.551 83.918 431.176C84.6536 431.794 85.0312 432.667 85.0508 433.793V438.559C85.0508 439.509 85.1842 440.268 85.4512 440.834V441H83.0293ZM80.4219 439.291C80.8906 439.291 81.3301 439.177 81.7402 438.949C82.1569 438.721 82.4694 438.415 82.6777 438.031V436.039H81.3984C80.5195 436.039 79.8587 436.192 79.416 436.498C78.9733 436.804 78.752 437.237 78.752 437.797C78.752 438.253 78.9017 438.617 79.2012 438.891C79.5072 439.158 79.9141 439.291 80.4219 439.291ZM91.1055 437.992L93.3418 430.434H95.793L92.1309 441H90.0703L86.3789 430.434H88.8398L91.1055 437.992ZM103.439 441C103.335 440.798 103.244 440.469 103.166 440.014C102.411 440.801 101.486 441.195 100.393 441.195C99.3314 441.195 98.4655 440.893 97.7949 440.287C97.1243 439.682 96.7891 438.933 96.7891 438.041C96.7891 436.915 97.2057 436.052 98.0391 435.453C98.8789 434.848 100.077 434.545 101.633 434.545H103.088V433.852C103.088 433.305 102.935 432.868 102.629 432.543C102.323 432.211 101.857 432.045 101.232 432.045C100.692 432.045 100.249 432.182 99.9043 432.455C99.5592 432.722 99.3867 433.064 99.3867 433.48H97.0137C97.0137 432.901 97.2057 432.361 97.5898 431.859C97.974 431.352 98.4948 430.954 99.1523 430.668C99.8164 430.382 100.555 430.238 101.369 430.238C102.606 430.238 103.592 430.551 104.328 431.176C105.064 431.794 105.441 432.667 105.461 433.793V438.559C105.461 439.509 105.594 440.268 105.861 440.834V441H103.439ZM100.832 439.291C101.301 439.291 101.74 439.177 102.15 438.949C102.567 438.721 102.88 438.415 103.088 438.031V436.039H101.809C100.93 436.039 100.269 436.192 99.8262 436.498C99.3835 436.804 99.1621 437.237 99.1621 437.797C99.1621 438.253 99.3118 438.617 99.6113 438.891C99.9173 439.158 100.324 439.291 100.832 439.291ZM113.479 432.602C113.166 432.549 112.844 432.523 112.512 432.523C111.424 432.523 110.692 432.94 110.314 433.773V441H107.941V430.434H110.207L110.266 431.615C110.839 430.697 111.633 430.238 112.648 430.238C112.987 430.238 113.267 430.284 113.488 430.375L113.479 432.602ZM120.998 441C120.894 440.798 120.803 440.469 120.725 440.014C119.969 440.801 119.045 441.195 117.951 441.195C116.89 441.195 116.024 440.893 115.354 440.287C114.683 439.682 114.348 438.933 114.348 438.041C114.348 436.915 114.764 436.052 115.598 435.453C116.438 434.848 117.635 434.545 119.191 434.545H120.646V433.852C120.646 433.305 120.493 432.868 120.188 432.543C119.882 432.211 119.416 432.045 118.791 432.045C118.251 432.045 117.808 432.182 117.463 432.455C117.118 432.722 116.945 433.064 116.945 433.48H114.572C114.572 432.901 114.764 432.361 115.148 431.859C115.533 431.352 116.053 430.954 116.711 430.668C117.375 430.382 118.114 430.238 118.928 430.238C120.165 430.238 121.151 430.551 121.887 431.176C122.622 431.794 123 432.667 123.02 433.793V438.559C123.02 439.509 123.153 440.268 123.42 440.834V441H120.998ZM118.391 439.291C118.859 439.291 119.299 439.177 119.709 438.949C120.126 438.721 120.438 438.415 120.646 438.031V436.039H119.367C118.488 436.039 117.827 436.192 117.385 436.498C116.942 436.804 116.721 437.237 116.721 437.797C116.721 438.253 116.87 438.617 117.17 438.891C117.476 439.158 117.883 439.291 118.391 439.291ZM125.09 435.639C125.09 433.998 125.474 432.689 126.242 431.713C127.017 430.73 128.042 430.238 129.318 430.238C130.523 430.238 131.47 430.658 132.16 431.498L132.268 430.434H134.406V440.678C134.406 442.064 133.973 443.158 133.107 443.959C132.248 444.76 131.086 445.16 129.621 445.16C128.846 445.16 128.088 444.997 127.346 444.672C126.61 444.353 126.05 443.933 125.666 443.412L126.789 441.986C127.518 442.852 128.417 443.285 129.484 443.285C130.272 443.285 130.894 443.07 131.35 442.641C131.805 442.217 132.033 441.592 132.033 440.766V440.053C131.35 440.814 130.438 441.195 129.299 441.195C128.062 441.195 127.049 440.704 126.262 439.721C125.48 438.738 125.09 437.377 125.09 435.639ZM127.453 435.844C127.453 436.905 127.668 437.742 128.098 438.354C128.534 438.959 129.136 439.262 129.904 439.262C130.861 439.262 131.571 438.852 132.033 438.031V433.383C131.584 432.582 130.881 432.182 129.924 432.182C129.143 432.182 128.534 432.491 128.098 433.109C127.668 433.728 127.453 434.639 127.453 435.844ZM141.506 441.195C140.002 441.195 138.781 440.723 137.844 439.779C136.913 438.829 136.447 437.566 136.447 435.99V435.697C136.447 434.643 136.649 433.702 137.053 432.875C137.463 432.042 138.036 431.394 138.771 430.932C139.507 430.469 140.327 430.238 141.232 430.238C142.671 430.238 143.781 430.697 144.562 431.615C145.35 432.533 145.744 433.832 145.744 435.512V436.469H138.84C138.911 437.341 139.201 438.031 139.709 438.539C140.223 439.047 140.868 439.301 141.643 439.301C142.73 439.301 143.615 438.861 144.299 437.982L145.578 439.203C145.155 439.835 144.589 440.326 143.879 440.678C143.176 441.023 142.385 441.195 141.506 441.195ZM141.223 432.143C140.572 432.143 140.044 432.37 139.641 432.826C139.243 433.282 138.99 433.917 138.879 434.73H143.4V434.555C143.348 433.76 143.137 433.161 142.766 432.758C142.395 432.348 141.88 432.143 141.223 432.143Z" fill="black"/>
</g>
<defs>
<filter id="filter0_dd" x="-4" y="-4" width="368" height="68" filterUnits="userSpaceOnUse" color-interpolation-filters="sRGB">
<feFlood flood-opacity="0" result="BackgroundImageFix"/>
<feColorMatrix in="SourceAlpha" type="matrix" values="0 0 0 0 0 0 0 0 0 0 0 0 0 0 0 0 0 0 127 0"/>
<feOffset dy="4"/>
<feGaussianBlur stdDeviation="2"/>
<feColorMatrix type="matrix" values="0 0 0 0 0 0 0 0 0 0 0 0 0 0 0 0 0 0 0.24 0"/>
<feBlend mode="normal" in2="BackgroundImageFix" result="effect1_dropShadow"/>
<feColorMatrix in="SourceAlpha" type="matrix" values="0 0 0 0 0 0 0 0 0 0 0 0 0 0 0 0 0 0 127 0"/>
<feOffset/>
<feGaussianBlur stdDeviation="2"/>
<feColorMatrix type="matrix" values="0 0 0 0 0 0 0 0 0 0 0 0 0 0 0 0 0 0 0.12 0"/>
<feBlend mode="normal" in2="effect1_dropShadow" result="effect2_dropShadow"/>
<feBlend mode="normal" in="SourceGraphic" in2="effect2_dropShadow" result="shape"/>
</filter>
<clipPath id="clip0">
<rect width="360" height="640" fill="white"/>
</clipPath>
</defs>
</svg>
